M48
; DRILL file {KiCad (5.1.2-1)-1} date Thursday, March 19, 2020 at 05:13:45 PM
; FORMAT={-:-/ absolute / metric / decimal}
; #@! TF.CreationDate,2020-03-19T17:13:45+05:30
; #@! TF.GenerationSoftware,Kicad,Pcbnew,(5.1.2-1)-1
FMAT,2
METRIC
T1C0.300
T2C0.508
T3C1.000
T4C1.016
%
G90
G05
T1
X18.0Y-31.35
X18.0Y-32.384
X21.75Y-30.25
X21.75Y-33.0
X26.408Y-23.333
X26.408Y-25.746
X26.408Y-28.286
X26.535Y-20.793
X28.567Y-23.206
X31.234Y-31.426
X31.996Y-31.842
X35.044Y-20.51
X35.044Y-22.571
X36.287Y-31.363
X37.584Y-31.08
X43.5Y-24.0
X43.553Y-30.318
X46.474Y-37.049
X48.887Y-31.334
X48.887Y-33.366
X49.395Y-30.699
X49.395Y-34.001
X49.421Y-38.293
X49.5Y-41.0
X51.347Y-39.542
X51.432Y-33.117
X51.787Y-26.402
X52.062Y-33.493
X52.579Y-31.969
X53.058Y-31.08
X54.729Y-39.208
X54.817Y-34.929
X55.11Y-24.984
X55.745Y-26.508
X56.126Y-38.573
X56.253Y-27.143
X56.38Y-37.684
X56.761Y-27.778
X56.846Y-23.248
X57.269Y-28.286
X57.523Y-23.206
X57.587Y-32.35
X57.904Y-28.921
X57.904Y-22.444
X61.46Y-38.446
X61.5Y-40.5
X63.492Y-38.446
X63.5Y-40.5
T2
X17.645Y-14.062
X17.645Y-20.285
X19.423Y-28.39
X19.423Y-34.913
X24.351Y-23.282
X24.376Y-25.746
X24.376Y-28.286
X24.427Y-20.793
X25.75Y-36.5
X28.0Y-36.5
X28.567Y-20.793
X29.583Y-30.191
X30.25Y-34.25
X31.234Y-20.285
X31.234Y-22.317
X36.25Y-36.5
X38.6Y-31.819
X38.6Y-34.255
X38.6Y-40.732
X40.886Y-34.382
X43.5Y-26.0
X43.68Y-43.526
X45.831Y-38.073
X46.347Y-28.286
X49.118Y-28.743
X53.2Y-23.15
X53.713Y-35.888
X54.729Y-31.715
X56.2Y-21.65
X58.666Y-38.954
X66.0Y-38.5
X69.0Y-40.75
T3
X66.54Y-29.81
X66.54Y-32.35
X66.54Y-34.89
X69.08Y-29.81
X69.08Y-32.35
X69.08Y-34.89
X14.6Y-38.75
X14.6Y-41.29
X30.98Y-47.59
X33.52Y-47.59
X36.06Y-47.59
X38.6Y-47.59
X41.14Y-47.59
X43.68Y-47.59
X46.22Y-47.59
X48.76Y-47.59
X20.82Y-17.11
X23.36Y-17.11
X25.9Y-17.11
X28.44Y-17.11
X30.98Y-17.11
X33.52Y-17.11
X36.06Y-17.11
X38.6Y-17.11
X41.14Y-17.11
X43.68Y-17.11
X48.76Y-17.11
X51.3Y-17.11
X53.84Y-17.11
X56.38Y-17.11
X58.92Y-17.11
X61.46Y-17.11
X64.0Y-17.11
X66.54Y-17.11
X53.84Y-47.59
X56.38Y-47.59
X58.92Y-47.59
X61.46Y-47.59
X64.0Y-47.59
X66.54Y-47.59
T4
G00X14.319Y-27.27
M15
G01X13.761Y-27.27
M16
G05
G00X14.319Y-35.906
M15
G01X13.761Y-35.906
M16
G05
G00X18.739Y-27.27
M15
G01X17.977Y-27.27
M16
G05
G00X18.739Y-35.906
M15
G01X17.977Y-35.906
M16
G05
T0
M30
