%TF.GenerationSoftware,KiCad,Pcbnew,(5.1.2-1)-1*%
%TF.CreationDate,2020-03-19T17:13:43+05:30*%
%TF.ProjectId,Uno rev1.1,556e6f20-7265-4763-912e-312e6b696361,rev?*%
%TF.SameCoordinates,Original*%
%TF.FileFunction,Soldermask,Top*%
%TF.FilePolarity,Negative*%
%FSLAX46Y46*%
G04 Gerber Fmt 4.6, Leading zero omitted, Abs format (unit mm)*
G04 Created by KiCad (PCBNEW (5.1.2-1)-1) date 2020-03-19 17:13:43*
%MOMM*%
%LPD*%
G04 APERTURE LIST*
%ADD10C,0.203200*%
%ADD11C,0.100000*%
G04 APERTURE END LIST*
D10*
X15419306Y-46740589D02*
X15846938Y-46312957D01*
X15558286Y-47114766D02*
X15071856Y-45805145D01*
X16156970Y-46516082D01*
X16253187Y-45564603D02*
X16627365Y-46045688D01*
X15542250Y-45334751D02*
X16253187Y-45564603D01*
X16140934Y-44736067D01*
X16814453Y-44917810D02*
X17113795Y-44618469D01*
X17653680Y-45019373D02*
X17226048Y-45447004D01*
X16440276Y-44436725D01*
X16867907Y-44009094D01*
X17626953Y-44105311D02*
X17926294Y-43805969D01*
X18466179Y-44206873D02*
X18038548Y-44634505D01*
X17252775Y-43624226D01*
X17680406Y-43196595D01*
X18851047Y-43822005D02*
X18065275Y-42811727D01*
X18279090Y-42597911D01*
X18444797Y-42517730D01*
X18605159Y-42528421D01*
X18722758Y-42581875D01*
X18915192Y-42731546D01*
X19027445Y-42875871D01*
X19134353Y-43111068D01*
X19166425Y-43250049D01*
X19155734Y-43431792D01*
X19064863Y-43608190D01*
X18851047Y-43822005D01*
X18963300Y-41913701D02*
X19599402Y-42731546D01*
X19717000Y-42785000D01*
X19797181Y-42790345D01*
X19920125Y-42752927D01*
X20091178Y-42581875D01*
X20139286Y-42448240D01*
X20144632Y-42357368D01*
X20112559Y-42218388D01*
X19476458Y-41400543D01*
X20689861Y-41983191D02*
X19904089Y-40972912D01*
X21117493Y-41555560D02*
X20331720Y-40545281D01*
X21630650Y-41042402D01*
X20844878Y-40032123D01*
X21443561Y-39433440D02*
X21614614Y-39262387D01*
X21737558Y-39224969D01*
X21897920Y-39235660D01*
X22090354Y-39385331D01*
X22352278Y-39722091D01*
X22459186Y-39957288D01*
X22448495Y-40139031D01*
X22400386Y-40272666D01*
X22229334Y-40443719D01*
X22106390Y-40481136D01*
X21946028Y-40470445D01*
X21753594Y-40320775D01*
X21491670Y-39984015D01*
X21384762Y-39748818D01*
X21395453Y-39567074D01*
X21443561Y-39433440D01*
X17081082Y-47718154D02*
X17000901Y-47712809D01*
X16877957Y-47750226D01*
X16792431Y-47835753D01*
X16744322Y-47969387D01*
X16738977Y-48060259D01*
X16771049Y-48199239D01*
X16845885Y-48295456D01*
X16963483Y-48348910D01*
X17043664Y-48354256D01*
X17166608Y-48316838D01*
X17252134Y-48231312D01*
X17300243Y-48097677D01*
X17305588Y-48006805D01*
X17006246Y-47621937D02*
X17305588Y-48006805D01*
X17385769Y-48012151D01*
X17428532Y-47969387D01*
X17476641Y-47835753D01*
X17444568Y-47696773D01*
X17257480Y-47456230D01*
X17059700Y-47397431D01*
X16856575Y-47429503D01*
X16648105Y-47552447D01*
X16514470Y-47771608D01*
X16461016Y-47996114D01*
X16487743Y-48225966D01*
X16594651Y-48461163D01*
X16787085Y-48610834D01*
X16984865Y-48669634D01*
X17187990Y-48637561D01*
X17396460Y-48514617D01*
X17530095Y-48295456D01*
X17583549Y-48070950D01*
X17786673Y-47354668D02*
X18214305Y-46927036D01*
X17925654Y-47728845D02*
X17439223Y-46419224D01*
X18524337Y-47130161D01*
X18620554Y-46178682D02*
X18994732Y-46659767D01*
X17909617Y-45948830D02*
X18620554Y-46178682D01*
X18508301Y-45350146D01*
X19181820Y-45531889D02*
X19481162Y-45232547D01*
X20021047Y-45633452D02*
X19593415Y-46061083D01*
X18807643Y-45050804D01*
X19235274Y-44623173D01*
X19994320Y-44719390D02*
X20293662Y-44420048D01*
X20833546Y-44820952D02*
X20405915Y-45248584D01*
X19620142Y-44238305D01*
X20047774Y-43810674D01*
X21218414Y-44436084D02*
X20432642Y-43425805D01*
X20646457Y-43211990D01*
X20812164Y-43131809D01*
X20972526Y-43142500D01*
X21090125Y-43195954D01*
X21282559Y-43345625D01*
X21394812Y-43489950D01*
X21501720Y-43725147D01*
X21533792Y-43864127D01*
X21523101Y-44045871D01*
X21432230Y-44222269D01*
X21218414Y-44436084D01*
X22116440Y-43538059D02*
X21330667Y-42527780D01*
X21630009Y-42228438D02*
X22143167Y-41715280D01*
X22672360Y-42982138D02*
X21886588Y-41971859D01*
X23025156Y-41774080D02*
X23399333Y-42255165D01*
X22314219Y-41544228D02*
X23025156Y-41774080D01*
X22912903Y-40945544D01*
X23730748Y-41410593D02*
X24158379Y-40982962D01*
X23869728Y-41784771D02*
X23383297Y-40475150D01*
X24468412Y-41186087D01*
X20250257Y-48385687D02*
X19576738Y-48203944D01*
X19737100Y-48898844D02*
X18951328Y-47888566D01*
X19293433Y-47546461D01*
X19416377Y-47509043D01*
X19496557Y-47514388D01*
X19614156Y-47567842D01*
X19726409Y-47712168D01*
X19758481Y-47851148D01*
X19753136Y-47942020D01*
X19705028Y-48075654D01*
X19362923Y-48417759D01*
X20939813Y-47610605D02*
X20891704Y-47744240D01*
X20720652Y-47915293D01*
X20597708Y-47952710D01*
X20480109Y-47899256D01*
X20180767Y-47514388D01*
X20148695Y-47375408D01*
X20196804Y-47241773D01*
X20367856Y-47070721D01*
X20490800Y-47033303D01*
X20608399Y-47086757D01*
X20683234Y-47182974D01*
X20330438Y-47706822D01*
X20795487Y-46643090D02*
X21533151Y-47102793D01*
X21223119Y-46215458D01*
X22019582Y-44991364D02*
X22024927Y-44900492D01*
X22073036Y-44766858D01*
X22286851Y-44553042D01*
X22409795Y-44515624D01*
X22489976Y-44520970D01*
X22607575Y-44574423D01*
X22682410Y-44670641D01*
X22751900Y-44857729D01*
X22687756Y-45948189D01*
X23243676Y-45392268D01*
X23553709Y-44911183D02*
X23633890Y-44916528D01*
X23628544Y-45007400D01*
X23548363Y-45002055D01*
X23553709Y-44911183D01*
X23628544Y-45007400D01*
X23441456Y-43398438D02*
X23526982Y-43312911D01*
X23649926Y-43275494D01*
X23730107Y-43280839D01*
X23847705Y-43334293D01*
X24040139Y-43483964D01*
X24227228Y-43724506D01*
X24334136Y-43959704D01*
X24366208Y-44098684D01*
X24360863Y-44189555D01*
X24312754Y-44323190D01*
X24227228Y-44408716D01*
X24104284Y-44446134D01*
X24024103Y-44440789D01*
X23906505Y-44387335D01*
X23714071Y-44237664D01*
X23526982Y-43997121D01*
X23420074Y-43761924D01*
X23388002Y-43622944D01*
X23393347Y-43532072D01*
X23441456Y-43398438D01*
D11*
G36*
X66653512Y-46693927D02*
G01*
X66802812Y-46723624D01*
X66966784Y-46791544D01*
X67114354Y-46890147D01*
X67239853Y-47015646D01*
X67338456Y-47163216D01*
X67406376Y-47327188D01*
X67441000Y-47501259D01*
X67441000Y-47678741D01*
X67406376Y-47852812D01*
X67338456Y-48016784D01*
X67239853Y-48164354D01*
X67114354Y-48289853D01*
X66966784Y-48388456D01*
X66802812Y-48456376D01*
X66653512Y-48486073D01*
X66628742Y-48491000D01*
X66451258Y-48491000D01*
X66426488Y-48486073D01*
X66277188Y-48456376D01*
X66113216Y-48388456D01*
X65965646Y-48289853D01*
X65840147Y-48164354D01*
X65741544Y-48016784D01*
X65673624Y-47852812D01*
X65639000Y-47678741D01*
X65639000Y-47501259D01*
X65673624Y-47327188D01*
X65741544Y-47163216D01*
X65840147Y-47015646D01*
X65965646Y-46890147D01*
X66113216Y-46791544D01*
X66277188Y-46723624D01*
X66426488Y-46693927D01*
X66451258Y-46689000D01*
X66628742Y-46689000D01*
X66653512Y-46693927D01*
X66653512Y-46693927D01*
G37*
G36*
X64110443Y-46695519D02*
G01*
X64176627Y-46702037D01*
X64346466Y-46753557D01*
X64502991Y-46837222D01*
X64538729Y-46866552D01*
X64640186Y-46949814D01*
X64723448Y-47051271D01*
X64752778Y-47087009D01*
X64836443Y-47243534D01*
X64887963Y-47413373D01*
X64905359Y-47590000D01*
X64887963Y-47766627D01*
X64836443Y-47936466D01*
X64752778Y-48092991D01*
X64723448Y-48128729D01*
X64640186Y-48230186D01*
X64567480Y-48289853D01*
X64502991Y-48342778D01*
X64346466Y-48426443D01*
X64176627Y-48477963D01*
X64110443Y-48484481D01*
X64044260Y-48491000D01*
X63955740Y-48491000D01*
X63889557Y-48484481D01*
X63823373Y-48477963D01*
X63653534Y-48426443D01*
X63497009Y-48342778D01*
X63432520Y-48289853D01*
X63359814Y-48230186D01*
X63276552Y-48128729D01*
X63247222Y-48092991D01*
X63163557Y-47936466D01*
X63112037Y-47766627D01*
X63094641Y-47590000D01*
X63112037Y-47413373D01*
X63163557Y-47243534D01*
X63247222Y-47087009D01*
X63276552Y-47051271D01*
X63359814Y-46949814D01*
X63461271Y-46866552D01*
X63497009Y-46837222D01*
X63653534Y-46753557D01*
X63823373Y-46702037D01*
X63889557Y-46695519D01*
X63955740Y-46689000D01*
X64044260Y-46689000D01*
X64110443Y-46695519D01*
X64110443Y-46695519D01*
G37*
G36*
X61570443Y-46695519D02*
G01*
X61636627Y-46702037D01*
X61806466Y-46753557D01*
X61962991Y-46837222D01*
X61998729Y-46866552D01*
X62100186Y-46949814D01*
X62183448Y-47051271D01*
X62212778Y-47087009D01*
X62296443Y-47243534D01*
X62347963Y-47413373D01*
X62365359Y-47590000D01*
X62347963Y-47766627D01*
X62296443Y-47936466D01*
X62212778Y-48092991D01*
X62183448Y-48128729D01*
X62100186Y-48230186D01*
X62027480Y-48289853D01*
X61962991Y-48342778D01*
X61806466Y-48426443D01*
X61636627Y-48477963D01*
X61570443Y-48484481D01*
X61504260Y-48491000D01*
X61415740Y-48491000D01*
X61349557Y-48484481D01*
X61283373Y-48477963D01*
X61113534Y-48426443D01*
X60957009Y-48342778D01*
X60892520Y-48289853D01*
X60819814Y-48230186D01*
X60736552Y-48128729D01*
X60707222Y-48092991D01*
X60623557Y-47936466D01*
X60572037Y-47766627D01*
X60554641Y-47590000D01*
X60572037Y-47413373D01*
X60623557Y-47243534D01*
X60707222Y-47087009D01*
X60736552Y-47051271D01*
X60819814Y-46949814D01*
X60921271Y-46866552D01*
X60957009Y-46837222D01*
X61113534Y-46753557D01*
X61283373Y-46702037D01*
X61349557Y-46695519D01*
X61415740Y-46689000D01*
X61504260Y-46689000D01*
X61570443Y-46695519D01*
X61570443Y-46695519D01*
G37*
G36*
X59030443Y-46695519D02*
G01*
X59096627Y-46702037D01*
X59266466Y-46753557D01*
X59422991Y-46837222D01*
X59458729Y-46866552D01*
X59560186Y-46949814D01*
X59643448Y-47051271D01*
X59672778Y-47087009D01*
X59756443Y-47243534D01*
X59807963Y-47413373D01*
X59825359Y-47590000D01*
X59807963Y-47766627D01*
X59756443Y-47936466D01*
X59672778Y-48092991D01*
X59643448Y-48128729D01*
X59560186Y-48230186D01*
X59487480Y-48289853D01*
X59422991Y-48342778D01*
X59266466Y-48426443D01*
X59096627Y-48477963D01*
X59030443Y-48484481D01*
X58964260Y-48491000D01*
X58875740Y-48491000D01*
X58809557Y-48484481D01*
X58743373Y-48477963D01*
X58573534Y-48426443D01*
X58417009Y-48342778D01*
X58352520Y-48289853D01*
X58279814Y-48230186D01*
X58196552Y-48128729D01*
X58167222Y-48092991D01*
X58083557Y-47936466D01*
X58032037Y-47766627D01*
X58014641Y-47590000D01*
X58032037Y-47413373D01*
X58083557Y-47243534D01*
X58167222Y-47087009D01*
X58196552Y-47051271D01*
X58279814Y-46949814D01*
X58381271Y-46866552D01*
X58417009Y-46837222D01*
X58573534Y-46753557D01*
X58743373Y-46702037D01*
X58809557Y-46695519D01*
X58875740Y-46689000D01*
X58964260Y-46689000D01*
X59030443Y-46695519D01*
X59030443Y-46695519D01*
G37*
G36*
X56490443Y-46695519D02*
G01*
X56556627Y-46702037D01*
X56726466Y-46753557D01*
X56882991Y-46837222D01*
X56918729Y-46866552D01*
X57020186Y-46949814D01*
X57103448Y-47051271D01*
X57132778Y-47087009D01*
X57216443Y-47243534D01*
X57267963Y-47413373D01*
X57285359Y-47590000D01*
X57267963Y-47766627D01*
X57216443Y-47936466D01*
X57132778Y-48092991D01*
X57103448Y-48128729D01*
X57020186Y-48230186D01*
X56947480Y-48289853D01*
X56882991Y-48342778D01*
X56726466Y-48426443D01*
X56556627Y-48477963D01*
X56490443Y-48484481D01*
X56424260Y-48491000D01*
X56335740Y-48491000D01*
X56269557Y-48484481D01*
X56203373Y-48477963D01*
X56033534Y-48426443D01*
X55877009Y-48342778D01*
X55812520Y-48289853D01*
X55739814Y-48230186D01*
X55656552Y-48128729D01*
X55627222Y-48092991D01*
X55543557Y-47936466D01*
X55492037Y-47766627D01*
X55474641Y-47590000D01*
X55492037Y-47413373D01*
X55543557Y-47243534D01*
X55627222Y-47087009D01*
X55656552Y-47051271D01*
X55739814Y-46949814D01*
X55841271Y-46866552D01*
X55877009Y-46837222D01*
X56033534Y-46753557D01*
X56203373Y-46702037D01*
X56269557Y-46695519D01*
X56335740Y-46689000D01*
X56424260Y-46689000D01*
X56490443Y-46695519D01*
X56490443Y-46695519D01*
G37*
G36*
X53950443Y-46695519D02*
G01*
X54016627Y-46702037D01*
X54186466Y-46753557D01*
X54342991Y-46837222D01*
X54378729Y-46866552D01*
X54480186Y-46949814D01*
X54563448Y-47051271D01*
X54592778Y-47087009D01*
X54676443Y-47243534D01*
X54727963Y-47413373D01*
X54745359Y-47590000D01*
X54727963Y-47766627D01*
X54676443Y-47936466D01*
X54592778Y-48092991D01*
X54563448Y-48128729D01*
X54480186Y-48230186D01*
X54407480Y-48289853D01*
X54342991Y-48342778D01*
X54186466Y-48426443D01*
X54016627Y-48477963D01*
X53950443Y-48484481D01*
X53884260Y-48491000D01*
X53795740Y-48491000D01*
X53729557Y-48484481D01*
X53663373Y-48477963D01*
X53493534Y-48426443D01*
X53337009Y-48342778D01*
X53272520Y-48289853D01*
X53199814Y-48230186D01*
X53116552Y-48128729D01*
X53087222Y-48092991D01*
X53003557Y-47936466D01*
X52952037Y-47766627D01*
X52934641Y-47590000D01*
X52952037Y-47413373D01*
X53003557Y-47243534D01*
X53087222Y-47087009D01*
X53116552Y-47051271D01*
X53199814Y-46949814D01*
X53301271Y-46866552D01*
X53337009Y-46837222D01*
X53493534Y-46753557D01*
X53663373Y-46702037D01*
X53729557Y-46695519D01*
X53795740Y-46689000D01*
X53884260Y-46689000D01*
X53950443Y-46695519D01*
X53950443Y-46695519D01*
G37*
G36*
X48873512Y-46693927D02*
G01*
X49022812Y-46723624D01*
X49186784Y-46791544D01*
X49334354Y-46890147D01*
X49459853Y-47015646D01*
X49558456Y-47163216D01*
X49626376Y-47327188D01*
X49661000Y-47501259D01*
X49661000Y-47678741D01*
X49626376Y-47852812D01*
X49558456Y-48016784D01*
X49459853Y-48164354D01*
X49334354Y-48289853D01*
X49186784Y-48388456D01*
X49022812Y-48456376D01*
X48873512Y-48486073D01*
X48848742Y-48491000D01*
X48671258Y-48491000D01*
X48646488Y-48486073D01*
X48497188Y-48456376D01*
X48333216Y-48388456D01*
X48185646Y-48289853D01*
X48060147Y-48164354D01*
X47961544Y-48016784D01*
X47893624Y-47852812D01*
X47859000Y-47678741D01*
X47859000Y-47501259D01*
X47893624Y-47327188D01*
X47961544Y-47163216D01*
X48060147Y-47015646D01*
X48185646Y-46890147D01*
X48333216Y-46791544D01*
X48497188Y-46723624D01*
X48646488Y-46693927D01*
X48671258Y-46689000D01*
X48848742Y-46689000D01*
X48873512Y-46693927D01*
X48873512Y-46693927D01*
G37*
G36*
X46330443Y-46695519D02*
G01*
X46396627Y-46702037D01*
X46566466Y-46753557D01*
X46722991Y-46837222D01*
X46758729Y-46866552D01*
X46860186Y-46949814D01*
X46943448Y-47051271D01*
X46972778Y-47087009D01*
X47056443Y-47243534D01*
X47107963Y-47413373D01*
X47125359Y-47590000D01*
X47107963Y-47766627D01*
X47056443Y-47936466D01*
X46972778Y-48092991D01*
X46943448Y-48128729D01*
X46860186Y-48230186D01*
X46787480Y-48289853D01*
X46722991Y-48342778D01*
X46566466Y-48426443D01*
X46396627Y-48477963D01*
X46330443Y-48484481D01*
X46264260Y-48491000D01*
X46175740Y-48491000D01*
X46109557Y-48484481D01*
X46043373Y-48477963D01*
X45873534Y-48426443D01*
X45717009Y-48342778D01*
X45652520Y-48289853D01*
X45579814Y-48230186D01*
X45496552Y-48128729D01*
X45467222Y-48092991D01*
X45383557Y-47936466D01*
X45332037Y-47766627D01*
X45314641Y-47590000D01*
X45332037Y-47413373D01*
X45383557Y-47243534D01*
X45467222Y-47087009D01*
X45496552Y-47051271D01*
X45579814Y-46949814D01*
X45681271Y-46866552D01*
X45717009Y-46837222D01*
X45873534Y-46753557D01*
X46043373Y-46702037D01*
X46109557Y-46695519D01*
X46175740Y-46689000D01*
X46264260Y-46689000D01*
X46330443Y-46695519D01*
X46330443Y-46695519D01*
G37*
G36*
X43790443Y-46695519D02*
G01*
X43856627Y-46702037D01*
X44026466Y-46753557D01*
X44182991Y-46837222D01*
X44218729Y-46866552D01*
X44320186Y-46949814D01*
X44403448Y-47051271D01*
X44432778Y-47087009D01*
X44516443Y-47243534D01*
X44567963Y-47413373D01*
X44585359Y-47590000D01*
X44567963Y-47766627D01*
X44516443Y-47936466D01*
X44432778Y-48092991D01*
X44403448Y-48128729D01*
X44320186Y-48230186D01*
X44247480Y-48289853D01*
X44182991Y-48342778D01*
X44026466Y-48426443D01*
X43856627Y-48477963D01*
X43790443Y-48484481D01*
X43724260Y-48491000D01*
X43635740Y-48491000D01*
X43569557Y-48484481D01*
X43503373Y-48477963D01*
X43333534Y-48426443D01*
X43177009Y-48342778D01*
X43112520Y-48289853D01*
X43039814Y-48230186D01*
X42956552Y-48128729D01*
X42927222Y-48092991D01*
X42843557Y-47936466D01*
X42792037Y-47766627D01*
X42774641Y-47590000D01*
X42792037Y-47413373D01*
X42843557Y-47243534D01*
X42927222Y-47087009D01*
X42956552Y-47051271D01*
X43039814Y-46949814D01*
X43141271Y-46866552D01*
X43177009Y-46837222D01*
X43333534Y-46753557D01*
X43503373Y-46702037D01*
X43569557Y-46695519D01*
X43635740Y-46689000D01*
X43724260Y-46689000D01*
X43790443Y-46695519D01*
X43790443Y-46695519D01*
G37*
G36*
X41250443Y-46695519D02*
G01*
X41316627Y-46702037D01*
X41486466Y-46753557D01*
X41642991Y-46837222D01*
X41678729Y-46866552D01*
X41780186Y-46949814D01*
X41863448Y-47051271D01*
X41892778Y-47087009D01*
X41976443Y-47243534D01*
X42027963Y-47413373D01*
X42045359Y-47590000D01*
X42027963Y-47766627D01*
X41976443Y-47936466D01*
X41892778Y-48092991D01*
X41863448Y-48128729D01*
X41780186Y-48230186D01*
X41707480Y-48289853D01*
X41642991Y-48342778D01*
X41486466Y-48426443D01*
X41316627Y-48477963D01*
X41250443Y-48484481D01*
X41184260Y-48491000D01*
X41095740Y-48491000D01*
X41029557Y-48484481D01*
X40963373Y-48477963D01*
X40793534Y-48426443D01*
X40637009Y-48342778D01*
X40572520Y-48289853D01*
X40499814Y-48230186D01*
X40416552Y-48128729D01*
X40387222Y-48092991D01*
X40303557Y-47936466D01*
X40252037Y-47766627D01*
X40234641Y-47590000D01*
X40252037Y-47413373D01*
X40303557Y-47243534D01*
X40387222Y-47087009D01*
X40416552Y-47051271D01*
X40499814Y-46949814D01*
X40601271Y-46866552D01*
X40637009Y-46837222D01*
X40793534Y-46753557D01*
X40963373Y-46702037D01*
X41029557Y-46695519D01*
X41095740Y-46689000D01*
X41184260Y-46689000D01*
X41250443Y-46695519D01*
X41250443Y-46695519D01*
G37*
G36*
X38710443Y-46695519D02*
G01*
X38776627Y-46702037D01*
X38946466Y-46753557D01*
X39102991Y-46837222D01*
X39138729Y-46866552D01*
X39240186Y-46949814D01*
X39323448Y-47051271D01*
X39352778Y-47087009D01*
X39436443Y-47243534D01*
X39487963Y-47413373D01*
X39505359Y-47590000D01*
X39487963Y-47766627D01*
X39436443Y-47936466D01*
X39352778Y-48092991D01*
X39323448Y-48128729D01*
X39240186Y-48230186D01*
X39167480Y-48289853D01*
X39102991Y-48342778D01*
X38946466Y-48426443D01*
X38776627Y-48477963D01*
X38710443Y-48484481D01*
X38644260Y-48491000D01*
X38555740Y-48491000D01*
X38489557Y-48484481D01*
X38423373Y-48477963D01*
X38253534Y-48426443D01*
X38097009Y-48342778D01*
X38032520Y-48289853D01*
X37959814Y-48230186D01*
X37876552Y-48128729D01*
X37847222Y-48092991D01*
X37763557Y-47936466D01*
X37712037Y-47766627D01*
X37694641Y-47590000D01*
X37712037Y-47413373D01*
X37763557Y-47243534D01*
X37847222Y-47087009D01*
X37876552Y-47051271D01*
X37959814Y-46949814D01*
X38061271Y-46866552D01*
X38097009Y-46837222D01*
X38253534Y-46753557D01*
X38423373Y-46702037D01*
X38489557Y-46695519D01*
X38555740Y-46689000D01*
X38644260Y-46689000D01*
X38710443Y-46695519D01*
X38710443Y-46695519D01*
G37*
G36*
X36170443Y-46695519D02*
G01*
X36236627Y-46702037D01*
X36406466Y-46753557D01*
X36562991Y-46837222D01*
X36598729Y-46866552D01*
X36700186Y-46949814D01*
X36783448Y-47051271D01*
X36812778Y-47087009D01*
X36896443Y-47243534D01*
X36947963Y-47413373D01*
X36965359Y-47590000D01*
X36947963Y-47766627D01*
X36896443Y-47936466D01*
X36812778Y-48092991D01*
X36783448Y-48128729D01*
X36700186Y-48230186D01*
X36627480Y-48289853D01*
X36562991Y-48342778D01*
X36406466Y-48426443D01*
X36236627Y-48477963D01*
X36170443Y-48484481D01*
X36104260Y-48491000D01*
X36015740Y-48491000D01*
X35949557Y-48484481D01*
X35883373Y-48477963D01*
X35713534Y-48426443D01*
X35557009Y-48342778D01*
X35492520Y-48289853D01*
X35419814Y-48230186D01*
X35336552Y-48128729D01*
X35307222Y-48092991D01*
X35223557Y-47936466D01*
X35172037Y-47766627D01*
X35154641Y-47590000D01*
X35172037Y-47413373D01*
X35223557Y-47243534D01*
X35307222Y-47087009D01*
X35336552Y-47051271D01*
X35419814Y-46949814D01*
X35521271Y-46866552D01*
X35557009Y-46837222D01*
X35713534Y-46753557D01*
X35883373Y-46702037D01*
X35949557Y-46695519D01*
X36015740Y-46689000D01*
X36104260Y-46689000D01*
X36170443Y-46695519D01*
X36170443Y-46695519D01*
G37*
G36*
X33630443Y-46695519D02*
G01*
X33696627Y-46702037D01*
X33866466Y-46753557D01*
X34022991Y-46837222D01*
X34058729Y-46866552D01*
X34160186Y-46949814D01*
X34243448Y-47051271D01*
X34272778Y-47087009D01*
X34356443Y-47243534D01*
X34407963Y-47413373D01*
X34425359Y-47590000D01*
X34407963Y-47766627D01*
X34356443Y-47936466D01*
X34272778Y-48092991D01*
X34243448Y-48128729D01*
X34160186Y-48230186D01*
X34087480Y-48289853D01*
X34022991Y-48342778D01*
X33866466Y-48426443D01*
X33696627Y-48477963D01*
X33630443Y-48484481D01*
X33564260Y-48491000D01*
X33475740Y-48491000D01*
X33409557Y-48484481D01*
X33343373Y-48477963D01*
X33173534Y-48426443D01*
X33017009Y-48342778D01*
X32952520Y-48289853D01*
X32879814Y-48230186D01*
X32796552Y-48128729D01*
X32767222Y-48092991D01*
X32683557Y-47936466D01*
X32632037Y-47766627D01*
X32614641Y-47590000D01*
X32632037Y-47413373D01*
X32683557Y-47243534D01*
X32767222Y-47087009D01*
X32796552Y-47051271D01*
X32879814Y-46949814D01*
X32981271Y-46866552D01*
X33017009Y-46837222D01*
X33173534Y-46753557D01*
X33343373Y-46702037D01*
X33409557Y-46695519D01*
X33475740Y-46689000D01*
X33564260Y-46689000D01*
X33630443Y-46695519D01*
X33630443Y-46695519D01*
G37*
G36*
X31090443Y-46695519D02*
G01*
X31156627Y-46702037D01*
X31326466Y-46753557D01*
X31482991Y-46837222D01*
X31518729Y-46866552D01*
X31620186Y-46949814D01*
X31703448Y-47051271D01*
X31732778Y-47087009D01*
X31816443Y-47243534D01*
X31867963Y-47413373D01*
X31885359Y-47590000D01*
X31867963Y-47766627D01*
X31816443Y-47936466D01*
X31732778Y-48092991D01*
X31703448Y-48128729D01*
X31620186Y-48230186D01*
X31547480Y-48289853D01*
X31482991Y-48342778D01*
X31326466Y-48426443D01*
X31156627Y-48477963D01*
X31090443Y-48484481D01*
X31024260Y-48491000D01*
X30935740Y-48491000D01*
X30869557Y-48484481D01*
X30803373Y-48477963D01*
X30633534Y-48426443D01*
X30477009Y-48342778D01*
X30412520Y-48289853D01*
X30339814Y-48230186D01*
X30256552Y-48128729D01*
X30227222Y-48092991D01*
X30143557Y-47936466D01*
X30092037Y-47766627D01*
X30074641Y-47590000D01*
X30092037Y-47413373D01*
X30143557Y-47243534D01*
X30227222Y-47087009D01*
X30256552Y-47051271D01*
X30339814Y-46949814D01*
X30441271Y-46866552D01*
X30477009Y-46837222D01*
X30633534Y-46753557D01*
X30803373Y-46702037D01*
X30869557Y-46695519D01*
X30935740Y-46689000D01*
X31024260Y-46689000D01*
X31090443Y-46695519D01*
X31090443Y-46695519D01*
G37*
G36*
X14713512Y-40393927D02*
G01*
X14862812Y-40423624D01*
X15026784Y-40491544D01*
X15174354Y-40590147D01*
X15299853Y-40715646D01*
X15398456Y-40863216D01*
X15466376Y-41027188D01*
X15501000Y-41201259D01*
X15501000Y-41378741D01*
X15466376Y-41552812D01*
X15398456Y-41716784D01*
X15299853Y-41864354D01*
X15174354Y-41989853D01*
X15026784Y-42088456D01*
X14862812Y-42156376D01*
X14713512Y-42186073D01*
X14688742Y-42191000D01*
X14511258Y-42191000D01*
X14486488Y-42186073D01*
X14337188Y-42156376D01*
X14173216Y-42088456D01*
X14025646Y-41989853D01*
X13900147Y-41864354D01*
X13801544Y-41716784D01*
X13733624Y-41552812D01*
X13699000Y-41378741D01*
X13699000Y-41201259D01*
X13733624Y-41027188D01*
X13801544Y-40863216D01*
X13900147Y-40715646D01*
X14025646Y-40590147D01*
X14173216Y-40491544D01*
X14337188Y-40423624D01*
X14486488Y-40393927D01*
X14511258Y-40389000D01*
X14688742Y-40389000D01*
X14713512Y-40393927D01*
X14713512Y-40393927D01*
G37*
G36*
X67151000Y-41851000D02*
G01*
X64949000Y-41851000D01*
X64949000Y-39949000D01*
X67151000Y-39949000D01*
X67151000Y-41851000D01*
X67151000Y-41851000D01*
G37*
G36*
X70051000Y-41851000D02*
G01*
X67849000Y-41851000D01*
X67849000Y-39949000D01*
X70051000Y-39949000D01*
X70051000Y-41851000D01*
X70051000Y-41851000D01*
G37*
G36*
X29951000Y-41701000D02*
G01*
X26049000Y-41701000D01*
X26049000Y-39599000D01*
X29951000Y-39599000D01*
X29951000Y-41701000D01*
X29951000Y-41701000D01*
G37*
G36*
X40551000Y-41631000D02*
G01*
X36649000Y-41631000D01*
X36649000Y-39529000D01*
X40551000Y-39529000D01*
X40551000Y-41631000D01*
X40551000Y-41631000D01*
G37*
G36*
X48078674Y-38431465D02*
G01*
X48116367Y-38442899D01*
X48151103Y-38461466D01*
X48181548Y-38486452D01*
X48206534Y-38516897D01*
X48225101Y-38551633D01*
X48236535Y-38589326D01*
X48241000Y-38634661D01*
X48241000Y-39471339D01*
X48236535Y-39516674D01*
X48225101Y-39554367D01*
X48206534Y-39589103D01*
X48181548Y-39619548D01*
X48151103Y-39644534D01*
X48116367Y-39663101D01*
X48078674Y-39674535D01*
X48033339Y-39679000D01*
X46946661Y-39679000D01*
X46901326Y-39674535D01*
X46863633Y-39663101D01*
X46828897Y-39644534D01*
X46798452Y-39619548D01*
X46773466Y-39589103D01*
X46754899Y-39554367D01*
X46743465Y-39516674D01*
X46739000Y-39471339D01*
X46739000Y-38634661D01*
X46743465Y-38589326D01*
X46754899Y-38551633D01*
X46773466Y-38516897D01*
X46798452Y-38486452D01*
X46828897Y-38461466D01*
X46863633Y-38442899D01*
X46901326Y-38431465D01*
X46946661Y-38427000D01*
X48033339Y-38427000D01*
X48078674Y-38431465D01*
X48078674Y-38431465D01*
G37*
G36*
X14710442Y-37855518D02*
G01*
X14776627Y-37862037D01*
X14946466Y-37913557D01*
X15102991Y-37997222D01*
X15138729Y-38026552D01*
X15240186Y-38109814D01*
X15323448Y-38211271D01*
X15352778Y-38247009D01*
X15436443Y-38403534D01*
X15487963Y-38573373D01*
X15505359Y-38750000D01*
X15487963Y-38926627D01*
X15436443Y-39096466D01*
X15352778Y-39252991D01*
X15323448Y-39288729D01*
X15240186Y-39390186D01*
X15141299Y-39471339D01*
X15102991Y-39502778D01*
X14946466Y-39586443D01*
X14776627Y-39637963D01*
X14710442Y-39644482D01*
X14644260Y-39651000D01*
X14555740Y-39651000D01*
X14489558Y-39644482D01*
X14423373Y-39637963D01*
X14253534Y-39586443D01*
X14097009Y-39502778D01*
X14058701Y-39471339D01*
X13959814Y-39390186D01*
X13876552Y-39288729D01*
X13847222Y-39252991D01*
X13763557Y-39096466D01*
X13712037Y-38926627D01*
X13694641Y-38750000D01*
X13712037Y-38573373D01*
X13763557Y-38403534D01*
X13847222Y-38247009D01*
X13876552Y-38211271D01*
X13959814Y-38109814D01*
X14061271Y-38026552D01*
X14097009Y-37997222D01*
X14253534Y-37913557D01*
X14423373Y-37862037D01*
X14489558Y-37855518D01*
X14555740Y-37849000D01*
X14644260Y-37849000D01*
X14710442Y-37855518D01*
X14710442Y-37855518D01*
G37*
G36*
X67151000Y-39551000D02*
G01*
X64949000Y-39551000D01*
X64949000Y-37649000D01*
X67151000Y-37649000D01*
X67151000Y-39551000D01*
X67151000Y-39551000D01*
G37*
G36*
X70051000Y-39551000D02*
G01*
X67849000Y-39551000D01*
X67849000Y-37649000D01*
X70051000Y-37649000D01*
X70051000Y-39551000D01*
X70051000Y-39551000D01*
G37*
G36*
X59657368Y-33746536D02*
G01*
X59196334Y-34207570D01*
X59091682Y-34312221D01*
X58630648Y-34773255D01*
X58525997Y-34877907D01*
X56367907Y-37035997D01*
X56263255Y-37140648D01*
X55802221Y-37601682D01*
X55697570Y-37706334D01*
X55236536Y-38167368D01*
X54033040Y-36963872D01*
X54494074Y-36502838D01*
X54494075Y-36502839D01*
X54510339Y-36486575D01*
X54510348Y-36486564D01*
X54598726Y-36398187D01*
X54598725Y-36398186D01*
X55059759Y-35937152D01*
X55059760Y-35937153D01*
X55148137Y-35848775D01*
X55148148Y-35848766D01*
X55164412Y-35832502D01*
X55164411Y-35832501D01*
X55625445Y-35371467D01*
X55625446Y-35371468D01*
X55713833Y-35283080D01*
X55730097Y-35266817D01*
X55730096Y-35266816D01*
X56191130Y-34805782D01*
X56191131Y-34805783D01*
X56295783Y-34701131D01*
X56295782Y-34701130D01*
X56756816Y-34240096D01*
X56756817Y-34240097D01*
X56845204Y-34151709D01*
X56861468Y-34135446D01*
X56861467Y-34135445D01*
X57322501Y-33674411D01*
X57322502Y-33674412D01*
X57338766Y-33658148D01*
X57338775Y-33658137D01*
X57427153Y-33569760D01*
X57427152Y-33569759D01*
X57888186Y-33108725D01*
X57888187Y-33108726D01*
X57976564Y-33020348D01*
X57976575Y-33020339D01*
X57992839Y-33004075D01*
X57992838Y-33004074D01*
X58453872Y-32543040D01*
X59657368Y-33746536D01*
X59657368Y-33746536D01*
G37*
G36*
X49687162Y-33004074D02*
G01*
X49687162Y-33004075D01*
X49703426Y-33020339D01*
X49703432Y-33020344D01*
X49791814Y-33108726D01*
X49791814Y-33108725D01*
X50252848Y-33569759D01*
X50252848Y-33569760D01*
X50341230Y-33658142D01*
X50341235Y-33658148D01*
X50357499Y-33674412D01*
X50357499Y-33674411D01*
X50818533Y-34135445D01*
X50818533Y-34135446D01*
X50923184Y-34240097D01*
X50923184Y-34240096D01*
X51384218Y-34701130D01*
X51384218Y-34701131D01*
X51488870Y-34805783D01*
X51488870Y-34805782D01*
X51949904Y-35266816D01*
X51949904Y-35266817D01*
X52054555Y-35371468D01*
X52054555Y-35371467D01*
X52515589Y-35832501D01*
X52515589Y-35832502D01*
X52531853Y-35848766D01*
X52531859Y-35848771D01*
X52620241Y-35937153D01*
X52620241Y-35937152D01*
X53081275Y-36398186D01*
X53081275Y-36398187D01*
X53169657Y-36486569D01*
X53169662Y-36486575D01*
X53185926Y-36502839D01*
X53185926Y-36502838D01*
X53646960Y-36963872D01*
X52443464Y-38167368D01*
X51982430Y-37706334D01*
X51982431Y-37706334D01*
X51894049Y-37617952D01*
X51894044Y-37617946D01*
X51877780Y-37601682D01*
X51877779Y-37601682D01*
X51416745Y-37140648D01*
X51416746Y-37140648D01*
X51400482Y-37124384D01*
X51400476Y-37124379D01*
X51312094Y-37035997D01*
X51312093Y-37035997D01*
X50851059Y-36574963D01*
X50851060Y-36574963D01*
X50746409Y-36470312D01*
X50746408Y-36470312D01*
X50285374Y-36009278D01*
X50285375Y-36009278D01*
X50180723Y-35904626D01*
X50180722Y-35904626D01*
X49719688Y-35443592D01*
X49719689Y-35443592D01*
X49615038Y-35338941D01*
X49615037Y-35338941D01*
X49154003Y-34877907D01*
X49154004Y-34877907D01*
X49065622Y-34789525D01*
X49065617Y-34789519D01*
X49049353Y-34773255D01*
X49049352Y-34773255D01*
X48588318Y-34312221D01*
X48588319Y-34312221D01*
X48572055Y-34295957D01*
X48572049Y-34295952D01*
X48483667Y-34207570D01*
X48483666Y-34207570D01*
X48022632Y-33746536D01*
X49226128Y-32543040D01*
X49687162Y-33004074D01*
X49687162Y-33004074D01*
G37*
G36*
X48078674Y-36381465D02*
G01*
X48116367Y-36392899D01*
X48151103Y-36411466D01*
X48181548Y-36436452D01*
X48206534Y-36466897D01*
X48225101Y-36501633D01*
X48236535Y-36539326D01*
X48241000Y-36584661D01*
X48241000Y-37421339D01*
X48236535Y-37466674D01*
X48225101Y-37504367D01*
X48206534Y-37539103D01*
X48181548Y-37569548D01*
X48151103Y-37594534D01*
X48116367Y-37613101D01*
X48078674Y-37624535D01*
X48033339Y-37629000D01*
X46946661Y-37629000D01*
X46901326Y-37624535D01*
X46863633Y-37613101D01*
X46828897Y-37594534D01*
X46798452Y-37569548D01*
X46773466Y-37539103D01*
X46754899Y-37504367D01*
X46743465Y-37466674D01*
X46739000Y-37421339D01*
X46739000Y-36584661D01*
X46743465Y-36539326D01*
X46754899Y-36501633D01*
X46773466Y-36466897D01*
X46798452Y-36436452D01*
X46828897Y-36411466D01*
X46863633Y-36392899D01*
X46901326Y-36381465D01*
X46946661Y-36377000D01*
X48033339Y-36377000D01*
X48078674Y-36381465D01*
X48078674Y-36381465D01*
G37*
G36*
X14420285Y-35226617D02*
G01*
X14453879Y-35229926D01*
X14475445Y-35236468D01*
X14583195Y-35269153D01*
X14702364Y-35332851D01*
X14806823Y-35418577D01*
X14892549Y-35523036D01*
X14956247Y-35642205D01*
X14956248Y-35642209D01*
X14995474Y-35771521D01*
X15001480Y-35832501D01*
X15008719Y-35906000D01*
X14995474Y-36040478D01*
X14956247Y-36169795D01*
X14892549Y-36288964D01*
X14806823Y-36393423D01*
X14702364Y-36479149D01*
X14583195Y-36542847D01*
X14576041Y-36545017D01*
X14453879Y-36582074D01*
X14420285Y-36585383D01*
X14353100Y-36592000D01*
X13726900Y-36592000D01*
X13659715Y-36585383D01*
X13626121Y-36582074D01*
X13503959Y-36545017D01*
X13496805Y-36542847D01*
X13377636Y-36479149D01*
X13273177Y-36393423D01*
X13187451Y-36288964D01*
X13123753Y-36169795D01*
X13084526Y-36040478D01*
X13071281Y-35906000D01*
X13078520Y-35832501D01*
X13084526Y-35771521D01*
X13123752Y-35642209D01*
X13123753Y-35642205D01*
X13187451Y-35523036D01*
X13273177Y-35418577D01*
X13377636Y-35332851D01*
X13496805Y-35269153D01*
X13604555Y-35236468D01*
X13626121Y-35229926D01*
X13659715Y-35226617D01*
X13726900Y-35220000D01*
X14353100Y-35220000D01*
X14420285Y-35226617D01*
X14420285Y-35226617D01*
G37*
G36*
X18839885Y-26590617D02*
G01*
X18873479Y-26593926D01*
X18949394Y-26616954D01*
X19002795Y-26633153D01*
X19121964Y-26696851D01*
X19226423Y-26782577D01*
X19312149Y-26887036D01*
X19375847Y-27006205D01*
X19415074Y-27135522D01*
X19428319Y-27270000D01*
X19415074Y-27404478D01*
X19375847Y-27533795D01*
X19312149Y-27652964D01*
X19226423Y-27757423D01*
X19174678Y-27799888D01*
X19157351Y-27817215D01*
X19143737Y-27837589D01*
X19134360Y-27860228D01*
X19129579Y-27884261D01*
X19129579Y-27908766D01*
X19134359Y-27932799D01*
X19143736Y-27955438D01*
X19157350Y-27975812D01*
X19174677Y-27993139D01*
X19195051Y-28006753D01*
X19217690Y-28016130D01*
X19241723Y-28020911D01*
X19253976Y-28021513D01*
X20187000Y-28021513D01*
X20187000Y-35154487D01*
X19253976Y-35154487D01*
X19229590Y-35156889D01*
X19206141Y-35164002D01*
X19184530Y-35175553D01*
X19165588Y-35191098D01*
X19150043Y-35210040D01*
X19138492Y-35231651D01*
X19131379Y-35255100D01*
X19128977Y-35279486D01*
X19131379Y-35303872D01*
X19138492Y-35327321D01*
X19150043Y-35348932D01*
X19165588Y-35367874D01*
X19174678Y-35376112D01*
X19226423Y-35418577D01*
X19312149Y-35523036D01*
X19375847Y-35642205D01*
X19375848Y-35642209D01*
X19415074Y-35771521D01*
X19421080Y-35832501D01*
X19428319Y-35906000D01*
X19415074Y-36040478D01*
X19375847Y-36169795D01*
X19312149Y-36288964D01*
X19226423Y-36393423D01*
X19121964Y-36479149D01*
X19002795Y-36542847D01*
X18995641Y-36545017D01*
X18873479Y-36582074D01*
X18839885Y-36585383D01*
X18772700Y-36592000D01*
X17943300Y-36592000D01*
X17876115Y-36585383D01*
X17842521Y-36582074D01*
X17720359Y-36545017D01*
X17713205Y-36542847D01*
X17594036Y-36479149D01*
X17489577Y-36393423D01*
X17403851Y-36288964D01*
X17340153Y-36169795D01*
X17300926Y-36040478D01*
X17287681Y-35906000D01*
X17294920Y-35832501D01*
X17300926Y-35771521D01*
X17340152Y-35642209D01*
X17340153Y-35642205D01*
X17403851Y-35523036D01*
X17489577Y-35418577D01*
X17594036Y-35332851D01*
X17713205Y-35269153D01*
X17820955Y-35236468D01*
X17842521Y-35229926D01*
X17876115Y-35226617D01*
X17943300Y-35220000D01*
X18436001Y-35220000D01*
X18460387Y-35217598D01*
X18483836Y-35210485D01*
X18505447Y-35198934D01*
X18524389Y-35183389D01*
X18539934Y-35164447D01*
X18551485Y-35142836D01*
X18558598Y-35119387D01*
X18561000Y-35095001D01*
X18561000Y-28080999D01*
X18558598Y-28056613D01*
X18551485Y-28033164D01*
X18539934Y-28011553D01*
X18524389Y-27992611D01*
X18505447Y-27977066D01*
X18483836Y-27965515D01*
X18460387Y-27958402D01*
X18436001Y-27956000D01*
X17943300Y-27956000D01*
X17876115Y-27949383D01*
X17842521Y-27946074D01*
X17766606Y-27923046D01*
X17713205Y-27906847D01*
X17594036Y-27843149D01*
X17489577Y-27757423D01*
X17403851Y-27652964D01*
X17340153Y-27533795D01*
X17300926Y-27404478D01*
X17287681Y-27270000D01*
X17300926Y-27135522D01*
X17340153Y-27006205D01*
X17403851Y-26887036D01*
X17489577Y-26782577D01*
X17594036Y-26696851D01*
X17713205Y-26633153D01*
X17766606Y-26616954D01*
X17842521Y-26593926D01*
X17876115Y-26590617D01*
X17943300Y-26584000D01*
X18772700Y-26584000D01*
X18839885Y-26590617D01*
X18839885Y-26590617D01*
G37*
G36*
X66650442Y-33995518D02*
G01*
X66716627Y-34002037D01*
X66886466Y-34053557D01*
X67042991Y-34137222D01*
X67044532Y-34138487D01*
X67180186Y-34249814D01*
X67231401Y-34312221D01*
X67292778Y-34387009D01*
X67376443Y-34543534D01*
X67427963Y-34713373D01*
X67445359Y-34890000D01*
X67427963Y-35066627D01*
X67376443Y-35236466D01*
X67376442Y-35236468D01*
X67358972Y-35269152D01*
X67292778Y-35392991D01*
X67286205Y-35401000D01*
X67180186Y-35530186D01*
X67078729Y-35613448D01*
X67042991Y-35642778D01*
X66886466Y-35726443D01*
X66716627Y-35777963D01*
X66650442Y-35784482D01*
X66584260Y-35791000D01*
X66495740Y-35791000D01*
X66429558Y-35784482D01*
X66363373Y-35777963D01*
X66193534Y-35726443D01*
X66037009Y-35642778D01*
X66001271Y-35613448D01*
X65899814Y-35530186D01*
X65793795Y-35401000D01*
X65787222Y-35392991D01*
X65721028Y-35269152D01*
X65703558Y-35236468D01*
X65703557Y-35236466D01*
X65652037Y-35066627D01*
X65634641Y-34890000D01*
X65652037Y-34713373D01*
X65703557Y-34543534D01*
X65787222Y-34387009D01*
X65848599Y-34312221D01*
X65899814Y-34249814D01*
X66035468Y-34138487D01*
X66037009Y-34137222D01*
X66193534Y-34053557D01*
X66363373Y-34002037D01*
X66429558Y-33995518D01*
X66495740Y-33989000D01*
X66584260Y-33989000D01*
X66650442Y-33995518D01*
X66650442Y-33995518D01*
G37*
G36*
X69190442Y-33995518D02*
G01*
X69256627Y-34002037D01*
X69426466Y-34053557D01*
X69582991Y-34137222D01*
X69584532Y-34138487D01*
X69720186Y-34249814D01*
X69771401Y-34312221D01*
X69832778Y-34387009D01*
X69916443Y-34543534D01*
X69967963Y-34713373D01*
X69985359Y-34890000D01*
X69967963Y-35066627D01*
X69916443Y-35236466D01*
X69916442Y-35236468D01*
X69898972Y-35269152D01*
X69832778Y-35392991D01*
X69826205Y-35401000D01*
X69720186Y-35530186D01*
X69618729Y-35613448D01*
X69582991Y-35642778D01*
X69426466Y-35726443D01*
X69256627Y-35777963D01*
X69190442Y-35784482D01*
X69124260Y-35791000D01*
X69035740Y-35791000D01*
X68969558Y-35784482D01*
X68903373Y-35777963D01*
X68733534Y-35726443D01*
X68577009Y-35642778D01*
X68541271Y-35613448D01*
X68439814Y-35530186D01*
X68333795Y-35401000D01*
X68327222Y-35392991D01*
X68261028Y-35269152D01*
X68243558Y-35236468D01*
X68243557Y-35236466D01*
X68192037Y-35066627D01*
X68174641Y-34890000D01*
X68192037Y-34713373D01*
X68243557Y-34543534D01*
X68327222Y-34387009D01*
X68388599Y-34312221D01*
X68439814Y-34249814D01*
X68575468Y-34138487D01*
X68577009Y-34137222D01*
X68733534Y-34053557D01*
X68903373Y-34002037D01*
X68969558Y-33995518D01*
X69035740Y-33989000D01*
X69124260Y-33989000D01*
X69190442Y-33995518D01*
X69190442Y-33995518D01*
G37*
G36*
X28801000Y-35401000D02*
G01*
X27199000Y-35401000D01*
X27199000Y-33299000D01*
X28801000Y-33299000D01*
X28801000Y-35401000D01*
X28801000Y-35401000D01*
G37*
G36*
X26501000Y-35401000D02*
G01*
X24899000Y-35401000D01*
X24899000Y-33299000D01*
X26501000Y-33299000D01*
X26501000Y-35401000D01*
X26501000Y-35401000D01*
G37*
G36*
X31101000Y-35401000D02*
G01*
X29499000Y-35401000D01*
X29499000Y-33299000D01*
X31101000Y-33299000D01*
X31101000Y-35401000D01*
X31101000Y-35401000D01*
G37*
G36*
X39401000Y-35331000D02*
G01*
X37799000Y-35331000D01*
X37799000Y-33229000D01*
X39401000Y-33229000D01*
X39401000Y-35331000D01*
X39401000Y-35331000D01*
G37*
G36*
X37101000Y-35331000D02*
G01*
X35499000Y-35331000D01*
X35499000Y-33229000D01*
X37101000Y-33229000D01*
X37101000Y-35331000D01*
X37101000Y-35331000D01*
G37*
G36*
X41701000Y-35331000D02*
G01*
X40099000Y-35331000D01*
X40099000Y-33229000D01*
X41701000Y-33229000D01*
X41701000Y-35331000D01*
X41701000Y-35331000D01*
G37*
G36*
X66650443Y-31455519D02*
G01*
X66716627Y-31462037D01*
X66886466Y-31513557D01*
X67042991Y-31597222D01*
X67044532Y-31598487D01*
X67180186Y-31709814D01*
X67263448Y-31811271D01*
X67292778Y-31847009D01*
X67376443Y-32003534D01*
X67427963Y-32173373D01*
X67445359Y-32350000D01*
X67427963Y-32526627D01*
X67376443Y-32696466D01*
X67292778Y-32852991D01*
X67263448Y-32888729D01*
X67180186Y-32990186D01*
X67078729Y-33073448D01*
X67042991Y-33102778D01*
X66886466Y-33186443D01*
X66716627Y-33237963D01*
X66650443Y-33244481D01*
X66584260Y-33251000D01*
X66495740Y-33251000D01*
X66429557Y-33244481D01*
X66363373Y-33237963D01*
X66193534Y-33186443D01*
X66037009Y-33102778D01*
X66001271Y-33073448D01*
X65899814Y-32990186D01*
X65816552Y-32888729D01*
X65787222Y-32852991D01*
X65703557Y-32696466D01*
X65652037Y-32526627D01*
X65634641Y-32350000D01*
X65652037Y-32173373D01*
X65703557Y-32003534D01*
X65787222Y-31847009D01*
X65816552Y-31811271D01*
X65899814Y-31709814D01*
X66035468Y-31598487D01*
X66037009Y-31597222D01*
X66193534Y-31513557D01*
X66363373Y-31462037D01*
X66429557Y-31455519D01*
X66495740Y-31449000D01*
X66584260Y-31449000D01*
X66650443Y-31455519D01*
X66650443Y-31455519D01*
G37*
G36*
X69190443Y-31455519D02*
G01*
X69256627Y-31462037D01*
X69426466Y-31513557D01*
X69582991Y-31597222D01*
X69584532Y-31598487D01*
X69720186Y-31709814D01*
X69803448Y-31811271D01*
X69832778Y-31847009D01*
X69916443Y-32003534D01*
X69967963Y-32173373D01*
X69985359Y-32350000D01*
X69967963Y-32526627D01*
X69916443Y-32696466D01*
X69832778Y-32852991D01*
X69803448Y-32888729D01*
X69720186Y-32990186D01*
X69618729Y-33073448D01*
X69582991Y-33102778D01*
X69426466Y-33186443D01*
X69256627Y-33237963D01*
X69190443Y-33244481D01*
X69124260Y-33251000D01*
X69035740Y-33251000D01*
X68969557Y-33244481D01*
X68903373Y-33237963D01*
X68733534Y-33186443D01*
X68577009Y-33102778D01*
X68541271Y-33073448D01*
X68439814Y-32990186D01*
X68356552Y-32888729D01*
X68327222Y-32852991D01*
X68243557Y-32696466D01*
X68192037Y-32526627D01*
X68174641Y-32350000D01*
X68192037Y-32173373D01*
X68243557Y-32003534D01*
X68327222Y-31847009D01*
X68356552Y-31811271D01*
X68439814Y-31709814D01*
X68575468Y-31598487D01*
X68577009Y-31597222D01*
X68733534Y-31513557D01*
X68903373Y-31462037D01*
X68969557Y-31455519D01*
X69035740Y-31449000D01*
X69124260Y-31449000D01*
X69190443Y-31455519D01*
X69190443Y-31455519D01*
G37*
G36*
X55697570Y-26993666D02*
G01*
X55697570Y-26993667D01*
X55785952Y-27082049D01*
X55785957Y-27082055D01*
X55802221Y-27098319D01*
X55802221Y-27098318D01*
X56263255Y-27559352D01*
X56263255Y-27559353D01*
X56279519Y-27575617D01*
X56279525Y-27575622D01*
X56367907Y-27664004D01*
X56367907Y-27664003D01*
X56828941Y-28125037D01*
X56828941Y-28125038D01*
X56933592Y-28229689D01*
X56933592Y-28229688D01*
X57394626Y-28690722D01*
X57394626Y-28690723D01*
X57499278Y-28795375D01*
X57499278Y-28795374D01*
X57960312Y-29256408D01*
X57960312Y-29256409D01*
X58064963Y-29361060D01*
X58064963Y-29361059D01*
X58525997Y-29822093D01*
X58525997Y-29822094D01*
X58614379Y-29910476D01*
X58614384Y-29910482D01*
X58630648Y-29926746D01*
X58630648Y-29926745D01*
X59091682Y-30387779D01*
X59091682Y-30387780D01*
X59107946Y-30404044D01*
X59107952Y-30404049D01*
X59196334Y-30492431D01*
X59196334Y-30492430D01*
X59657368Y-30953464D01*
X58453872Y-32156960D01*
X57992838Y-31695926D01*
X57992839Y-31695926D01*
X57976575Y-31679662D01*
X57976569Y-31679657D01*
X57888187Y-31591275D01*
X57888186Y-31591275D01*
X57427152Y-31130241D01*
X57427153Y-31130241D01*
X57338771Y-31041859D01*
X57338766Y-31041853D01*
X57322502Y-31025589D01*
X57322501Y-31025589D01*
X56861467Y-30564555D01*
X56861468Y-30564555D01*
X56756817Y-30459904D01*
X56756816Y-30459904D01*
X56295782Y-29998870D01*
X56295783Y-29998870D01*
X56191131Y-29894218D01*
X56191130Y-29894218D01*
X55730096Y-29433184D01*
X55730097Y-29433184D01*
X55625446Y-29328533D01*
X55625445Y-29328533D01*
X55164411Y-28867499D01*
X55164412Y-28867499D01*
X55148148Y-28851235D01*
X55148142Y-28851230D01*
X55059760Y-28762848D01*
X55059759Y-28762848D01*
X54598725Y-28301814D01*
X54598726Y-28301814D01*
X54510344Y-28213432D01*
X54510339Y-28213426D01*
X54494075Y-28197162D01*
X54494074Y-28197162D01*
X54033040Y-27736128D01*
X55236536Y-26532632D01*
X55697570Y-26993666D01*
X55697570Y-26993666D01*
G37*
G36*
X53646960Y-27736128D02*
G01*
X53169662Y-28213426D01*
X53081275Y-28301814D01*
X52620241Y-28762848D01*
X52531853Y-28851235D01*
X52054555Y-29328533D01*
X51966167Y-29416920D01*
X51949904Y-29433184D01*
X50923184Y-30459904D01*
X50834796Y-30548291D01*
X50818533Y-30564555D01*
X50341235Y-31041853D01*
X50252848Y-31130241D01*
X49791814Y-31591275D01*
X49703426Y-31679662D01*
X49226128Y-32156960D01*
X48022632Y-30953464D01*
X48483666Y-30492430D01*
X48483667Y-30492431D01*
X48572044Y-30404053D01*
X48572055Y-30404044D01*
X48588319Y-30387780D01*
X48588318Y-30387779D01*
X49049352Y-29926745D01*
X49049353Y-29926746D01*
X49065617Y-29910482D01*
X49065626Y-29910471D01*
X49154004Y-29822094D01*
X49154003Y-29822093D01*
X49615037Y-29361059D01*
X49615038Y-29361060D01*
X49719689Y-29256409D01*
X49719688Y-29256408D01*
X50180722Y-28795374D01*
X50180723Y-28795375D01*
X50285375Y-28690723D01*
X50285374Y-28690722D01*
X50746408Y-28229688D01*
X50746409Y-28229689D01*
X50851060Y-28125038D01*
X50851059Y-28125037D01*
X51312093Y-27664003D01*
X51312094Y-27664004D01*
X51400471Y-27575626D01*
X51400482Y-27575617D01*
X51416746Y-27559353D01*
X51416745Y-27559352D01*
X51877779Y-27098318D01*
X51877780Y-27098319D01*
X51894044Y-27082055D01*
X51894053Y-27082044D01*
X51982431Y-26993667D01*
X51982430Y-26993666D01*
X52443464Y-26532632D01*
X53646960Y-27736128D01*
X53646960Y-27736128D01*
G37*
G36*
X40383928Y-28716764D02*
G01*
X40405009Y-28723160D01*
X40424445Y-28733548D01*
X40441476Y-28747524D01*
X40455452Y-28764555D01*
X40465840Y-28783991D01*
X40472236Y-28805072D01*
X40475000Y-28833140D01*
X40475000Y-30646860D01*
X40472236Y-30674928D01*
X40465840Y-30696009D01*
X40455452Y-30715445D01*
X40441476Y-30732476D01*
X40424445Y-30746452D01*
X40405009Y-30756840D01*
X40383928Y-30763236D01*
X40355860Y-30766000D01*
X39892140Y-30766000D01*
X39864072Y-30763236D01*
X39842991Y-30756840D01*
X39823555Y-30746452D01*
X39806524Y-30732476D01*
X39792548Y-30715445D01*
X39782160Y-30696009D01*
X39775764Y-30674928D01*
X39773000Y-30646860D01*
X39773000Y-28833140D01*
X39775764Y-28805072D01*
X39782160Y-28783991D01*
X39792548Y-28764555D01*
X39806524Y-28747524D01*
X39823555Y-28733548D01*
X39842991Y-28723160D01*
X39864072Y-28716764D01*
X39892140Y-28714000D01*
X40355860Y-28714000D01*
X40383928Y-28716764D01*
X40383928Y-28716764D01*
G37*
G36*
X39113928Y-28716764D02*
G01*
X39135009Y-28723160D01*
X39154445Y-28733548D01*
X39171476Y-28747524D01*
X39185452Y-28764555D01*
X39195840Y-28783991D01*
X39202236Y-28805072D01*
X39205000Y-28833140D01*
X39205000Y-30646860D01*
X39202236Y-30674928D01*
X39195840Y-30696009D01*
X39185452Y-30715445D01*
X39171476Y-30732476D01*
X39154445Y-30746452D01*
X39135009Y-30756840D01*
X39113928Y-30763236D01*
X39085860Y-30766000D01*
X38622140Y-30766000D01*
X38594072Y-30763236D01*
X38572991Y-30756840D01*
X38553555Y-30746452D01*
X38536524Y-30732476D01*
X38522548Y-30715445D01*
X38512160Y-30696009D01*
X38505764Y-30674928D01*
X38503000Y-30646860D01*
X38503000Y-28833140D01*
X38505764Y-28805072D01*
X38512160Y-28783991D01*
X38522548Y-28764555D01*
X38536524Y-28747524D01*
X38553555Y-28733548D01*
X38572991Y-28723160D01*
X38594072Y-28716764D01*
X38622140Y-28714000D01*
X39085860Y-28714000D01*
X39113928Y-28716764D01*
X39113928Y-28716764D01*
G37*
G36*
X37843928Y-28716764D02*
G01*
X37865009Y-28723160D01*
X37884445Y-28733548D01*
X37901476Y-28747524D01*
X37915452Y-28764555D01*
X37925840Y-28783991D01*
X37932236Y-28805072D01*
X37935000Y-28833140D01*
X37935000Y-30646860D01*
X37932236Y-30674928D01*
X37925840Y-30696009D01*
X37915452Y-30715445D01*
X37901476Y-30732476D01*
X37884445Y-30746452D01*
X37865009Y-30756840D01*
X37843928Y-30763236D01*
X37815860Y-30766000D01*
X37352140Y-30766000D01*
X37324072Y-30763236D01*
X37302991Y-30756840D01*
X37283555Y-30746452D01*
X37266524Y-30732476D01*
X37252548Y-30715445D01*
X37242160Y-30696009D01*
X37235764Y-30674928D01*
X37233000Y-30646860D01*
X37233000Y-28833140D01*
X37235764Y-28805072D01*
X37242160Y-28783991D01*
X37252548Y-28764555D01*
X37266524Y-28747524D01*
X37283555Y-28733548D01*
X37302991Y-28723160D01*
X37324072Y-28716764D01*
X37352140Y-28714000D01*
X37815860Y-28714000D01*
X37843928Y-28716764D01*
X37843928Y-28716764D01*
G37*
G36*
X36573928Y-28716764D02*
G01*
X36595009Y-28723160D01*
X36614445Y-28733548D01*
X36631476Y-28747524D01*
X36645452Y-28764555D01*
X36655840Y-28783991D01*
X36662236Y-28805072D01*
X36665000Y-28833140D01*
X36665000Y-30646860D01*
X36662236Y-30674928D01*
X36655840Y-30696009D01*
X36645452Y-30715445D01*
X36631476Y-30732476D01*
X36614445Y-30746452D01*
X36595009Y-30756840D01*
X36573928Y-30763236D01*
X36545860Y-30766000D01*
X36082140Y-30766000D01*
X36054072Y-30763236D01*
X36032991Y-30756840D01*
X36013555Y-30746452D01*
X35996524Y-30732476D01*
X35982548Y-30715445D01*
X35972160Y-30696009D01*
X35965764Y-30674928D01*
X35963000Y-30646860D01*
X35963000Y-28833140D01*
X35965764Y-28805072D01*
X35972160Y-28783991D01*
X35982548Y-28764555D01*
X35996524Y-28747524D01*
X36013555Y-28733548D01*
X36032991Y-28723160D01*
X36054072Y-28716764D01*
X36082140Y-28714000D01*
X36545860Y-28714000D01*
X36573928Y-28716764D01*
X36573928Y-28716764D01*
G37*
G36*
X35303928Y-28716764D02*
G01*
X35325009Y-28723160D01*
X35344445Y-28733548D01*
X35361476Y-28747524D01*
X35375452Y-28764555D01*
X35385840Y-28783991D01*
X35392236Y-28805072D01*
X35395000Y-28833140D01*
X35395000Y-30646860D01*
X35392236Y-30674928D01*
X35385840Y-30696009D01*
X35375452Y-30715445D01*
X35361476Y-30732476D01*
X35344445Y-30746452D01*
X35325009Y-30756840D01*
X35303928Y-30763236D01*
X35275860Y-30766000D01*
X34812140Y-30766000D01*
X34784072Y-30763236D01*
X34762991Y-30756840D01*
X34743555Y-30746452D01*
X34726524Y-30732476D01*
X34712548Y-30715445D01*
X34702160Y-30696009D01*
X34695764Y-30674928D01*
X34693000Y-30646860D01*
X34693000Y-28833140D01*
X34695764Y-28805072D01*
X34702160Y-28783991D01*
X34712548Y-28764555D01*
X34726524Y-28747524D01*
X34743555Y-28733548D01*
X34762991Y-28723160D01*
X34784072Y-28716764D01*
X34812140Y-28714000D01*
X35275860Y-28714000D01*
X35303928Y-28716764D01*
X35303928Y-28716764D01*
G37*
G36*
X34033928Y-28716764D02*
G01*
X34055009Y-28723160D01*
X34074445Y-28733548D01*
X34091476Y-28747524D01*
X34105452Y-28764555D01*
X34115840Y-28783991D01*
X34122236Y-28805072D01*
X34125000Y-28833140D01*
X34125000Y-30646860D01*
X34122236Y-30674928D01*
X34115840Y-30696009D01*
X34105452Y-30715445D01*
X34091476Y-30732476D01*
X34074445Y-30746452D01*
X34055009Y-30756840D01*
X34033928Y-30763236D01*
X34005860Y-30766000D01*
X33542140Y-30766000D01*
X33514072Y-30763236D01*
X33492991Y-30756840D01*
X33473555Y-30746452D01*
X33456524Y-30732476D01*
X33442548Y-30715445D01*
X33432160Y-30696009D01*
X33425764Y-30674928D01*
X33423000Y-30646860D01*
X33423000Y-28833140D01*
X33425764Y-28805072D01*
X33432160Y-28783991D01*
X33442548Y-28764555D01*
X33456524Y-28747524D01*
X33473555Y-28733548D01*
X33492991Y-28723160D01*
X33514072Y-28716764D01*
X33542140Y-28714000D01*
X34005860Y-28714000D01*
X34033928Y-28716764D01*
X34033928Y-28716764D01*
G37*
G36*
X31493928Y-28716764D02*
G01*
X31515009Y-28723160D01*
X31534445Y-28733548D01*
X31551476Y-28747524D01*
X31565452Y-28764555D01*
X31575840Y-28783991D01*
X31582236Y-28805072D01*
X31585000Y-28833140D01*
X31585000Y-30646860D01*
X31582236Y-30674928D01*
X31575840Y-30696009D01*
X31565452Y-30715445D01*
X31551476Y-30732476D01*
X31534445Y-30746452D01*
X31515009Y-30756840D01*
X31493928Y-30763236D01*
X31465860Y-30766000D01*
X31002140Y-30766000D01*
X30974072Y-30763236D01*
X30952991Y-30756840D01*
X30933555Y-30746452D01*
X30916524Y-30732476D01*
X30902548Y-30715445D01*
X30892160Y-30696009D01*
X30885764Y-30674928D01*
X30883000Y-30646860D01*
X30883000Y-28833140D01*
X30885764Y-28805072D01*
X30892160Y-28783991D01*
X30902548Y-28764555D01*
X30916524Y-28747524D01*
X30933555Y-28733548D01*
X30952991Y-28723160D01*
X30974072Y-28716764D01*
X31002140Y-28714000D01*
X31465860Y-28714000D01*
X31493928Y-28716764D01*
X31493928Y-28716764D01*
G37*
G36*
X32763928Y-28716764D02*
G01*
X32785009Y-28723160D01*
X32804445Y-28733548D01*
X32821476Y-28747524D01*
X32835452Y-28764555D01*
X32845840Y-28783991D01*
X32852236Y-28805072D01*
X32855000Y-28833140D01*
X32855000Y-30646860D01*
X32852236Y-30674928D01*
X32845840Y-30696009D01*
X32835452Y-30715445D01*
X32821476Y-30732476D01*
X32804445Y-30746452D01*
X32785009Y-30756840D01*
X32763928Y-30763236D01*
X32735860Y-30766000D01*
X32272140Y-30766000D01*
X32244072Y-30763236D01*
X32222991Y-30756840D01*
X32203555Y-30746452D01*
X32186524Y-30732476D01*
X32172548Y-30715445D01*
X32162160Y-30696009D01*
X32155764Y-30674928D01*
X32153000Y-30646860D01*
X32153000Y-28833140D01*
X32155764Y-28805072D01*
X32162160Y-28783991D01*
X32172548Y-28764555D01*
X32186524Y-28747524D01*
X32203555Y-28733548D01*
X32222991Y-28723160D01*
X32244072Y-28716764D01*
X32272140Y-28714000D01*
X32735860Y-28714000D01*
X32763928Y-28716764D01*
X32763928Y-28716764D01*
G37*
G36*
X66636348Y-28910513D02*
G01*
X66802812Y-28943624D01*
X66966784Y-29011544D01*
X67114354Y-29110147D01*
X67239853Y-29235646D01*
X67338456Y-29383216D01*
X67406376Y-29547188D01*
X67441000Y-29721259D01*
X67441000Y-29898741D01*
X67406376Y-30072812D01*
X67338456Y-30236784D01*
X67239853Y-30384354D01*
X67114354Y-30509853D01*
X66966784Y-30608456D01*
X66802812Y-30676376D01*
X66653512Y-30706073D01*
X66628742Y-30711000D01*
X66451258Y-30711000D01*
X66426488Y-30706073D01*
X66277188Y-30676376D01*
X66113216Y-30608456D01*
X65965646Y-30509853D01*
X65840147Y-30384354D01*
X65741544Y-30236784D01*
X65673624Y-30072812D01*
X65639000Y-29898741D01*
X65639000Y-29721259D01*
X65673624Y-29547188D01*
X65741544Y-29383216D01*
X65840147Y-29235646D01*
X65965646Y-29110147D01*
X66113216Y-29011544D01*
X66277188Y-28943624D01*
X66443652Y-28910513D01*
X66451258Y-28909000D01*
X66628742Y-28909000D01*
X66636348Y-28910513D01*
X66636348Y-28910513D01*
G37*
G36*
X69190443Y-28915519D02*
G01*
X69256627Y-28922037D01*
X69426466Y-28973557D01*
X69582991Y-29057222D01*
X69618729Y-29086552D01*
X69720186Y-29169814D01*
X69791251Y-29256408D01*
X69832778Y-29307009D01*
X69832779Y-29307011D01*
X69900221Y-29433184D01*
X69916443Y-29463534D01*
X69967963Y-29633373D01*
X69985359Y-29810000D01*
X69967963Y-29986627D01*
X69916443Y-30156466D01*
X69832778Y-30312991D01*
X69803448Y-30348729D01*
X69720186Y-30450186D01*
X69647480Y-30509853D01*
X69582991Y-30562778D01*
X69426466Y-30646443D01*
X69256627Y-30697963D01*
X69190443Y-30704481D01*
X69124260Y-30711000D01*
X69035740Y-30711000D01*
X68969557Y-30704481D01*
X68903373Y-30697963D01*
X68733534Y-30646443D01*
X68577009Y-30562778D01*
X68512520Y-30509853D01*
X68439814Y-30450186D01*
X68356552Y-30348729D01*
X68327222Y-30312991D01*
X68243557Y-30156466D01*
X68192037Y-29986627D01*
X68174641Y-29810000D01*
X68192037Y-29633373D01*
X68243557Y-29463534D01*
X68259780Y-29433184D01*
X68327221Y-29307011D01*
X68327222Y-29307009D01*
X68368749Y-29256408D01*
X68439814Y-29169814D01*
X68541271Y-29086552D01*
X68577009Y-29057222D01*
X68733534Y-28973557D01*
X68903373Y-28922037D01*
X68969557Y-28915519D01*
X69035740Y-28909000D01*
X69124260Y-28909000D01*
X69190443Y-28915519D01*
X69190443Y-28915519D01*
G37*
G36*
X44601000Y-29241000D02*
G01*
X42399000Y-29241000D01*
X42399000Y-27339000D01*
X44601000Y-27339000D01*
X44601000Y-29241000D01*
X44601000Y-29241000D01*
G37*
G36*
X47501000Y-29241000D02*
G01*
X45299000Y-29241000D01*
X45299000Y-27339000D01*
X47501000Y-27339000D01*
X47501000Y-29241000D01*
X47501000Y-29241000D01*
G37*
G36*
X26963674Y-27543465D02*
G01*
X27001367Y-27554899D01*
X27036103Y-27573466D01*
X27066548Y-27598452D01*
X27091534Y-27628897D01*
X27110101Y-27663633D01*
X27121535Y-27701326D01*
X27126000Y-27746661D01*
X27126000Y-28833339D01*
X27121535Y-28878674D01*
X27110101Y-28916367D01*
X27091534Y-28951103D01*
X27066548Y-28981548D01*
X27036103Y-29006534D01*
X27001367Y-29025101D01*
X26963674Y-29036535D01*
X26918339Y-29041000D01*
X26081661Y-29041000D01*
X26036326Y-29036535D01*
X25998633Y-29025101D01*
X25963897Y-29006534D01*
X25933452Y-28981548D01*
X25908466Y-28951103D01*
X25889899Y-28916367D01*
X25878465Y-28878674D01*
X25874000Y-28833339D01*
X25874000Y-27746661D01*
X25878465Y-27701326D01*
X25889899Y-27663633D01*
X25908466Y-27628897D01*
X25933452Y-27598452D01*
X25963897Y-27573466D01*
X25998633Y-27554899D01*
X26036326Y-27543465D01*
X26081661Y-27539000D01*
X26918339Y-27539000D01*
X26963674Y-27543465D01*
X26963674Y-27543465D01*
G37*
G36*
X29013674Y-27543465D02*
G01*
X29051367Y-27554899D01*
X29086103Y-27573466D01*
X29116548Y-27598452D01*
X29141534Y-27628897D01*
X29160101Y-27663633D01*
X29171535Y-27701326D01*
X29176000Y-27746661D01*
X29176000Y-28833339D01*
X29171535Y-28878674D01*
X29160101Y-28916367D01*
X29141534Y-28951103D01*
X29116548Y-28981548D01*
X29086103Y-29006534D01*
X29051367Y-29025101D01*
X29013674Y-29036535D01*
X28968339Y-29041000D01*
X28131661Y-29041000D01*
X28086326Y-29036535D01*
X28048633Y-29025101D01*
X28013897Y-29006534D01*
X27983452Y-28981548D01*
X27958466Y-28951103D01*
X27939899Y-28916367D01*
X27928465Y-28878674D01*
X27924000Y-28833339D01*
X27924000Y-27746661D01*
X27928465Y-27701326D01*
X27939899Y-27663633D01*
X27958466Y-27628897D01*
X27983452Y-27598452D01*
X28013897Y-27573466D01*
X28048633Y-27554899D01*
X28086326Y-27543465D01*
X28131661Y-27539000D01*
X28968339Y-27539000D01*
X29013674Y-27543465D01*
X29013674Y-27543465D01*
G37*
G36*
X14420285Y-26590617D02*
G01*
X14453879Y-26593926D01*
X14529794Y-26616954D01*
X14583195Y-26633153D01*
X14702364Y-26696851D01*
X14806823Y-26782577D01*
X14892549Y-26887036D01*
X14956247Y-27006205D01*
X14995474Y-27135522D01*
X15008719Y-27270000D01*
X14995474Y-27404478D01*
X14956247Y-27533795D01*
X14892549Y-27652964D01*
X14806823Y-27757423D01*
X14702364Y-27843149D01*
X14583195Y-27906847D01*
X14529794Y-27923046D01*
X14453879Y-27946074D01*
X14420285Y-27949383D01*
X14353100Y-27956000D01*
X13726900Y-27956000D01*
X13659715Y-27949383D01*
X13626121Y-27946074D01*
X13550206Y-27923046D01*
X13496805Y-27906847D01*
X13377636Y-27843149D01*
X13273177Y-27757423D01*
X13187451Y-27652964D01*
X13123753Y-27533795D01*
X13084526Y-27404478D01*
X13071281Y-27270000D01*
X13084526Y-27135522D01*
X13123753Y-27006205D01*
X13187451Y-26887036D01*
X13273177Y-26782577D01*
X13377636Y-26696851D01*
X13496805Y-26633153D01*
X13550206Y-26616954D01*
X13626121Y-26593926D01*
X13659715Y-26590617D01*
X13726900Y-26584000D01*
X14353100Y-26584000D01*
X14420285Y-26590617D01*
X14420285Y-26590617D01*
G37*
G36*
X49983674Y-26657465D02*
G01*
X50021367Y-26668899D01*
X50056103Y-26687466D01*
X50086548Y-26712452D01*
X50111534Y-26742897D01*
X50130101Y-26777633D01*
X50141535Y-26815326D01*
X50146000Y-26860661D01*
X50146000Y-27697339D01*
X50141535Y-27742674D01*
X50130101Y-27780367D01*
X50111534Y-27815103D01*
X50086548Y-27845548D01*
X50056103Y-27870534D01*
X50021367Y-27889101D01*
X49983674Y-27900535D01*
X49938339Y-27905000D01*
X48851661Y-27905000D01*
X48806326Y-27900535D01*
X48768633Y-27889101D01*
X48733897Y-27870534D01*
X48703452Y-27845548D01*
X48678466Y-27815103D01*
X48659899Y-27780367D01*
X48648465Y-27742674D01*
X48644000Y-27697339D01*
X48644000Y-26860661D01*
X48648465Y-26815326D01*
X48659899Y-26777633D01*
X48678466Y-26742897D01*
X48703452Y-26712452D01*
X48733897Y-26687466D01*
X48768633Y-26668899D01*
X48806326Y-26657465D01*
X48851661Y-26653000D01*
X49938339Y-26653000D01*
X49983674Y-26657465D01*
X49983674Y-26657465D01*
G37*
G36*
X47501000Y-26941000D02*
G01*
X45299000Y-26941000D01*
X45299000Y-25039000D01*
X47501000Y-25039000D01*
X47501000Y-26941000D01*
X47501000Y-26941000D01*
G37*
G36*
X44601000Y-26941000D02*
G01*
X42399000Y-26941000D01*
X42399000Y-25039000D01*
X44601000Y-25039000D01*
X44601000Y-26941000D01*
X44601000Y-26941000D01*
G37*
G36*
X26963674Y-25043465D02*
G01*
X27001367Y-25054899D01*
X27036103Y-25073466D01*
X27066548Y-25098452D01*
X27091534Y-25128897D01*
X27110101Y-25163633D01*
X27121535Y-25201326D01*
X27126000Y-25246661D01*
X27126000Y-26333339D01*
X27121535Y-26378674D01*
X27110101Y-26416367D01*
X27091534Y-26451103D01*
X27066548Y-26481548D01*
X27036103Y-26506534D01*
X27001367Y-26525101D01*
X26963674Y-26536535D01*
X26918339Y-26541000D01*
X26081661Y-26541000D01*
X26036326Y-26536535D01*
X25998633Y-26525101D01*
X25963897Y-26506534D01*
X25933452Y-26481548D01*
X25908466Y-26451103D01*
X25889899Y-26416367D01*
X25878465Y-26378674D01*
X25874000Y-26333339D01*
X25874000Y-25246661D01*
X25878465Y-25201326D01*
X25889899Y-25163633D01*
X25908466Y-25128897D01*
X25933452Y-25098452D01*
X25963897Y-25073466D01*
X25998633Y-25054899D01*
X26036326Y-25043465D01*
X26081661Y-25039000D01*
X26918339Y-25039000D01*
X26963674Y-25043465D01*
X26963674Y-25043465D01*
G37*
G36*
X29013674Y-25043465D02*
G01*
X29051367Y-25054899D01*
X29086103Y-25073466D01*
X29116548Y-25098452D01*
X29141534Y-25128897D01*
X29160101Y-25163633D01*
X29171535Y-25201326D01*
X29176000Y-25246661D01*
X29176000Y-26333339D01*
X29171535Y-26378674D01*
X29160101Y-26416367D01*
X29141534Y-26451103D01*
X29116548Y-26481548D01*
X29086103Y-26506534D01*
X29051367Y-26525101D01*
X29013674Y-26536535D01*
X28968339Y-26541000D01*
X28131661Y-26541000D01*
X28086326Y-26536535D01*
X28048633Y-26525101D01*
X28013897Y-26506534D01*
X27983452Y-26481548D01*
X27958466Y-26451103D01*
X27939899Y-26416367D01*
X27928465Y-26378674D01*
X27924000Y-26333339D01*
X27924000Y-25246661D01*
X27928465Y-25201326D01*
X27939899Y-25163633D01*
X27958466Y-25128897D01*
X27983452Y-25098452D01*
X28013897Y-25073466D01*
X28048633Y-25054899D01*
X28086326Y-25043465D01*
X28131661Y-25039000D01*
X28968339Y-25039000D01*
X29013674Y-25043465D01*
X29013674Y-25043465D01*
G37*
G36*
X49983674Y-24607465D02*
G01*
X50021367Y-24618899D01*
X50056103Y-24637466D01*
X50086548Y-24662452D01*
X50111534Y-24692897D01*
X50130101Y-24727633D01*
X50141535Y-24765326D01*
X50146000Y-24810661D01*
X50146000Y-25647339D01*
X50141535Y-25692674D01*
X50130101Y-25730367D01*
X50111534Y-25765103D01*
X50086548Y-25795548D01*
X50056103Y-25820534D01*
X50021367Y-25839101D01*
X49983674Y-25850535D01*
X49938339Y-25855000D01*
X48851661Y-25855000D01*
X48806326Y-25850535D01*
X48768633Y-25839101D01*
X48733897Y-25820534D01*
X48703452Y-25795548D01*
X48678466Y-25765103D01*
X48659899Y-25730367D01*
X48648465Y-25692674D01*
X48644000Y-25647339D01*
X48644000Y-24810661D01*
X48648465Y-24765326D01*
X48659899Y-24727633D01*
X48678466Y-24692897D01*
X48703452Y-24662452D01*
X48733897Y-24637466D01*
X48768633Y-24618899D01*
X48806326Y-24607465D01*
X48851661Y-24603000D01*
X49938339Y-24603000D01*
X49983674Y-24607465D01*
X49983674Y-24607465D01*
G37*
G36*
X35303928Y-23766764D02*
G01*
X35325009Y-23773160D01*
X35344445Y-23783548D01*
X35361476Y-23797524D01*
X35375452Y-23814555D01*
X35385840Y-23833991D01*
X35392236Y-23855072D01*
X35395000Y-23883140D01*
X35395000Y-25696860D01*
X35392236Y-25724928D01*
X35385840Y-25746009D01*
X35375452Y-25765445D01*
X35361476Y-25782476D01*
X35344445Y-25796452D01*
X35325009Y-25806840D01*
X35303928Y-25813236D01*
X35275860Y-25816000D01*
X34812140Y-25816000D01*
X34784072Y-25813236D01*
X34762991Y-25806840D01*
X34743555Y-25796452D01*
X34726524Y-25782476D01*
X34712548Y-25765445D01*
X34702160Y-25746009D01*
X34695764Y-25724928D01*
X34693000Y-25696860D01*
X34693000Y-23883140D01*
X34695764Y-23855072D01*
X34702160Y-23833991D01*
X34712548Y-23814555D01*
X34726524Y-23797524D01*
X34743555Y-23783548D01*
X34762991Y-23773160D01*
X34784072Y-23766764D01*
X34812140Y-23764000D01*
X35275860Y-23764000D01*
X35303928Y-23766764D01*
X35303928Y-23766764D01*
G37*
G36*
X34033928Y-23766764D02*
G01*
X34055009Y-23773160D01*
X34074445Y-23783548D01*
X34091476Y-23797524D01*
X34105452Y-23814555D01*
X34115840Y-23833991D01*
X34122236Y-23855072D01*
X34125000Y-23883140D01*
X34125000Y-25696860D01*
X34122236Y-25724928D01*
X34115840Y-25746009D01*
X34105452Y-25765445D01*
X34091476Y-25782476D01*
X34074445Y-25796452D01*
X34055009Y-25806840D01*
X34033928Y-25813236D01*
X34005860Y-25816000D01*
X33542140Y-25816000D01*
X33514072Y-25813236D01*
X33492991Y-25806840D01*
X33473555Y-25796452D01*
X33456524Y-25782476D01*
X33442548Y-25765445D01*
X33432160Y-25746009D01*
X33425764Y-25724928D01*
X33423000Y-25696860D01*
X33423000Y-23883140D01*
X33425764Y-23855072D01*
X33432160Y-23833991D01*
X33442548Y-23814555D01*
X33456524Y-23797524D01*
X33473555Y-23783548D01*
X33492991Y-23773160D01*
X33514072Y-23766764D01*
X33542140Y-23764000D01*
X34005860Y-23764000D01*
X34033928Y-23766764D01*
X34033928Y-23766764D01*
G37*
G36*
X32763928Y-23766764D02*
G01*
X32785009Y-23773160D01*
X32804445Y-23783548D01*
X32821476Y-23797524D01*
X32835452Y-23814555D01*
X32845840Y-23833991D01*
X32852236Y-23855072D01*
X32855000Y-23883140D01*
X32855000Y-25696860D01*
X32852236Y-25724928D01*
X32845840Y-25746009D01*
X32835452Y-25765445D01*
X32821476Y-25782476D01*
X32804445Y-25796452D01*
X32785009Y-25806840D01*
X32763928Y-25813236D01*
X32735860Y-25816000D01*
X32272140Y-25816000D01*
X32244072Y-25813236D01*
X32222991Y-25806840D01*
X32203555Y-25796452D01*
X32186524Y-25782476D01*
X32172548Y-25765445D01*
X32162160Y-25746009D01*
X32155764Y-25724928D01*
X32153000Y-25696860D01*
X32153000Y-23883140D01*
X32155764Y-23855072D01*
X32162160Y-23833991D01*
X32172548Y-23814555D01*
X32186524Y-23797524D01*
X32203555Y-23783548D01*
X32222991Y-23773160D01*
X32244072Y-23766764D01*
X32272140Y-23764000D01*
X32735860Y-23764000D01*
X32763928Y-23766764D01*
X32763928Y-23766764D01*
G37*
G36*
X31493928Y-23766764D02*
G01*
X31515009Y-23773160D01*
X31534445Y-23783548D01*
X31551476Y-23797524D01*
X31565452Y-23814555D01*
X31575840Y-23833991D01*
X31582236Y-23855072D01*
X31585000Y-23883140D01*
X31585000Y-25696860D01*
X31582236Y-25724928D01*
X31575840Y-25746009D01*
X31565452Y-25765445D01*
X31551476Y-25782476D01*
X31534445Y-25796452D01*
X31515009Y-25806840D01*
X31493928Y-25813236D01*
X31465860Y-25816000D01*
X31002140Y-25816000D01*
X30974072Y-25813236D01*
X30952991Y-25806840D01*
X30933555Y-25796452D01*
X30916524Y-25782476D01*
X30902548Y-25765445D01*
X30892160Y-25746009D01*
X30885764Y-25724928D01*
X30883000Y-25696860D01*
X30883000Y-23883140D01*
X30885764Y-23855072D01*
X30892160Y-23833991D01*
X30902548Y-23814555D01*
X30916524Y-23797524D01*
X30933555Y-23783548D01*
X30952991Y-23773160D01*
X30974072Y-23766764D01*
X31002140Y-23764000D01*
X31465860Y-23764000D01*
X31493928Y-23766764D01*
X31493928Y-23766764D01*
G37*
G36*
X36573928Y-23766764D02*
G01*
X36595009Y-23773160D01*
X36614445Y-23783548D01*
X36631476Y-23797524D01*
X36645452Y-23814555D01*
X36655840Y-23833991D01*
X36662236Y-23855072D01*
X36665000Y-23883140D01*
X36665000Y-25696860D01*
X36662236Y-25724928D01*
X36655840Y-25746009D01*
X36645452Y-25765445D01*
X36631476Y-25782476D01*
X36614445Y-25796452D01*
X36595009Y-25806840D01*
X36573928Y-25813236D01*
X36545860Y-25816000D01*
X36082140Y-25816000D01*
X36054072Y-25813236D01*
X36032991Y-25806840D01*
X36013555Y-25796452D01*
X35996524Y-25782476D01*
X35982548Y-25765445D01*
X35972160Y-25746009D01*
X35965764Y-25724928D01*
X35963000Y-25696860D01*
X35963000Y-23883140D01*
X35965764Y-23855072D01*
X35972160Y-23833991D01*
X35982548Y-23814555D01*
X35996524Y-23797524D01*
X36013555Y-23783548D01*
X36032991Y-23773160D01*
X36054072Y-23766764D01*
X36082140Y-23764000D01*
X36545860Y-23764000D01*
X36573928Y-23766764D01*
X36573928Y-23766764D01*
G37*
G36*
X39113928Y-23766764D02*
G01*
X39135009Y-23773160D01*
X39154445Y-23783548D01*
X39171476Y-23797524D01*
X39185452Y-23814555D01*
X39195840Y-23833991D01*
X39202236Y-23855072D01*
X39205000Y-23883140D01*
X39205000Y-25696860D01*
X39202236Y-25724928D01*
X39195840Y-25746009D01*
X39185452Y-25765445D01*
X39171476Y-25782476D01*
X39154445Y-25796452D01*
X39135009Y-25806840D01*
X39113928Y-25813236D01*
X39085860Y-25816000D01*
X38622140Y-25816000D01*
X38594072Y-25813236D01*
X38572991Y-25806840D01*
X38553555Y-25796452D01*
X38536524Y-25782476D01*
X38522548Y-25765445D01*
X38512160Y-25746009D01*
X38505764Y-25724928D01*
X38503000Y-25696860D01*
X38503000Y-23883140D01*
X38505764Y-23855072D01*
X38512160Y-23833991D01*
X38522548Y-23814555D01*
X38536524Y-23797524D01*
X38553555Y-23783548D01*
X38572991Y-23773160D01*
X38594072Y-23766764D01*
X38622140Y-23764000D01*
X39085860Y-23764000D01*
X39113928Y-23766764D01*
X39113928Y-23766764D01*
G37*
G36*
X37843928Y-23766764D02*
G01*
X37865009Y-23773160D01*
X37884445Y-23783548D01*
X37901476Y-23797524D01*
X37915452Y-23814555D01*
X37925840Y-23833991D01*
X37932236Y-23855072D01*
X37935000Y-23883140D01*
X37935000Y-25696860D01*
X37932236Y-25724928D01*
X37925840Y-25746009D01*
X37915452Y-25765445D01*
X37901476Y-25782476D01*
X37884445Y-25796452D01*
X37865009Y-25806840D01*
X37843928Y-25813236D01*
X37815860Y-25816000D01*
X37352140Y-25816000D01*
X37324072Y-25813236D01*
X37302991Y-25806840D01*
X37283555Y-25796452D01*
X37266524Y-25782476D01*
X37252548Y-25765445D01*
X37242160Y-25746009D01*
X37235764Y-25724928D01*
X37233000Y-25696860D01*
X37233000Y-23883140D01*
X37235764Y-23855072D01*
X37242160Y-23833991D01*
X37252548Y-23814555D01*
X37266524Y-23797524D01*
X37283555Y-23783548D01*
X37302991Y-23773160D01*
X37324072Y-23766764D01*
X37352140Y-23764000D01*
X37815860Y-23764000D01*
X37843928Y-23766764D01*
X37843928Y-23766764D01*
G37*
G36*
X40383928Y-23766764D02*
G01*
X40405009Y-23773160D01*
X40424445Y-23783548D01*
X40441476Y-23797524D01*
X40455452Y-23814555D01*
X40465840Y-23833991D01*
X40472236Y-23855072D01*
X40475000Y-23883140D01*
X40475000Y-25696860D01*
X40472236Y-25724928D01*
X40465840Y-25746009D01*
X40455452Y-25765445D01*
X40441476Y-25782476D01*
X40424445Y-25796452D01*
X40405009Y-25806840D01*
X40383928Y-25813236D01*
X40355860Y-25816000D01*
X39892140Y-25816000D01*
X39864072Y-25813236D01*
X39842991Y-25806840D01*
X39823555Y-25796452D01*
X39806524Y-25782476D01*
X39792548Y-25765445D01*
X39782160Y-25746009D01*
X39775764Y-25724928D01*
X39773000Y-25696860D01*
X39773000Y-23883140D01*
X39775764Y-23855072D01*
X39782160Y-23833991D01*
X39792548Y-23814555D01*
X39806524Y-23797524D01*
X39823555Y-23783548D01*
X39842991Y-23773160D01*
X39864072Y-23766764D01*
X39892140Y-23764000D01*
X40355860Y-23764000D01*
X40383928Y-23766764D01*
X40383928Y-23766764D01*
G37*
G36*
X26955274Y-22543465D02*
G01*
X26992967Y-22554899D01*
X27027703Y-22573466D01*
X27058148Y-22598452D01*
X27083134Y-22628897D01*
X27101701Y-22663633D01*
X27113135Y-22701326D01*
X27117600Y-22746661D01*
X27117600Y-23833339D01*
X27113135Y-23878674D01*
X27101701Y-23916367D01*
X27083134Y-23951103D01*
X27058148Y-23981548D01*
X27027703Y-24006534D01*
X26992967Y-24025101D01*
X26955274Y-24036535D01*
X26909939Y-24041000D01*
X26073261Y-24041000D01*
X26027926Y-24036535D01*
X25990233Y-24025101D01*
X25955497Y-24006534D01*
X25925052Y-23981548D01*
X25900066Y-23951103D01*
X25881499Y-23916367D01*
X25870065Y-23878674D01*
X25865600Y-23833339D01*
X25865600Y-22746661D01*
X25870065Y-22701326D01*
X25881499Y-22663633D01*
X25900066Y-22628897D01*
X25925052Y-22598452D01*
X25955497Y-22573466D01*
X25990233Y-22554899D01*
X26027926Y-22543465D01*
X26073261Y-22539000D01*
X26909939Y-22539000D01*
X26955274Y-22543465D01*
X26955274Y-22543465D01*
G37*
G36*
X29005274Y-22543465D02*
G01*
X29042967Y-22554899D01*
X29077703Y-22573466D01*
X29108148Y-22598452D01*
X29133134Y-22628897D01*
X29151701Y-22663633D01*
X29163135Y-22701326D01*
X29167600Y-22746661D01*
X29167600Y-23833339D01*
X29163135Y-23878674D01*
X29151701Y-23916367D01*
X29133134Y-23951103D01*
X29108148Y-23981548D01*
X29077703Y-24006534D01*
X29042967Y-24025101D01*
X29005274Y-24036535D01*
X28959939Y-24041000D01*
X28123261Y-24041000D01*
X28077926Y-24036535D01*
X28040233Y-24025101D01*
X28005497Y-24006534D01*
X27975052Y-23981548D01*
X27950066Y-23951103D01*
X27931499Y-23916367D01*
X27920065Y-23878674D01*
X27915600Y-23833339D01*
X27915600Y-22746661D01*
X27920065Y-22701326D01*
X27931499Y-22663633D01*
X27950066Y-22628897D01*
X27975052Y-22598452D01*
X28005497Y-22573466D01*
X28040233Y-22554899D01*
X28077926Y-22543465D01*
X28123261Y-22539000D01*
X28959939Y-22539000D01*
X29005274Y-22543465D01*
X29005274Y-22543465D01*
G37*
G36*
X31822674Y-21695465D02*
G01*
X31860367Y-21706899D01*
X31895103Y-21725466D01*
X31925548Y-21750452D01*
X31950534Y-21780897D01*
X31969101Y-21815633D01*
X31980535Y-21853326D01*
X31985000Y-21898661D01*
X31985000Y-22735339D01*
X31980535Y-22780674D01*
X31969101Y-22818367D01*
X31950534Y-22853103D01*
X31925548Y-22883548D01*
X31895103Y-22908534D01*
X31860367Y-22927101D01*
X31822674Y-22938535D01*
X31777339Y-22943000D01*
X30690661Y-22943000D01*
X30645326Y-22938535D01*
X30607633Y-22927101D01*
X30572897Y-22908534D01*
X30542452Y-22883548D01*
X30517466Y-22853103D01*
X30498899Y-22818367D01*
X30487465Y-22780674D01*
X30483000Y-22735339D01*
X30483000Y-21898661D01*
X30487465Y-21853326D01*
X30498899Y-21815633D01*
X30517466Y-21780897D01*
X30542452Y-21750452D01*
X30572897Y-21725466D01*
X30607633Y-21706899D01*
X30645326Y-21695465D01*
X30690661Y-21691000D01*
X31777339Y-21691000D01*
X31822674Y-21695465D01*
X31822674Y-21695465D01*
G37*
G36*
X28979874Y-20043465D02*
G01*
X29017567Y-20054899D01*
X29052303Y-20073466D01*
X29082748Y-20098452D01*
X29107734Y-20128897D01*
X29126301Y-20163633D01*
X29137735Y-20201326D01*
X29142200Y-20246661D01*
X29142200Y-21333339D01*
X29137735Y-21378674D01*
X29126301Y-21416367D01*
X29107734Y-21451103D01*
X29082748Y-21481548D01*
X29052303Y-21506534D01*
X29017567Y-21525101D01*
X28979874Y-21536535D01*
X28934539Y-21541000D01*
X28097861Y-21541000D01*
X28052526Y-21536535D01*
X28014833Y-21525101D01*
X27980097Y-21506534D01*
X27949652Y-21481548D01*
X27924666Y-21451103D01*
X27906099Y-21416367D01*
X27894665Y-21378674D01*
X27890200Y-21333339D01*
X27890200Y-20246661D01*
X27894665Y-20201326D01*
X27906099Y-20163633D01*
X27924666Y-20128897D01*
X27949652Y-20098452D01*
X27980097Y-20073466D01*
X28014833Y-20054899D01*
X28052526Y-20043465D01*
X28097861Y-20039000D01*
X28934539Y-20039000D01*
X28979874Y-20043465D01*
X28979874Y-20043465D01*
G37*
G36*
X26929874Y-20043465D02*
G01*
X26967567Y-20054899D01*
X27002303Y-20073466D01*
X27032748Y-20098452D01*
X27057734Y-20128897D01*
X27076301Y-20163633D01*
X27087735Y-20201326D01*
X27092200Y-20246661D01*
X27092200Y-21333339D01*
X27087735Y-21378674D01*
X27076301Y-21416367D01*
X27057734Y-21451103D01*
X27032748Y-21481548D01*
X27002303Y-21506534D01*
X26967567Y-21525101D01*
X26929874Y-21536535D01*
X26884539Y-21541000D01*
X26047861Y-21541000D01*
X26002526Y-21536535D01*
X25964833Y-21525101D01*
X25930097Y-21506534D01*
X25899652Y-21481548D01*
X25874666Y-21451103D01*
X25856099Y-21416367D01*
X25844665Y-21378674D01*
X25840200Y-21333339D01*
X25840200Y-20246661D01*
X25844665Y-20201326D01*
X25856099Y-20163633D01*
X25874666Y-20128897D01*
X25899652Y-20098452D01*
X25930097Y-20073466D01*
X25964833Y-20054899D01*
X26002526Y-20043465D01*
X26047861Y-20039000D01*
X26884539Y-20039000D01*
X26929874Y-20043465D01*
X26929874Y-20043465D01*
G37*
G36*
X18191000Y-21161000D02*
G01*
X17089000Y-21161000D01*
X17089000Y-19359000D01*
X18191000Y-19359000D01*
X18191000Y-21161000D01*
X18191000Y-21161000D01*
G37*
G36*
X14391000Y-21161000D02*
G01*
X13289000Y-21161000D01*
X13289000Y-19359000D01*
X14391000Y-19359000D01*
X14391000Y-21161000D01*
X14391000Y-21161000D01*
G37*
G36*
X31822674Y-19645465D02*
G01*
X31860367Y-19656899D01*
X31895103Y-19675466D01*
X31925548Y-19700452D01*
X31950534Y-19730897D01*
X31969101Y-19765633D01*
X31980535Y-19803326D01*
X31985000Y-19848661D01*
X31985000Y-20685339D01*
X31980535Y-20730674D01*
X31969101Y-20768367D01*
X31950534Y-20803103D01*
X31925548Y-20833548D01*
X31895103Y-20858534D01*
X31860367Y-20877101D01*
X31822674Y-20888535D01*
X31777339Y-20893000D01*
X30690661Y-20893000D01*
X30645326Y-20888535D01*
X30607633Y-20877101D01*
X30572897Y-20858534D01*
X30542452Y-20833548D01*
X30517466Y-20803103D01*
X30498899Y-20768367D01*
X30487465Y-20730674D01*
X30483000Y-20685339D01*
X30483000Y-19848661D01*
X30487465Y-19803326D01*
X30498899Y-19765633D01*
X30517466Y-19730897D01*
X30542452Y-19700452D01*
X30572897Y-19675466D01*
X30607633Y-19656899D01*
X30645326Y-19645465D01*
X30690661Y-19641000D01*
X31777339Y-19641000D01*
X31822674Y-19645465D01*
X31822674Y-19645465D01*
G37*
G36*
X66653512Y-16213927D02*
G01*
X66802812Y-16243624D01*
X66966784Y-16311544D01*
X67114354Y-16410147D01*
X67239853Y-16535646D01*
X67338456Y-16683216D01*
X67406376Y-16847188D01*
X67441000Y-17021259D01*
X67441000Y-17198741D01*
X67406376Y-17372812D01*
X67338456Y-17536784D01*
X67239853Y-17684354D01*
X67114354Y-17809853D01*
X66966784Y-17908456D01*
X66802812Y-17976376D01*
X66653512Y-18006073D01*
X66628742Y-18011000D01*
X66451258Y-18011000D01*
X66426488Y-18006073D01*
X66277188Y-17976376D01*
X66113216Y-17908456D01*
X65965646Y-17809853D01*
X65840147Y-17684354D01*
X65741544Y-17536784D01*
X65673624Y-17372812D01*
X65639000Y-17198741D01*
X65639000Y-17021259D01*
X65673624Y-16847188D01*
X65741544Y-16683216D01*
X65840147Y-16535646D01*
X65965646Y-16410147D01*
X66113216Y-16311544D01*
X66277188Y-16243624D01*
X66426488Y-16213927D01*
X66451258Y-16209000D01*
X66628742Y-16209000D01*
X66653512Y-16213927D01*
X66653512Y-16213927D01*
G37*
G36*
X64110443Y-16215519D02*
G01*
X64176627Y-16222037D01*
X64346466Y-16273557D01*
X64502991Y-16357222D01*
X64538729Y-16386552D01*
X64640186Y-16469814D01*
X64723448Y-16571271D01*
X64752778Y-16607009D01*
X64836443Y-16763534D01*
X64887963Y-16933373D01*
X64905359Y-17110000D01*
X64887963Y-17286627D01*
X64836443Y-17456466D01*
X64752778Y-17612991D01*
X64723448Y-17648729D01*
X64640186Y-17750186D01*
X64567480Y-17809853D01*
X64502991Y-17862778D01*
X64346466Y-17946443D01*
X64176627Y-17997963D01*
X64110443Y-18004481D01*
X64044260Y-18011000D01*
X63955740Y-18011000D01*
X63889557Y-18004481D01*
X63823373Y-17997963D01*
X63653534Y-17946443D01*
X63497009Y-17862778D01*
X63432520Y-17809853D01*
X63359814Y-17750186D01*
X63276552Y-17648729D01*
X63247222Y-17612991D01*
X63163557Y-17456466D01*
X63112037Y-17286627D01*
X63094641Y-17110000D01*
X63112037Y-16933373D01*
X63163557Y-16763534D01*
X63247222Y-16607009D01*
X63276552Y-16571271D01*
X63359814Y-16469814D01*
X63461271Y-16386552D01*
X63497009Y-16357222D01*
X63653534Y-16273557D01*
X63823373Y-16222037D01*
X63889557Y-16215519D01*
X63955740Y-16209000D01*
X64044260Y-16209000D01*
X64110443Y-16215519D01*
X64110443Y-16215519D01*
G37*
G36*
X20930443Y-16215519D02*
G01*
X20996627Y-16222037D01*
X21166466Y-16273557D01*
X21322991Y-16357222D01*
X21358729Y-16386552D01*
X21460186Y-16469814D01*
X21543448Y-16571271D01*
X21572778Y-16607009D01*
X21656443Y-16763534D01*
X21707963Y-16933373D01*
X21725359Y-17110000D01*
X21707963Y-17286627D01*
X21656443Y-17456466D01*
X21572778Y-17612991D01*
X21543448Y-17648729D01*
X21460186Y-17750186D01*
X21387480Y-17809853D01*
X21322991Y-17862778D01*
X21166466Y-17946443D01*
X20996627Y-17997963D01*
X20930443Y-18004481D01*
X20864260Y-18011000D01*
X20775740Y-18011000D01*
X20709557Y-18004481D01*
X20643373Y-17997963D01*
X20473534Y-17946443D01*
X20317009Y-17862778D01*
X20252520Y-17809853D01*
X20179814Y-17750186D01*
X20096552Y-17648729D01*
X20067222Y-17612991D01*
X19983557Y-17456466D01*
X19932037Y-17286627D01*
X19914641Y-17110000D01*
X19932037Y-16933373D01*
X19983557Y-16763534D01*
X20067222Y-16607009D01*
X20096552Y-16571271D01*
X20179814Y-16469814D01*
X20281271Y-16386552D01*
X20317009Y-16357222D01*
X20473534Y-16273557D01*
X20643373Y-16222037D01*
X20709557Y-16215519D01*
X20775740Y-16209000D01*
X20864260Y-16209000D01*
X20930443Y-16215519D01*
X20930443Y-16215519D01*
G37*
G36*
X23470443Y-16215519D02*
G01*
X23536627Y-16222037D01*
X23706466Y-16273557D01*
X23862991Y-16357222D01*
X23898729Y-16386552D01*
X24000186Y-16469814D01*
X24083448Y-16571271D01*
X24112778Y-16607009D01*
X24196443Y-16763534D01*
X24247963Y-16933373D01*
X24265359Y-17110000D01*
X24247963Y-17286627D01*
X24196443Y-17456466D01*
X24112778Y-17612991D01*
X24083448Y-17648729D01*
X24000186Y-17750186D01*
X23927480Y-17809853D01*
X23862991Y-17862778D01*
X23706466Y-17946443D01*
X23536627Y-17997963D01*
X23470443Y-18004481D01*
X23404260Y-18011000D01*
X23315740Y-18011000D01*
X23249557Y-18004481D01*
X23183373Y-17997963D01*
X23013534Y-17946443D01*
X22857009Y-17862778D01*
X22792520Y-17809853D01*
X22719814Y-17750186D01*
X22636552Y-17648729D01*
X22607222Y-17612991D01*
X22523557Y-17456466D01*
X22472037Y-17286627D01*
X22454641Y-17110000D01*
X22472037Y-16933373D01*
X22523557Y-16763534D01*
X22607222Y-16607009D01*
X22636552Y-16571271D01*
X22719814Y-16469814D01*
X22821271Y-16386552D01*
X22857009Y-16357222D01*
X23013534Y-16273557D01*
X23183373Y-16222037D01*
X23249557Y-16215519D01*
X23315740Y-16209000D01*
X23404260Y-16209000D01*
X23470443Y-16215519D01*
X23470443Y-16215519D01*
G37*
G36*
X26010443Y-16215519D02*
G01*
X26076627Y-16222037D01*
X26246466Y-16273557D01*
X26402991Y-16357222D01*
X26438729Y-16386552D01*
X26540186Y-16469814D01*
X26623448Y-16571271D01*
X26652778Y-16607009D01*
X26736443Y-16763534D01*
X26787963Y-16933373D01*
X26805359Y-17110000D01*
X26787963Y-17286627D01*
X26736443Y-17456466D01*
X26652778Y-17612991D01*
X26623448Y-17648729D01*
X26540186Y-17750186D01*
X26467480Y-17809853D01*
X26402991Y-17862778D01*
X26246466Y-17946443D01*
X26076627Y-17997963D01*
X26010443Y-18004481D01*
X25944260Y-18011000D01*
X25855740Y-18011000D01*
X25789557Y-18004481D01*
X25723373Y-17997963D01*
X25553534Y-17946443D01*
X25397009Y-17862778D01*
X25332520Y-17809853D01*
X25259814Y-17750186D01*
X25176552Y-17648729D01*
X25147222Y-17612991D01*
X25063557Y-17456466D01*
X25012037Y-17286627D01*
X24994641Y-17110000D01*
X25012037Y-16933373D01*
X25063557Y-16763534D01*
X25147222Y-16607009D01*
X25176552Y-16571271D01*
X25259814Y-16469814D01*
X25361271Y-16386552D01*
X25397009Y-16357222D01*
X25553534Y-16273557D01*
X25723373Y-16222037D01*
X25789557Y-16215519D01*
X25855740Y-16209000D01*
X25944260Y-16209000D01*
X26010443Y-16215519D01*
X26010443Y-16215519D01*
G37*
G36*
X28550443Y-16215519D02*
G01*
X28616627Y-16222037D01*
X28786466Y-16273557D01*
X28942991Y-16357222D01*
X28978729Y-16386552D01*
X29080186Y-16469814D01*
X29163448Y-16571271D01*
X29192778Y-16607009D01*
X29276443Y-16763534D01*
X29327963Y-16933373D01*
X29345359Y-17110000D01*
X29327963Y-17286627D01*
X29276443Y-17456466D01*
X29192778Y-17612991D01*
X29163448Y-17648729D01*
X29080186Y-17750186D01*
X29007480Y-17809853D01*
X28942991Y-17862778D01*
X28786466Y-17946443D01*
X28616627Y-17997963D01*
X28550443Y-18004481D01*
X28484260Y-18011000D01*
X28395740Y-18011000D01*
X28329557Y-18004481D01*
X28263373Y-17997963D01*
X28093534Y-17946443D01*
X27937009Y-17862778D01*
X27872520Y-17809853D01*
X27799814Y-17750186D01*
X27716552Y-17648729D01*
X27687222Y-17612991D01*
X27603557Y-17456466D01*
X27552037Y-17286627D01*
X27534641Y-17110000D01*
X27552037Y-16933373D01*
X27603557Y-16763534D01*
X27687222Y-16607009D01*
X27716552Y-16571271D01*
X27799814Y-16469814D01*
X27901271Y-16386552D01*
X27937009Y-16357222D01*
X28093534Y-16273557D01*
X28263373Y-16222037D01*
X28329557Y-16215519D01*
X28395740Y-16209000D01*
X28484260Y-16209000D01*
X28550443Y-16215519D01*
X28550443Y-16215519D01*
G37*
G36*
X31090443Y-16215519D02*
G01*
X31156627Y-16222037D01*
X31326466Y-16273557D01*
X31482991Y-16357222D01*
X31518729Y-16386552D01*
X31620186Y-16469814D01*
X31703448Y-16571271D01*
X31732778Y-16607009D01*
X31816443Y-16763534D01*
X31867963Y-16933373D01*
X31885359Y-17110000D01*
X31867963Y-17286627D01*
X31816443Y-17456466D01*
X31732778Y-17612991D01*
X31703448Y-17648729D01*
X31620186Y-17750186D01*
X31547480Y-17809853D01*
X31482991Y-17862778D01*
X31326466Y-17946443D01*
X31156627Y-17997963D01*
X31090443Y-18004481D01*
X31024260Y-18011000D01*
X30935740Y-18011000D01*
X30869557Y-18004481D01*
X30803373Y-17997963D01*
X30633534Y-17946443D01*
X30477009Y-17862778D01*
X30412520Y-17809853D01*
X30339814Y-17750186D01*
X30256552Y-17648729D01*
X30227222Y-17612991D01*
X30143557Y-17456466D01*
X30092037Y-17286627D01*
X30074641Y-17110000D01*
X30092037Y-16933373D01*
X30143557Y-16763534D01*
X30227222Y-16607009D01*
X30256552Y-16571271D01*
X30339814Y-16469814D01*
X30441271Y-16386552D01*
X30477009Y-16357222D01*
X30633534Y-16273557D01*
X30803373Y-16222037D01*
X30869557Y-16215519D01*
X30935740Y-16209000D01*
X31024260Y-16209000D01*
X31090443Y-16215519D01*
X31090443Y-16215519D01*
G37*
G36*
X33630443Y-16215519D02*
G01*
X33696627Y-16222037D01*
X33866466Y-16273557D01*
X34022991Y-16357222D01*
X34058729Y-16386552D01*
X34160186Y-16469814D01*
X34243448Y-16571271D01*
X34272778Y-16607009D01*
X34356443Y-16763534D01*
X34407963Y-16933373D01*
X34425359Y-17110000D01*
X34407963Y-17286627D01*
X34356443Y-17456466D01*
X34272778Y-17612991D01*
X34243448Y-17648729D01*
X34160186Y-17750186D01*
X34087480Y-17809853D01*
X34022991Y-17862778D01*
X33866466Y-17946443D01*
X33696627Y-17997963D01*
X33630443Y-18004481D01*
X33564260Y-18011000D01*
X33475740Y-18011000D01*
X33409557Y-18004481D01*
X33343373Y-17997963D01*
X33173534Y-17946443D01*
X33017009Y-17862778D01*
X32952520Y-17809853D01*
X32879814Y-17750186D01*
X32796552Y-17648729D01*
X32767222Y-17612991D01*
X32683557Y-17456466D01*
X32632037Y-17286627D01*
X32614641Y-17110000D01*
X32632037Y-16933373D01*
X32683557Y-16763534D01*
X32767222Y-16607009D01*
X32796552Y-16571271D01*
X32879814Y-16469814D01*
X32981271Y-16386552D01*
X33017009Y-16357222D01*
X33173534Y-16273557D01*
X33343373Y-16222037D01*
X33409557Y-16215519D01*
X33475740Y-16209000D01*
X33564260Y-16209000D01*
X33630443Y-16215519D01*
X33630443Y-16215519D01*
G37*
G36*
X36170443Y-16215519D02*
G01*
X36236627Y-16222037D01*
X36406466Y-16273557D01*
X36562991Y-16357222D01*
X36598729Y-16386552D01*
X36700186Y-16469814D01*
X36783448Y-16571271D01*
X36812778Y-16607009D01*
X36896443Y-16763534D01*
X36947963Y-16933373D01*
X36965359Y-17110000D01*
X36947963Y-17286627D01*
X36896443Y-17456466D01*
X36812778Y-17612991D01*
X36783448Y-17648729D01*
X36700186Y-17750186D01*
X36627480Y-17809853D01*
X36562991Y-17862778D01*
X36406466Y-17946443D01*
X36236627Y-17997963D01*
X36170443Y-18004481D01*
X36104260Y-18011000D01*
X36015740Y-18011000D01*
X35949557Y-18004481D01*
X35883373Y-17997963D01*
X35713534Y-17946443D01*
X35557009Y-17862778D01*
X35492520Y-17809853D01*
X35419814Y-17750186D01*
X35336552Y-17648729D01*
X35307222Y-17612991D01*
X35223557Y-17456466D01*
X35172037Y-17286627D01*
X35154641Y-17110000D01*
X35172037Y-16933373D01*
X35223557Y-16763534D01*
X35307222Y-16607009D01*
X35336552Y-16571271D01*
X35419814Y-16469814D01*
X35521271Y-16386552D01*
X35557009Y-16357222D01*
X35713534Y-16273557D01*
X35883373Y-16222037D01*
X35949557Y-16215519D01*
X36015740Y-16209000D01*
X36104260Y-16209000D01*
X36170443Y-16215519D01*
X36170443Y-16215519D01*
G37*
G36*
X38710443Y-16215519D02*
G01*
X38776627Y-16222037D01*
X38946466Y-16273557D01*
X39102991Y-16357222D01*
X39138729Y-16386552D01*
X39240186Y-16469814D01*
X39323448Y-16571271D01*
X39352778Y-16607009D01*
X39436443Y-16763534D01*
X39487963Y-16933373D01*
X39505359Y-17110000D01*
X39487963Y-17286627D01*
X39436443Y-17456466D01*
X39352778Y-17612991D01*
X39323448Y-17648729D01*
X39240186Y-17750186D01*
X39167480Y-17809853D01*
X39102991Y-17862778D01*
X38946466Y-17946443D01*
X38776627Y-17997963D01*
X38710443Y-18004481D01*
X38644260Y-18011000D01*
X38555740Y-18011000D01*
X38489557Y-18004481D01*
X38423373Y-17997963D01*
X38253534Y-17946443D01*
X38097009Y-17862778D01*
X38032520Y-17809853D01*
X37959814Y-17750186D01*
X37876552Y-17648729D01*
X37847222Y-17612991D01*
X37763557Y-17456466D01*
X37712037Y-17286627D01*
X37694641Y-17110000D01*
X37712037Y-16933373D01*
X37763557Y-16763534D01*
X37847222Y-16607009D01*
X37876552Y-16571271D01*
X37959814Y-16469814D01*
X38061271Y-16386552D01*
X38097009Y-16357222D01*
X38253534Y-16273557D01*
X38423373Y-16222037D01*
X38489557Y-16215519D01*
X38555740Y-16209000D01*
X38644260Y-16209000D01*
X38710443Y-16215519D01*
X38710443Y-16215519D01*
G37*
G36*
X41250443Y-16215519D02*
G01*
X41316627Y-16222037D01*
X41486466Y-16273557D01*
X41642991Y-16357222D01*
X41678729Y-16386552D01*
X41780186Y-16469814D01*
X41863448Y-16571271D01*
X41892778Y-16607009D01*
X41976443Y-16763534D01*
X42027963Y-16933373D01*
X42045359Y-17110000D01*
X42027963Y-17286627D01*
X41976443Y-17456466D01*
X41892778Y-17612991D01*
X41863448Y-17648729D01*
X41780186Y-17750186D01*
X41707480Y-17809853D01*
X41642991Y-17862778D01*
X41486466Y-17946443D01*
X41316627Y-17997963D01*
X41250443Y-18004481D01*
X41184260Y-18011000D01*
X41095740Y-18011000D01*
X41029557Y-18004481D01*
X40963373Y-17997963D01*
X40793534Y-17946443D01*
X40637009Y-17862778D01*
X40572520Y-17809853D01*
X40499814Y-17750186D01*
X40416552Y-17648729D01*
X40387222Y-17612991D01*
X40303557Y-17456466D01*
X40252037Y-17286627D01*
X40234641Y-17110000D01*
X40252037Y-16933373D01*
X40303557Y-16763534D01*
X40387222Y-16607009D01*
X40416552Y-16571271D01*
X40499814Y-16469814D01*
X40601271Y-16386552D01*
X40637009Y-16357222D01*
X40793534Y-16273557D01*
X40963373Y-16222037D01*
X41029557Y-16215519D01*
X41095740Y-16209000D01*
X41184260Y-16209000D01*
X41250443Y-16215519D01*
X41250443Y-16215519D01*
G37*
G36*
X43793512Y-16213927D02*
G01*
X43942812Y-16243624D01*
X44106784Y-16311544D01*
X44254354Y-16410147D01*
X44379853Y-16535646D01*
X44478456Y-16683216D01*
X44546376Y-16847188D01*
X44581000Y-17021259D01*
X44581000Y-17198741D01*
X44546376Y-17372812D01*
X44478456Y-17536784D01*
X44379853Y-17684354D01*
X44254354Y-17809853D01*
X44106784Y-17908456D01*
X43942812Y-17976376D01*
X43793512Y-18006073D01*
X43768742Y-18011000D01*
X43591258Y-18011000D01*
X43566488Y-18006073D01*
X43417188Y-17976376D01*
X43253216Y-17908456D01*
X43105646Y-17809853D01*
X42980147Y-17684354D01*
X42881544Y-17536784D01*
X42813624Y-17372812D01*
X42779000Y-17198741D01*
X42779000Y-17021259D01*
X42813624Y-16847188D01*
X42881544Y-16683216D01*
X42980147Y-16535646D01*
X43105646Y-16410147D01*
X43253216Y-16311544D01*
X43417188Y-16243624D01*
X43566488Y-16213927D01*
X43591258Y-16209000D01*
X43768742Y-16209000D01*
X43793512Y-16213927D01*
X43793512Y-16213927D01*
G37*
G36*
X48870443Y-16215519D02*
G01*
X48936627Y-16222037D01*
X49106466Y-16273557D01*
X49262991Y-16357222D01*
X49298729Y-16386552D01*
X49400186Y-16469814D01*
X49483448Y-16571271D01*
X49512778Y-16607009D01*
X49596443Y-16763534D01*
X49647963Y-16933373D01*
X49665359Y-17110000D01*
X49647963Y-17286627D01*
X49596443Y-17456466D01*
X49512778Y-17612991D01*
X49483448Y-17648729D01*
X49400186Y-17750186D01*
X49327480Y-17809853D01*
X49262991Y-17862778D01*
X49106466Y-17946443D01*
X48936627Y-17997963D01*
X48870443Y-18004481D01*
X48804260Y-18011000D01*
X48715740Y-18011000D01*
X48649557Y-18004481D01*
X48583373Y-17997963D01*
X48413534Y-17946443D01*
X48257009Y-17862778D01*
X48192520Y-17809853D01*
X48119814Y-17750186D01*
X48036552Y-17648729D01*
X48007222Y-17612991D01*
X47923557Y-17456466D01*
X47872037Y-17286627D01*
X47854641Y-17110000D01*
X47872037Y-16933373D01*
X47923557Y-16763534D01*
X48007222Y-16607009D01*
X48036552Y-16571271D01*
X48119814Y-16469814D01*
X48221271Y-16386552D01*
X48257009Y-16357222D01*
X48413534Y-16273557D01*
X48583373Y-16222037D01*
X48649557Y-16215519D01*
X48715740Y-16209000D01*
X48804260Y-16209000D01*
X48870443Y-16215519D01*
X48870443Y-16215519D01*
G37*
G36*
X51410443Y-16215519D02*
G01*
X51476627Y-16222037D01*
X51646466Y-16273557D01*
X51802991Y-16357222D01*
X51838729Y-16386552D01*
X51940186Y-16469814D01*
X52023448Y-16571271D01*
X52052778Y-16607009D01*
X52136443Y-16763534D01*
X52187963Y-16933373D01*
X52205359Y-17110000D01*
X52187963Y-17286627D01*
X52136443Y-17456466D01*
X52052778Y-17612991D01*
X52023448Y-17648729D01*
X51940186Y-17750186D01*
X51867480Y-17809853D01*
X51802991Y-17862778D01*
X51646466Y-17946443D01*
X51476627Y-17997963D01*
X51410443Y-18004481D01*
X51344260Y-18011000D01*
X51255740Y-18011000D01*
X51189557Y-18004481D01*
X51123373Y-17997963D01*
X50953534Y-17946443D01*
X50797009Y-17862778D01*
X50732520Y-17809853D01*
X50659814Y-17750186D01*
X50576552Y-17648729D01*
X50547222Y-17612991D01*
X50463557Y-17456466D01*
X50412037Y-17286627D01*
X50394641Y-17110000D01*
X50412037Y-16933373D01*
X50463557Y-16763534D01*
X50547222Y-16607009D01*
X50576552Y-16571271D01*
X50659814Y-16469814D01*
X50761271Y-16386552D01*
X50797009Y-16357222D01*
X50953534Y-16273557D01*
X51123373Y-16222037D01*
X51189557Y-16215519D01*
X51255740Y-16209000D01*
X51344260Y-16209000D01*
X51410443Y-16215519D01*
X51410443Y-16215519D01*
G37*
G36*
X53950443Y-16215519D02*
G01*
X54016627Y-16222037D01*
X54186466Y-16273557D01*
X54342991Y-16357222D01*
X54378729Y-16386552D01*
X54480186Y-16469814D01*
X54563448Y-16571271D01*
X54592778Y-16607009D01*
X54676443Y-16763534D01*
X54727963Y-16933373D01*
X54745359Y-17110000D01*
X54727963Y-17286627D01*
X54676443Y-17456466D01*
X54592778Y-17612991D01*
X54563448Y-17648729D01*
X54480186Y-17750186D01*
X54407480Y-17809853D01*
X54342991Y-17862778D01*
X54186466Y-17946443D01*
X54016627Y-17997963D01*
X53950443Y-18004481D01*
X53884260Y-18011000D01*
X53795740Y-18011000D01*
X53729557Y-18004481D01*
X53663373Y-17997963D01*
X53493534Y-17946443D01*
X53337009Y-17862778D01*
X53272520Y-17809853D01*
X53199814Y-17750186D01*
X53116552Y-17648729D01*
X53087222Y-17612991D01*
X53003557Y-17456466D01*
X52952037Y-17286627D01*
X52934641Y-17110000D01*
X52952037Y-16933373D01*
X53003557Y-16763534D01*
X53087222Y-16607009D01*
X53116552Y-16571271D01*
X53199814Y-16469814D01*
X53301271Y-16386552D01*
X53337009Y-16357222D01*
X53493534Y-16273557D01*
X53663373Y-16222037D01*
X53729557Y-16215519D01*
X53795740Y-16209000D01*
X53884260Y-16209000D01*
X53950443Y-16215519D01*
X53950443Y-16215519D01*
G37*
G36*
X56490443Y-16215519D02*
G01*
X56556627Y-16222037D01*
X56726466Y-16273557D01*
X56882991Y-16357222D01*
X56918729Y-16386552D01*
X57020186Y-16469814D01*
X57103448Y-16571271D01*
X57132778Y-16607009D01*
X57216443Y-16763534D01*
X57267963Y-16933373D01*
X57285359Y-17110000D01*
X57267963Y-17286627D01*
X57216443Y-17456466D01*
X57132778Y-17612991D01*
X57103448Y-17648729D01*
X57020186Y-17750186D01*
X56947480Y-17809853D01*
X56882991Y-17862778D01*
X56726466Y-17946443D01*
X56556627Y-17997963D01*
X56490443Y-18004481D01*
X56424260Y-18011000D01*
X56335740Y-18011000D01*
X56269557Y-18004481D01*
X56203373Y-17997963D01*
X56033534Y-17946443D01*
X55877009Y-17862778D01*
X55812520Y-17809853D01*
X55739814Y-17750186D01*
X55656552Y-17648729D01*
X55627222Y-17612991D01*
X55543557Y-17456466D01*
X55492037Y-17286627D01*
X55474641Y-17110000D01*
X55492037Y-16933373D01*
X55543557Y-16763534D01*
X55627222Y-16607009D01*
X55656552Y-16571271D01*
X55739814Y-16469814D01*
X55841271Y-16386552D01*
X55877009Y-16357222D01*
X56033534Y-16273557D01*
X56203373Y-16222037D01*
X56269557Y-16215519D01*
X56335740Y-16209000D01*
X56424260Y-16209000D01*
X56490443Y-16215519D01*
X56490443Y-16215519D01*
G37*
G36*
X59030443Y-16215519D02*
G01*
X59096627Y-16222037D01*
X59266466Y-16273557D01*
X59422991Y-16357222D01*
X59458729Y-16386552D01*
X59560186Y-16469814D01*
X59643448Y-16571271D01*
X59672778Y-16607009D01*
X59756443Y-16763534D01*
X59807963Y-16933373D01*
X59825359Y-17110000D01*
X59807963Y-17286627D01*
X59756443Y-17456466D01*
X59672778Y-17612991D01*
X59643448Y-17648729D01*
X59560186Y-17750186D01*
X59487480Y-17809853D01*
X59422991Y-17862778D01*
X59266466Y-17946443D01*
X59096627Y-17997963D01*
X59030443Y-18004481D01*
X58964260Y-18011000D01*
X58875740Y-18011000D01*
X58809557Y-18004481D01*
X58743373Y-17997963D01*
X58573534Y-17946443D01*
X58417009Y-17862778D01*
X58352520Y-17809853D01*
X58279814Y-17750186D01*
X58196552Y-17648729D01*
X58167222Y-17612991D01*
X58083557Y-17456466D01*
X58032037Y-17286627D01*
X58014641Y-17110000D01*
X58032037Y-16933373D01*
X58083557Y-16763534D01*
X58167222Y-16607009D01*
X58196552Y-16571271D01*
X58279814Y-16469814D01*
X58381271Y-16386552D01*
X58417009Y-16357222D01*
X58573534Y-16273557D01*
X58743373Y-16222037D01*
X58809557Y-16215519D01*
X58875740Y-16209000D01*
X58964260Y-16209000D01*
X59030443Y-16215519D01*
X59030443Y-16215519D01*
G37*
G36*
X61570443Y-16215519D02*
G01*
X61636627Y-16222037D01*
X61806466Y-16273557D01*
X61962991Y-16357222D01*
X61998729Y-16386552D01*
X62100186Y-16469814D01*
X62183448Y-16571271D01*
X62212778Y-16607009D01*
X62296443Y-16763534D01*
X62347963Y-16933373D01*
X62365359Y-17110000D01*
X62347963Y-17286627D01*
X62296443Y-17456466D01*
X62212778Y-17612991D01*
X62183448Y-17648729D01*
X62100186Y-17750186D01*
X62027480Y-17809853D01*
X61962991Y-17862778D01*
X61806466Y-17946443D01*
X61636627Y-17997963D01*
X61570443Y-18004481D01*
X61504260Y-18011000D01*
X61415740Y-18011000D01*
X61349557Y-18004481D01*
X61283373Y-17997963D01*
X61113534Y-17946443D01*
X60957009Y-17862778D01*
X60892520Y-17809853D01*
X60819814Y-17750186D01*
X60736552Y-17648729D01*
X60707222Y-17612991D01*
X60623557Y-17456466D01*
X60572037Y-17286627D01*
X60554641Y-17110000D01*
X60572037Y-16933373D01*
X60623557Y-16763534D01*
X60707222Y-16607009D01*
X60736552Y-16571271D01*
X60819814Y-16469814D01*
X60921271Y-16386552D01*
X60957009Y-16357222D01*
X61113534Y-16273557D01*
X61283373Y-16222037D01*
X61349557Y-16215519D01*
X61415740Y-16209000D01*
X61504260Y-16209000D01*
X61570443Y-16215519D01*
X61570443Y-16215519D01*
G37*
G36*
X14391000Y-14861000D02*
G01*
X13289000Y-14861000D01*
X13289000Y-13059000D01*
X14391000Y-13059000D01*
X14391000Y-14861000D01*
X14391000Y-14861000D01*
G37*
G36*
X18191000Y-14861000D02*
G01*
X17089000Y-14861000D01*
X17089000Y-13059000D01*
X18191000Y-13059000D01*
X18191000Y-14861000D01*
X18191000Y-14861000D01*
G37*
M02*
