%TF.GenerationSoftware,KiCad,Pcbnew,(5.1.2-1)-1*%
%TF.CreationDate,2020-03-19T17:13:43+05:30*%
%TF.ProjectId,Uno rev1.1,556e6f20-7265-4763-912e-312e6b696361,rev?*%
%TF.SameCoordinates,Original*%
%TF.FileFunction,Paste,Bot*%
%TF.FilePolarity,Positive*%
%FSLAX46Y46*%
G04 Gerber Fmt 4.6, Leading zero omitted, Abs format (unit mm)*
G04 Created by KiCad (PCBNEW (5.1.2-1)-1) date 2020-03-19 17:13:43*
%MOMM*%
%LPD*%
G04 APERTURE LIST*
%ADD10C,0.203200*%
%ADD11C,0.100000*%
%ADD12C,1.150000*%
G04 APERTURE END LIST*
D10*
X22506589Y-39653306D02*
X22078957Y-40080938D01*
X22880766Y-39792286D02*
X21571145Y-39305856D01*
X22282082Y-40390970D01*
X21330603Y-40487187D02*
X21811688Y-40861365D01*
X21100751Y-39776250D02*
X21330603Y-40487187D01*
X20502067Y-40374934D01*
X20683810Y-41048453D02*
X20384469Y-41347795D01*
X20785373Y-41887680D02*
X21213004Y-41460048D01*
X20202725Y-40674276D01*
X19775094Y-41101907D01*
X19871311Y-41860953D02*
X19571969Y-42160294D01*
X19972873Y-42700179D02*
X20400505Y-42272548D01*
X19390226Y-41486775D01*
X18962595Y-41914406D01*
X19588005Y-43085047D02*
X18577727Y-42299275D01*
X18363911Y-42513090D01*
X18283730Y-42678797D01*
X18294421Y-42839159D01*
X18347875Y-42956758D01*
X18497546Y-43149192D01*
X18641871Y-43261445D01*
X18877068Y-43368353D01*
X19016049Y-43400425D01*
X19197792Y-43389734D01*
X19374190Y-43298863D01*
X19588005Y-43085047D01*
X17679701Y-43197300D02*
X18497546Y-43833402D01*
X18551000Y-43951000D01*
X18556345Y-44031181D01*
X18518927Y-44154125D01*
X18347875Y-44325178D01*
X18214240Y-44373286D01*
X18123368Y-44378632D01*
X17984388Y-44346559D01*
X17166543Y-43710458D01*
X17749191Y-44923861D02*
X16738912Y-44138089D01*
X17321560Y-45351493D02*
X16311281Y-44565720D01*
X16808402Y-45864650D01*
X15798123Y-45078878D01*
X15199440Y-45677561D02*
X15028387Y-45848614D01*
X14990969Y-45971558D01*
X15001660Y-46131920D01*
X15151331Y-46324354D01*
X15488091Y-46586278D01*
X15723288Y-46693186D01*
X15905031Y-46682495D01*
X16038666Y-46634386D01*
X16209719Y-46463334D01*
X16247136Y-46340390D01*
X16236445Y-46180028D01*
X16086775Y-45987594D01*
X15750015Y-45725670D01*
X15514818Y-45618762D01*
X15333074Y-45629453D01*
X15199440Y-45677561D01*
X23484154Y-41315082D02*
X23478809Y-41234901D01*
X23516226Y-41111957D01*
X23601753Y-41026431D01*
X23735387Y-40978322D01*
X23826259Y-40972977D01*
X23965239Y-41005049D01*
X24061456Y-41079885D01*
X24114910Y-41197483D01*
X24120256Y-41277664D01*
X24082838Y-41400608D01*
X23997312Y-41486134D01*
X23863677Y-41534243D01*
X23772805Y-41539588D01*
X23387937Y-41240246D02*
X23772805Y-41539588D01*
X23778151Y-41619769D01*
X23735387Y-41662532D01*
X23601753Y-41710641D01*
X23462773Y-41678568D01*
X23222230Y-41491480D01*
X23163431Y-41293700D01*
X23195503Y-41090575D01*
X23318447Y-40882105D01*
X23537608Y-40748470D01*
X23762114Y-40695016D01*
X23991966Y-40721743D01*
X24227163Y-40828651D01*
X24376834Y-41021085D01*
X24435634Y-41218865D01*
X24403561Y-41421990D01*
X24280617Y-41630460D01*
X24061456Y-41764095D01*
X23836950Y-41817549D01*
X23120668Y-42020673D02*
X22693036Y-42448305D01*
X23494845Y-42159654D02*
X22185224Y-41673223D01*
X22896161Y-42758337D01*
X21944682Y-42854554D02*
X22425767Y-43228732D01*
X21714830Y-42143617D02*
X21944682Y-42854554D01*
X21116146Y-42742301D01*
X21297889Y-43415820D02*
X20998547Y-43715162D01*
X21399452Y-44255047D02*
X21827083Y-43827415D01*
X20816804Y-43041643D01*
X20389173Y-43469274D01*
X20485390Y-44228320D02*
X20186048Y-44527662D01*
X20586952Y-45067546D02*
X21014584Y-44639915D01*
X20004305Y-43854142D01*
X19576674Y-44281774D01*
X20202084Y-45452414D02*
X19191805Y-44666642D01*
X18977990Y-44880457D01*
X18897809Y-45046164D01*
X18908500Y-45206526D01*
X18961954Y-45324125D01*
X19111625Y-45516559D01*
X19255950Y-45628812D01*
X19491147Y-45735720D01*
X19630127Y-45767792D01*
X19811871Y-45757101D01*
X19988269Y-45666230D01*
X20202084Y-45452414D01*
X19304059Y-46350440D02*
X18293780Y-45564667D01*
X17994438Y-45864009D02*
X17481280Y-46377167D01*
X18748138Y-46906360D02*
X17737859Y-46120588D01*
X17540080Y-47259156D02*
X18021165Y-47633333D01*
X17310228Y-46548219D02*
X17540080Y-47259156D01*
X16711544Y-47146903D01*
X17176593Y-47964748D02*
X16748962Y-48392379D01*
X17550771Y-48103728D02*
X16241150Y-47617297D01*
X16952087Y-48702412D01*
X24151687Y-44484257D02*
X23969944Y-43810738D01*
X24664844Y-43971100D02*
X23654566Y-43185328D01*
X23312461Y-43527433D01*
X23275043Y-43650377D01*
X23280388Y-43730557D01*
X23333842Y-43848156D01*
X23478168Y-43960409D01*
X23617148Y-43992481D01*
X23708020Y-43987136D01*
X23841654Y-43939028D01*
X24183759Y-43596923D01*
X23376605Y-45173813D02*
X23510240Y-45125704D01*
X23681293Y-44954652D01*
X23718710Y-44831708D01*
X23665256Y-44714109D01*
X23280388Y-44414767D01*
X23141408Y-44382695D01*
X23007773Y-44430804D01*
X22836721Y-44601856D01*
X22799303Y-44724800D01*
X22852757Y-44842399D01*
X22948974Y-44917234D01*
X23472822Y-44564438D01*
X22409090Y-45029487D02*
X22868793Y-45767151D01*
X21981458Y-45457119D01*
X20757364Y-46253582D02*
X20666492Y-46258927D01*
X20532858Y-46307036D01*
X20319042Y-46520851D01*
X20281624Y-46643795D01*
X20286970Y-46723976D01*
X20340423Y-46841575D01*
X20436641Y-46916410D01*
X20623729Y-46985900D01*
X21714189Y-46921756D01*
X21158268Y-47477676D01*
X20677183Y-47787709D02*
X20682528Y-47867890D01*
X20773400Y-47862544D01*
X20768055Y-47782363D01*
X20677183Y-47787709D01*
X20773400Y-47862544D01*
X19164438Y-47675456D02*
X19078911Y-47760982D01*
X19041494Y-47883926D01*
X19046839Y-47964107D01*
X19100293Y-48081705D01*
X19249964Y-48274139D01*
X19490506Y-48461228D01*
X19725704Y-48568136D01*
X19864684Y-48600208D01*
X19955555Y-48594863D01*
X20089190Y-48546754D01*
X20174716Y-48461228D01*
X20212134Y-48338284D01*
X20206789Y-48258103D01*
X20153335Y-48140505D01*
X20003664Y-47948071D01*
X19763121Y-47760982D01*
X19527924Y-47654074D01*
X19388944Y-47622002D01*
X19298072Y-47627347D01*
X19164438Y-47675456D01*
D11*
%TO.C,R6*%
G36*
X22224505Y-32426204D02*
G01*
X22248773Y-32429804D01*
X22272572Y-32435765D01*
X22295671Y-32444030D01*
X22317850Y-32454520D01*
X22338893Y-32467132D01*
X22358599Y-32481747D01*
X22376777Y-32498223D01*
X22393253Y-32516401D01*
X22407868Y-32536107D01*
X22420480Y-32557150D01*
X22430970Y-32579329D01*
X22439235Y-32602428D01*
X22445196Y-32626227D01*
X22448796Y-32650495D01*
X22450000Y-32674999D01*
X22450000Y-33325001D01*
X22448796Y-33349505D01*
X22445196Y-33373773D01*
X22439235Y-33397572D01*
X22430970Y-33420671D01*
X22420480Y-33442850D01*
X22407868Y-33463893D01*
X22393253Y-33483599D01*
X22376777Y-33501777D01*
X22358599Y-33518253D01*
X22338893Y-33532868D01*
X22317850Y-33545480D01*
X22295671Y-33555970D01*
X22272572Y-33564235D01*
X22248773Y-33570196D01*
X22224505Y-33573796D01*
X22200001Y-33575000D01*
X21299999Y-33575000D01*
X21275495Y-33573796D01*
X21251227Y-33570196D01*
X21227428Y-33564235D01*
X21204329Y-33555970D01*
X21182150Y-33545480D01*
X21161107Y-33532868D01*
X21141401Y-33518253D01*
X21123223Y-33501777D01*
X21106747Y-33483599D01*
X21092132Y-33463893D01*
X21079520Y-33442850D01*
X21069030Y-33420671D01*
X21060765Y-33397572D01*
X21054804Y-33373773D01*
X21051204Y-33349505D01*
X21050000Y-33325001D01*
X21050000Y-32674999D01*
X21051204Y-32650495D01*
X21054804Y-32626227D01*
X21060765Y-32602428D01*
X21069030Y-32579329D01*
X21079520Y-32557150D01*
X21092132Y-32536107D01*
X21106747Y-32516401D01*
X21123223Y-32498223D01*
X21141401Y-32481747D01*
X21161107Y-32467132D01*
X21182150Y-32454520D01*
X21204329Y-32444030D01*
X21227428Y-32435765D01*
X21251227Y-32429804D01*
X21275495Y-32426204D01*
X21299999Y-32425000D01*
X22200001Y-32425000D01*
X22224505Y-32426204D01*
X22224505Y-32426204D01*
G37*
D12*
X21750000Y-33000000D03*
D11*
G36*
X22224505Y-34476204D02*
G01*
X22248773Y-34479804D01*
X22272572Y-34485765D01*
X22295671Y-34494030D01*
X22317850Y-34504520D01*
X22338893Y-34517132D01*
X22358599Y-34531747D01*
X22376777Y-34548223D01*
X22393253Y-34566401D01*
X22407868Y-34586107D01*
X22420480Y-34607150D01*
X22430970Y-34629329D01*
X22439235Y-34652428D01*
X22445196Y-34676227D01*
X22448796Y-34700495D01*
X22450000Y-34724999D01*
X22450000Y-35375001D01*
X22448796Y-35399505D01*
X22445196Y-35423773D01*
X22439235Y-35447572D01*
X22430970Y-35470671D01*
X22420480Y-35492850D01*
X22407868Y-35513893D01*
X22393253Y-35533599D01*
X22376777Y-35551777D01*
X22358599Y-35568253D01*
X22338893Y-35582868D01*
X22317850Y-35595480D01*
X22295671Y-35605970D01*
X22272572Y-35614235D01*
X22248773Y-35620196D01*
X22224505Y-35623796D01*
X22200001Y-35625000D01*
X21299999Y-35625000D01*
X21275495Y-35623796D01*
X21251227Y-35620196D01*
X21227428Y-35614235D01*
X21204329Y-35605970D01*
X21182150Y-35595480D01*
X21161107Y-35582868D01*
X21141401Y-35568253D01*
X21123223Y-35551777D01*
X21106747Y-35533599D01*
X21092132Y-35513893D01*
X21079520Y-35492850D01*
X21069030Y-35470671D01*
X21060765Y-35447572D01*
X21054804Y-35423773D01*
X21051204Y-35399505D01*
X21050000Y-35375001D01*
X21050000Y-34724999D01*
X21051204Y-34700495D01*
X21054804Y-34676227D01*
X21060765Y-34652428D01*
X21069030Y-34629329D01*
X21079520Y-34607150D01*
X21092132Y-34586107D01*
X21106747Y-34566401D01*
X21123223Y-34548223D01*
X21141401Y-34531747D01*
X21161107Y-34517132D01*
X21182150Y-34504520D01*
X21204329Y-34494030D01*
X21227428Y-34485765D01*
X21251227Y-34479804D01*
X21275495Y-34476204D01*
X21299999Y-34475000D01*
X22200001Y-34475000D01*
X22224505Y-34476204D01*
X22224505Y-34476204D01*
G37*
D12*
X21750000Y-35050000D03*
%TD*%
D11*
%TO.C,R5*%
G36*
X22199505Y-29726204D02*
G01*
X22223773Y-29729804D01*
X22247572Y-29735765D01*
X22270671Y-29744030D01*
X22292850Y-29754520D01*
X22313893Y-29767132D01*
X22333599Y-29781747D01*
X22351777Y-29798223D01*
X22368253Y-29816401D01*
X22382868Y-29836107D01*
X22395480Y-29857150D01*
X22405970Y-29879329D01*
X22414235Y-29902428D01*
X22420196Y-29926227D01*
X22423796Y-29950495D01*
X22425000Y-29974999D01*
X22425000Y-30625001D01*
X22423796Y-30649505D01*
X22420196Y-30673773D01*
X22414235Y-30697572D01*
X22405970Y-30720671D01*
X22395480Y-30742850D01*
X22382868Y-30763893D01*
X22368253Y-30783599D01*
X22351777Y-30801777D01*
X22333599Y-30818253D01*
X22313893Y-30832868D01*
X22292850Y-30845480D01*
X22270671Y-30855970D01*
X22247572Y-30864235D01*
X22223773Y-30870196D01*
X22199505Y-30873796D01*
X22175001Y-30875000D01*
X21274999Y-30875000D01*
X21250495Y-30873796D01*
X21226227Y-30870196D01*
X21202428Y-30864235D01*
X21179329Y-30855970D01*
X21157150Y-30845480D01*
X21136107Y-30832868D01*
X21116401Y-30818253D01*
X21098223Y-30801777D01*
X21081747Y-30783599D01*
X21067132Y-30763893D01*
X21054520Y-30742850D01*
X21044030Y-30720671D01*
X21035765Y-30697572D01*
X21029804Y-30673773D01*
X21026204Y-30649505D01*
X21025000Y-30625001D01*
X21025000Y-29974999D01*
X21026204Y-29950495D01*
X21029804Y-29926227D01*
X21035765Y-29902428D01*
X21044030Y-29879329D01*
X21054520Y-29857150D01*
X21067132Y-29836107D01*
X21081747Y-29816401D01*
X21098223Y-29798223D01*
X21116401Y-29781747D01*
X21136107Y-29767132D01*
X21157150Y-29754520D01*
X21179329Y-29744030D01*
X21202428Y-29735765D01*
X21226227Y-29729804D01*
X21250495Y-29726204D01*
X21274999Y-29725000D01*
X22175001Y-29725000D01*
X22199505Y-29726204D01*
X22199505Y-29726204D01*
G37*
D12*
X21725000Y-30300000D03*
D11*
G36*
X22199505Y-27676204D02*
G01*
X22223773Y-27679804D01*
X22247572Y-27685765D01*
X22270671Y-27694030D01*
X22292850Y-27704520D01*
X22313893Y-27717132D01*
X22333599Y-27731747D01*
X22351777Y-27748223D01*
X22368253Y-27766401D01*
X22382868Y-27786107D01*
X22395480Y-27807150D01*
X22405970Y-27829329D01*
X22414235Y-27852428D01*
X22420196Y-27876227D01*
X22423796Y-27900495D01*
X22425000Y-27924999D01*
X22425000Y-28575001D01*
X22423796Y-28599505D01*
X22420196Y-28623773D01*
X22414235Y-28647572D01*
X22405970Y-28670671D01*
X22395480Y-28692850D01*
X22382868Y-28713893D01*
X22368253Y-28733599D01*
X22351777Y-28751777D01*
X22333599Y-28768253D01*
X22313893Y-28782868D01*
X22292850Y-28795480D01*
X22270671Y-28805970D01*
X22247572Y-28814235D01*
X22223773Y-28820196D01*
X22199505Y-28823796D01*
X22175001Y-28825000D01*
X21274999Y-28825000D01*
X21250495Y-28823796D01*
X21226227Y-28820196D01*
X21202428Y-28814235D01*
X21179329Y-28805970D01*
X21157150Y-28795480D01*
X21136107Y-28782868D01*
X21116401Y-28768253D01*
X21098223Y-28751777D01*
X21081747Y-28733599D01*
X21067132Y-28713893D01*
X21054520Y-28692850D01*
X21044030Y-28670671D01*
X21035765Y-28647572D01*
X21029804Y-28623773D01*
X21026204Y-28599505D01*
X21025000Y-28575001D01*
X21025000Y-27924999D01*
X21026204Y-27900495D01*
X21029804Y-27876227D01*
X21035765Y-27852428D01*
X21044030Y-27829329D01*
X21054520Y-27807150D01*
X21067132Y-27786107D01*
X21081747Y-27766401D01*
X21098223Y-27748223D01*
X21116401Y-27731747D01*
X21136107Y-27717132D01*
X21157150Y-27704520D01*
X21179329Y-27694030D01*
X21202428Y-27685765D01*
X21226227Y-27679804D01*
X21250495Y-27676204D01*
X21274999Y-27675000D01*
X22175001Y-27675000D01*
X22199505Y-27676204D01*
X22199505Y-27676204D01*
G37*
D12*
X21725000Y-28250000D03*
%TD*%
D11*
%TO.C,C14*%
G36*
X17674505Y-38176204D02*
G01*
X17698773Y-38179804D01*
X17722572Y-38185765D01*
X17745671Y-38194030D01*
X17767850Y-38204520D01*
X17788893Y-38217132D01*
X17808599Y-38231747D01*
X17826777Y-38248223D01*
X17843253Y-38266401D01*
X17857868Y-38286107D01*
X17870480Y-38307150D01*
X17880970Y-38329329D01*
X17889235Y-38352428D01*
X17895196Y-38376227D01*
X17898796Y-38400495D01*
X17900000Y-38424999D01*
X17900000Y-39075001D01*
X17898796Y-39099505D01*
X17895196Y-39123773D01*
X17889235Y-39147572D01*
X17880970Y-39170671D01*
X17870480Y-39192850D01*
X17857868Y-39213893D01*
X17843253Y-39233599D01*
X17826777Y-39251777D01*
X17808599Y-39268253D01*
X17788893Y-39282868D01*
X17767850Y-39295480D01*
X17745671Y-39305970D01*
X17722572Y-39314235D01*
X17698773Y-39320196D01*
X17674505Y-39323796D01*
X17650001Y-39325000D01*
X16749999Y-39325000D01*
X16725495Y-39323796D01*
X16701227Y-39320196D01*
X16677428Y-39314235D01*
X16654329Y-39305970D01*
X16632150Y-39295480D01*
X16611107Y-39282868D01*
X16591401Y-39268253D01*
X16573223Y-39251777D01*
X16556747Y-39233599D01*
X16542132Y-39213893D01*
X16529520Y-39192850D01*
X16519030Y-39170671D01*
X16510765Y-39147572D01*
X16504804Y-39123773D01*
X16501204Y-39099505D01*
X16500000Y-39075001D01*
X16500000Y-38424999D01*
X16501204Y-38400495D01*
X16504804Y-38376227D01*
X16510765Y-38352428D01*
X16519030Y-38329329D01*
X16529520Y-38307150D01*
X16542132Y-38286107D01*
X16556747Y-38266401D01*
X16573223Y-38248223D01*
X16591401Y-38231747D01*
X16611107Y-38217132D01*
X16632150Y-38204520D01*
X16654329Y-38194030D01*
X16677428Y-38185765D01*
X16701227Y-38179804D01*
X16725495Y-38176204D01*
X16749999Y-38175000D01*
X17650001Y-38175000D01*
X17674505Y-38176204D01*
X17674505Y-38176204D01*
G37*
D12*
X17200000Y-38750000D03*
D11*
G36*
X17674505Y-40226204D02*
G01*
X17698773Y-40229804D01*
X17722572Y-40235765D01*
X17745671Y-40244030D01*
X17767850Y-40254520D01*
X17788893Y-40267132D01*
X17808599Y-40281747D01*
X17826777Y-40298223D01*
X17843253Y-40316401D01*
X17857868Y-40336107D01*
X17870480Y-40357150D01*
X17880970Y-40379329D01*
X17889235Y-40402428D01*
X17895196Y-40426227D01*
X17898796Y-40450495D01*
X17900000Y-40474999D01*
X17900000Y-41125001D01*
X17898796Y-41149505D01*
X17895196Y-41173773D01*
X17889235Y-41197572D01*
X17880970Y-41220671D01*
X17870480Y-41242850D01*
X17857868Y-41263893D01*
X17843253Y-41283599D01*
X17826777Y-41301777D01*
X17808599Y-41318253D01*
X17788893Y-41332868D01*
X17767850Y-41345480D01*
X17745671Y-41355970D01*
X17722572Y-41364235D01*
X17698773Y-41370196D01*
X17674505Y-41373796D01*
X17650001Y-41375000D01*
X16749999Y-41375000D01*
X16725495Y-41373796D01*
X16701227Y-41370196D01*
X16677428Y-41364235D01*
X16654329Y-41355970D01*
X16632150Y-41345480D01*
X16611107Y-41332868D01*
X16591401Y-41318253D01*
X16573223Y-41301777D01*
X16556747Y-41283599D01*
X16542132Y-41263893D01*
X16529520Y-41242850D01*
X16519030Y-41220671D01*
X16510765Y-41197572D01*
X16504804Y-41173773D01*
X16501204Y-41149505D01*
X16500000Y-41125001D01*
X16500000Y-40474999D01*
X16501204Y-40450495D01*
X16504804Y-40426227D01*
X16510765Y-40402428D01*
X16519030Y-40379329D01*
X16529520Y-40357150D01*
X16542132Y-40336107D01*
X16556747Y-40316401D01*
X16573223Y-40298223D01*
X16591401Y-40281747D01*
X16611107Y-40267132D01*
X16632150Y-40254520D01*
X16654329Y-40244030D01*
X16677428Y-40235765D01*
X16701227Y-40229804D01*
X16725495Y-40226204D01*
X16749999Y-40225000D01*
X17650001Y-40225000D01*
X17674505Y-40226204D01*
X17674505Y-40226204D01*
G37*
D12*
X17200000Y-40800000D03*
%TD*%
D11*
%TO.C,C3*%
G36*
X36774505Y-35876204D02*
G01*
X36798773Y-35879804D01*
X36822572Y-35885765D01*
X36845671Y-35894030D01*
X36867850Y-35904520D01*
X36888893Y-35917132D01*
X36908599Y-35931747D01*
X36926777Y-35948223D01*
X36943253Y-35966401D01*
X36957868Y-35986107D01*
X36970480Y-36007150D01*
X36980970Y-36029329D01*
X36989235Y-36052428D01*
X36995196Y-36076227D01*
X36998796Y-36100495D01*
X37000000Y-36124999D01*
X37000000Y-36775001D01*
X36998796Y-36799505D01*
X36995196Y-36823773D01*
X36989235Y-36847572D01*
X36980970Y-36870671D01*
X36970480Y-36892850D01*
X36957868Y-36913893D01*
X36943253Y-36933599D01*
X36926777Y-36951777D01*
X36908599Y-36968253D01*
X36888893Y-36982868D01*
X36867850Y-36995480D01*
X36845671Y-37005970D01*
X36822572Y-37014235D01*
X36798773Y-37020196D01*
X36774505Y-37023796D01*
X36750001Y-37025000D01*
X35849999Y-37025000D01*
X35825495Y-37023796D01*
X35801227Y-37020196D01*
X35777428Y-37014235D01*
X35754329Y-37005970D01*
X35732150Y-36995480D01*
X35711107Y-36982868D01*
X35691401Y-36968253D01*
X35673223Y-36951777D01*
X35656747Y-36933599D01*
X35642132Y-36913893D01*
X35629520Y-36892850D01*
X35619030Y-36870671D01*
X35610765Y-36847572D01*
X35604804Y-36823773D01*
X35601204Y-36799505D01*
X35600000Y-36775001D01*
X35600000Y-36124999D01*
X35601204Y-36100495D01*
X35604804Y-36076227D01*
X35610765Y-36052428D01*
X35619030Y-36029329D01*
X35629520Y-36007150D01*
X35642132Y-35986107D01*
X35656747Y-35966401D01*
X35673223Y-35948223D01*
X35691401Y-35931747D01*
X35711107Y-35917132D01*
X35732150Y-35904520D01*
X35754329Y-35894030D01*
X35777428Y-35885765D01*
X35801227Y-35879804D01*
X35825495Y-35876204D01*
X35849999Y-35875000D01*
X36750001Y-35875000D01*
X36774505Y-35876204D01*
X36774505Y-35876204D01*
G37*
D12*
X36300000Y-36450000D03*
D11*
G36*
X36774505Y-37926204D02*
G01*
X36798773Y-37929804D01*
X36822572Y-37935765D01*
X36845671Y-37944030D01*
X36867850Y-37954520D01*
X36888893Y-37967132D01*
X36908599Y-37981747D01*
X36926777Y-37998223D01*
X36943253Y-38016401D01*
X36957868Y-38036107D01*
X36970480Y-38057150D01*
X36980970Y-38079329D01*
X36989235Y-38102428D01*
X36995196Y-38126227D01*
X36998796Y-38150495D01*
X37000000Y-38174999D01*
X37000000Y-38825001D01*
X36998796Y-38849505D01*
X36995196Y-38873773D01*
X36989235Y-38897572D01*
X36980970Y-38920671D01*
X36970480Y-38942850D01*
X36957868Y-38963893D01*
X36943253Y-38983599D01*
X36926777Y-39001777D01*
X36908599Y-39018253D01*
X36888893Y-39032868D01*
X36867850Y-39045480D01*
X36845671Y-39055970D01*
X36822572Y-39064235D01*
X36798773Y-39070196D01*
X36774505Y-39073796D01*
X36750001Y-39075000D01*
X35849999Y-39075000D01*
X35825495Y-39073796D01*
X35801227Y-39070196D01*
X35777428Y-39064235D01*
X35754329Y-39055970D01*
X35732150Y-39045480D01*
X35711107Y-39032868D01*
X35691401Y-39018253D01*
X35673223Y-39001777D01*
X35656747Y-38983599D01*
X35642132Y-38963893D01*
X35629520Y-38942850D01*
X35619030Y-38920671D01*
X35610765Y-38897572D01*
X35604804Y-38873773D01*
X35601204Y-38849505D01*
X35600000Y-38825001D01*
X35600000Y-38174999D01*
X35601204Y-38150495D01*
X35604804Y-38126227D01*
X35610765Y-38102428D01*
X35619030Y-38079329D01*
X35629520Y-38057150D01*
X35642132Y-38036107D01*
X35656747Y-38016401D01*
X35673223Y-37998223D01*
X35691401Y-37981747D01*
X35711107Y-37967132D01*
X35732150Y-37954520D01*
X35754329Y-37944030D01*
X35777428Y-37935765D01*
X35801227Y-37929804D01*
X35825495Y-37926204D01*
X35849999Y-37925000D01*
X36750001Y-37925000D01*
X36774505Y-37926204D01*
X36774505Y-37926204D01*
G37*
D12*
X36300000Y-38500000D03*
%TD*%
D11*
%TO.C,R2*%
G36*
X26757505Y-27587204D02*
G01*
X26781773Y-27590804D01*
X26805572Y-27596765D01*
X26828671Y-27605030D01*
X26850850Y-27615520D01*
X26871893Y-27628132D01*
X26891599Y-27642747D01*
X26909777Y-27659223D01*
X26926253Y-27677401D01*
X26940868Y-27697107D01*
X26953480Y-27718150D01*
X26963970Y-27740329D01*
X26972235Y-27763428D01*
X26978196Y-27787227D01*
X26981796Y-27811495D01*
X26983000Y-27835999D01*
X26983000Y-28736001D01*
X26981796Y-28760505D01*
X26978196Y-28784773D01*
X26972235Y-28808572D01*
X26963970Y-28831671D01*
X26953480Y-28853850D01*
X26940868Y-28874893D01*
X26926253Y-28894599D01*
X26909777Y-28912777D01*
X26891599Y-28929253D01*
X26871893Y-28943868D01*
X26850850Y-28956480D01*
X26828671Y-28966970D01*
X26805572Y-28975235D01*
X26781773Y-28981196D01*
X26757505Y-28984796D01*
X26733001Y-28986000D01*
X26082999Y-28986000D01*
X26058495Y-28984796D01*
X26034227Y-28981196D01*
X26010428Y-28975235D01*
X25987329Y-28966970D01*
X25965150Y-28956480D01*
X25944107Y-28943868D01*
X25924401Y-28929253D01*
X25906223Y-28912777D01*
X25889747Y-28894599D01*
X25875132Y-28874893D01*
X25862520Y-28853850D01*
X25852030Y-28831671D01*
X25843765Y-28808572D01*
X25837804Y-28784773D01*
X25834204Y-28760505D01*
X25833000Y-28736001D01*
X25833000Y-27835999D01*
X25834204Y-27811495D01*
X25837804Y-27787227D01*
X25843765Y-27763428D01*
X25852030Y-27740329D01*
X25862520Y-27718150D01*
X25875132Y-27697107D01*
X25889747Y-27677401D01*
X25906223Y-27659223D01*
X25924401Y-27642747D01*
X25944107Y-27628132D01*
X25965150Y-27615520D01*
X25987329Y-27605030D01*
X26010428Y-27596765D01*
X26034227Y-27590804D01*
X26058495Y-27587204D01*
X26082999Y-27586000D01*
X26733001Y-27586000D01*
X26757505Y-27587204D01*
X26757505Y-27587204D01*
G37*
D12*
X26408000Y-28286000D03*
D11*
G36*
X24707505Y-27587204D02*
G01*
X24731773Y-27590804D01*
X24755572Y-27596765D01*
X24778671Y-27605030D01*
X24800850Y-27615520D01*
X24821893Y-27628132D01*
X24841599Y-27642747D01*
X24859777Y-27659223D01*
X24876253Y-27677401D01*
X24890868Y-27697107D01*
X24903480Y-27718150D01*
X24913970Y-27740329D01*
X24922235Y-27763428D01*
X24928196Y-27787227D01*
X24931796Y-27811495D01*
X24933000Y-27835999D01*
X24933000Y-28736001D01*
X24931796Y-28760505D01*
X24928196Y-28784773D01*
X24922235Y-28808572D01*
X24913970Y-28831671D01*
X24903480Y-28853850D01*
X24890868Y-28874893D01*
X24876253Y-28894599D01*
X24859777Y-28912777D01*
X24841599Y-28929253D01*
X24821893Y-28943868D01*
X24800850Y-28956480D01*
X24778671Y-28966970D01*
X24755572Y-28975235D01*
X24731773Y-28981196D01*
X24707505Y-28984796D01*
X24683001Y-28986000D01*
X24032999Y-28986000D01*
X24008495Y-28984796D01*
X23984227Y-28981196D01*
X23960428Y-28975235D01*
X23937329Y-28966970D01*
X23915150Y-28956480D01*
X23894107Y-28943868D01*
X23874401Y-28929253D01*
X23856223Y-28912777D01*
X23839747Y-28894599D01*
X23825132Y-28874893D01*
X23812520Y-28853850D01*
X23802030Y-28831671D01*
X23793765Y-28808572D01*
X23787804Y-28784773D01*
X23784204Y-28760505D01*
X23783000Y-28736001D01*
X23783000Y-27835999D01*
X23784204Y-27811495D01*
X23787804Y-27787227D01*
X23793765Y-27763428D01*
X23802030Y-27740329D01*
X23812520Y-27718150D01*
X23825132Y-27697107D01*
X23839747Y-27677401D01*
X23856223Y-27659223D01*
X23874401Y-27642747D01*
X23894107Y-27628132D01*
X23915150Y-27615520D01*
X23937329Y-27605030D01*
X23960428Y-27596765D01*
X23984227Y-27590804D01*
X24008495Y-27587204D01*
X24032999Y-27586000D01*
X24683001Y-27586000D01*
X24707505Y-27587204D01*
X24707505Y-27587204D01*
G37*
D12*
X24358000Y-28286000D03*
%TD*%
D11*
%TO.C,R3*%
G36*
X26757505Y-25091204D02*
G01*
X26781773Y-25094804D01*
X26805572Y-25100765D01*
X26828671Y-25109030D01*
X26850850Y-25119520D01*
X26871893Y-25132132D01*
X26891599Y-25146747D01*
X26909777Y-25163223D01*
X26926253Y-25181401D01*
X26940868Y-25201107D01*
X26953480Y-25222150D01*
X26963970Y-25244329D01*
X26972235Y-25267428D01*
X26978196Y-25291227D01*
X26981796Y-25315495D01*
X26983000Y-25339999D01*
X26983000Y-26240001D01*
X26981796Y-26264505D01*
X26978196Y-26288773D01*
X26972235Y-26312572D01*
X26963970Y-26335671D01*
X26953480Y-26357850D01*
X26940868Y-26378893D01*
X26926253Y-26398599D01*
X26909777Y-26416777D01*
X26891599Y-26433253D01*
X26871893Y-26447868D01*
X26850850Y-26460480D01*
X26828671Y-26470970D01*
X26805572Y-26479235D01*
X26781773Y-26485196D01*
X26757505Y-26488796D01*
X26733001Y-26490000D01*
X26082999Y-26490000D01*
X26058495Y-26488796D01*
X26034227Y-26485196D01*
X26010428Y-26479235D01*
X25987329Y-26470970D01*
X25965150Y-26460480D01*
X25944107Y-26447868D01*
X25924401Y-26433253D01*
X25906223Y-26416777D01*
X25889747Y-26398599D01*
X25875132Y-26378893D01*
X25862520Y-26357850D01*
X25852030Y-26335671D01*
X25843765Y-26312572D01*
X25837804Y-26288773D01*
X25834204Y-26264505D01*
X25833000Y-26240001D01*
X25833000Y-25339999D01*
X25834204Y-25315495D01*
X25837804Y-25291227D01*
X25843765Y-25267428D01*
X25852030Y-25244329D01*
X25862520Y-25222150D01*
X25875132Y-25201107D01*
X25889747Y-25181401D01*
X25906223Y-25163223D01*
X25924401Y-25146747D01*
X25944107Y-25132132D01*
X25965150Y-25119520D01*
X25987329Y-25109030D01*
X26010428Y-25100765D01*
X26034227Y-25094804D01*
X26058495Y-25091204D01*
X26082999Y-25090000D01*
X26733001Y-25090000D01*
X26757505Y-25091204D01*
X26757505Y-25091204D01*
G37*
D12*
X26408000Y-25790000D03*
D11*
G36*
X24707505Y-25091204D02*
G01*
X24731773Y-25094804D01*
X24755572Y-25100765D01*
X24778671Y-25109030D01*
X24800850Y-25119520D01*
X24821893Y-25132132D01*
X24841599Y-25146747D01*
X24859777Y-25163223D01*
X24876253Y-25181401D01*
X24890868Y-25201107D01*
X24903480Y-25222150D01*
X24913970Y-25244329D01*
X24922235Y-25267428D01*
X24928196Y-25291227D01*
X24931796Y-25315495D01*
X24933000Y-25339999D01*
X24933000Y-26240001D01*
X24931796Y-26264505D01*
X24928196Y-26288773D01*
X24922235Y-26312572D01*
X24913970Y-26335671D01*
X24903480Y-26357850D01*
X24890868Y-26378893D01*
X24876253Y-26398599D01*
X24859777Y-26416777D01*
X24841599Y-26433253D01*
X24821893Y-26447868D01*
X24800850Y-26460480D01*
X24778671Y-26470970D01*
X24755572Y-26479235D01*
X24731773Y-26485196D01*
X24707505Y-26488796D01*
X24683001Y-26490000D01*
X24032999Y-26490000D01*
X24008495Y-26488796D01*
X23984227Y-26485196D01*
X23960428Y-26479235D01*
X23937329Y-26470970D01*
X23915150Y-26460480D01*
X23894107Y-26447868D01*
X23874401Y-26433253D01*
X23856223Y-26416777D01*
X23839747Y-26398599D01*
X23825132Y-26378893D01*
X23812520Y-26357850D01*
X23802030Y-26335671D01*
X23793765Y-26312572D01*
X23787804Y-26288773D01*
X23784204Y-26264505D01*
X23783000Y-26240001D01*
X23783000Y-25339999D01*
X23784204Y-25315495D01*
X23787804Y-25291227D01*
X23793765Y-25267428D01*
X23802030Y-25244329D01*
X23812520Y-25222150D01*
X23825132Y-25201107D01*
X23839747Y-25181401D01*
X23856223Y-25163223D01*
X23874401Y-25146747D01*
X23894107Y-25132132D01*
X23915150Y-25119520D01*
X23937329Y-25109030D01*
X23960428Y-25100765D01*
X23984227Y-25094804D01*
X24008495Y-25091204D01*
X24032999Y-25090000D01*
X24683001Y-25090000D01*
X24707505Y-25091204D01*
X24707505Y-25091204D01*
G37*
D12*
X24358000Y-25790000D03*
%TD*%
D11*
%TO.C,R4*%
G36*
X63974505Y-39891204D02*
G01*
X63998773Y-39894804D01*
X64022572Y-39900765D01*
X64045671Y-39909030D01*
X64067850Y-39919520D01*
X64088893Y-39932132D01*
X64108599Y-39946747D01*
X64126777Y-39963223D01*
X64143253Y-39981401D01*
X64157868Y-40001107D01*
X64170480Y-40022150D01*
X64180970Y-40044329D01*
X64189235Y-40067428D01*
X64195196Y-40091227D01*
X64198796Y-40115495D01*
X64200000Y-40139999D01*
X64200000Y-40790001D01*
X64198796Y-40814505D01*
X64195196Y-40838773D01*
X64189235Y-40862572D01*
X64180970Y-40885671D01*
X64170480Y-40907850D01*
X64157868Y-40928893D01*
X64143253Y-40948599D01*
X64126777Y-40966777D01*
X64108599Y-40983253D01*
X64088893Y-40997868D01*
X64067850Y-41010480D01*
X64045671Y-41020970D01*
X64022572Y-41029235D01*
X63998773Y-41035196D01*
X63974505Y-41038796D01*
X63950001Y-41040000D01*
X63049999Y-41040000D01*
X63025495Y-41038796D01*
X63001227Y-41035196D01*
X62977428Y-41029235D01*
X62954329Y-41020970D01*
X62932150Y-41010480D01*
X62911107Y-40997868D01*
X62891401Y-40983253D01*
X62873223Y-40966777D01*
X62856747Y-40948599D01*
X62842132Y-40928893D01*
X62829520Y-40907850D01*
X62819030Y-40885671D01*
X62810765Y-40862572D01*
X62804804Y-40838773D01*
X62801204Y-40814505D01*
X62800000Y-40790001D01*
X62800000Y-40139999D01*
X62801204Y-40115495D01*
X62804804Y-40091227D01*
X62810765Y-40067428D01*
X62819030Y-40044329D01*
X62829520Y-40022150D01*
X62842132Y-40001107D01*
X62856747Y-39981401D01*
X62873223Y-39963223D01*
X62891401Y-39946747D01*
X62911107Y-39932132D01*
X62932150Y-39919520D01*
X62954329Y-39909030D01*
X62977428Y-39900765D01*
X63001227Y-39894804D01*
X63025495Y-39891204D01*
X63049999Y-39890000D01*
X63950001Y-39890000D01*
X63974505Y-39891204D01*
X63974505Y-39891204D01*
G37*
D12*
X63500000Y-40465000D03*
D11*
G36*
X63974505Y-37841204D02*
G01*
X63998773Y-37844804D01*
X64022572Y-37850765D01*
X64045671Y-37859030D01*
X64067850Y-37869520D01*
X64088893Y-37882132D01*
X64108599Y-37896747D01*
X64126777Y-37913223D01*
X64143253Y-37931401D01*
X64157868Y-37951107D01*
X64170480Y-37972150D01*
X64180970Y-37994329D01*
X64189235Y-38017428D01*
X64195196Y-38041227D01*
X64198796Y-38065495D01*
X64200000Y-38089999D01*
X64200000Y-38740001D01*
X64198796Y-38764505D01*
X64195196Y-38788773D01*
X64189235Y-38812572D01*
X64180970Y-38835671D01*
X64170480Y-38857850D01*
X64157868Y-38878893D01*
X64143253Y-38898599D01*
X64126777Y-38916777D01*
X64108599Y-38933253D01*
X64088893Y-38947868D01*
X64067850Y-38960480D01*
X64045671Y-38970970D01*
X64022572Y-38979235D01*
X63998773Y-38985196D01*
X63974505Y-38988796D01*
X63950001Y-38990000D01*
X63049999Y-38990000D01*
X63025495Y-38988796D01*
X63001227Y-38985196D01*
X62977428Y-38979235D01*
X62954329Y-38970970D01*
X62932150Y-38960480D01*
X62911107Y-38947868D01*
X62891401Y-38933253D01*
X62873223Y-38916777D01*
X62856747Y-38898599D01*
X62842132Y-38878893D01*
X62829520Y-38857850D01*
X62819030Y-38835671D01*
X62810765Y-38812572D01*
X62804804Y-38788773D01*
X62801204Y-38764505D01*
X62800000Y-38740001D01*
X62800000Y-38089999D01*
X62801204Y-38065495D01*
X62804804Y-38041227D01*
X62810765Y-38017428D01*
X62819030Y-37994329D01*
X62829520Y-37972150D01*
X62842132Y-37951107D01*
X62856747Y-37931401D01*
X62873223Y-37913223D01*
X62891401Y-37896747D01*
X62911107Y-37882132D01*
X62932150Y-37869520D01*
X62954329Y-37859030D01*
X62977428Y-37850765D01*
X63001227Y-37844804D01*
X63025495Y-37841204D01*
X63049999Y-37840000D01*
X63950001Y-37840000D01*
X63974505Y-37841204D01*
X63974505Y-37841204D01*
G37*
D12*
X63500000Y-38415000D03*
%TD*%
D11*
%TO.C,R8*%
G36*
X24707505Y-22591204D02*
G01*
X24731773Y-22594804D01*
X24755572Y-22600765D01*
X24778671Y-22609030D01*
X24800850Y-22619520D01*
X24821893Y-22632132D01*
X24841599Y-22646747D01*
X24859777Y-22663223D01*
X24876253Y-22681401D01*
X24890868Y-22701107D01*
X24903480Y-22722150D01*
X24913970Y-22744329D01*
X24922235Y-22767428D01*
X24928196Y-22791227D01*
X24931796Y-22815495D01*
X24933000Y-22839999D01*
X24933000Y-23740001D01*
X24931796Y-23764505D01*
X24928196Y-23788773D01*
X24922235Y-23812572D01*
X24913970Y-23835671D01*
X24903480Y-23857850D01*
X24890868Y-23878893D01*
X24876253Y-23898599D01*
X24859777Y-23916777D01*
X24841599Y-23933253D01*
X24821893Y-23947868D01*
X24800850Y-23960480D01*
X24778671Y-23970970D01*
X24755572Y-23979235D01*
X24731773Y-23985196D01*
X24707505Y-23988796D01*
X24683001Y-23990000D01*
X24032999Y-23990000D01*
X24008495Y-23988796D01*
X23984227Y-23985196D01*
X23960428Y-23979235D01*
X23937329Y-23970970D01*
X23915150Y-23960480D01*
X23894107Y-23947868D01*
X23874401Y-23933253D01*
X23856223Y-23916777D01*
X23839747Y-23898599D01*
X23825132Y-23878893D01*
X23812520Y-23857850D01*
X23802030Y-23835671D01*
X23793765Y-23812572D01*
X23787804Y-23788773D01*
X23784204Y-23764505D01*
X23783000Y-23740001D01*
X23783000Y-22839999D01*
X23784204Y-22815495D01*
X23787804Y-22791227D01*
X23793765Y-22767428D01*
X23802030Y-22744329D01*
X23812520Y-22722150D01*
X23825132Y-22701107D01*
X23839747Y-22681401D01*
X23856223Y-22663223D01*
X23874401Y-22646747D01*
X23894107Y-22632132D01*
X23915150Y-22619520D01*
X23937329Y-22609030D01*
X23960428Y-22600765D01*
X23984227Y-22594804D01*
X24008495Y-22591204D01*
X24032999Y-22590000D01*
X24683001Y-22590000D01*
X24707505Y-22591204D01*
X24707505Y-22591204D01*
G37*
D12*
X24358000Y-23290000D03*
D11*
G36*
X26757505Y-22591204D02*
G01*
X26781773Y-22594804D01*
X26805572Y-22600765D01*
X26828671Y-22609030D01*
X26850850Y-22619520D01*
X26871893Y-22632132D01*
X26891599Y-22646747D01*
X26909777Y-22663223D01*
X26926253Y-22681401D01*
X26940868Y-22701107D01*
X26953480Y-22722150D01*
X26963970Y-22744329D01*
X26972235Y-22767428D01*
X26978196Y-22791227D01*
X26981796Y-22815495D01*
X26983000Y-22839999D01*
X26983000Y-23740001D01*
X26981796Y-23764505D01*
X26978196Y-23788773D01*
X26972235Y-23812572D01*
X26963970Y-23835671D01*
X26953480Y-23857850D01*
X26940868Y-23878893D01*
X26926253Y-23898599D01*
X26909777Y-23916777D01*
X26891599Y-23933253D01*
X26871893Y-23947868D01*
X26850850Y-23960480D01*
X26828671Y-23970970D01*
X26805572Y-23979235D01*
X26781773Y-23985196D01*
X26757505Y-23988796D01*
X26733001Y-23990000D01*
X26082999Y-23990000D01*
X26058495Y-23988796D01*
X26034227Y-23985196D01*
X26010428Y-23979235D01*
X25987329Y-23970970D01*
X25965150Y-23960480D01*
X25944107Y-23947868D01*
X25924401Y-23933253D01*
X25906223Y-23916777D01*
X25889747Y-23898599D01*
X25875132Y-23878893D01*
X25862520Y-23857850D01*
X25852030Y-23835671D01*
X25843765Y-23812572D01*
X25837804Y-23788773D01*
X25834204Y-23764505D01*
X25833000Y-23740001D01*
X25833000Y-22839999D01*
X25834204Y-22815495D01*
X25837804Y-22791227D01*
X25843765Y-22767428D01*
X25852030Y-22744329D01*
X25862520Y-22722150D01*
X25875132Y-22701107D01*
X25889747Y-22681401D01*
X25906223Y-22663223D01*
X25924401Y-22646747D01*
X25944107Y-22632132D01*
X25965150Y-22619520D01*
X25987329Y-22609030D01*
X26010428Y-22600765D01*
X26034227Y-22594804D01*
X26058495Y-22591204D01*
X26082999Y-22590000D01*
X26733001Y-22590000D01*
X26757505Y-22591204D01*
X26757505Y-22591204D01*
G37*
D12*
X26408000Y-23290000D03*
%TD*%
D11*
%TO.C,R7*%
G36*
X26849505Y-20091204D02*
G01*
X26873773Y-20094804D01*
X26897572Y-20100765D01*
X26920671Y-20109030D01*
X26942850Y-20119520D01*
X26963893Y-20132132D01*
X26983599Y-20146747D01*
X27001777Y-20163223D01*
X27018253Y-20181401D01*
X27032868Y-20201107D01*
X27045480Y-20222150D01*
X27055970Y-20244329D01*
X27064235Y-20267428D01*
X27070196Y-20291227D01*
X27073796Y-20315495D01*
X27075000Y-20339999D01*
X27075000Y-21240001D01*
X27073796Y-21264505D01*
X27070196Y-21288773D01*
X27064235Y-21312572D01*
X27055970Y-21335671D01*
X27045480Y-21357850D01*
X27032868Y-21378893D01*
X27018253Y-21398599D01*
X27001777Y-21416777D01*
X26983599Y-21433253D01*
X26963893Y-21447868D01*
X26942850Y-21460480D01*
X26920671Y-21470970D01*
X26897572Y-21479235D01*
X26873773Y-21485196D01*
X26849505Y-21488796D01*
X26825001Y-21490000D01*
X26174999Y-21490000D01*
X26150495Y-21488796D01*
X26126227Y-21485196D01*
X26102428Y-21479235D01*
X26079329Y-21470970D01*
X26057150Y-21460480D01*
X26036107Y-21447868D01*
X26016401Y-21433253D01*
X25998223Y-21416777D01*
X25981747Y-21398599D01*
X25967132Y-21378893D01*
X25954520Y-21357850D01*
X25944030Y-21335671D01*
X25935765Y-21312572D01*
X25929804Y-21288773D01*
X25926204Y-21264505D01*
X25925000Y-21240001D01*
X25925000Y-20339999D01*
X25926204Y-20315495D01*
X25929804Y-20291227D01*
X25935765Y-20267428D01*
X25944030Y-20244329D01*
X25954520Y-20222150D01*
X25967132Y-20201107D01*
X25981747Y-20181401D01*
X25998223Y-20163223D01*
X26016401Y-20146747D01*
X26036107Y-20132132D01*
X26057150Y-20119520D01*
X26079329Y-20109030D01*
X26102428Y-20100765D01*
X26126227Y-20094804D01*
X26150495Y-20091204D01*
X26174999Y-20090000D01*
X26825001Y-20090000D01*
X26849505Y-20091204D01*
X26849505Y-20091204D01*
G37*
D12*
X26500000Y-20790000D03*
D11*
G36*
X24799505Y-20091204D02*
G01*
X24823773Y-20094804D01*
X24847572Y-20100765D01*
X24870671Y-20109030D01*
X24892850Y-20119520D01*
X24913893Y-20132132D01*
X24933599Y-20146747D01*
X24951777Y-20163223D01*
X24968253Y-20181401D01*
X24982868Y-20201107D01*
X24995480Y-20222150D01*
X25005970Y-20244329D01*
X25014235Y-20267428D01*
X25020196Y-20291227D01*
X25023796Y-20315495D01*
X25025000Y-20339999D01*
X25025000Y-21240001D01*
X25023796Y-21264505D01*
X25020196Y-21288773D01*
X25014235Y-21312572D01*
X25005970Y-21335671D01*
X24995480Y-21357850D01*
X24982868Y-21378893D01*
X24968253Y-21398599D01*
X24951777Y-21416777D01*
X24933599Y-21433253D01*
X24913893Y-21447868D01*
X24892850Y-21460480D01*
X24870671Y-21470970D01*
X24847572Y-21479235D01*
X24823773Y-21485196D01*
X24799505Y-21488796D01*
X24775001Y-21490000D01*
X24124999Y-21490000D01*
X24100495Y-21488796D01*
X24076227Y-21485196D01*
X24052428Y-21479235D01*
X24029329Y-21470970D01*
X24007150Y-21460480D01*
X23986107Y-21447868D01*
X23966401Y-21433253D01*
X23948223Y-21416777D01*
X23931747Y-21398599D01*
X23917132Y-21378893D01*
X23904520Y-21357850D01*
X23894030Y-21335671D01*
X23885765Y-21312572D01*
X23879804Y-21288773D01*
X23876204Y-21264505D01*
X23875000Y-21240001D01*
X23875000Y-20339999D01*
X23876204Y-20315495D01*
X23879804Y-20291227D01*
X23885765Y-20267428D01*
X23894030Y-20244329D01*
X23904520Y-20222150D01*
X23917132Y-20201107D01*
X23931747Y-20181401D01*
X23948223Y-20163223D01*
X23966401Y-20146747D01*
X23986107Y-20132132D01*
X24007150Y-20119520D01*
X24029329Y-20109030D01*
X24052428Y-20100765D01*
X24076227Y-20094804D01*
X24100495Y-20091204D01*
X24124999Y-20090000D01*
X24775001Y-20090000D01*
X24799505Y-20091204D01*
X24799505Y-20091204D01*
G37*
D12*
X24450000Y-20790000D03*
%TD*%
D11*
%TO.C,C1*%
G36*
X26224505Y-37951204D02*
G01*
X26248773Y-37954804D01*
X26272572Y-37960765D01*
X26295671Y-37969030D01*
X26317850Y-37979520D01*
X26338893Y-37992132D01*
X26358599Y-38006747D01*
X26376777Y-38023223D01*
X26393253Y-38041401D01*
X26407868Y-38061107D01*
X26420480Y-38082150D01*
X26430970Y-38104329D01*
X26439235Y-38127428D01*
X26445196Y-38151227D01*
X26448796Y-38175495D01*
X26450000Y-38199999D01*
X26450000Y-38850001D01*
X26448796Y-38874505D01*
X26445196Y-38898773D01*
X26439235Y-38922572D01*
X26430970Y-38945671D01*
X26420480Y-38967850D01*
X26407868Y-38988893D01*
X26393253Y-39008599D01*
X26376777Y-39026777D01*
X26358599Y-39043253D01*
X26338893Y-39057868D01*
X26317850Y-39070480D01*
X26295671Y-39080970D01*
X26272572Y-39089235D01*
X26248773Y-39095196D01*
X26224505Y-39098796D01*
X26200001Y-39100000D01*
X25299999Y-39100000D01*
X25275495Y-39098796D01*
X25251227Y-39095196D01*
X25227428Y-39089235D01*
X25204329Y-39080970D01*
X25182150Y-39070480D01*
X25161107Y-39057868D01*
X25141401Y-39043253D01*
X25123223Y-39026777D01*
X25106747Y-39008599D01*
X25092132Y-38988893D01*
X25079520Y-38967850D01*
X25069030Y-38945671D01*
X25060765Y-38922572D01*
X25054804Y-38898773D01*
X25051204Y-38874505D01*
X25050000Y-38850001D01*
X25050000Y-38199999D01*
X25051204Y-38175495D01*
X25054804Y-38151227D01*
X25060765Y-38127428D01*
X25069030Y-38104329D01*
X25079520Y-38082150D01*
X25092132Y-38061107D01*
X25106747Y-38041401D01*
X25123223Y-38023223D01*
X25141401Y-38006747D01*
X25161107Y-37992132D01*
X25182150Y-37979520D01*
X25204329Y-37969030D01*
X25227428Y-37960765D01*
X25251227Y-37954804D01*
X25275495Y-37951204D01*
X25299999Y-37950000D01*
X26200001Y-37950000D01*
X26224505Y-37951204D01*
X26224505Y-37951204D01*
G37*
D12*
X25750000Y-38525000D03*
D11*
G36*
X26224505Y-35901204D02*
G01*
X26248773Y-35904804D01*
X26272572Y-35910765D01*
X26295671Y-35919030D01*
X26317850Y-35929520D01*
X26338893Y-35942132D01*
X26358599Y-35956747D01*
X26376777Y-35973223D01*
X26393253Y-35991401D01*
X26407868Y-36011107D01*
X26420480Y-36032150D01*
X26430970Y-36054329D01*
X26439235Y-36077428D01*
X26445196Y-36101227D01*
X26448796Y-36125495D01*
X26450000Y-36149999D01*
X26450000Y-36800001D01*
X26448796Y-36824505D01*
X26445196Y-36848773D01*
X26439235Y-36872572D01*
X26430970Y-36895671D01*
X26420480Y-36917850D01*
X26407868Y-36938893D01*
X26393253Y-36958599D01*
X26376777Y-36976777D01*
X26358599Y-36993253D01*
X26338893Y-37007868D01*
X26317850Y-37020480D01*
X26295671Y-37030970D01*
X26272572Y-37039235D01*
X26248773Y-37045196D01*
X26224505Y-37048796D01*
X26200001Y-37050000D01*
X25299999Y-37050000D01*
X25275495Y-37048796D01*
X25251227Y-37045196D01*
X25227428Y-37039235D01*
X25204329Y-37030970D01*
X25182150Y-37020480D01*
X25161107Y-37007868D01*
X25141401Y-36993253D01*
X25123223Y-36976777D01*
X25106747Y-36958599D01*
X25092132Y-36938893D01*
X25079520Y-36917850D01*
X25069030Y-36895671D01*
X25060765Y-36872572D01*
X25054804Y-36848773D01*
X25051204Y-36824505D01*
X25050000Y-36800001D01*
X25050000Y-36149999D01*
X25051204Y-36125495D01*
X25054804Y-36101227D01*
X25060765Y-36077428D01*
X25069030Y-36054329D01*
X25079520Y-36032150D01*
X25092132Y-36011107D01*
X25106747Y-35991401D01*
X25123223Y-35973223D01*
X25141401Y-35956747D01*
X25161107Y-35942132D01*
X25182150Y-35929520D01*
X25204329Y-35919030D01*
X25227428Y-35910765D01*
X25251227Y-35904804D01*
X25275495Y-35901204D01*
X25299999Y-35900000D01*
X26200001Y-35900000D01*
X26224505Y-35901204D01*
X26224505Y-35901204D01*
G37*
D12*
X25750000Y-36475000D03*
%TD*%
D11*
%TO.C,C2*%
G36*
X28474505Y-37926204D02*
G01*
X28498773Y-37929804D01*
X28522572Y-37935765D01*
X28545671Y-37944030D01*
X28567850Y-37954520D01*
X28588893Y-37967132D01*
X28608599Y-37981747D01*
X28626777Y-37998223D01*
X28643253Y-38016401D01*
X28657868Y-38036107D01*
X28670480Y-38057150D01*
X28680970Y-38079329D01*
X28689235Y-38102428D01*
X28695196Y-38126227D01*
X28698796Y-38150495D01*
X28700000Y-38174999D01*
X28700000Y-38825001D01*
X28698796Y-38849505D01*
X28695196Y-38873773D01*
X28689235Y-38897572D01*
X28680970Y-38920671D01*
X28670480Y-38942850D01*
X28657868Y-38963893D01*
X28643253Y-38983599D01*
X28626777Y-39001777D01*
X28608599Y-39018253D01*
X28588893Y-39032868D01*
X28567850Y-39045480D01*
X28545671Y-39055970D01*
X28522572Y-39064235D01*
X28498773Y-39070196D01*
X28474505Y-39073796D01*
X28450001Y-39075000D01*
X27549999Y-39075000D01*
X27525495Y-39073796D01*
X27501227Y-39070196D01*
X27477428Y-39064235D01*
X27454329Y-39055970D01*
X27432150Y-39045480D01*
X27411107Y-39032868D01*
X27391401Y-39018253D01*
X27373223Y-39001777D01*
X27356747Y-38983599D01*
X27342132Y-38963893D01*
X27329520Y-38942850D01*
X27319030Y-38920671D01*
X27310765Y-38897572D01*
X27304804Y-38873773D01*
X27301204Y-38849505D01*
X27300000Y-38825001D01*
X27300000Y-38174999D01*
X27301204Y-38150495D01*
X27304804Y-38126227D01*
X27310765Y-38102428D01*
X27319030Y-38079329D01*
X27329520Y-38057150D01*
X27342132Y-38036107D01*
X27356747Y-38016401D01*
X27373223Y-37998223D01*
X27391401Y-37981747D01*
X27411107Y-37967132D01*
X27432150Y-37954520D01*
X27454329Y-37944030D01*
X27477428Y-37935765D01*
X27501227Y-37929804D01*
X27525495Y-37926204D01*
X27549999Y-37925000D01*
X28450001Y-37925000D01*
X28474505Y-37926204D01*
X28474505Y-37926204D01*
G37*
D12*
X28000000Y-38500000D03*
D11*
G36*
X28474505Y-35876204D02*
G01*
X28498773Y-35879804D01*
X28522572Y-35885765D01*
X28545671Y-35894030D01*
X28567850Y-35904520D01*
X28588893Y-35917132D01*
X28608599Y-35931747D01*
X28626777Y-35948223D01*
X28643253Y-35966401D01*
X28657868Y-35986107D01*
X28670480Y-36007150D01*
X28680970Y-36029329D01*
X28689235Y-36052428D01*
X28695196Y-36076227D01*
X28698796Y-36100495D01*
X28700000Y-36124999D01*
X28700000Y-36775001D01*
X28698796Y-36799505D01*
X28695196Y-36823773D01*
X28689235Y-36847572D01*
X28680970Y-36870671D01*
X28670480Y-36892850D01*
X28657868Y-36913893D01*
X28643253Y-36933599D01*
X28626777Y-36951777D01*
X28608599Y-36968253D01*
X28588893Y-36982868D01*
X28567850Y-36995480D01*
X28545671Y-37005970D01*
X28522572Y-37014235D01*
X28498773Y-37020196D01*
X28474505Y-37023796D01*
X28450001Y-37025000D01*
X27549999Y-37025000D01*
X27525495Y-37023796D01*
X27501227Y-37020196D01*
X27477428Y-37014235D01*
X27454329Y-37005970D01*
X27432150Y-36995480D01*
X27411107Y-36982868D01*
X27391401Y-36968253D01*
X27373223Y-36951777D01*
X27356747Y-36933599D01*
X27342132Y-36913893D01*
X27329520Y-36892850D01*
X27319030Y-36870671D01*
X27310765Y-36847572D01*
X27304804Y-36823773D01*
X27301204Y-36799505D01*
X27300000Y-36775001D01*
X27300000Y-36124999D01*
X27301204Y-36100495D01*
X27304804Y-36076227D01*
X27310765Y-36052428D01*
X27319030Y-36029329D01*
X27329520Y-36007150D01*
X27342132Y-35986107D01*
X27356747Y-35966401D01*
X27373223Y-35948223D01*
X27391401Y-35931747D01*
X27411107Y-35917132D01*
X27432150Y-35904520D01*
X27454329Y-35894030D01*
X27477428Y-35885765D01*
X27501227Y-35879804D01*
X27525495Y-35876204D01*
X27549999Y-35875000D01*
X28450001Y-35875000D01*
X28474505Y-35876204D01*
X28474505Y-35876204D01*
G37*
D12*
X28000000Y-36450000D03*
%TD*%
D11*
%TO.C,C4*%
G36*
X39074505Y-37990204D02*
G01*
X39098773Y-37993804D01*
X39122572Y-37999765D01*
X39145671Y-38008030D01*
X39167850Y-38018520D01*
X39188893Y-38031132D01*
X39208599Y-38045747D01*
X39226777Y-38062223D01*
X39243253Y-38080401D01*
X39257868Y-38100107D01*
X39270480Y-38121150D01*
X39280970Y-38143329D01*
X39289235Y-38166428D01*
X39295196Y-38190227D01*
X39298796Y-38214495D01*
X39300000Y-38238999D01*
X39300000Y-38889001D01*
X39298796Y-38913505D01*
X39295196Y-38937773D01*
X39289235Y-38961572D01*
X39280970Y-38984671D01*
X39270480Y-39006850D01*
X39257868Y-39027893D01*
X39243253Y-39047599D01*
X39226777Y-39065777D01*
X39208599Y-39082253D01*
X39188893Y-39096868D01*
X39167850Y-39109480D01*
X39145671Y-39119970D01*
X39122572Y-39128235D01*
X39098773Y-39134196D01*
X39074505Y-39137796D01*
X39050001Y-39139000D01*
X38149999Y-39139000D01*
X38125495Y-39137796D01*
X38101227Y-39134196D01*
X38077428Y-39128235D01*
X38054329Y-39119970D01*
X38032150Y-39109480D01*
X38011107Y-39096868D01*
X37991401Y-39082253D01*
X37973223Y-39065777D01*
X37956747Y-39047599D01*
X37942132Y-39027893D01*
X37929520Y-39006850D01*
X37919030Y-38984671D01*
X37910765Y-38961572D01*
X37904804Y-38937773D01*
X37901204Y-38913505D01*
X37900000Y-38889001D01*
X37900000Y-38238999D01*
X37901204Y-38214495D01*
X37904804Y-38190227D01*
X37910765Y-38166428D01*
X37919030Y-38143329D01*
X37929520Y-38121150D01*
X37942132Y-38100107D01*
X37956747Y-38080401D01*
X37973223Y-38062223D01*
X37991401Y-38045747D01*
X38011107Y-38031132D01*
X38032150Y-38018520D01*
X38054329Y-38008030D01*
X38077428Y-37999765D01*
X38101227Y-37993804D01*
X38125495Y-37990204D01*
X38149999Y-37989000D01*
X39050001Y-37989000D01*
X39074505Y-37990204D01*
X39074505Y-37990204D01*
G37*
D12*
X38600000Y-38564000D03*
D11*
G36*
X39074505Y-40040204D02*
G01*
X39098773Y-40043804D01*
X39122572Y-40049765D01*
X39145671Y-40058030D01*
X39167850Y-40068520D01*
X39188893Y-40081132D01*
X39208599Y-40095747D01*
X39226777Y-40112223D01*
X39243253Y-40130401D01*
X39257868Y-40150107D01*
X39270480Y-40171150D01*
X39280970Y-40193329D01*
X39289235Y-40216428D01*
X39295196Y-40240227D01*
X39298796Y-40264495D01*
X39300000Y-40288999D01*
X39300000Y-40939001D01*
X39298796Y-40963505D01*
X39295196Y-40987773D01*
X39289235Y-41011572D01*
X39280970Y-41034671D01*
X39270480Y-41056850D01*
X39257868Y-41077893D01*
X39243253Y-41097599D01*
X39226777Y-41115777D01*
X39208599Y-41132253D01*
X39188893Y-41146868D01*
X39167850Y-41159480D01*
X39145671Y-41169970D01*
X39122572Y-41178235D01*
X39098773Y-41184196D01*
X39074505Y-41187796D01*
X39050001Y-41189000D01*
X38149999Y-41189000D01*
X38125495Y-41187796D01*
X38101227Y-41184196D01*
X38077428Y-41178235D01*
X38054329Y-41169970D01*
X38032150Y-41159480D01*
X38011107Y-41146868D01*
X37991401Y-41132253D01*
X37973223Y-41115777D01*
X37956747Y-41097599D01*
X37942132Y-41077893D01*
X37929520Y-41056850D01*
X37919030Y-41034671D01*
X37910765Y-41011572D01*
X37904804Y-40987773D01*
X37901204Y-40963505D01*
X37900000Y-40939001D01*
X37900000Y-40288999D01*
X37901204Y-40264495D01*
X37904804Y-40240227D01*
X37910765Y-40216428D01*
X37919030Y-40193329D01*
X37929520Y-40171150D01*
X37942132Y-40150107D01*
X37956747Y-40130401D01*
X37973223Y-40112223D01*
X37991401Y-40095747D01*
X38011107Y-40081132D01*
X38032150Y-40068520D01*
X38054329Y-40058030D01*
X38077428Y-40049765D01*
X38101227Y-40043804D01*
X38125495Y-40040204D01*
X38149999Y-40039000D01*
X39050001Y-40039000D01*
X39074505Y-40040204D01*
X39074505Y-40040204D01*
G37*
D12*
X38600000Y-40614000D03*
%TD*%
D11*
%TO.C,C5*%
G36*
X53215548Y-32367764D02*
G01*
X53239816Y-32371364D01*
X53263615Y-32377325D01*
X53286714Y-32385590D01*
X53308893Y-32396080D01*
X53329936Y-32408692D01*
X53349642Y-32423307D01*
X53367820Y-32439783D01*
X54004217Y-33076180D01*
X54020693Y-33094358D01*
X54035308Y-33114064D01*
X54047920Y-33135107D01*
X54058410Y-33157286D01*
X54066675Y-33180385D01*
X54072636Y-33204184D01*
X54076236Y-33228452D01*
X54077440Y-33252956D01*
X54076236Y-33277460D01*
X54072636Y-33301728D01*
X54066675Y-33325527D01*
X54058410Y-33348626D01*
X54047920Y-33370805D01*
X54035308Y-33391848D01*
X54020693Y-33411554D01*
X54004217Y-33429732D01*
X53544596Y-33889353D01*
X53526418Y-33905829D01*
X53506712Y-33920444D01*
X53485669Y-33933056D01*
X53463490Y-33943546D01*
X53440391Y-33951811D01*
X53416592Y-33957772D01*
X53392324Y-33961372D01*
X53367820Y-33962576D01*
X53343316Y-33961372D01*
X53319048Y-33957772D01*
X53295249Y-33951811D01*
X53272150Y-33943546D01*
X53249971Y-33933056D01*
X53228928Y-33920444D01*
X53209222Y-33905829D01*
X53191044Y-33889353D01*
X52554647Y-33252956D01*
X52538171Y-33234778D01*
X52523556Y-33215072D01*
X52510944Y-33194029D01*
X52500454Y-33171850D01*
X52492189Y-33148751D01*
X52486228Y-33124952D01*
X52482628Y-33100684D01*
X52481424Y-33076180D01*
X52482628Y-33051676D01*
X52486228Y-33027408D01*
X52492189Y-33003609D01*
X52500454Y-32980510D01*
X52510944Y-32958331D01*
X52523556Y-32937288D01*
X52538171Y-32917582D01*
X52554647Y-32899404D01*
X53014268Y-32439783D01*
X53032446Y-32423307D01*
X53052152Y-32408692D01*
X53073195Y-32396080D01*
X53095374Y-32385590D01*
X53118473Y-32377325D01*
X53142272Y-32371364D01*
X53166540Y-32367764D01*
X53191044Y-32366560D01*
X53215548Y-32367764D01*
X53215548Y-32367764D01*
G37*
D12*
X53279432Y-33164568D03*
D11*
G36*
X54665116Y-30918196D02*
G01*
X54689384Y-30921796D01*
X54713183Y-30927757D01*
X54736282Y-30936022D01*
X54758461Y-30946512D01*
X54779504Y-30959124D01*
X54799210Y-30973739D01*
X54817388Y-30990215D01*
X55453785Y-31626612D01*
X55470261Y-31644790D01*
X55484876Y-31664496D01*
X55497488Y-31685539D01*
X55507978Y-31707718D01*
X55516243Y-31730817D01*
X55522204Y-31754616D01*
X55525804Y-31778884D01*
X55527008Y-31803388D01*
X55525804Y-31827892D01*
X55522204Y-31852160D01*
X55516243Y-31875959D01*
X55507978Y-31899058D01*
X55497488Y-31921237D01*
X55484876Y-31942280D01*
X55470261Y-31961986D01*
X55453785Y-31980164D01*
X54994164Y-32439785D01*
X54975986Y-32456261D01*
X54956280Y-32470876D01*
X54935237Y-32483488D01*
X54913058Y-32493978D01*
X54889959Y-32502243D01*
X54866160Y-32508204D01*
X54841892Y-32511804D01*
X54817388Y-32513008D01*
X54792884Y-32511804D01*
X54768616Y-32508204D01*
X54744817Y-32502243D01*
X54721718Y-32493978D01*
X54699539Y-32483488D01*
X54678496Y-32470876D01*
X54658790Y-32456261D01*
X54640612Y-32439785D01*
X54004215Y-31803388D01*
X53987739Y-31785210D01*
X53973124Y-31765504D01*
X53960512Y-31744461D01*
X53950022Y-31722282D01*
X53941757Y-31699183D01*
X53935796Y-31675384D01*
X53932196Y-31651116D01*
X53930992Y-31626612D01*
X53932196Y-31602108D01*
X53935796Y-31577840D01*
X53941757Y-31554041D01*
X53950022Y-31530942D01*
X53960512Y-31508763D01*
X53973124Y-31487720D01*
X53987739Y-31468014D01*
X54004215Y-31449836D01*
X54463836Y-30990215D01*
X54482014Y-30973739D01*
X54501720Y-30959124D01*
X54522763Y-30946512D01*
X54544942Y-30936022D01*
X54568041Y-30927757D01*
X54591840Y-30921796D01*
X54616108Y-30918196D01*
X54640612Y-30916992D01*
X54665116Y-30918196D01*
X54665116Y-30918196D01*
G37*
D12*
X54729000Y-31715000D03*
%TD*%
D11*
%TO.C,C6*%
G36*
X39074505Y-35731204D02*
G01*
X39098773Y-35734804D01*
X39122572Y-35740765D01*
X39145671Y-35749030D01*
X39167850Y-35759520D01*
X39188893Y-35772132D01*
X39208599Y-35786747D01*
X39226777Y-35803223D01*
X39243253Y-35821401D01*
X39257868Y-35841107D01*
X39270480Y-35862150D01*
X39280970Y-35884329D01*
X39289235Y-35907428D01*
X39295196Y-35931227D01*
X39298796Y-35955495D01*
X39300000Y-35979999D01*
X39300000Y-36630001D01*
X39298796Y-36654505D01*
X39295196Y-36678773D01*
X39289235Y-36702572D01*
X39280970Y-36725671D01*
X39270480Y-36747850D01*
X39257868Y-36768893D01*
X39243253Y-36788599D01*
X39226777Y-36806777D01*
X39208599Y-36823253D01*
X39188893Y-36837868D01*
X39167850Y-36850480D01*
X39145671Y-36860970D01*
X39122572Y-36869235D01*
X39098773Y-36875196D01*
X39074505Y-36878796D01*
X39050001Y-36880000D01*
X38149999Y-36880000D01*
X38125495Y-36878796D01*
X38101227Y-36875196D01*
X38077428Y-36869235D01*
X38054329Y-36860970D01*
X38032150Y-36850480D01*
X38011107Y-36837868D01*
X37991401Y-36823253D01*
X37973223Y-36806777D01*
X37956747Y-36788599D01*
X37942132Y-36768893D01*
X37929520Y-36747850D01*
X37919030Y-36725671D01*
X37910765Y-36702572D01*
X37904804Y-36678773D01*
X37901204Y-36654505D01*
X37900000Y-36630001D01*
X37900000Y-35979999D01*
X37901204Y-35955495D01*
X37904804Y-35931227D01*
X37910765Y-35907428D01*
X37919030Y-35884329D01*
X37929520Y-35862150D01*
X37942132Y-35841107D01*
X37956747Y-35821401D01*
X37973223Y-35803223D01*
X37991401Y-35786747D01*
X38011107Y-35772132D01*
X38032150Y-35759520D01*
X38054329Y-35749030D01*
X38077428Y-35740765D01*
X38101227Y-35734804D01*
X38125495Y-35731204D01*
X38149999Y-35730000D01*
X39050001Y-35730000D01*
X39074505Y-35731204D01*
X39074505Y-35731204D01*
G37*
D12*
X38600000Y-36305000D03*
D11*
G36*
X39074505Y-33681204D02*
G01*
X39098773Y-33684804D01*
X39122572Y-33690765D01*
X39145671Y-33699030D01*
X39167850Y-33709520D01*
X39188893Y-33722132D01*
X39208599Y-33736747D01*
X39226777Y-33753223D01*
X39243253Y-33771401D01*
X39257868Y-33791107D01*
X39270480Y-33812150D01*
X39280970Y-33834329D01*
X39289235Y-33857428D01*
X39295196Y-33881227D01*
X39298796Y-33905495D01*
X39300000Y-33929999D01*
X39300000Y-34580001D01*
X39298796Y-34604505D01*
X39295196Y-34628773D01*
X39289235Y-34652572D01*
X39280970Y-34675671D01*
X39270480Y-34697850D01*
X39257868Y-34718893D01*
X39243253Y-34738599D01*
X39226777Y-34756777D01*
X39208599Y-34773253D01*
X39188893Y-34787868D01*
X39167850Y-34800480D01*
X39145671Y-34810970D01*
X39122572Y-34819235D01*
X39098773Y-34825196D01*
X39074505Y-34828796D01*
X39050001Y-34830000D01*
X38149999Y-34830000D01*
X38125495Y-34828796D01*
X38101227Y-34825196D01*
X38077428Y-34819235D01*
X38054329Y-34810970D01*
X38032150Y-34800480D01*
X38011107Y-34787868D01*
X37991401Y-34773253D01*
X37973223Y-34756777D01*
X37956747Y-34738599D01*
X37942132Y-34718893D01*
X37929520Y-34697850D01*
X37919030Y-34675671D01*
X37910765Y-34652572D01*
X37904804Y-34628773D01*
X37901204Y-34604505D01*
X37900000Y-34580001D01*
X37900000Y-33929999D01*
X37901204Y-33905495D01*
X37904804Y-33881227D01*
X37910765Y-33857428D01*
X37919030Y-33834329D01*
X37929520Y-33812150D01*
X37942132Y-33791107D01*
X37956747Y-33771401D01*
X37973223Y-33753223D01*
X37991401Y-33736747D01*
X38011107Y-33722132D01*
X38032150Y-33709520D01*
X38054329Y-33699030D01*
X38077428Y-33690765D01*
X38101227Y-33684804D01*
X38125495Y-33681204D01*
X38149999Y-33680000D01*
X39050001Y-33680000D01*
X39074505Y-33681204D01*
X39074505Y-33681204D01*
G37*
D12*
X38600000Y-34255000D03*
%TD*%
D11*
%TO.C,C8*%
G36*
X35518505Y-19820204D02*
G01*
X35542773Y-19823804D01*
X35566572Y-19829765D01*
X35589671Y-19838030D01*
X35611850Y-19848520D01*
X35632893Y-19861132D01*
X35652599Y-19875747D01*
X35670777Y-19892223D01*
X35687253Y-19910401D01*
X35701868Y-19930107D01*
X35714480Y-19951150D01*
X35724970Y-19973329D01*
X35733235Y-19996428D01*
X35739196Y-20020227D01*
X35742796Y-20044495D01*
X35744000Y-20068999D01*
X35744000Y-20719001D01*
X35742796Y-20743505D01*
X35739196Y-20767773D01*
X35733235Y-20791572D01*
X35724970Y-20814671D01*
X35714480Y-20836850D01*
X35701868Y-20857893D01*
X35687253Y-20877599D01*
X35670777Y-20895777D01*
X35652599Y-20912253D01*
X35632893Y-20926868D01*
X35611850Y-20939480D01*
X35589671Y-20949970D01*
X35566572Y-20958235D01*
X35542773Y-20964196D01*
X35518505Y-20967796D01*
X35494001Y-20969000D01*
X34593999Y-20969000D01*
X34569495Y-20967796D01*
X34545227Y-20964196D01*
X34521428Y-20958235D01*
X34498329Y-20949970D01*
X34476150Y-20939480D01*
X34455107Y-20926868D01*
X34435401Y-20912253D01*
X34417223Y-20895777D01*
X34400747Y-20877599D01*
X34386132Y-20857893D01*
X34373520Y-20836850D01*
X34363030Y-20814671D01*
X34354765Y-20791572D01*
X34348804Y-20767773D01*
X34345204Y-20743505D01*
X34344000Y-20719001D01*
X34344000Y-20068999D01*
X34345204Y-20044495D01*
X34348804Y-20020227D01*
X34354765Y-19996428D01*
X34363030Y-19973329D01*
X34373520Y-19951150D01*
X34386132Y-19930107D01*
X34400747Y-19910401D01*
X34417223Y-19892223D01*
X34435401Y-19875747D01*
X34455107Y-19861132D01*
X34476150Y-19848520D01*
X34498329Y-19838030D01*
X34521428Y-19829765D01*
X34545227Y-19823804D01*
X34569495Y-19820204D01*
X34593999Y-19819000D01*
X35494001Y-19819000D01*
X35518505Y-19820204D01*
X35518505Y-19820204D01*
G37*
D12*
X35044000Y-20394000D03*
D11*
G36*
X35518505Y-21870204D02*
G01*
X35542773Y-21873804D01*
X35566572Y-21879765D01*
X35589671Y-21888030D01*
X35611850Y-21898520D01*
X35632893Y-21911132D01*
X35652599Y-21925747D01*
X35670777Y-21942223D01*
X35687253Y-21960401D01*
X35701868Y-21980107D01*
X35714480Y-22001150D01*
X35724970Y-22023329D01*
X35733235Y-22046428D01*
X35739196Y-22070227D01*
X35742796Y-22094495D01*
X35744000Y-22118999D01*
X35744000Y-22769001D01*
X35742796Y-22793505D01*
X35739196Y-22817773D01*
X35733235Y-22841572D01*
X35724970Y-22864671D01*
X35714480Y-22886850D01*
X35701868Y-22907893D01*
X35687253Y-22927599D01*
X35670777Y-22945777D01*
X35652599Y-22962253D01*
X35632893Y-22976868D01*
X35611850Y-22989480D01*
X35589671Y-22999970D01*
X35566572Y-23008235D01*
X35542773Y-23014196D01*
X35518505Y-23017796D01*
X35494001Y-23019000D01*
X34593999Y-23019000D01*
X34569495Y-23017796D01*
X34545227Y-23014196D01*
X34521428Y-23008235D01*
X34498329Y-22999970D01*
X34476150Y-22989480D01*
X34455107Y-22976868D01*
X34435401Y-22962253D01*
X34417223Y-22945777D01*
X34400747Y-22927599D01*
X34386132Y-22907893D01*
X34373520Y-22886850D01*
X34363030Y-22864671D01*
X34354765Y-22841572D01*
X34348804Y-22817773D01*
X34345204Y-22793505D01*
X34344000Y-22769001D01*
X34344000Y-22118999D01*
X34345204Y-22094495D01*
X34348804Y-22070227D01*
X34354765Y-22046428D01*
X34363030Y-22023329D01*
X34373520Y-22001150D01*
X34386132Y-21980107D01*
X34400747Y-21960401D01*
X34417223Y-21942223D01*
X34435401Y-21925747D01*
X34455107Y-21911132D01*
X34476150Y-21898520D01*
X34498329Y-21888030D01*
X34521428Y-21879765D01*
X34545227Y-21873804D01*
X34569495Y-21870204D01*
X34593999Y-21869000D01*
X35494001Y-21869000D01*
X35518505Y-21870204D01*
X35518505Y-21870204D01*
G37*
D12*
X35044000Y-22444000D03*
%TD*%
D11*
%TO.C,C9*%
G36*
X61934505Y-39777204D02*
G01*
X61958773Y-39780804D01*
X61982572Y-39786765D01*
X62005671Y-39795030D01*
X62027850Y-39805520D01*
X62048893Y-39818132D01*
X62068599Y-39832747D01*
X62086777Y-39849223D01*
X62103253Y-39867401D01*
X62117868Y-39887107D01*
X62130480Y-39908150D01*
X62140970Y-39930329D01*
X62149235Y-39953428D01*
X62155196Y-39977227D01*
X62158796Y-40001495D01*
X62160000Y-40025999D01*
X62160000Y-40676001D01*
X62158796Y-40700505D01*
X62155196Y-40724773D01*
X62149235Y-40748572D01*
X62140970Y-40771671D01*
X62130480Y-40793850D01*
X62117868Y-40814893D01*
X62103253Y-40834599D01*
X62086777Y-40852777D01*
X62068599Y-40869253D01*
X62048893Y-40883868D01*
X62027850Y-40896480D01*
X62005671Y-40906970D01*
X61982572Y-40915235D01*
X61958773Y-40921196D01*
X61934505Y-40924796D01*
X61910001Y-40926000D01*
X61009999Y-40926000D01*
X60985495Y-40924796D01*
X60961227Y-40921196D01*
X60937428Y-40915235D01*
X60914329Y-40906970D01*
X60892150Y-40896480D01*
X60871107Y-40883868D01*
X60851401Y-40869253D01*
X60833223Y-40852777D01*
X60816747Y-40834599D01*
X60802132Y-40814893D01*
X60789520Y-40793850D01*
X60779030Y-40771671D01*
X60770765Y-40748572D01*
X60764804Y-40724773D01*
X60761204Y-40700505D01*
X60760000Y-40676001D01*
X60760000Y-40025999D01*
X60761204Y-40001495D01*
X60764804Y-39977227D01*
X60770765Y-39953428D01*
X60779030Y-39930329D01*
X60789520Y-39908150D01*
X60802132Y-39887107D01*
X60816747Y-39867401D01*
X60833223Y-39849223D01*
X60851401Y-39832747D01*
X60871107Y-39818132D01*
X60892150Y-39805520D01*
X60914329Y-39795030D01*
X60937428Y-39786765D01*
X60961227Y-39780804D01*
X60985495Y-39777204D01*
X61009999Y-39776000D01*
X61910001Y-39776000D01*
X61934505Y-39777204D01*
X61934505Y-39777204D01*
G37*
D12*
X61460000Y-40351000D03*
D11*
G36*
X61934505Y-41827204D02*
G01*
X61958773Y-41830804D01*
X61982572Y-41836765D01*
X62005671Y-41845030D01*
X62027850Y-41855520D01*
X62048893Y-41868132D01*
X62068599Y-41882747D01*
X62086777Y-41899223D01*
X62103253Y-41917401D01*
X62117868Y-41937107D01*
X62130480Y-41958150D01*
X62140970Y-41980329D01*
X62149235Y-42003428D01*
X62155196Y-42027227D01*
X62158796Y-42051495D01*
X62160000Y-42075999D01*
X62160000Y-42726001D01*
X62158796Y-42750505D01*
X62155196Y-42774773D01*
X62149235Y-42798572D01*
X62140970Y-42821671D01*
X62130480Y-42843850D01*
X62117868Y-42864893D01*
X62103253Y-42884599D01*
X62086777Y-42902777D01*
X62068599Y-42919253D01*
X62048893Y-42933868D01*
X62027850Y-42946480D01*
X62005671Y-42956970D01*
X61982572Y-42965235D01*
X61958773Y-42971196D01*
X61934505Y-42974796D01*
X61910001Y-42976000D01*
X61009999Y-42976000D01*
X60985495Y-42974796D01*
X60961227Y-42971196D01*
X60937428Y-42965235D01*
X60914329Y-42956970D01*
X60892150Y-42946480D01*
X60871107Y-42933868D01*
X60851401Y-42919253D01*
X60833223Y-42902777D01*
X60816747Y-42884599D01*
X60802132Y-42864893D01*
X60789520Y-42843850D01*
X60779030Y-42821671D01*
X60770765Y-42798572D01*
X60764804Y-42774773D01*
X60761204Y-42750505D01*
X60760000Y-42726001D01*
X60760000Y-42075999D01*
X60761204Y-42051495D01*
X60764804Y-42027227D01*
X60770765Y-42003428D01*
X60779030Y-41980329D01*
X60789520Y-41958150D01*
X60802132Y-41937107D01*
X60816747Y-41917401D01*
X60833223Y-41899223D01*
X60851401Y-41882747D01*
X60871107Y-41868132D01*
X60892150Y-41855520D01*
X60914329Y-41845030D01*
X60937428Y-41836765D01*
X60961227Y-41830804D01*
X60985495Y-41827204D01*
X61009999Y-41826000D01*
X61910001Y-41826000D01*
X61934505Y-41827204D01*
X61934505Y-41827204D01*
G37*
D12*
X61460000Y-42401000D03*
%TD*%
D11*
%TO.C,C10*%
G36*
X43974505Y-23394204D02*
G01*
X43998773Y-23397804D01*
X44022572Y-23403765D01*
X44045671Y-23412030D01*
X44067850Y-23422520D01*
X44088893Y-23435132D01*
X44108599Y-23449747D01*
X44126777Y-23466223D01*
X44143253Y-23484401D01*
X44157868Y-23504107D01*
X44170480Y-23525150D01*
X44180970Y-23547329D01*
X44189235Y-23570428D01*
X44195196Y-23594227D01*
X44198796Y-23618495D01*
X44200000Y-23642999D01*
X44200000Y-24293001D01*
X44198796Y-24317505D01*
X44195196Y-24341773D01*
X44189235Y-24365572D01*
X44180970Y-24388671D01*
X44170480Y-24410850D01*
X44157868Y-24431893D01*
X44143253Y-24451599D01*
X44126777Y-24469777D01*
X44108599Y-24486253D01*
X44088893Y-24500868D01*
X44067850Y-24513480D01*
X44045671Y-24523970D01*
X44022572Y-24532235D01*
X43998773Y-24538196D01*
X43974505Y-24541796D01*
X43950001Y-24543000D01*
X43049999Y-24543000D01*
X43025495Y-24541796D01*
X43001227Y-24538196D01*
X42977428Y-24532235D01*
X42954329Y-24523970D01*
X42932150Y-24513480D01*
X42911107Y-24500868D01*
X42891401Y-24486253D01*
X42873223Y-24469777D01*
X42856747Y-24451599D01*
X42842132Y-24431893D01*
X42829520Y-24410850D01*
X42819030Y-24388671D01*
X42810765Y-24365572D01*
X42804804Y-24341773D01*
X42801204Y-24317505D01*
X42800000Y-24293001D01*
X42800000Y-23642999D01*
X42801204Y-23618495D01*
X42804804Y-23594227D01*
X42810765Y-23570428D01*
X42819030Y-23547329D01*
X42829520Y-23525150D01*
X42842132Y-23504107D01*
X42856747Y-23484401D01*
X42873223Y-23466223D01*
X42891401Y-23449747D01*
X42911107Y-23435132D01*
X42932150Y-23422520D01*
X42954329Y-23412030D01*
X42977428Y-23403765D01*
X43001227Y-23397804D01*
X43025495Y-23394204D01*
X43049999Y-23393000D01*
X43950001Y-23393000D01*
X43974505Y-23394204D01*
X43974505Y-23394204D01*
G37*
D12*
X43500000Y-23968000D03*
D11*
G36*
X43974505Y-21344204D02*
G01*
X43998773Y-21347804D01*
X44022572Y-21353765D01*
X44045671Y-21362030D01*
X44067850Y-21372520D01*
X44088893Y-21385132D01*
X44108599Y-21399747D01*
X44126777Y-21416223D01*
X44143253Y-21434401D01*
X44157868Y-21454107D01*
X44170480Y-21475150D01*
X44180970Y-21497329D01*
X44189235Y-21520428D01*
X44195196Y-21544227D01*
X44198796Y-21568495D01*
X44200000Y-21592999D01*
X44200000Y-22243001D01*
X44198796Y-22267505D01*
X44195196Y-22291773D01*
X44189235Y-22315572D01*
X44180970Y-22338671D01*
X44170480Y-22360850D01*
X44157868Y-22381893D01*
X44143253Y-22401599D01*
X44126777Y-22419777D01*
X44108599Y-22436253D01*
X44088893Y-22450868D01*
X44067850Y-22463480D01*
X44045671Y-22473970D01*
X44022572Y-22482235D01*
X43998773Y-22488196D01*
X43974505Y-22491796D01*
X43950001Y-22493000D01*
X43049999Y-22493000D01*
X43025495Y-22491796D01*
X43001227Y-22488196D01*
X42977428Y-22482235D01*
X42954329Y-22473970D01*
X42932150Y-22463480D01*
X42911107Y-22450868D01*
X42891401Y-22436253D01*
X42873223Y-22419777D01*
X42856747Y-22401599D01*
X42842132Y-22381893D01*
X42829520Y-22360850D01*
X42819030Y-22338671D01*
X42810765Y-22315572D01*
X42804804Y-22291773D01*
X42801204Y-22267505D01*
X42800000Y-22243001D01*
X42800000Y-21592999D01*
X42801204Y-21568495D01*
X42804804Y-21544227D01*
X42810765Y-21520428D01*
X42819030Y-21497329D01*
X42829520Y-21475150D01*
X42842132Y-21454107D01*
X42856747Y-21434401D01*
X42873223Y-21416223D01*
X42891401Y-21399747D01*
X42911107Y-21385132D01*
X42932150Y-21372520D01*
X42954329Y-21362030D01*
X42977428Y-21353765D01*
X43001227Y-21347804D01*
X43025495Y-21344204D01*
X43049999Y-21343000D01*
X43950001Y-21343000D01*
X43974505Y-21344204D01*
X43974505Y-21344204D01*
G37*
D12*
X43500000Y-21918000D03*
%TD*%
D11*
%TO.C,C11*%
G36*
X61934505Y-35822204D02*
G01*
X61958773Y-35825804D01*
X61982572Y-35831765D01*
X62005671Y-35840030D01*
X62027850Y-35850520D01*
X62048893Y-35863132D01*
X62068599Y-35877747D01*
X62086777Y-35894223D01*
X62103253Y-35912401D01*
X62117868Y-35932107D01*
X62130480Y-35953150D01*
X62140970Y-35975329D01*
X62149235Y-35998428D01*
X62155196Y-36022227D01*
X62158796Y-36046495D01*
X62160000Y-36070999D01*
X62160000Y-36721001D01*
X62158796Y-36745505D01*
X62155196Y-36769773D01*
X62149235Y-36793572D01*
X62140970Y-36816671D01*
X62130480Y-36838850D01*
X62117868Y-36859893D01*
X62103253Y-36879599D01*
X62086777Y-36897777D01*
X62068599Y-36914253D01*
X62048893Y-36928868D01*
X62027850Y-36941480D01*
X62005671Y-36951970D01*
X61982572Y-36960235D01*
X61958773Y-36966196D01*
X61934505Y-36969796D01*
X61910001Y-36971000D01*
X61009999Y-36971000D01*
X60985495Y-36969796D01*
X60961227Y-36966196D01*
X60937428Y-36960235D01*
X60914329Y-36951970D01*
X60892150Y-36941480D01*
X60871107Y-36928868D01*
X60851401Y-36914253D01*
X60833223Y-36897777D01*
X60816747Y-36879599D01*
X60802132Y-36859893D01*
X60789520Y-36838850D01*
X60779030Y-36816671D01*
X60770765Y-36793572D01*
X60764804Y-36769773D01*
X60761204Y-36745505D01*
X60760000Y-36721001D01*
X60760000Y-36070999D01*
X60761204Y-36046495D01*
X60764804Y-36022227D01*
X60770765Y-35998428D01*
X60779030Y-35975329D01*
X60789520Y-35953150D01*
X60802132Y-35932107D01*
X60816747Y-35912401D01*
X60833223Y-35894223D01*
X60851401Y-35877747D01*
X60871107Y-35863132D01*
X60892150Y-35850520D01*
X60914329Y-35840030D01*
X60937428Y-35831765D01*
X60961227Y-35825804D01*
X60985495Y-35822204D01*
X61009999Y-35821000D01*
X61910001Y-35821000D01*
X61934505Y-35822204D01*
X61934505Y-35822204D01*
G37*
D12*
X61460000Y-36396000D03*
D11*
G36*
X61934505Y-37872204D02*
G01*
X61958773Y-37875804D01*
X61982572Y-37881765D01*
X62005671Y-37890030D01*
X62027850Y-37900520D01*
X62048893Y-37913132D01*
X62068599Y-37927747D01*
X62086777Y-37944223D01*
X62103253Y-37962401D01*
X62117868Y-37982107D01*
X62130480Y-38003150D01*
X62140970Y-38025329D01*
X62149235Y-38048428D01*
X62155196Y-38072227D01*
X62158796Y-38096495D01*
X62160000Y-38120999D01*
X62160000Y-38771001D01*
X62158796Y-38795505D01*
X62155196Y-38819773D01*
X62149235Y-38843572D01*
X62140970Y-38866671D01*
X62130480Y-38888850D01*
X62117868Y-38909893D01*
X62103253Y-38929599D01*
X62086777Y-38947777D01*
X62068599Y-38964253D01*
X62048893Y-38978868D01*
X62027850Y-38991480D01*
X62005671Y-39001970D01*
X61982572Y-39010235D01*
X61958773Y-39016196D01*
X61934505Y-39019796D01*
X61910001Y-39021000D01*
X61009999Y-39021000D01*
X60985495Y-39019796D01*
X60961227Y-39016196D01*
X60937428Y-39010235D01*
X60914329Y-39001970D01*
X60892150Y-38991480D01*
X60871107Y-38978868D01*
X60851401Y-38964253D01*
X60833223Y-38947777D01*
X60816747Y-38929599D01*
X60802132Y-38909893D01*
X60789520Y-38888850D01*
X60779030Y-38866671D01*
X60770765Y-38843572D01*
X60764804Y-38819773D01*
X60761204Y-38795505D01*
X60760000Y-38771001D01*
X60760000Y-38120999D01*
X60761204Y-38096495D01*
X60764804Y-38072227D01*
X60770765Y-38048428D01*
X60779030Y-38025329D01*
X60789520Y-38003150D01*
X60802132Y-37982107D01*
X60816747Y-37962401D01*
X60833223Y-37944223D01*
X60851401Y-37927747D01*
X60871107Y-37913132D01*
X60892150Y-37900520D01*
X60914329Y-37890030D01*
X60937428Y-37881765D01*
X60961227Y-37875804D01*
X60985495Y-37872204D01*
X61009999Y-37871000D01*
X61910001Y-37871000D01*
X61934505Y-37872204D01*
X61934505Y-37872204D01*
G37*
D12*
X61460000Y-38446000D03*
%TD*%
D11*
%TO.C,C12*%
G36*
X43974505Y-31794204D02*
G01*
X43998773Y-31797804D01*
X44022572Y-31803765D01*
X44045671Y-31812030D01*
X44067850Y-31822520D01*
X44088893Y-31835132D01*
X44108599Y-31849747D01*
X44126777Y-31866223D01*
X44143253Y-31884401D01*
X44157868Y-31904107D01*
X44170480Y-31925150D01*
X44180970Y-31947329D01*
X44189235Y-31970428D01*
X44195196Y-31994227D01*
X44198796Y-32018495D01*
X44200000Y-32042999D01*
X44200000Y-32693001D01*
X44198796Y-32717505D01*
X44195196Y-32741773D01*
X44189235Y-32765572D01*
X44180970Y-32788671D01*
X44170480Y-32810850D01*
X44157868Y-32831893D01*
X44143253Y-32851599D01*
X44126777Y-32869777D01*
X44108599Y-32886253D01*
X44088893Y-32900868D01*
X44067850Y-32913480D01*
X44045671Y-32923970D01*
X44022572Y-32932235D01*
X43998773Y-32938196D01*
X43974505Y-32941796D01*
X43950001Y-32943000D01*
X43049999Y-32943000D01*
X43025495Y-32941796D01*
X43001227Y-32938196D01*
X42977428Y-32932235D01*
X42954329Y-32923970D01*
X42932150Y-32913480D01*
X42911107Y-32900868D01*
X42891401Y-32886253D01*
X42873223Y-32869777D01*
X42856747Y-32851599D01*
X42842132Y-32831893D01*
X42829520Y-32810850D01*
X42819030Y-32788671D01*
X42810765Y-32765572D01*
X42804804Y-32741773D01*
X42801204Y-32717505D01*
X42800000Y-32693001D01*
X42800000Y-32042999D01*
X42801204Y-32018495D01*
X42804804Y-31994227D01*
X42810765Y-31970428D01*
X42819030Y-31947329D01*
X42829520Y-31925150D01*
X42842132Y-31904107D01*
X42856747Y-31884401D01*
X42873223Y-31866223D01*
X42891401Y-31849747D01*
X42911107Y-31835132D01*
X42932150Y-31822520D01*
X42954329Y-31812030D01*
X42977428Y-31803765D01*
X43001227Y-31797804D01*
X43025495Y-31794204D01*
X43049999Y-31793000D01*
X43950001Y-31793000D01*
X43974505Y-31794204D01*
X43974505Y-31794204D01*
G37*
D12*
X43500000Y-32368000D03*
D11*
G36*
X43974505Y-29744204D02*
G01*
X43998773Y-29747804D01*
X44022572Y-29753765D01*
X44045671Y-29762030D01*
X44067850Y-29772520D01*
X44088893Y-29785132D01*
X44108599Y-29799747D01*
X44126777Y-29816223D01*
X44143253Y-29834401D01*
X44157868Y-29854107D01*
X44170480Y-29875150D01*
X44180970Y-29897329D01*
X44189235Y-29920428D01*
X44195196Y-29944227D01*
X44198796Y-29968495D01*
X44200000Y-29992999D01*
X44200000Y-30643001D01*
X44198796Y-30667505D01*
X44195196Y-30691773D01*
X44189235Y-30715572D01*
X44180970Y-30738671D01*
X44170480Y-30760850D01*
X44157868Y-30781893D01*
X44143253Y-30801599D01*
X44126777Y-30819777D01*
X44108599Y-30836253D01*
X44088893Y-30850868D01*
X44067850Y-30863480D01*
X44045671Y-30873970D01*
X44022572Y-30882235D01*
X43998773Y-30888196D01*
X43974505Y-30891796D01*
X43950001Y-30893000D01*
X43049999Y-30893000D01*
X43025495Y-30891796D01*
X43001227Y-30888196D01*
X42977428Y-30882235D01*
X42954329Y-30873970D01*
X42932150Y-30863480D01*
X42911107Y-30850868D01*
X42891401Y-30836253D01*
X42873223Y-30819777D01*
X42856747Y-30801599D01*
X42842132Y-30781893D01*
X42829520Y-30760850D01*
X42819030Y-30738671D01*
X42810765Y-30715572D01*
X42804804Y-30691773D01*
X42801204Y-30667505D01*
X42800000Y-30643001D01*
X42800000Y-29992999D01*
X42801204Y-29968495D01*
X42804804Y-29944227D01*
X42810765Y-29920428D01*
X42819030Y-29897329D01*
X42829520Y-29875150D01*
X42842132Y-29854107D01*
X42856747Y-29834401D01*
X42873223Y-29816223D01*
X42891401Y-29799747D01*
X42911107Y-29785132D01*
X42932150Y-29772520D01*
X42954329Y-29762030D01*
X42977428Y-29753765D01*
X43001227Y-29747804D01*
X43025495Y-29744204D01*
X43049999Y-29743000D01*
X43950001Y-29743000D01*
X43974505Y-29744204D01*
X43974505Y-29744204D01*
G37*
D12*
X43500000Y-30318000D03*
%TD*%
M02*
