%TF.GenerationSoftware,KiCad,Pcbnew,(5.1.2-1)-1*%
%TF.CreationDate,2020-03-19T17:13:43+05:30*%
%TF.ProjectId,Uno rev1.1,556e6f20-7265-4763-912e-312e6b696361,rev?*%
%TF.SameCoordinates,Original*%
%TF.FileFunction,Soldermask,Bot*%
%TF.FilePolarity,Negative*%
%FSLAX46Y46*%
G04 Gerber Fmt 4.6, Leading zero omitted, Abs format (unit mm)*
G04 Created by KiCad (PCBNEW (5.1.2-1)-1) date 2020-03-19 17:13:43*
%MOMM*%
%LPD*%
G04 APERTURE LIST*
%ADD10C,0.203200*%
%ADD11C,0.100000*%
G04 APERTURE END LIST*
D10*
X22506589Y-39653306D02*
X22078957Y-40080938D01*
X22880766Y-39792286D02*
X21571145Y-39305856D01*
X22282082Y-40390970D01*
X21330603Y-40487187D02*
X21811688Y-40861365D01*
X21100751Y-39776250D02*
X21330603Y-40487187D01*
X20502067Y-40374934D01*
X20683810Y-41048453D02*
X20384469Y-41347795D01*
X20785373Y-41887680D02*
X21213004Y-41460048D01*
X20202725Y-40674276D01*
X19775094Y-41101907D01*
X19871311Y-41860953D02*
X19571969Y-42160294D01*
X19972873Y-42700179D02*
X20400505Y-42272548D01*
X19390226Y-41486775D01*
X18962595Y-41914406D01*
X19588005Y-43085047D02*
X18577727Y-42299275D01*
X18363911Y-42513090D01*
X18283730Y-42678797D01*
X18294421Y-42839159D01*
X18347875Y-42956758D01*
X18497546Y-43149192D01*
X18641871Y-43261445D01*
X18877068Y-43368353D01*
X19016049Y-43400425D01*
X19197792Y-43389734D01*
X19374190Y-43298863D01*
X19588005Y-43085047D01*
X17679701Y-43197300D02*
X18497546Y-43833402D01*
X18551000Y-43951000D01*
X18556345Y-44031181D01*
X18518927Y-44154125D01*
X18347875Y-44325178D01*
X18214240Y-44373286D01*
X18123368Y-44378632D01*
X17984388Y-44346559D01*
X17166543Y-43710458D01*
X17749191Y-44923861D02*
X16738912Y-44138089D01*
X17321560Y-45351493D02*
X16311281Y-44565720D01*
X16808402Y-45864650D01*
X15798123Y-45078878D01*
X15199440Y-45677561D02*
X15028387Y-45848614D01*
X14990969Y-45971558D01*
X15001660Y-46131920D01*
X15151331Y-46324354D01*
X15488091Y-46586278D01*
X15723288Y-46693186D01*
X15905031Y-46682495D01*
X16038666Y-46634386D01*
X16209719Y-46463334D01*
X16247136Y-46340390D01*
X16236445Y-46180028D01*
X16086775Y-45987594D01*
X15750015Y-45725670D01*
X15514818Y-45618762D01*
X15333074Y-45629453D01*
X15199440Y-45677561D01*
X23484154Y-41315082D02*
X23478809Y-41234901D01*
X23516226Y-41111957D01*
X23601753Y-41026431D01*
X23735387Y-40978322D01*
X23826259Y-40972977D01*
X23965239Y-41005049D01*
X24061456Y-41079885D01*
X24114910Y-41197483D01*
X24120256Y-41277664D01*
X24082838Y-41400608D01*
X23997312Y-41486134D01*
X23863677Y-41534243D01*
X23772805Y-41539588D01*
X23387937Y-41240246D02*
X23772805Y-41539588D01*
X23778151Y-41619769D01*
X23735387Y-41662532D01*
X23601753Y-41710641D01*
X23462773Y-41678568D01*
X23222230Y-41491480D01*
X23163431Y-41293700D01*
X23195503Y-41090575D01*
X23318447Y-40882105D01*
X23537608Y-40748470D01*
X23762114Y-40695016D01*
X23991966Y-40721743D01*
X24227163Y-40828651D01*
X24376834Y-41021085D01*
X24435634Y-41218865D01*
X24403561Y-41421990D01*
X24280617Y-41630460D01*
X24061456Y-41764095D01*
X23836950Y-41817549D01*
X23120668Y-42020673D02*
X22693036Y-42448305D01*
X23494845Y-42159654D02*
X22185224Y-41673223D01*
X22896161Y-42758337D01*
X21944682Y-42854554D02*
X22425767Y-43228732D01*
X21714830Y-42143617D02*
X21944682Y-42854554D01*
X21116146Y-42742301D01*
X21297889Y-43415820D02*
X20998547Y-43715162D01*
X21399452Y-44255047D02*
X21827083Y-43827415D01*
X20816804Y-43041643D01*
X20389173Y-43469274D01*
X20485390Y-44228320D02*
X20186048Y-44527662D01*
X20586952Y-45067546D02*
X21014584Y-44639915D01*
X20004305Y-43854142D01*
X19576674Y-44281774D01*
X20202084Y-45452414D02*
X19191805Y-44666642D01*
X18977990Y-44880457D01*
X18897809Y-45046164D01*
X18908500Y-45206526D01*
X18961954Y-45324125D01*
X19111625Y-45516559D01*
X19255950Y-45628812D01*
X19491147Y-45735720D01*
X19630127Y-45767792D01*
X19811871Y-45757101D01*
X19988269Y-45666230D01*
X20202084Y-45452414D01*
X19304059Y-46350440D02*
X18293780Y-45564667D01*
X17994438Y-45864009D02*
X17481280Y-46377167D01*
X18748138Y-46906360D02*
X17737859Y-46120588D01*
X17540080Y-47259156D02*
X18021165Y-47633333D01*
X17310228Y-46548219D02*
X17540080Y-47259156D01*
X16711544Y-47146903D01*
X17176593Y-47964748D02*
X16748962Y-48392379D01*
X17550771Y-48103728D02*
X16241150Y-47617297D01*
X16952087Y-48702412D01*
X24151687Y-44484257D02*
X23969944Y-43810738D01*
X24664844Y-43971100D02*
X23654566Y-43185328D01*
X23312461Y-43527433D01*
X23275043Y-43650377D01*
X23280388Y-43730557D01*
X23333842Y-43848156D01*
X23478168Y-43960409D01*
X23617148Y-43992481D01*
X23708020Y-43987136D01*
X23841654Y-43939028D01*
X24183759Y-43596923D01*
X23376605Y-45173813D02*
X23510240Y-45125704D01*
X23681293Y-44954652D01*
X23718710Y-44831708D01*
X23665256Y-44714109D01*
X23280388Y-44414767D01*
X23141408Y-44382695D01*
X23007773Y-44430804D01*
X22836721Y-44601856D01*
X22799303Y-44724800D01*
X22852757Y-44842399D01*
X22948974Y-44917234D01*
X23472822Y-44564438D01*
X22409090Y-45029487D02*
X22868793Y-45767151D01*
X21981458Y-45457119D01*
X20757364Y-46253582D02*
X20666492Y-46258927D01*
X20532858Y-46307036D01*
X20319042Y-46520851D01*
X20281624Y-46643795D01*
X20286970Y-46723976D01*
X20340423Y-46841575D01*
X20436641Y-46916410D01*
X20623729Y-46985900D01*
X21714189Y-46921756D01*
X21158268Y-47477676D01*
X20677183Y-47787709D02*
X20682528Y-47867890D01*
X20773400Y-47862544D01*
X20768055Y-47782363D01*
X20677183Y-47787709D01*
X20773400Y-47862544D01*
X19164438Y-47675456D02*
X19078911Y-47760982D01*
X19041494Y-47883926D01*
X19046839Y-47964107D01*
X19100293Y-48081705D01*
X19249964Y-48274139D01*
X19490506Y-48461228D01*
X19725704Y-48568136D01*
X19864684Y-48600208D01*
X19955555Y-48594863D01*
X20089190Y-48546754D01*
X20174716Y-48461228D01*
X20212134Y-48338284D01*
X20206789Y-48258103D01*
X20153335Y-48140505D01*
X20003664Y-47948071D01*
X19763121Y-47760982D01*
X19527924Y-47654074D01*
X19388944Y-47622002D01*
X19298072Y-47627347D01*
X19164438Y-47675456D01*
D11*
G36*
X66653512Y-46693927D02*
G01*
X66802812Y-46723624D01*
X66966784Y-46791544D01*
X67114354Y-46890147D01*
X67239853Y-47015646D01*
X67338456Y-47163216D01*
X67406376Y-47327188D01*
X67441000Y-47501259D01*
X67441000Y-47678741D01*
X67406376Y-47852812D01*
X67338456Y-48016784D01*
X67239853Y-48164354D01*
X67114354Y-48289853D01*
X66966784Y-48388456D01*
X66802812Y-48456376D01*
X66653512Y-48486073D01*
X66628742Y-48491000D01*
X66451258Y-48491000D01*
X66426488Y-48486073D01*
X66277188Y-48456376D01*
X66113216Y-48388456D01*
X65965646Y-48289853D01*
X65840147Y-48164354D01*
X65741544Y-48016784D01*
X65673624Y-47852812D01*
X65639000Y-47678741D01*
X65639000Y-47501259D01*
X65673624Y-47327188D01*
X65741544Y-47163216D01*
X65840147Y-47015646D01*
X65965646Y-46890147D01*
X66113216Y-46791544D01*
X66277188Y-46723624D01*
X66426488Y-46693927D01*
X66451258Y-46689000D01*
X66628742Y-46689000D01*
X66653512Y-46693927D01*
X66653512Y-46693927D01*
G37*
G36*
X64110443Y-46695519D02*
G01*
X64176627Y-46702037D01*
X64346466Y-46753557D01*
X64502991Y-46837222D01*
X64538729Y-46866552D01*
X64640186Y-46949814D01*
X64723448Y-47051271D01*
X64752778Y-47087009D01*
X64836443Y-47243534D01*
X64887963Y-47413373D01*
X64905359Y-47590000D01*
X64887963Y-47766627D01*
X64836443Y-47936466D01*
X64752778Y-48092991D01*
X64723448Y-48128729D01*
X64640186Y-48230186D01*
X64567480Y-48289853D01*
X64502991Y-48342778D01*
X64346466Y-48426443D01*
X64176627Y-48477963D01*
X64110443Y-48484481D01*
X64044260Y-48491000D01*
X63955740Y-48491000D01*
X63889557Y-48484481D01*
X63823373Y-48477963D01*
X63653534Y-48426443D01*
X63497009Y-48342778D01*
X63432520Y-48289853D01*
X63359814Y-48230186D01*
X63276552Y-48128729D01*
X63247222Y-48092991D01*
X63163557Y-47936466D01*
X63112037Y-47766627D01*
X63094641Y-47590000D01*
X63112037Y-47413373D01*
X63163557Y-47243534D01*
X63247222Y-47087009D01*
X63276552Y-47051271D01*
X63359814Y-46949814D01*
X63461271Y-46866552D01*
X63497009Y-46837222D01*
X63653534Y-46753557D01*
X63823373Y-46702037D01*
X63889557Y-46695519D01*
X63955740Y-46689000D01*
X64044260Y-46689000D01*
X64110443Y-46695519D01*
X64110443Y-46695519D01*
G37*
G36*
X61570443Y-46695519D02*
G01*
X61636627Y-46702037D01*
X61806466Y-46753557D01*
X61962991Y-46837222D01*
X61998729Y-46866552D01*
X62100186Y-46949814D01*
X62183448Y-47051271D01*
X62212778Y-47087009D01*
X62296443Y-47243534D01*
X62347963Y-47413373D01*
X62365359Y-47590000D01*
X62347963Y-47766627D01*
X62296443Y-47936466D01*
X62212778Y-48092991D01*
X62183448Y-48128729D01*
X62100186Y-48230186D01*
X62027480Y-48289853D01*
X61962991Y-48342778D01*
X61806466Y-48426443D01*
X61636627Y-48477963D01*
X61570443Y-48484481D01*
X61504260Y-48491000D01*
X61415740Y-48491000D01*
X61349557Y-48484481D01*
X61283373Y-48477963D01*
X61113534Y-48426443D01*
X60957009Y-48342778D01*
X60892520Y-48289853D01*
X60819814Y-48230186D01*
X60736552Y-48128729D01*
X60707222Y-48092991D01*
X60623557Y-47936466D01*
X60572037Y-47766627D01*
X60554641Y-47590000D01*
X60572037Y-47413373D01*
X60623557Y-47243534D01*
X60707222Y-47087009D01*
X60736552Y-47051271D01*
X60819814Y-46949814D01*
X60921271Y-46866552D01*
X60957009Y-46837222D01*
X61113534Y-46753557D01*
X61283373Y-46702037D01*
X61349557Y-46695519D01*
X61415740Y-46689000D01*
X61504260Y-46689000D01*
X61570443Y-46695519D01*
X61570443Y-46695519D01*
G37*
G36*
X59030443Y-46695519D02*
G01*
X59096627Y-46702037D01*
X59266466Y-46753557D01*
X59422991Y-46837222D01*
X59458729Y-46866552D01*
X59560186Y-46949814D01*
X59643448Y-47051271D01*
X59672778Y-47087009D01*
X59756443Y-47243534D01*
X59807963Y-47413373D01*
X59825359Y-47590000D01*
X59807963Y-47766627D01*
X59756443Y-47936466D01*
X59672778Y-48092991D01*
X59643448Y-48128729D01*
X59560186Y-48230186D01*
X59487480Y-48289853D01*
X59422991Y-48342778D01*
X59266466Y-48426443D01*
X59096627Y-48477963D01*
X59030443Y-48484481D01*
X58964260Y-48491000D01*
X58875740Y-48491000D01*
X58809557Y-48484481D01*
X58743373Y-48477963D01*
X58573534Y-48426443D01*
X58417009Y-48342778D01*
X58352520Y-48289853D01*
X58279814Y-48230186D01*
X58196552Y-48128729D01*
X58167222Y-48092991D01*
X58083557Y-47936466D01*
X58032037Y-47766627D01*
X58014641Y-47590000D01*
X58032037Y-47413373D01*
X58083557Y-47243534D01*
X58167222Y-47087009D01*
X58196552Y-47051271D01*
X58279814Y-46949814D01*
X58381271Y-46866552D01*
X58417009Y-46837222D01*
X58573534Y-46753557D01*
X58743373Y-46702037D01*
X58809557Y-46695519D01*
X58875740Y-46689000D01*
X58964260Y-46689000D01*
X59030443Y-46695519D01*
X59030443Y-46695519D01*
G37*
G36*
X56490443Y-46695519D02*
G01*
X56556627Y-46702037D01*
X56726466Y-46753557D01*
X56882991Y-46837222D01*
X56918729Y-46866552D01*
X57020186Y-46949814D01*
X57103448Y-47051271D01*
X57132778Y-47087009D01*
X57216443Y-47243534D01*
X57267963Y-47413373D01*
X57285359Y-47590000D01*
X57267963Y-47766627D01*
X57216443Y-47936466D01*
X57132778Y-48092991D01*
X57103448Y-48128729D01*
X57020186Y-48230186D01*
X56947480Y-48289853D01*
X56882991Y-48342778D01*
X56726466Y-48426443D01*
X56556627Y-48477963D01*
X56490443Y-48484481D01*
X56424260Y-48491000D01*
X56335740Y-48491000D01*
X56269557Y-48484481D01*
X56203373Y-48477963D01*
X56033534Y-48426443D01*
X55877009Y-48342778D01*
X55812520Y-48289853D01*
X55739814Y-48230186D01*
X55656552Y-48128729D01*
X55627222Y-48092991D01*
X55543557Y-47936466D01*
X55492037Y-47766627D01*
X55474641Y-47590000D01*
X55492037Y-47413373D01*
X55543557Y-47243534D01*
X55627222Y-47087009D01*
X55656552Y-47051271D01*
X55739814Y-46949814D01*
X55841271Y-46866552D01*
X55877009Y-46837222D01*
X56033534Y-46753557D01*
X56203373Y-46702037D01*
X56269557Y-46695519D01*
X56335740Y-46689000D01*
X56424260Y-46689000D01*
X56490443Y-46695519D01*
X56490443Y-46695519D01*
G37*
G36*
X53950443Y-46695519D02*
G01*
X54016627Y-46702037D01*
X54186466Y-46753557D01*
X54342991Y-46837222D01*
X54378729Y-46866552D01*
X54480186Y-46949814D01*
X54563448Y-47051271D01*
X54592778Y-47087009D01*
X54676443Y-47243534D01*
X54727963Y-47413373D01*
X54745359Y-47590000D01*
X54727963Y-47766627D01*
X54676443Y-47936466D01*
X54592778Y-48092991D01*
X54563448Y-48128729D01*
X54480186Y-48230186D01*
X54407480Y-48289853D01*
X54342991Y-48342778D01*
X54186466Y-48426443D01*
X54016627Y-48477963D01*
X53950443Y-48484481D01*
X53884260Y-48491000D01*
X53795740Y-48491000D01*
X53729557Y-48484481D01*
X53663373Y-48477963D01*
X53493534Y-48426443D01*
X53337009Y-48342778D01*
X53272520Y-48289853D01*
X53199814Y-48230186D01*
X53116552Y-48128729D01*
X53087222Y-48092991D01*
X53003557Y-47936466D01*
X52952037Y-47766627D01*
X52934641Y-47590000D01*
X52952037Y-47413373D01*
X53003557Y-47243534D01*
X53087222Y-47087009D01*
X53116552Y-47051271D01*
X53199814Y-46949814D01*
X53301271Y-46866552D01*
X53337009Y-46837222D01*
X53493534Y-46753557D01*
X53663373Y-46702037D01*
X53729557Y-46695519D01*
X53795740Y-46689000D01*
X53884260Y-46689000D01*
X53950443Y-46695519D01*
X53950443Y-46695519D01*
G37*
G36*
X48873512Y-46693927D02*
G01*
X49022812Y-46723624D01*
X49186784Y-46791544D01*
X49334354Y-46890147D01*
X49459853Y-47015646D01*
X49558456Y-47163216D01*
X49626376Y-47327188D01*
X49661000Y-47501259D01*
X49661000Y-47678741D01*
X49626376Y-47852812D01*
X49558456Y-48016784D01*
X49459853Y-48164354D01*
X49334354Y-48289853D01*
X49186784Y-48388456D01*
X49022812Y-48456376D01*
X48873512Y-48486073D01*
X48848742Y-48491000D01*
X48671258Y-48491000D01*
X48646488Y-48486073D01*
X48497188Y-48456376D01*
X48333216Y-48388456D01*
X48185646Y-48289853D01*
X48060147Y-48164354D01*
X47961544Y-48016784D01*
X47893624Y-47852812D01*
X47859000Y-47678741D01*
X47859000Y-47501259D01*
X47893624Y-47327188D01*
X47961544Y-47163216D01*
X48060147Y-47015646D01*
X48185646Y-46890147D01*
X48333216Y-46791544D01*
X48497188Y-46723624D01*
X48646488Y-46693927D01*
X48671258Y-46689000D01*
X48848742Y-46689000D01*
X48873512Y-46693927D01*
X48873512Y-46693927D01*
G37*
G36*
X46330443Y-46695519D02*
G01*
X46396627Y-46702037D01*
X46566466Y-46753557D01*
X46722991Y-46837222D01*
X46758729Y-46866552D01*
X46860186Y-46949814D01*
X46943448Y-47051271D01*
X46972778Y-47087009D01*
X47056443Y-47243534D01*
X47107963Y-47413373D01*
X47125359Y-47590000D01*
X47107963Y-47766627D01*
X47056443Y-47936466D01*
X46972778Y-48092991D01*
X46943448Y-48128729D01*
X46860186Y-48230186D01*
X46787480Y-48289853D01*
X46722991Y-48342778D01*
X46566466Y-48426443D01*
X46396627Y-48477963D01*
X46330443Y-48484481D01*
X46264260Y-48491000D01*
X46175740Y-48491000D01*
X46109557Y-48484481D01*
X46043373Y-48477963D01*
X45873534Y-48426443D01*
X45717009Y-48342778D01*
X45652520Y-48289853D01*
X45579814Y-48230186D01*
X45496552Y-48128729D01*
X45467222Y-48092991D01*
X45383557Y-47936466D01*
X45332037Y-47766627D01*
X45314641Y-47590000D01*
X45332037Y-47413373D01*
X45383557Y-47243534D01*
X45467222Y-47087009D01*
X45496552Y-47051271D01*
X45579814Y-46949814D01*
X45681271Y-46866552D01*
X45717009Y-46837222D01*
X45873534Y-46753557D01*
X46043373Y-46702037D01*
X46109557Y-46695519D01*
X46175740Y-46689000D01*
X46264260Y-46689000D01*
X46330443Y-46695519D01*
X46330443Y-46695519D01*
G37*
G36*
X43790443Y-46695519D02*
G01*
X43856627Y-46702037D01*
X44026466Y-46753557D01*
X44182991Y-46837222D01*
X44218729Y-46866552D01*
X44320186Y-46949814D01*
X44403448Y-47051271D01*
X44432778Y-47087009D01*
X44516443Y-47243534D01*
X44567963Y-47413373D01*
X44585359Y-47590000D01*
X44567963Y-47766627D01*
X44516443Y-47936466D01*
X44432778Y-48092991D01*
X44403448Y-48128729D01*
X44320186Y-48230186D01*
X44247480Y-48289853D01*
X44182991Y-48342778D01*
X44026466Y-48426443D01*
X43856627Y-48477963D01*
X43790443Y-48484481D01*
X43724260Y-48491000D01*
X43635740Y-48491000D01*
X43569557Y-48484481D01*
X43503373Y-48477963D01*
X43333534Y-48426443D01*
X43177009Y-48342778D01*
X43112520Y-48289853D01*
X43039814Y-48230186D01*
X42956552Y-48128729D01*
X42927222Y-48092991D01*
X42843557Y-47936466D01*
X42792037Y-47766627D01*
X42774641Y-47590000D01*
X42792037Y-47413373D01*
X42843557Y-47243534D01*
X42927222Y-47087009D01*
X42956552Y-47051271D01*
X43039814Y-46949814D01*
X43141271Y-46866552D01*
X43177009Y-46837222D01*
X43333534Y-46753557D01*
X43503373Y-46702037D01*
X43569557Y-46695519D01*
X43635740Y-46689000D01*
X43724260Y-46689000D01*
X43790443Y-46695519D01*
X43790443Y-46695519D01*
G37*
G36*
X41250443Y-46695519D02*
G01*
X41316627Y-46702037D01*
X41486466Y-46753557D01*
X41642991Y-46837222D01*
X41678729Y-46866552D01*
X41780186Y-46949814D01*
X41863448Y-47051271D01*
X41892778Y-47087009D01*
X41976443Y-47243534D01*
X42027963Y-47413373D01*
X42045359Y-47590000D01*
X42027963Y-47766627D01*
X41976443Y-47936466D01*
X41892778Y-48092991D01*
X41863448Y-48128729D01*
X41780186Y-48230186D01*
X41707480Y-48289853D01*
X41642991Y-48342778D01*
X41486466Y-48426443D01*
X41316627Y-48477963D01*
X41250443Y-48484481D01*
X41184260Y-48491000D01*
X41095740Y-48491000D01*
X41029557Y-48484481D01*
X40963373Y-48477963D01*
X40793534Y-48426443D01*
X40637009Y-48342778D01*
X40572520Y-48289853D01*
X40499814Y-48230186D01*
X40416552Y-48128729D01*
X40387222Y-48092991D01*
X40303557Y-47936466D01*
X40252037Y-47766627D01*
X40234641Y-47590000D01*
X40252037Y-47413373D01*
X40303557Y-47243534D01*
X40387222Y-47087009D01*
X40416552Y-47051271D01*
X40499814Y-46949814D01*
X40601271Y-46866552D01*
X40637009Y-46837222D01*
X40793534Y-46753557D01*
X40963373Y-46702037D01*
X41029557Y-46695519D01*
X41095740Y-46689000D01*
X41184260Y-46689000D01*
X41250443Y-46695519D01*
X41250443Y-46695519D01*
G37*
G36*
X38710443Y-46695519D02*
G01*
X38776627Y-46702037D01*
X38946466Y-46753557D01*
X39102991Y-46837222D01*
X39138729Y-46866552D01*
X39240186Y-46949814D01*
X39323448Y-47051271D01*
X39352778Y-47087009D01*
X39436443Y-47243534D01*
X39487963Y-47413373D01*
X39505359Y-47590000D01*
X39487963Y-47766627D01*
X39436443Y-47936466D01*
X39352778Y-48092991D01*
X39323448Y-48128729D01*
X39240186Y-48230186D01*
X39167480Y-48289853D01*
X39102991Y-48342778D01*
X38946466Y-48426443D01*
X38776627Y-48477963D01*
X38710443Y-48484481D01*
X38644260Y-48491000D01*
X38555740Y-48491000D01*
X38489557Y-48484481D01*
X38423373Y-48477963D01*
X38253534Y-48426443D01*
X38097009Y-48342778D01*
X38032520Y-48289853D01*
X37959814Y-48230186D01*
X37876552Y-48128729D01*
X37847222Y-48092991D01*
X37763557Y-47936466D01*
X37712037Y-47766627D01*
X37694641Y-47590000D01*
X37712037Y-47413373D01*
X37763557Y-47243534D01*
X37847222Y-47087009D01*
X37876552Y-47051271D01*
X37959814Y-46949814D01*
X38061271Y-46866552D01*
X38097009Y-46837222D01*
X38253534Y-46753557D01*
X38423373Y-46702037D01*
X38489557Y-46695519D01*
X38555740Y-46689000D01*
X38644260Y-46689000D01*
X38710443Y-46695519D01*
X38710443Y-46695519D01*
G37*
G36*
X36170443Y-46695519D02*
G01*
X36236627Y-46702037D01*
X36406466Y-46753557D01*
X36562991Y-46837222D01*
X36598729Y-46866552D01*
X36700186Y-46949814D01*
X36783448Y-47051271D01*
X36812778Y-47087009D01*
X36896443Y-47243534D01*
X36947963Y-47413373D01*
X36965359Y-47590000D01*
X36947963Y-47766627D01*
X36896443Y-47936466D01*
X36812778Y-48092991D01*
X36783448Y-48128729D01*
X36700186Y-48230186D01*
X36627480Y-48289853D01*
X36562991Y-48342778D01*
X36406466Y-48426443D01*
X36236627Y-48477963D01*
X36170443Y-48484481D01*
X36104260Y-48491000D01*
X36015740Y-48491000D01*
X35949557Y-48484481D01*
X35883373Y-48477963D01*
X35713534Y-48426443D01*
X35557009Y-48342778D01*
X35492520Y-48289853D01*
X35419814Y-48230186D01*
X35336552Y-48128729D01*
X35307222Y-48092991D01*
X35223557Y-47936466D01*
X35172037Y-47766627D01*
X35154641Y-47590000D01*
X35172037Y-47413373D01*
X35223557Y-47243534D01*
X35307222Y-47087009D01*
X35336552Y-47051271D01*
X35419814Y-46949814D01*
X35521271Y-46866552D01*
X35557009Y-46837222D01*
X35713534Y-46753557D01*
X35883373Y-46702037D01*
X35949557Y-46695519D01*
X36015740Y-46689000D01*
X36104260Y-46689000D01*
X36170443Y-46695519D01*
X36170443Y-46695519D01*
G37*
G36*
X33630443Y-46695519D02*
G01*
X33696627Y-46702037D01*
X33866466Y-46753557D01*
X34022991Y-46837222D01*
X34058729Y-46866552D01*
X34160186Y-46949814D01*
X34243448Y-47051271D01*
X34272778Y-47087009D01*
X34356443Y-47243534D01*
X34407963Y-47413373D01*
X34425359Y-47590000D01*
X34407963Y-47766627D01*
X34356443Y-47936466D01*
X34272778Y-48092991D01*
X34243448Y-48128729D01*
X34160186Y-48230186D01*
X34087480Y-48289853D01*
X34022991Y-48342778D01*
X33866466Y-48426443D01*
X33696627Y-48477963D01*
X33630443Y-48484481D01*
X33564260Y-48491000D01*
X33475740Y-48491000D01*
X33409557Y-48484481D01*
X33343373Y-48477963D01*
X33173534Y-48426443D01*
X33017009Y-48342778D01*
X32952520Y-48289853D01*
X32879814Y-48230186D01*
X32796552Y-48128729D01*
X32767222Y-48092991D01*
X32683557Y-47936466D01*
X32632037Y-47766627D01*
X32614641Y-47590000D01*
X32632037Y-47413373D01*
X32683557Y-47243534D01*
X32767222Y-47087009D01*
X32796552Y-47051271D01*
X32879814Y-46949814D01*
X32981271Y-46866552D01*
X33017009Y-46837222D01*
X33173534Y-46753557D01*
X33343373Y-46702037D01*
X33409557Y-46695519D01*
X33475740Y-46689000D01*
X33564260Y-46689000D01*
X33630443Y-46695519D01*
X33630443Y-46695519D01*
G37*
G36*
X31090443Y-46695519D02*
G01*
X31156627Y-46702037D01*
X31326466Y-46753557D01*
X31482991Y-46837222D01*
X31518729Y-46866552D01*
X31620186Y-46949814D01*
X31703448Y-47051271D01*
X31732778Y-47087009D01*
X31816443Y-47243534D01*
X31867963Y-47413373D01*
X31885359Y-47590000D01*
X31867963Y-47766627D01*
X31816443Y-47936466D01*
X31732778Y-48092991D01*
X31703448Y-48128729D01*
X31620186Y-48230186D01*
X31547480Y-48289853D01*
X31482991Y-48342778D01*
X31326466Y-48426443D01*
X31156627Y-48477963D01*
X31090443Y-48484481D01*
X31024260Y-48491000D01*
X30935740Y-48491000D01*
X30869557Y-48484481D01*
X30803373Y-48477963D01*
X30633534Y-48426443D01*
X30477009Y-48342778D01*
X30412520Y-48289853D01*
X30339814Y-48230186D01*
X30256552Y-48128729D01*
X30227222Y-48092991D01*
X30143557Y-47936466D01*
X30092037Y-47766627D01*
X30074641Y-47590000D01*
X30092037Y-47413373D01*
X30143557Y-47243534D01*
X30227222Y-47087009D01*
X30256552Y-47051271D01*
X30339814Y-46949814D01*
X30441271Y-46866552D01*
X30477009Y-46837222D01*
X30633534Y-46753557D01*
X30803373Y-46702037D01*
X30869557Y-46695519D01*
X30935740Y-46689000D01*
X31024260Y-46689000D01*
X31090443Y-46695519D01*
X31090443Y-46695519D01*
G37*
G36*
X62048674Y-41779465D02*
G01*
X62086367Y-41790899D01*
X62121103Y-41809466D01*
X62151548Y-41834452D01*
X62176534Y-41864897D01*
X62195101Y-41899633D01*
X62206535Y-41937326D01*
X62211000Y-41982661D01*
X62211000Y-42819339D01*
X62206535Y-42864674D01*
X62195101Y-42902367D01*
X62176534Y-42937103D01*
X62151548Y-42967548D01*
X62121103Y-42992534D01*
X62086367Y-43011101D01*
X62048674Y-43022535D01*
X62003339Y-43027000D01*
X60916661Y-43027000D01*
X60871326Y-43022535D01*
X60833633Y-43011101D01*
X60798897Y-42992534D01*
X60768452Y-42967548D01*
X60743466Y-42937103D01*
X60724899Y-42902367D01*
X60713465Y-42864674D01*
X60709000Y-42819339D01*
X60709000Y-41982661D01*
X60713465Y-41937326D01*
X60724899Y-41899633D01*
X60743466Y-41864897D01*
X60768452Y-41834452D01*
X60798897Y-41809466D01*
X60833633Y-41790899D01*
X60871326Y-41779465D01*
X60916661Y-41775000D01*
X62003339Y-41775000D01*
X62048674Y-41779465D01*
X62048674Y-41779465D01*
G37*
G36*
X14709228Y-40393075D02*
G01*
X14862812Y-40423624D01*
X15026784Y-40491544D01*
X15174354Y-40590147D01*
X15299853Y-40715646D01*
X15398456Y-40863216D01*
X15466376Y-41027188D01*
X15501000Y-41201259D01*
X15501000Y-41378741D01*
X15466376Y-41552812D01*
X15398456Y-41716784D01*
X15299853Y-41864354D01*
X15174354Y-41989853D01*
X15026784Y-42088456D01*
X14862812Y-42156376D01*
X14713512Y-42186073D01*
X14688742Y-42191000D01*
X14511258Y-42191000D01*
X14486488Y-42186073D01*
X14337188Y-42156376D01*
X14173216Y-42088456D01*
X14025646Y-41989853D01*
X13900147Y-41864354D01*
X13801544Y-41716784D01*
X13733624Y-41552812D01*
X13699000Y-41378741D01*
X13699000Y-41201259D01*
X13733624Y-41027188D01*
X13801544Y-40863216D01*
X13900147Y-40715646D01*
X14025646Y-40590147D01*
X14173216Y-40491544D01*
X14337188Y-40423624D01*
X14490772Y-40393075D01*
X14511258Y-40389000D01*
X14688742Y-40389000D01*
X14709228Y-40393075D01*
X14709228Y-40393075D01*
G37*
G36*
X17788674Y-40178465D02*
G01*
X17826367Y-40189899D01*
X17861103Y-40208466D01*
X17891548Y-40233452D01*
X17916534Y-40263897D01*
X17935101Y-40298633D01*
X17946535Y-40336326D01*
X17951000Y-40381661D01*
X17951000Y-41218339D01*
X17946535Y-41263674D01*
X17935101Y-41301367D01*
X17916534Y-41336103D01*
X17891548Y-41366548D01*
X17861103Y-41391534D01*
X17826367Y-41410101D01*
X17788674Y-41421535D01*
X17743339Y-41426000D01*
X16656661Y-41426000D01*
X16611326Y-41421535D01*
X16573633Y-41410101D01*
X16538897Y-41391534D01*
X16508452Y-41366548D01*
X16483466Y-41336103D01*
X16464899Y-41301367D01*
X16453465Y-41263674D01*
X16449000Y-41218339D01*
X16449000Y-40381661D01*
X16453465Y-40336326D01*
X16464899Y-40298633D01*
X16483466Y-40263897D01*
X16508452Y-40233452D01*
X16538897Y-40208466D01*
X16573633Y-40189899D01*
X16611326Y-40178465D01*
X16656661Y-40174000D01*
X17743339Y-40174000D01*
X17788674Y-40178465D01*
X17788674Y-40178465D01*
G37*
G36*
X39188674Y-39992465D02*
G01*
X39226367Y-40003899D01*
X39261103Y-40022466D01*
X39291548Y-40047452D01*
X39316534Y-40077897D01*
X39335101Y-40112633D01*
X39346535Y-40150326D01*
X39351000Y-40195661D01*
X39351000Y-41032339D01*
X39346535Y-41077674D01*
X39335101Y-41115367D01*
X39316534Y-41150103D01*
X39291548Y-41180548D01*
X39261103Y-41205534D01*
X39226367Y-41224101D01*
X39188674Y-41235535D01*
X39143339Y-41240000D01*
X38056661Y-41240000D01*
X38011326Y-41235535D01*
X37973633Y-41224101D01*
X37938897Y-41205534D01*
X37908452Y-41180548D01*
X37883466Y-41150103D01*
X37864899Y-41115367D01*
X37853465Y-41077674D01*
X37849000Y-41032339D01*
X37849000Y-40195661D01*
X37853465Y-40150326D01*
X37864899Y-40112633D01*
X37883466Y-40077897D01*
X37908452Y-40047452D01*
X37938897Y-40022466D01*
X37973633Y-40003899D01*
X38011326Y-39992465D01*
X38056661Y-39988000D01*
X39143339Y-39988000D01*
X39188674Y-39992465D01*
X39188674Y-39992465D01*
G37*
G36*
X64088674Y-39843465D02*
G01*
X64126367Y-39854899D01*
X64161103Y-39873466D01*
X64191548Y-39898452D01*
X64216534Y-39928897D01*
X64235101Y-39963633D01*
X64246535Y-40001326D01*
X64251000Y-40046661D01*
X64251000Y-40883339D01*
X64246535Y-40928674D01*
X64235101Y-40966367D01*
X64216534Y-41001103D01*
X64191548Y-41031548D01*
X64161103Y-41056534D01*
X64126367Y-41075101D01*
X64088674Y-41086535D01*
X64043339Y-41091000D01*
X62956661Y-41091000D01*
X62911326Y-41086535D01*
X62873633Y-41075101D01*
X62838897Y-41056534D01*
X62808452Y-41031548D01*
X62783466Y-41001103D01*
X62764899Y-40966367D01*
X62753465Y-40928674D01*
X62749000Y-40883339D01*
X62749000Y-40046661D01*
X62753465Y-40001326D01*
X62764899Y-39963633D01*
X62783466Y-39928897D01*
X62808452Y-39898452D01*
X62838897Y-39873466D01*
X62873633Y-39854899D01*
X62911326Y-39843465D01*
X62956661Y-39839000D01*
X64043339Y-39839000D01*
X64088674Y-39843465D01*
X64088674Y-39843465D01*
G37*
G36*
X62048674Y-39729465D02*
G01*
X62086367Y-39740899D01*
X62121103Y-39759466D01*
X62151548Y-39784452D01*
X62176534Y-39814897D01*
X62195101Y-39849633D01*
X62206535Y-39887326D01*
X62211000Y-39932661D01*
X62211000Y-40769339D01*
X62206535Y-40814674D01*
X62195101Y-40852367D01*
X62176534Y-40887103D01*
X62151548Y-40917548D01*
X62121103Y-40942534D01*
X62086367Y-40961101D01*
X62048674Y-40972535D01*
X62003339Y-40977000D01*
X60916661Y-40977000D01*
X60871326Y-40972535D01*
X60833633Y-40961101D01*
X60798897Y-40942534D01*
X60768452Y-40917548D01*
X60743466Y-40887103D01*
X60724899Y-40852367D01*
X60713465Y-40814674D01*
X60709000Y-40769339D01*
X60709000Y-39932661D01*
X60713465Y-39887326D01*
X60724899Y-39849633D01*
X60743466Y-39814897D01*
X60768452Y-39784452D01*
X60798897Y-39759466D01*
X60833633Y-39740899D01*
X60871326Y-39729465D01*
X60916661Y-39725000D01*
X62003339Y-39725000D01*
X62048674Y-39729465D01*
X62048674Y-39729465D01*
G37*
G36*
X14699756Y-37854466D02*
G01*
X14776627Y-37862037D01*
X14946466Y-37913557D01*
X15102991Y-37997222D01*
X15135173Y-38023633D01*
X15240186Y-38109814D01*
X15290541Y-38171173D01*
X15352778Y-38247009D01*
X15436443Y-38403534D01*
X15487963Y-38573373D01*
X15505359Y-38750000D01*
X15487963Y-38926627D01*
X15436443Y-39096466D01*
X15352778Y-39252991D01*
X15325603Y-39286103D01*
X15240186Y-39390186D01*
X15138729Y-39473448D01*
X15102991Y-39502778D01*
X14946466Y-39586443D01*
X14776627Y-39637963D01*
X14710442Y-39644482D01*
X14644260Y-39651000D01*
X14555740Y-39651000D01*
X14489558Y-39644482D01*
X14423373Y-39637963D01*
X14253534Y-39586443D01*
X14097009Y-39502778D01*
X14061271Y-39473448D01*
X13959814Y-39390186D01*
X13874397Y-39286103D01*
X13847222Y-39252991D01*
X13763557Y-39096466D01*
X13712037Y-38926627D01*
X13694641Y-38750000D01*
X13712037Y-38573373D01*
X13763557Y-38403534D01*
X13847222Y-38247009D01*
X13909459Y-38171173D01*
X13959814Y-38109814D01*
X14064827Y-38023633D01*
X14097009Y-37997222D01*
X14253534Y-37913557D01*
X14423373Y-37862037D01*
X14500244Y-37854466D01*
X14555740Y-37849000D01*
X14644260Y-37849000D01*
X14699756Y-37854466D01*
X14699756Y-37854466D01*
G37*
G36*
X17788674Y-38128465D02*
G01*
X17826367Y-38139899D01*
X17861103Y-38158466D01*
X17891548Y-38183452D01*
X17916534Y-38213897D01*
X17935101Y-38248633D01*
X17946535Y-38286326D01*
X17951000Y-38331661D01*
X17951000Y-39168339D01*
X17946535Y-39213674D01*
X17935101Y-39251367D01*
X17916534Y-39286103D01*
X17891548Y-39316548D01*
X17861103Y-39341534D01*
X17826367Y-39360101D01*
X17788674Y-39371535D01*
X17743339Y-39376000D01*
X16656661Y-39376000D01*
X16611326Y-39371535D01*
X16573633Y-39360101D01*
X16538897Y-39341534D01*
X16508452Y-39316548D01*
X16483466Y-39286103D01*
X16464899Y-39251367D01*
X16453465Y-39213674D01*
X16449000Y-39168339D01*
X16449000Y-38331661D01*
X16453465Y-38286326D01*
X16464899Y-38248633D01*
X16483466Y-38213897D01*
X16508452Y-38183452D01*
X16538897Y-38158466D01*
X16573633Y-38139899D01*
X16611326Y-38128465D01*
X16656661Y-38124000D01*
X17743339Y-38124000D01*
X17788674Y-38128465D01*
X17788674Y-38128465D01*
G37*
G36*
X39188674Y-37942465D02*
G01*
X39226367Y-37953899D01*
X39261103Y-37972466D01*
X39291548Y-37997452D01*
X39316534Y-38027897D01*
X39335101Y-38062633D01*
X39346535Y-38100326D01*
X39351000Y-38145661D01*
X39351000Y-38982339D01*
X39346535Y-39027674D01*
X39335101Y-39065367D01*
X39316534Y-39100103D01*
X39291548Y-39130548D01*
X39261103Y-39155534D01*
X39226367Y-39174101D01*
X39188674Y-39185535D01*
X39143339Y-39190000D01*
X38056661Y-39190000D01*
X38011326Y-39185535D01*
X37973633Y-39174101D01*
X37938897Y-39155534D01*
X37908452Y-39130548D01*
X37883466Y-39100103D01*
X37864899Y-39065367D01*
X37853465Y-39027674D01*
X37849000Y-38982339D01*
X37849000Y-38145661D01*
X37853465Y-38100326D01*
X37864899Y-38062633D01*
X37883466Y-38027897D01*
X37908452Y-37997452D01*
X37938897Y-37972466D01*
X37973633Y-37953899D01*
X38011326Y-37942465D01*
X38056661Y-37938000D01*
X39143339Y-37938000D01*
X39188674Y-37942465D01*
X39188674Y-37942465D01*
G37*
G36*
X26338674Y-37903465D02*
G01*
X26376367Y-37914899D01*
X26411103Y-37933466D01*
X26441548Y-37958452D01*
X26466534Y-37988897D01*
X26485101Y-38023633D01*
X26496535Y-38061326D01*
X26501000Y-38106661D01*
X26501000Y-38943339D01*
X26496535Y-38988674D01*
X26485101Y-39026367D01*
X26466534Y-39061103D01*
X26441548Y-39091548D01*
X26411103Y-39116534D01*
X26376367Y-39135101D01*
X26338674Y-39146535D01*
X26293339Y-39151000D01*
X25206661Y-39151000D01*
X25161326Y-39146535D01*
X25123633Y-39135101D01*
X25088897Y-39116534D01*
X25058452Y-39091548D01*
X25033466Y-39061103D01*
X25014899Y-39026367D01*
X25003465Y-38988674D01*
X24999000Y-38943339D01*
X24999000Y-38106661D01*
X25003465Y-38061326D01*
X25014899Y-38023633D01*
X25033466Y-37988897D01*
X25058452Y-37958452D01*
X25088897Y-37933466D01*
X25123633Y-37914899D01*
X25161326Y-37903465D01*
X25206661Y-37899000D01*
X26293339Y-37899000D01*
X26338674Y-37903465D01*
X26338674Y-37903465D01*
G37*
G36*
X36888674Y-37878465D02*
G01*
X36926367Y-37889899D01*
X36961103Y-37908466D01*
X36991548Y-37933452D01*
X37016534Y-37963897D01*
X37035101Y-37998633D01*
X37046535Y-38036326D01*
X37051000Y-38081661D01*
X37051000Y-38918339D01*
X37046535Y-38963674D01*
X37035101Y-39001367D01*
X37016534Y-39036103D01*
X36991548Y-39066548D01*
X36961103Y-39091534D01*
X36926367Y-39110101D01*
X36888674Y-39121535D01*
X36843339Y-39126000D01*
X35756661Y-39126000D01*
X35711326Y-39121535D01*
X35673633Y-39110101D01*
X35638897Y-39091534D01*
X35608452Y-39066548D01*
X35583466Y-39036103D01*
X35564899Y-39001367D01*
X35553465Y-38963674D01*
X35549000Y-38918339D01*
X35549000Y-38081661D01*
X35553465Y-38036326D01*
X35564899Y-37998633D01*
X35583466Y-37963897D01*
X35608452Y-37933452D01*
X35638897Y-37908466D01*
X35673633Y-37889899D01*
X35711326Y-37878465D01*
X35756661Y-37874000D01*
X36843339Y-37874000D01*
X36888674Y-37878465D01*
X36888674Y-37878465D01*
G37*
G36*
X28588674Y-37878465D02*
G01*
X28626367Y-37889899D01*
X28661103Y-37908466D01*
X28691548Y-37933452D01*
X28716534Y-37963897D01*
X28735101Y-37998633D01*
X28746535Y-38036326D01*
X28751000Y-38081661D01*
X28751000Y-38918339D01*
X28746535Y-38963674D01*
X28735101Y-39001367D01*
X28716534Y-39036103D01*
X28691548Y-39066548D01*
X28661103Y-39091534D01*
X28626367Y-39110101D01*
X28588674Y-39121535D01*
X28543339Y-39126000D01*
X27456661Y-39126000D01*
X27411326Y-39121535D01*
X27373633Y-39110101D01*
X27338897Y-39091534D01*
X27308452Y-39066548D01*
X27283466Y-39036103D01*
X27264899Y-39001367D01*
X27253465Y-38963674D01*
X27249000Y-38918339D01*
X27249000Y-38081661D01*
X27253465Y-38036326D01*
X27264899Y-37998633D01*
X27283466Y-37963897D01*
X27308452Y-37933452D01*
X27338897Y-37908466D01*
X27373633Y-37889899D01*
X27411326Y-37878465D01*
X27456661Y-37874000D01*
X28543339Y-37874000D01*
X28588674Y-37878465D01*
X28588674Y-37878465D01*
G37*
G36*
X62048674Y-37824465D02*
G01*
X62086367Y-37835899D01*
X62121103Y-37854466D01*
X62151548Y-37879452D01*
X62176534Y-37909897D01*
X62195101Y-37944633D01*
X62206535Y-37982326D01*
X62211000Y-38027661D01*
X62211000Y-38864339D01*
X62206535Y-38909674D01*
X62195101Y-38947367D01*
X62176534Y-38982103D01*
X62151548Y-39012548D01*
X62121103Y-39037534D01*
X62086367Y-39056101D01*
X62048674Y-39067535D01*
X62003339Y-39072000D01*
X60916661Y-39072000D01*
X60871326Y-39067535D01*
X60833633Y-39056101D01*
X60798897Y-39037534D01*
X60768452Y-39012548D01*
X60743466Y-38982103D01*
X60724899Y-38947367D01*
X60713465Y-38909674D01*
X60709000Y-38864339D01*
X60709000Y-38027661D01*
X60713465Y-37982326D01*
X60724899Y-37944633D01*
X60743466Y-37909897D01*
X60768452Y-37879452D01*
X60798897Y-37854466D01*
X60833633Y-37835899D01*
X60871326Y-37824465D01*
X60916661Y-37820000D01*
X62003339Y-37820000D01*
X62048674Y-37824465D01*
X62048674Y-37824465D01*
G37*
G36*
X64088674Y-37793465D02*
G01*
X64126367Y-37804899D01*
X64161103Y-37823466D01*
X64191548Y-37848452D01*
X64216534Y-37878897D01*
X64235101Y-37913633D01*
X64246535Y-37951326D01*
X64251000Y-37996661D01*
X64251000Y-38833339D01*
X64246535Y-38878674D01*
X64235101Y-38916367D01*
X64216534Y-38951103D01*
X64191548Y-38981548D01*
X64161103Y-39006534D01*
X64126367Y-39025101D01*
X64088674Y-39036535D01*
X64043339Y-39041000D01*
X62956661Y-39041000D01*
X62911326Y-39036535D01*
X62873633Y-39025101D01*
X62838897Y-39006534D01*
X62808452Y-38981548D01*
X62783466Y-38951103D01*
X62764899Y-38916367D01*
X62753465Y-38878674D01*
X62749000Y-38833339D01*
X62749000Y-37996661D01*
X62753465Y-37951326D01*
X62764899Y-37913633D01*
X62783466Y-37878897D01*
X62808452Y-37848452D01*
X62838897Y-37823466D01*
X62873633Y-37804899D01*
X62911326Y-37793465D01*
X62956661Y-37789000D01*
X64043339Y-37789000D01*
X64088674Y-37793465D01*
X64088674Y-37793465D01*
G37*
G36*
X26338674Y-35853465D02*
G01*
X26376367Y-35864899D01*
X26411103Y-35883466D01*
X26441548Y-35908452D01*
X26466534Y-35938897D01*
X26485101Y-35973633D01*
X26496535Y-36011326D01*
X26501000Y-36056661D01*
X26501000Y-36893339D01*
X26496535Y-36938674D01*
X26485101Y-36976367D01*
X26466534Y-37011103D01*
X26441548Y-37041548D01*
X26411103Y-37066534D01*
X26376367Y-37085101D01*
X26338674Y-37096535D01*
X26293339Y-37101000D01*
X25206661Y-37101000D01*
X25161326Y-37096535D01*
X25123633Y-37085101D01*
X25088897Y-37066534D01*
X25058452Y-37041548D01*
X25033466Y-37011103D01*
X25014899Y-36976367D01*
X25003465Y-36938674D01*
X24999000Y-36893339D01*
X24999000Y-36056661D01*
X25003465Y-36011326D01*
X25014899Y-35973633D01*
X25033466Y-35938897D01*
X25058452Y-35908452D01*
X25088897Y-35883466D01*
X25123633Y-35864899D01*
X25161326Y-35853465D01*
X25206661Y-35849000D01*
X26293339Y-35849000D01*
X26338674Y-35853465D01*
X26338674Y-35853465D01*
G37*
G36*
X36888674Y-35828465D02*
G01*
X36926367Y-35839899D01*
X36961103Y-35858466D01*
X36991548Y-35883452D01*
X37016534Y-35913897D01*
X37035101Y-35948633D01*
X37046535Y-35986326D01*
X37051000Y-36031661D01*
X37051000Y-36868339D01*
X37046535Y-36913674D01*
X37035101Y-36951367D01*
X37016534Y-36986103D01*
X36991548Y-37016548D01*
X36961103Y-37041534D01*
X36926367Y-37060101D01*
X36888674Y-37071535D01*
X36843339Y-37076000D01*
X35756661Y-37076000D01*
X35711326Y-37071535D01*
X35673633Y-37060101D01*
X35638897Y-37041534D01*
X35608452Y-37016548D01*
X35583466Y-36986103D01*
X35564899Y-36951367D01*
X35553465Y-36913674D01*
X35549000Y-36868339D01*
X35549000Y-36031661D01*
X35553465Y-35986326D01*
X35564899Y-35948633D01*
X35583466Y-35913897D01*
X35608452Y-35883452D01*
X35638897Y-35858466D01*
X35673633Y-35839899D01*
X35711326Y-35828465D01*
X35756661Y-35824000D01*
X36843339Y-35824000D01*
X36888674Y-35828465D01*
X36888674Y-35828465D01*
G37*
G36*
X28588674Y-35828465D02*
G01*
X28626367Y-35839899D01*
X28661103Y-35858466D01*
X28691548Y-35883452D01*
X28716534Y-35913897D01*
X28735101Y-35948633D01*
X28746535Y-35986326D01*
X28751000Y-36031661D01*
X28751000Y-36868339D01*
X28746535Y-36913674D01*
X28735101Y-36951367D01*
X28716534Y-36986103D01*
X28691548Y-37016548D01*
X28661103Y-37041534D01*
X28626367Y-37060101D01*
X28588674Y-37071535D01*
X28543339Y-37076000D01*
X27456661Y-37076000D01*
X27411326Y-37071535D01*
X27373633Y-37060101D01*
X27338897Y-37041534D01*
X27308452Y-37016548D01*
X27283466Y-36986103D01*
X27264899Y-36951367D01*
X27253465Y-36913674D01*
X27249000Y-36868339D01*
X27249000Y-36031661D01*
X27253465Y-35986326D01*
X27264899Y-35948633D01*
X27283466Y-35913897D01*
X27308452Y-35883452D01*
X27338897Y-35858466D01*
X27373633Y-35839899D01*
X27411326Y-35828465D01*
X27456661Y-35824000D01*
X28543339Y-35824000D01*
X28588674Y-35828465D01*
X28588674Y-35828465D01*
G37*
G36*
X62048674Y-35774465D02*
G01*
X62086367Y-35785899D01*
X62121103Y-35804466D01*
X62151548Y-35829452D01*
X62176534Y-35859897D01*
X62195101Y-35894633D01*
X62206535Y-35932326D01*
X62211000Y-35977661D01*
X62211000Y-36814339D01*
X62206535Y-36859674D01*
X62195101Y-36897367D01*
X62176534Y-36932103D01*
X62151548Y-36962548D01*
X62121103Y-36987534D01*
X62086367Y-37006101D01*
X62048674Y-37017535D01*
X62003339Y-37022000D01*
X60916661Y-37022000D01*
X60871326Y-37017535D01*
X60833633Y-37006101D01*
X60798897Y-36987534D01*
X60768452Y-36962548D01*
X60743466Y-36932103D01*
X60724899Y-36897367D01*
X60713465Y-36859674D01*
X60709000Y-36814339D01*
X60709000Y-35977661D01*
X60713465Y-35932326D01*
X60724899Y-35894633D01*
X60743466Y-35859897D01*
X60768452Y-35829452D01*
X60798897Y-35804466D01*
X60833633Y-35785899D01*
X60871326Y-35774465D01*
X60916661Y-35770000D01*
X62003339Y-35770000D01*
X62048674Y-35774465D01*
X62048674Y-35774465D01*
G37*
G36*
X39188674Y-35683465D02*
G01*
X39226367Y-35694899D01*
X39261103Y-35713466D01*
X39291548Y-35738452D01*
X39316534Y-35768897D01*
X39335101Y-35803633D01*
X39346535Y-35841326D01*
X39351000Y-35886661D01*
X39351000Y-36723339D01*
X39346535Y-36768674D01*
X39335101Y-36806367D01*
X39316534Y-36841103D01*
X39291548Y-36871548D01*
X39261103Y-36896534D01*
X39226367Y-36915101D01*
X39188674Y-36926535D01*
X39143339Y-36931000D01*
X38056661Y-36931000D01*
X38011326Y-36926535D01*
X37973633Y-36915101D01*
X37938897Y-36896534D01*
X37908452Y-36871548D01*
X37883466Y-36841103D01*
X37864899Y-36806367D01*
X37853465Y-36768674D01*
X37849000Y-36723339D01*
X37849000Y-35886661D01*
X37853465Y-35841326D01*
X37864899Y-35803633D01*
X37883466Y-35768897D01*
X37908452Y-35738452D01*
X37938897Y-35713466D01*
X37973633Y-35694899D01*
X38011326Y-35683465D01*
X38056661Y-35679000D01*
X39143339Y-35679000D01*
X39188674Y-35683465D01*
X39188674Y-35683465D01*
G37*
G36*
X14420285Y-35226617D02*
G01*
X14453879Y-35229926D01*
X14475445Y-35236468D01*
X14583195Y-35269153D01*
X14702364Y-35332851D01*
X14806823Y-35418577D01*
X14892549Y-35523036D01*
X14956247Y-35642205D01*
X14964912Y-35670770D01*
X14995474Y-35771521D01*
X15008719Y-35906000D01*
X14995474Y-36040479D01*
X14972445Y-36116395D01*
X14956247Y-36169795D01*
X14892549Y-36288964D01*
X14806823Y-36393423D01*
X14702364Y-36479149D01*
X14583195Y-36542847D01*
X14529795Y-36559045D01*
X14453879Y-36582074D01*
X14420285Y-36585383D01*
X14353100Y-36592000D01*
X13726900Y-36592000D01*
X13659715Y-36585383D01*
X13626121Y-36582074D01*
X13550206Y-36559046D01*
X13496805Y-36542847D01*
X13377636Y-36479149D01*
X13273177Y-36393423D01*
X13187451Y-36288964D01*
X13123753Y-36169795D01*
X13107554Y-36116394D01*
X13084526Y-36040479D01*
X13071281Y-35906000D01*
X13084526Y-35771521D01*
X13115088Y-35670770D01*
X13123753Y-35642205D01*
X13187451Y-35523036D01*
X13273177Y-35418577D01*
X13377636Y-35332851D01*
X13496805Y-35269153D01*
X13604555Y-35236468D01*
X13626121Y-35229926D01*
X13659715Y-35226617D01*
X13726900Y-35220000D01*
X14353100Y-35220000D01*
X14420285Y-35226617D01*
X14420285Y-35226617D01*
G37*
G36*
X18839885Y-35226617D02*
G01*
X18873479Y-35229926D01*
X18895045Y-35236468D01*
X19002795Y-35269153D01*
X19121964Y-35332851D01*
X19226423Y-35418577D01*
X19312149Y-35523036D01*
X19375847Y-35642205D01*
X19384512Y-35670770D01*
X19415074Y-35771521D01*
X19428319Y-35906000D01*
X19415074Y-36040479D01*
X19392045Y-36116395D01*
X19375847Y-36169795D01*
X19312149Y-36288964D01*
X19226423Y-36393423D01*
X19121964Y-36479149D01*
X19002795Y-36542847D01*
X18949395Y-36559045D01*
X18873479Y-36582074D01*
X18839885Y-36585383D01*
X18772700Y-36592000D01*
X17943300Y-36592000D01*
X17876115Y-36585383D01*
X17842521Y-36582074D01*
X17766606Y-36559046D01*
X17713205Y-36542847D01*
X17594036Y-36479149D01*
X17489577Y-36393423D01*
X17403851Y-36288964D01*
X17340153Y-36169795D01*
X17323954Y-36116394D01*
X17300926Y-36040479D01*
X17287681Y-35906000D01*
X17300926Y-35771521D01*
X17331488Y-35670770D01*
X17340153Y-35642205D01*
X17403851Y-35523036D01*
X17489577Y-35418577D01*
X17594036Y-35332851D01*
X17713205Y-35269153D01*
X17820955Y-35236468D01*
X17842521Y-35229926D01*
X17876115Y-35226617D01*
X17943300Y-35220000D01*
X18772700Y-35220000D01*
X18839885Y-35226617D01*
X18839885Y-35226617D01*
G37*
G36*
X69190442Y-33995518D02*
G01*
X69256627Y-34002037D01*
X69426466Y-34053557D01*
X69582991Y-34137222D01*
X69618729Y-34166552D01*
X69720186Y-34249814D01*
X69803448Y-34351271D01*
X69832778Y-34387009D01*
X69916443Y-34543534D01*
X69967963Y-34713373D01*
X69985359Y-34890000D01*
X69967963Y-35066627D01*
X69916443Y-35236466D01*
X69832778Y-35392991D01*
X69823885Y-35403827D01*
X69720186Y-35530186D01*
X69618729Y-35613448D01*
X69582991Y-35642778D01*
X69426466Y-35726443D01*
X69256627Y-35777963D01*
X69190442Y-35784482D01*
X69124260Y-35791000D01*
X69035740Y-35791000D01*
X68969558Y-35784482D01*
X68903373Y-35777963D01*
X68733534Y-35726443D01*
X68577009Y-35642778D01*
X68541271Y-35613448D01*
X68439814Y-35530186D01*
X68336115Y-35403827D01*
X68327222Y-35392991D01*
X68243557Y-35236466D01*
X68192037Y-35066627D01*
X68174641Y-34890000D01*
X68192037Y-34713373D01*
X68243557Y-34543534D01*
X68327222Y-34387009D01*
X68356552Y-34351271D01*
X68439814Y-34249814D01*
X68541271Y-34166552D01*
X68577009Y-34137222D01*
X68733534Y-34053557D01*
X68903373Y-34002037D01*
X68969558Y-33995518D01*
X69035740Y-33989000D01*
X69124260Y-33989000D01*
X69190442Y-33995518D01*
X69190442Y-33995518D01*
G37*
G36*
X66650442Y-33995518D02*
G01*
X66716627Y-34002037D01*
X66886466Y-34053557D01*
X67042991Y-34137222D01*
X67078729Y-34166552D01*
X67180186Y-34249814D01*
X67263448Y-34351271D01*
X67292778Y-34387009D01*
X67376443Y-34543534D01*
X67427963Y-34713373D01*
X67445359Y-34890000D01*
X67427963Y-35066627D01*
X67376443Y-35236466D01*
X67292778Y-35392991D01*
X67283885Y-35403827D01*
X67180186Y-35530186D01*
X67078729Y-35613448D01*
X67042991Y-35642778D01*
X66886466Y-35726443D01*
X66716627Y-35777963D01*
X66650442Y-35784482D01*
X66584260Y-35791000D01*
X66495740Y-35791000D01*
X66429558Y-35784482D01*
X66363373Y-35777963D01*
X66193534Y-35726443D01*
X66037009Y-35642778D01*
X66001271Y-35613448D01*
X65899814Y-35530186D01*
X65796115Y-35403827D01*
X65787222Y-35392991D01*
X65703557Y-35236466D01*
X65652037Y-35066627D01*
X65634641Y-34890000D01*
X65652037Y-34713373D01*
X65703557Y-34543534D01*
X65787222Y-34387009D01*
X65816552Y-34351271D01*
X65899814Y-34249814D01*
X66001271Y-34166552D01*
X66037009Y-34137222D01*
X66193534Y-34053557D01*
X66363373Y-34002037D01*
X66429558Y-33995518D01*
X66495740Y-33989000D01*
X66584260Y-33989000D01*
X66650442Y-33995518D01*
X66650442Y-33995518D01*
G37*
G36*
X22338674Y-34428465D02*
G01*
X22376367Y-34439899D01*
X22411103Y-34458466D01*
X22441548Y-34483452D01*
X22466534Y-34513897D01*
X22485101Y-34548633D01*
X22496535Y-34586326D01*
X22501000Y-34631661D01*
X22501000Y-35468339D01*
X22496535Y-35513674D01*
X22485101Y-35551367D01*
X22466534Y-35586103D01*
X22441548Y-35616548D01*
X22411103Y-35641534D01*
X22376367Y-35660101D01*
X22338674Y-35671535D01*
X22293339Y-35676000D01*
X21206661Y-35676000D01*
X21161326Y-35671535D01*
X21123633Y-35660101D01*
X21088897Y-35641534D01*
X21058452Y-35616548D01*
X21033466Y-35586103D01*
X21014899Y-35551367D01*
X21003465Y-35513674D01*
X20999000Y-35468339D01*
X20999000Y-34631661D01*
X21003465Y-34586326D01*
X21014899Y-34548633D01*
X21033466Y-34513897D01*
X21058452Y-34483452D01*
X21088897Y-34458466D01*
X21123633Y-34439899D01*
X21161326Y-34428465D01*
X21206661Y-34424000D01*
X22293339Y-34424000D01*
X22338674Y-34428465D01*
X22338674Y-34428465D01*
G37*
G36*
X39188674Y-33633465D02*
G01*
X39226367Y-33644899D01*
X39261103Y-33663466D01*
X39291548Y-33688452D01*
X39316534Y-33718897D01*
X39335101Y-33753633D01*
X39346535Y-33791326D01*
X39351000Y-33836661D01*
X39351000Y-34673339D01*
X39346535Y-34718674D01*
X39335101Y-34756367D01*
X39316534Y-34791103D01*
X39291548Y-34821548D01*
X39261103Y-34846534D01*
X39226367Y-34865101D01*
X39188674Y-34876535D01*
X39143339Y-34881000D01*
X38056661Y-34881000D01*
X38011326Y-34876535D01*
X37973633Y-34865101D01*
X37938897Y-34846534D01*
X37908452Y-34821548D01*
X37883466Y-34791103D01*
X37864899Y-34756367D01*
X37853465Y-34718674D01*
X37849000Y-34673339D01*
X37849000Y-33836661D01*
X37853465Y-33791326D01*
X37864899Y-33753633D01*
X37883466Y-33718897D01*
X37908452Y-33688452D01*
X37938897Y-33663466D01*
X37973633Y-33644899D01*
X38011326Y-33633465D01*
X38056661Y-33629000D01*
X39143339Y-33629000D01*
X39188674Y-33633465D01*
X39188674Y-33633465D01*
G37*
G36*
X53230239Y-32278820D02*
G01*
X53267932Y-32290254D01*
X53302668Y-32308821D01*
X53337881Y-32337719D01*
X54106281Y-33106119D01*
X54135179Y-33141332D01*
X54153746Y-33176068D01*
X54165180Y-33213761D01*
X54169040Y-33252956D01*
X54165180Y-33292151D01*
X54153746Y-33329844D01*
X54135179Y-33364580D01*
X54106281Y-33399793D01*
X53514657Y-33991417D01*
X53479444Y-34020315D01*
X53444708Y-34038882D01*
X53407015Y-34050316D01*
X53367820Y-34054176D01*
X53328625Y-34050316D01*
X53290932Y-34038882D01*
X53256196Y-34020315D01*
X53220983Y-33991417D01*
X52452583Y-33223017D01*
X52423685Y-33187804D01*
X52405118Y-33153068D01*
X52393684Y-33115375D01*
X52389824Y-33076180D01*
X52393684Y-33036985D01*
X52405118Y-32999292D01*
X52423685Y-32964556D01*
X52452583Y-32929343D01*
X53044207Y-32337719D01*
X53079420Y-32308821D01*
X53114156Y-32290254D01*
X53151849Y-32278820D01*
X53191044Y-32274960D01*
X53230239Y-32278820D01*
X53230239Y-32278820D01*
G37*
G36*
X22338674Y-32378465D02*
G01*
X22376367Y-32389899D01*
X22411103Y-32408466D01*
X22441548Y-32433452D01*
X22466534Y-32463897D01*
X22485101Y-32498633D01*
X22496535Y-32536326D01*
X22501000Y-32581661D01*
X22501000Y-33418339D01*
X22496535Y-33463674D01*
X22485101Y-33501367D01*
X22466534Y-33536103D01*
X22441548Y-33566548D01*
X22411103Y-33591534D01*
X22376367Y-33610101D01*
X22338674Y-33621535D01*
X22293339Y-33626000D01*
X21206661Y-33626000D01*
X21161326Y-33621535D01*
X21123633Y-33610101D01*
X21088897Y-33591534D01*
X21058452Y-33566548D01*
X21033466Y-33536103D01*
X21014899Y-33501367D01*
X21003465Y-33463674D01*
X20999000Y-33418339D01*
X20999000Y-32581661D01*
X21003465Y-32536326D01*
X21014899Y-32498633D01*
X21033466Y-32463897D01*
X21058452Y-32433452D01*
X21088897Y-32408466D01*
X21123633Y-32389899D01*
X21161326Y-32378465D01*
X21206661Y-32374000D01*
X22293339Y-32374000D01*
X22338674Y-32378465D01*
X22338674Y-32378465D01*
G37*
G36*
X69190443Y-31455519D02*
G01*
X69256627Y-31462037D01*
X69426466Y-31513557D01*
X69582991Y-31597222D01*
X69618729Y-31626552D01*
X69720186Y-31709814D01*
X69784243Y-31787869D01*
X69832778Y-31847009D01*
X69832779Y-31847011D01*
X69890287Y-31954599D01*
X69916443Y-32003534D01*
X69967963Y-32173373D01*
X69985359Y-32350000D01*
X69967963Y-32526627D01*
X69916443Y-32696466D01*
X69832778Y-32852991D01*
X69807555Y-32883725D01*
X69720186Y-32990186D01*
X69618729Y-33073448D01*
X69582991Y-33102778D01*
X69426466Y-33186443D01*
X69256627Y-33237963D01*
X69190443Y-33244481D01*
X69124260Y-33251000D01*
X69035740Y-33251000D01*
X68969557Y-33244481D01*
X68903373Y-33237963D01*
X68733534Y-33186443D01*
X68577009Y-33102778D01*
X68541271Y-33073448D01*
X68439814Y-32990186D01*
X68352445Y-32883725D01*
X68327222Y-32852991D01*
X68243557Y-32696466D01*
X68192037Y-32526627D01*
X68174641Y-32350000D01*
X68192037Y-32173373D01*
X68243557Y-32003534D01*
X68269714Y-31954599D01*
X68327221Y-31847011D01*
X68327222Y-31847009D01*
X68375757Y-31787869D01*
X68439814Y-31709814D01*
X68541271Y-31626552D01*
X68577009Y-31597222D01*
X68733534Y-31513557D01*
X68903373Y-31462037D01*
X68969557Y-31455519D01*
X69035740Y-31449000D01*
X69124260Y-31449000D01*
X69190443Y-31455519D01*
X69190443Y-31455519D01*
G37*
G36*
X66650443Y-31455519D02*
G01*
X66716627Y-31462037D01*
X66886466Y-31513557D01*
X67042991Y-31597222D01*
X67078729Y-31626552D01*
X67180186Y-31709814D01*
X67244243Y-31787869D01*
X67292778Y-31847009D01*
X67292779Y-31847011D01*
X67350287Y-31954599D01*
X67376443Y-32003534D01*
X67427963Y-32173373D01*
X67445359Y-32350000D01*
X67427963Y-32526627D01*
X67376443Y-32696466D01*
X67292778Y-32852991D01*
X67267555Y-32883725D01*
X67180186Y-32990186D01*
X67078729Y-33073448D01*
X67042991Y-33102778D01*
X66886466Y-33186443D01*
X66716627Y-33237963D01*
X66650443Y-33244481D01*
X66584260Y-33251000D01*
X66495740Y-33251000D01*
X66429557Y-33244481D01*
X66363373Y-33237963D01*
X66193534Y-33186443D01*
X66037009Y-33102778D01*
X66001271Y-33073448D01*
X65899814Y-32990186D01*
X65812445Y-32883725D01*
X65787222Y-32852991D01*
X65703557Y-32696466D01*
X65652037Y-32526627D01*
X65634641Y-32350000D01*
X65652037Y-32173373D01*
X65703557Y-32003534D01*
X65729714Y-31954599D01*
X65787221Y-31847011D01*
X65787222Y-31847009D01*
X65835757Y-31787869D01*
X65899814Y-31709814D01*
X66001271Y-31626552D01*
X66037009Y-31597222D01*
X66193534Y-31513557D01*
X66363373Y-31462037D01*
X66429557Y-31455519D01*
X66495740Y-31449000D01*
X66584260Y-31449000D01*
X66650443Y-31455519D01*
X66650443Y-31455519D01*
G37*
G36*
X44088674Y-31746465D02*
G01*
X44126367Y-31757899D01*
X44161103Y-31776466D01*
X44191548Y-31801452D01*
X44216534Y-31831897D01*
X44235101Y-31866633D01*
X44246535Y-31904326D01*
X44251000Y-31949661D01*
X44251000Y-32786339D01*
X44246535Y-32831674D01*
X44235101Y-32869367D01*
X44216534Y-32904103D01*
X44191548Y-32934548D01*
X44161103Y-32959534D01*
X44126367Y-32978101D01*
X44088674Y-32989535D01*
X44043339Y-32994000D01*
X42956661Y-32994000D01*
X42911326Y-32989535D01*
X42873633Y-32978101D01*
X42838897Y-32959534D01*
X42808452Y-32934548D01*
X42783466Y-32904103D01*
X42764899Y-32869367D01*
X42753465Y-32831674D01*
X42749000Y-32786339D01*
X42749000Y-31949661D01*
X42753465Y-31904326D01*
X42764899Y-31866633D01*
X42783466Y-31831897D01*
X42808452Y-31801452D01*
X42838897Y-31776466D01*
X42873633Y-31757899D01*
X42911326Y-31746465D01*
X42956661Y-31742000D01*
X44043339Y-31742000D01*
X44088674Y-31746465D01*
X44088674Y-31746465D01*
G37*
G36*
X54679807Y-30829252D02*
G01*
X54717500Y-30840686D01*
X54752236Y-30859253D01*
X54787449Y-30888151D01*
X55555849Y-31656551D01*
X55584747Y-31691764D01*
X55603314Y-31726500D01*
X55614748Y-31764193D01*
X55618608Y-31803388D01*
X55614748Y-31842583D01*
X55603314Y-31880276D01*
X55584747Y-31915012D01*
X55555849Y-31950225D01*
X54964225Y-32541849D01*
X54929012Y-32570747D01*
X54894276Y-32589314D01*
X54856583Y-32600748D01*
X54817388Y-32604608D01*
X54778193Y-32600748D01*
X54740500Y-32589314D01*
X54705764Y-32570747D01*
X54670551Y-32541849D01*
X53902151Y-31773449D01*
X53873253Y-31738236D01*
X53854686Y-31703500D01*
X53843252Y-31665807D01*
X53839392Y-31626612D01*
X53843252Y-31587417D01*
X53854686Y-31549724D01*
X53873253Y-31514988D01*
X53902151Y-31479775D01*
X54493775Y-30888151D01*
X54528988Y-30859253D01*
X54563724Y-30840686D01*
X54601417Y-30829252D01*
X54640612Y-30825392D01*
X54679807Y-30829252D01*
X54679807Y-30829252D01*
G37*
G36*
X44088674Y-29696465D02*
G01*
X44126367Y-29707899D01*
X44161103Y-29726466D01*
X44191548Y-29751452D01*
X44216534Y-29781897D01*
X44235101Y-29816633D01*
X44246535Y-29854326D01*
X44251000Y-29899661D01*
X44251000Y-30736339D01*
X44246535Y-30781674D01*
X44235101Y-30819367D01*
X44216534Y-30854103D01*
X44191548Y-30884548D01*
X44161103Y-30909534D01*
X44126367Y-30928101D01*
X44088674Y-30939535D01*
X44043339Y-30944000D01*
X42956661Y-30944000D01*
X42911326Y-30939535D01*
X42873633Y-30928101D01*
X42838897Y-30909534D01*
X42808452Y-30884548D01*
X42783466Y-30854103D01*
X42764899Y-30819367D01*
X42753465Y-30781674D01*
X42749000Y-30736339D01*
X42749000Y-29899661D01*
X42753465Y-29854326D01*
X42764899Y-29816633D01*
X42783466Y-29781897D01*
X42808452Y-29751452D01*
X42838897Y-29726466D01*
X42873633Y-29707899D01*
X42911326Y-29696465D01*
X42956661Y-29692000D01*
X44043339Y-29692000D01*
X44088674Y-29696465D01*
X44088674Y-29696465D01*
G37*
G36*
X22313674Y-29678465D02*
G01*
X22351367Y-29689899D01*
X22386103Y-29708466D01*
X22416548Y-29733452D01*
X22441534Y-29763897D01*
X22460101Y-29798633D01*
X22471535Y-29836326D01*
X22476000Y-29881661D01*
X22476000Y-30718339D01*
X22471535Y-30763674D01*
X22460101Y-30801367D01*
X22441534Y-30836103D01*
X22416548Y-30866548D01*
X22386103Y-30891534D01*
X22351367Y-30910101D01*
X22313674Y-30921535D01*
X22268339Y-30926000D01*
X21181661Y-30926000D01*
X21136326Y-30921535D01*
X21098633Y-30910101D01*
X21063897Y-30891534D01*
X21033452Y-30866548D01*
X21008466Y-30836103D01*
X20989899Y-30801367D01*
X20978465Y-30763674D01*
X20974000Y-30718339D01*
X20974000Y-29881661D01*
X20978465Y-29836326D01*
X20989899Y-29798633D01*
X21008466Y-29763897D01*
X21033452Y-29733452D01*
X21063897Y-29708466D01*
X21098633Y-29689899D01*
X21136326Y-29678465D01*
X21181661Y-29674000D01*
X22268339Y-29674000D01*
X22313674Y-29678465D01*
X22313674Y-29678465D01*
G37*
G36*
X66653512Y-28913927D02*
G01*
X66802812Y-28943624D01*
X66966784Y-29011544D01*
X67114354Y-29110147D01*
X67239853Y-29235646D01*
X67338456Y-29383216D01*
X67406376Y-29547188D01*
X67441000Y-29721259D01*
X67441000Y-29898741D01*
X67406376Y-30072812D01*
X67338456Y-30236784D01*
X67239853Y-30384354D01*
X67114354Y-30509853D01*
X66966784Y-30608456D01*
X66802812Y-30676376D01*
X66653512Y-30706073D01*
X66628742Y-30711000D01*
X66451258Y-30711000D01*
X66426488Y-30706073D01*
X66277188Y-30676376D01*
X66113216Y-30608456D01*
X65965646Y-30509853D01*
X65840147Y-30384354D01*
X65741544Y-30236784D01*
X65673624Y-30072812D01*
X65639000Y-29898741D01*
X65639000Y-29721259D01*
X65673624Y-29547188D01*
X65741544Y-29383216D01*
X65840147Y-29235646D01*
X65965646Y-29110147D01*
X66113216Y-29011544D01*
X66277188Y-28943624D01*
X66426488Y-28913927D01*
X66451258Y-28909000D01*
X66628742Y-28909000D01*
X66653512Y-28913927D01*
X66653512Y-28913927D01*
G37*
G36*
X69190443Y-28915519D02*
G01*
X69256627Y-28922037D01*
X69426466Y-28973557D01*
X69582991Y-29057222D01*
X69618729Y-29086552D01*
X69720186Y-29169814D01*
X69803448Y-29271271D01*
X69832778Y-29307009D01*
X69916443Y-29463534D01*
X69967963Y-29633373D01*
X69985359Y-29810000D01*
X69967963Y-29986627D01*
X69916443Y-30156466D01*
X69832778Y-30312991D01*
X69803448Y-30348729D01*
X69720186Y-30450186D01*
X69647480Y-30509853D01*
X69582991Y-30562778D01*
X69426466Y-30646443D01*
X69256627Y-30697963D01*
X69190443Y-30704481D01*
X69124260Y-30711000D01*
X69035740Y-30711000D01*
X68969557Y-30704481D01*
X68903373Y-30697963D01*
X68733534Y-30646443D01*
X68577009Y-30562778D01*
X68512520Y-30509853D01*
X68439814Y-30450186D01*
X68356552Y-30348729D01*
X68327222Y-30312991D01*
X68243557Y-30156466D01*
X68192037Y-29986627D01*
X68174641Y-29810000D01*
X68192037Y-29633373D01*
X68243557Y-29463534D01*
X68327222Y-29307009D01*
X68356552Y-29271271D01*
X68439814Y-29169814D01*
X68541271Y-29086552D01*
X68577009Y-29057222D01*
X68733534Y-28973557D01*
X68903373Y-28922037D01*
X68969557Y-28915519D01*
X69035740Y-28909000D01*
X69124260Y-28909000D01*
X69190443Y-28915519D01*
X69190443Y-28915519D01*
G37*
G36*
X26871674Y-27539465D02*
G01*
X26909367Y-27550899D01*
X26944103Y-27569466D01*
X26974548Y-27594452D01*
X26999534Y-27624897D01*
X27018101Y-27659633D01*
X27029535Y-27697326D01*
X27034000Y-27742661D01*
X27034000Y-28829339D01*
X27029535Y-28874674D01*
X27018101Y-28912367D01*
X26999534Y-28947103D01*
X26974548Y-28977548D01*
X26944103Y-29002534D01*
X26909367Y-29021101D01*
X26871674Y-29032535D01*
X26826339Y-29037000D01*
X25989661Y-29037000D01*
X25944326Y-29032535D01*
X25906633Y-29021101D01*
X25871897Y-29002534D01*
X25841452Y-28977548D01*
X25816466Y-28947103D01*
X25797899Y-28912367D01*
X25786465Y-28874674D01*
X25782000Y-28829339D01*
X25782000Y-27742661D01*
X25786465Y-27697326D01*
X25797899Y-27659633D01*
X25816466Y-27624897D01*
X25841452Y-27594452D01*
X25871897Y-27569466D01*
X25906633Y-27550899D01*
X25944326Y-27539465D01*
X25989661Y-27535000D01*
X26826339Y-27535000D01*
X26871674Y-27539465D01*
X26871674Y-27539465D01*
G37*
G36*
X24821674Y-27539465D02*
G01*
X24859367Y-27550899D01*
X24894103Y-27569466D01*
X24924548Y-27594452D01*
X24949534Y-27624897D01*
X24968101Y-27659633D01*
X24979535Y-27697326D01*
X24984000Y-27742661D01*
X24984000Y-28829339D01*
X24979535Y-28874674D01*
X24968101Y-28912367D01*
X24949534Y-28947103D01*
X24924548Y-28977548D01*
X24894103Y-29002534D01*
X24859367Y-29021101D01*
X24821674Y-29032535D01*
X24776339Y-29037000D01*
X23939661Y-29037000D01*
X23894326Y-29032535D01*
X23856633Y-29021101D01*
X23821897Y-29002534D01*
X23791452Y-28977548D01*
X23766466Y-28947103D01*
X23747899Y-28912367D01*
X23736465Y-28874674D01*
X23732000Y-28829339D01*
X23732000Y-27742661D01*
X23736465Y-27697326D01*
X23747899Y-27659633D01*
X23766466Y-27624897D01*
X23791452Y-27594452D01*
X23821897Y-27569466D01*
X23856633Y-27550899D01*
X23894326Y-27539465D01*
X23939661Y-27535000D01*
X24776339Y-27535000D01*
X24821674Y-27539465D01*
X24821674Y-27539465D01*
G37*
G36*
X22313674Y-27628465D02*
G01*
X22351367Y-27639899D01*
X22386103Y-27658466D01*
X22416548Y-27683452D01*
X22441534Y-27713897D01*
X22460101Y-27748633D01*
X22471535Y-27786326D01*
X22476000Y-27831661D01*
X22476000Y-28668339D01*
X22471535Y-28713674D01*
X22460101Y-28751367D01*
X22441534Y-28786103D01*
X22416548Y-28816548D01*
X22386103Y-28841534D01*
X22351367Y-28860101D01*
X22313674Y-28871535D01*
X22268339Y-28876000D01*
X21181661Y-28876000D01*
X21136326Y-28871535D01*
X21098633Y-28860101D01*
X21063897Y-28841534D01*
X21033452Y-28816548D01*
X21008466Y-28786103D01*
X20989899Y-28751367D01*
X20978465Y-28713674D01*
X20974000Y-28668339D01*
X20974000Y-27831661D01*
X20978465Y-27786326D01*
X20989899Y-27748633D01*
X21008466Y-27713897D01*
X21033452Y-27683452D01*
X21063897Y-27658466D01*
X21098633Y-27639899D01*
X21136326Y-27628465D01*
X21181661Y-27624000D01*
X22268339Y-27624000D01*
X22313674Y-27628465D01*
X22313674Y-27628465D01*
G37*
G36*
X18839885Y-26590617D02*
G01*
X18873479Y-26593926D01*
X18949394Y-26616954D01*
X19002795Y-26633153D01*
X19121964Y-26696851D01*
X19226423Y-26782577D01*
X19312149Y-26887036D01*
X19375847Y-27006205D01*
X19415074Y-27135522D01*
X19428319Y-27270000D01*
X19415074Y-27404478D01*
X19375847Y-27533795D01*
X19312149Y-27652964D01*
X19226423Y-27757423D01*
X19121964Y-27843149D01*
X19002795Y-27906847D01*
X18949394Y-27923046D01*
X18873479Y-27946074D01*
X18839885Y-27949383D01*
X18772700Y-27956000D01*
X17943300Y-27956000D01*
X17876115Y-27949383D01*
X17842521Y-27946074D01*
X17766606Y-27923046D01*
X17713205Y-27906847D01*
X17594036Y-27843149D01*
X17489577Y-27757423D01*
X17403851Y-27652964D01*
X17340153Y-27533795D01*
X17300926Y-27404478D01*
X17287681Y-27270000D01*
X17300926Y-27135522D01*
X17340153Y-27006205D01*
X17403851Y-26887036D01*
X17489577Y-26782577D01*
X17594036Y-26696851D01*
X17713205Y-26633153D01*
X17766606Y-26616954D01*
X17842521Y-26593926D01*
X17876115Y-26590617D01*
X17943300Y-26584000D01*
X18772700Y-26584000D01*
X18839885Y-26590617D01*
X18839885Y-26590617D01*
G37*
G36*
X14420285Y-26590617D02*
G01*
X14453879Y-26593926D01*
X14529794Y-26616954D01*
X14583195Y-26633153D01*
X14702364Y-26696851D01*
X14806823Y-26782577D01*
X14892549Y-26887036D01*
X14956247Y-27006205D01*
X14995474Y-27135522D01*
X15008719Y-27270000D01*
X14995474Y-27404478D01*
X14956247Y-27533795D01*
X14892549Y-27652964D01*
X14806823Y-27757423D01*
X14702364Y-27843149D01*
X14583195Y-27906847D01*
X14529794Y-27923046D01*
X14453879Y-27946074D01*
X14420285Y-27949383D01*
X14353100Y-27956000D01*
X13726900Y-27956000D01*
X13659715Y-27949383D01*
X13626121Y-27946074D01*
X13550206Y-27923046D01*
X13496805Y-27906847D01*
X13377636Y-27843149D01*
X13273177Y-27757423D01*
X13187451Y-27652964D01*
X13123753Y-27533795D01*
X13084526Y-27404478D01*
X13071281Y-27270000D01*
X13084526Y-27135522D01*
X13123753Y-27006205D01*
X13187451Y-26887036D01*
X13273177Y-26782577D01*
X13377636Y-26696851D01*
X13496805Y-26633153D01*
X13550206Y-26616954D01*
X13626121Y-26593926D01*
X13659715Y-26590617D01*
X13726900Y-26584000D01*
X14353100Y-26584000D01*
X14420285Y-26590617D01*
X14420285Y-26590617D01*
G37*
G36*
X26871674Y-25043465D02*
G01*
X26909367Y-25054899D01*
X26944103Y-25073466D01*
X26974548Y-25098452D01*
X26999534Y-25128897D01*
X27018101Y-25163633D01*
X27029535Y-25201326D01*
X27034000Y-25246661D01*
X27034000Y-26333339D01*
X27029535Y-26378674D01*
X27018101Y-26416367D01*
X26999534Y-26451103D01*
X26974548Y-26481548D01*
X26944103Y-26506534D01*
X26909367Y-26525101D01*
X26871674Y-26536535D01*
X26826339Y-26541000D01*
X25989661Y-26541000D01*
X25944326Y-26536535D01*
X25906633Y-26525101D01*
X25871897Y-26506534D01*
X25841452Y-26481548D01*
X25816466Y-26451103D01*
X25797899Y-26416367D01*
X25786465Y-26378674D01*
X25782000Y-26333339D01*
X25782000Y-25246661D01*
X25786465Y-25201326D01*
X25797899Y-25163633D01*
X25816466Y-25128897D01*
X25841452Y-25098452D01*
X25871897Y-25073466D01*
X25906633Y-25054899D01*
X25944326Y-25043465D01*
X25989661Y-25039000D01*
X26826339Y-25039000D01*
X26871674Y-25043465D01*
X26871674Y-25043465D01*
G37*
G36*
X24821674Y-25043465D02*
G01*
X24859367Y-25054899D01*
X24894103Y-25073466D01*
X24924548Y-25098452D01*
X24949534Y-25128897D01*
X24968101Y-25163633D01*
X24979535Y-25201326D01*
X24984000Y-25246661D01*
X24984000Y-26333339D01*
X24979535Y-26378674D01*
X24968101Y-26416367D01*
X24949534Y-26451103D01*
X24924548Y-26481548D01*
X24894103Y-26506534D01*
X24859367Y-26525101D01*
X24821674Y-26536535D01*
X24776339Y-26541000D01*
X23939661Y-26541000D01*
X23894326Y-26536535D01*
X23856633Y-26525101D01*
X23821897Y-26506534D01*
X23791452Y-26481548D01*
X23766466Y-26451103D01*
X23747899Y-26416367D01*
X23736465Y-26378674D01*
X23732000Y-26333339D01*
X23732000Y-25246661D01*
X23736465Y-25201326D01*
X23747899Y-25163633D01*
X23766466Y-25128897D01*
X23791452Y-25098452D01*
X23821897Y-25073466D01*
X23856633Y-25054899D01*
X23894326Y-25043465D01*
X23939661Y-25039000D01*
X24776339Y-25039000D01*
X24821674Y-25043465D01*
X24821674Y-25043465D01*
G37*
G36*
X44088674Y-23346465D02*
G01*
X44126367Y-23357899D01*
X44161103Y-23376466D01*
X44191548Y-23401452D01*
X44216534Y-23431897D01*
X44235101Y-23466633D01*
X44246535Y-23504326D01*
X44251000Y-23549661D01*
X44251000Y-24386339D01*
X44246535Y-24431674D01*
X44235101Y-24469367D01*
X44216534Y-24504103D01*
X44191548Y-24534548D01*
X44161103Y-24559534D01*
X44126367Y-24578101D01*
X44088674Y-24589535D01*
X44043339Y-24594000D01*
X42956661Y-24594000D01*
X42911326Y-24589535D01*
X42873633Y-24578101D01*
X42838897Y-24559534D01*
X42808452Y-24534548D01*
X42783466Y-24504103D01*
X42764899Y-24469367D01*
X42753465Y-24431674D01*
X42749000Y-24386339D01*
X42749000Y-23549661D01*
X42753465Y-23504326D01*
X42764899Y-23466633D01*
X42783466Y-23431897D01*
X42808452Y-23401452D01*
X42838897Y-23376466D01*
X42873633Y-23357899D01*
X42911326Y-23346465D01*
X42956661Y-23342000D01*
X44043339Y-23342000D01*
X44088674Y-23346465D01*
X44088674Y-23346465D01*
G37*
G36*
X26871674Y-22543465D02*
G01*
X26909367Y-22554899D01*
X26944103Y-22573466D01*
X26974548Y-22598452D01*
X26999534Y-22628897D01*
X27018101Y-22663633D01*
X27029535Y-22701326D01*
X27034000Y-22746661D01*
X27034000Y-23833339D01*
X27029535Y-23878674D01*
X27018101Y-23916367D01*
X26999534Y-23951103D01*
X26974548Y-23981548D01*
X26944103Y-24006534D01*
X26909367Y-24025101D01*
X26871674Y-24036535D01*
X26826339Y-24041000D01*
X25989661Y-24041000D01*
X25944326Y-24036535D01*
X25906633Y-24025101D01*
X25871897Y-24006534D01*
X25841452Y-23981548D01*
X25816466Y-23951103D01*
X25797899Y-23916367D01*
X25786465Y-23878674D01*
X25782000Y-23833339D01*
X25782000Y-22746661D01*
X25786465Y-22701326D01*
X25797899Y-22663633D01*
X25816466Y-22628897D01*
X25841452Y-22598452D01*
X25871897Y-22573466D01*
X25906633Y-22554899D01*
X25944326Y-22543465D01*
X25989661Y-22539000D01*
X26826339Y-22539000D01*
X26871674Y-22543465D01*
X26871674Y-22543465D01*
G37*
G36*
X24821674Y-22543465D02*
G01*
X24859367Y-22554899D01*
X24894103Y-22573466D01*
X24924548Y-22598452D01*
X24949534Y-22628897D01*
X24968101Y-22663633D01*
X24979535Y-22701326D01*
X24984000Y-22746661D01*
X24984000Y-23833339D01*
X24979535Y-23878674D01*
X24968101Y-23916367D01*
X24949534Y-23951103D01*
X24924548Y-23981548D01*
X24894103Y-24006534D01*
X24859367Y-24025101D01*
X24821674Y-24036535D01*
X24776339Y-24041000D01*
X23939661Y-24041000D01*
X23894326Y-24036535D01*
X23856633Y-24025101D01*
X23821897Y-24006534D01*
X23791452Y-23981548D01*
X23766466Y-23951103D01*
X23747899Y-23916367D01*
X23736465Y-23878674D01*
X23732000Y-23833339D01*
X23732000Y-22746661D01*
X23736465Y-22701326D01*
X23747899Y-22663633D01*
X23766466Y-22628897D01*
X23791452Y-22598452D01*
X23821897Y-22573466D01*
X23856633Y-22554899D01*
X23894326Y-22543465D01*
X23939661Y-22539000D01*
X24776339Y-22539000D01*
X24821674Y-22543465D01*
X24821674Y-22543465D01*
G37*
G36*
X35632674Y-21822465D02*
G01*
X35670367Y-21833899D01*
X35705103Y-21852466D01*
X35735548Y-21877452D01*
X35760534Y-21907897D01*
X35779101Y-21942633D01*
X35790535Y-21980326D01*
X35795000Y-22025661D01*
X35795000Y-22862339D01*
X35790535Y-22907674D01*
X35779101Y-22945367D01*
X35760534Y-22980103D01*
X35735548Y-23010548D01*
X35705103Y-23035534D01*
X35670367Y-23054101D01*
X35632674Y-23065535D01*
X35587339Y-23070000D01*
X34500661Y-23070000D01*
X34455326Y-23065535D01*
X34417633Y-23054101D01*
X34382897Y-23035534D01*
X34352452Y-23010548D01*
X34327466Y-22980103D01*
X34308899Y-22945367D01*
X34297465Y-22907674D01*
X34293000Y-22862339D01*
X34293000Y-22025661D01*
X34297465Y-21980326D01*
X34308899Y-21942633D01*
X34327466Y-21907897D01*
X34352452Y-21877452D01*
X34382897Y-21852466D01*
X34417633Y-21833899D01*
X34455326Y-21822465D01*
X34500661Y-21818000D01*
X35587339Y-21818000D01*
X35632674Y-21822465D01*
X35632674Y-21822465D01*
G37*
G36*
X44088674Y-21296465D02*
G01*
X44126367Y-21307899D01*
X44161103Y-21326466D01*
X44191548Y-21351452D01*
X44216534Y-21381897D01*
X44235101Y-21416633D01*
X44246535Y-21454326D01*
X44251000Y-21499661D01*
X44251000Y-22336339D01*
X44246535Y-22381674D01*
X44235101Y-22419367D01*
X44216534Y-22454103D01*
X44191548Y-22484548D01*
X44161103Y-22509534D01*
X44126367Y-22528101D01*
X44088674Y-22539535D01*
X44043339Y-22544000D01*
X42956661Y-22544000D01*
X42911326Y-22539535D01*
X42873633Y-22528101D01*
X42838897Y-22509534D01*
X42808452Y-22484548D01*
X42783466Y-22454103D01*
X42764899Y-22419367D01*
X42753465Y-22381674D01*
X42749000Y-22336339D01*
X42749000Y-21499661D01*
X42753465Y-21454326D01*
X42764899Y-21416633D01*
X42783466Y-21381897D01*
X42808452Y-21351452D01*
X42838897Y-21326466D01*
X42873633Y-21307899D01*
X42911326Y-21296465D01*
X42956661Y-21292000D01*
X44043339Y-21292000D01*
X44088674Y-21296465D01*
X44088674Y-21296465D01*
G37*
G36*
X24913674Y-20043465D02*
G01*
X24951367Y-20054899D01*
X24986103Y-20073466D01*
X25016548Y-20098452D01*
X25041534Y-20128897D01*
X25060101Y-20163633D01*
X25071535Y-20201326D01*
X25076000Y-20246661D01*
X25076000Y-21333339D01*
X25071535Y-21378674D01*
X25060101Y-21416367D01*
X25041534Y-21451103D01*
X25016548Y-21481548D01*
X24986103Y-21506534D01*
X24951367Y-21525101D01*
X24913674Y-21536535D01*
X24868339Y-21541000D01*
X24031661Y-21541000D01*
X23986326Y-21536535D01*
X23948633Y-21525101D01*
X23913897Y-21506534D01*
X23883452Y-21481548D01*
X23858466Y-21451103D01*
X23839899Y-21416367D01*
X23828465Y-21378674D01*
X23824000Y-21333339D01*
X23824000Y-20246661D01*
X23828465Y-20201326D01*
X23839899Y-20163633D01*
X23858466Y-20128897D01*
X23883452Y-20098452D01*
X23913897Y-20073466D01*
X23948633Y-20054899D01*
X23986326Y-20043465D01*
X24031661Y-20039000D01*
X24868339Y-20039000D01*
X24913674Y-20043465D01*
X24913674Y-20043465D01*
G37*
G36*
X26963674Y-20043465D02*
G01*
X27001367Y-20054899D01*
X27036103Y-20073466D01*
X27066548Y-20098452D01*
X27091534Y-20128897D01*
X27110101Y-20163633D01*
X27121535Y-20201326D01*
X27126000Y-20246661D01*
X27126000Y-21333339D01*
X27121535Y-21378674D01*
X27110101Y-21416367D01*
X27091534Y-21451103D01*
X27066548Y-21481548D01*
X27036103Y-21506534D01*
X27001367Y-21525101D01*
X26963674Y-21536535D01*
X26918339Y-21541000D01*
X26081661Y-21541000D01*
X26036326Y-21536535D01*
X25998633Y-21525101D01*
X25963897Y-21506534D01*
X25933452Y-21481548D01*
X25908466Y-21451103D01*
X25889899Y-21416367D01*
X25878465Y-21378674D01*
X25874000Y-21333339D01*
X25874000Y-20246661D01*
X25878465Y-20201326D01*
X25889899Y-20163633D01*
X25908466Y-20128897D01*
X25933452Y-20098452D01*
X25963897Y-20073466D01*
X25998633Y-20054899D01*
X26036326Y-20043465D01*
X26081661Y-20039000D01*
X26918339Y-20039000D01*
X26963674Y-20043465D01*
X26963674Y-20043465D01*
G37*
G36*
X35632674Y-19772465D02*
G01*
X35670367Y-19783899D01*
X35705103Y-19802466D01*
X35735548Y-19827452D01*
X35760534Y-19857897D01*
X35779101Y-19892633D01*
X35790535Y-19930326D01*
X35795000Y-19975661D01*
X35795000Y-20812339D01*
X35790535Y-20857674D01*
X35779101Y-20895367D01*
X35760534Y-20930103D01*
X35735548Y-20960548D01*
X35705103Y-20985534D01*
X35670367Y-21004101D01*
X35632674Y-21015535D01*
X35587339Y-21020000D01*
X34500661Y-21020000D01*
X34455326Y-21015535D01*
X34417633Y-21004101D01*
X34382897Y-20985534D01*
X34352452Y-20960548D01*
X34327466Y-20930103D01*
X34308899Y-20895367D01*
X34297465Y-20857674D01*
X34293000Y-20812339D01*
X34293000Y-19975661D01*
X34297465Y-19930326D01*
X34308899Y-19892633D01*
X34327466Y-19857897D01*
X34352452Y-19827452D01*
X34382897Y-19802466D01*
X34417633Y-19783899D01*
X34455326Y-19772465D01*
X34500661Y-19768000D01*
X35587339Y-19768000D01*
X35632674Y-19772465D01*
X35632674Y-19772465D01*
G37*
G36*
X20930443Y-16215519D02*
G01*
X20996627Y-16222037D01*
X21166466Y-16273557D01*
X21322991Y-16357222D01*
X21358729Y-16386552D01*
X21460186Y-16469814D01*
X21543448Y-16571271D01*
X21572778Y-16607009D01*
X21656443Y-16763534D01*
X21707963Y-16933373D01*
X21725359Y-17110000D01*
X21707963Y-17286627D01*
X21656443Y-17456466D01*
X21572778Y-17612991D01*
X21543448Y-17648729D01*
X21460186Y-17750186D01*
X21387480Y-17809853D01*
X21322991Y-17862778D01*
X21166466Y-17946443D01*
X20996627Y-17997963D01*
X20930443Y-18004481D01*
X20864260Y-18011000D01*
X20775740Y-18011000D01*
X20709557Y-18004481D01*
X20643373Y-17997963D01*
X20473534Y-17946443D01*
X20317009Y-17862778D01*
X20252520Y-17809853D01*
X20179814Y-17750186D01*
X20096552Y-17648729D01*
X20067222Y-17612991D01*
X19983557Y-17456466D01*
X19932037Y-17286627D01*
X19914641Y-17110000D01*
X19932037Y-16933373D01*
X19983557Y-16763534D01*
X20067222Y-16607009D01*
X20096552Y-16571271D01*
X20179814Y-16469814D01*
X20281271Y-16386552D01*
X20317009Y-16357222D01*
X20473534Y-16273557D01*
X20643373Y-16222037D01*
X20709557Y-16215519D01*
X20775740Y-16209000D01*
X20864260Y-16209000D01*
X20930443Y-16215519D01*
X20930443Y-16215519D01*
G37*
G36*
X23470443Y-16215519D02*
G01*
X23536627Y-16222037D01*
X23706466Y-16273557D01*
X23862991Y-16357222D01*
X23898729Y-16386552D01*
X24000186Y-16469814D01*
X24083448Y-16571271D01*
X24112778Y-16607009D01*
X24196443Y-16763534D01*
X24247963Y-16933373D01*
X24265359Y-17110000D01*
X24247963Y-17286627D01*
X24196443Y-17456466D01*
X24112778Y-17612991D01*
X24083448Y-17648729D01*
X24000186Y-17750186D01*
X23927480Y-17809853D01*
X23862991Y-17862778D01*
X23706466Y-17946443D01*
X23536627Y-17997963D01*
X23470443Y-18004481D01*
X23404260Y-18011000D01*
X23315740Y-18011000D01*
X23249557Y-18004481D01*
X23183373Y-17997963D01*
X23013534Y-17946443D01*
X22857009Y-17862778D01*
X22792520Y-17809853D01*
X22719814Y-17750186D01*
X22636552Y-17648729D01*
X22607222Y-17612991D01*
X22523557Y-17456466D01*
X22472037Y-17286627D01*
X22454641Y-17110000D01*
X22472037Y-16933373D01*
X22523557Y-16763534D01*
X22607222Y-16607009D01*
X22636552Y-16571271D01*
X22719814Y-16469814D01*
X22821271Y-16386552D01*
X22857009Y-16357222D01*
X23013534Y-16273557D01*
X23183373Y-16222037D01*
X23249557Y-16215519D01*
X23315740Y-16209000D01*
X23404260Y-16209000D01*
X23470443Y-16215519D01*
X23470443Y-16215519D01*
G37*
G36*
X26010443Y-16215519D02*
G01*
X26076627Y-16222037D01*
X26246466Y-16273557D01*
X26402991Y-16357222D01*
X26438729Y-16386552D01*
X26540186Y-16469814D01*
X26623448Y-16571271D01*
X26652778Y-16607009D01*
X26736443Y-16763534D01*
X26787963Y-16933373D01*
X26805359Y-17110000D01*
X26787963Y-17286627D01*
X26736443Y-17456466D01*
X26652778Y-17612991D01*
X26623448Y-17648729D01*
X26540186Y-17750186D01*
X26467480Y-17809853D01*
X26402991Y-17862778D01*
X26246466Y-17946443D01*
X26076627Y-17997963D01*
X26010443Y-18004481D01*
X25944260Y-18011000D01*
X25855740Y-18011000D01*
X25789557Y-18004481D01*
X25723373Y-17997963D01*
X25553534Y-17946443D01*
X25397009Y-17862778D01*
X25332520Y-17809853D01*
X25259814Y-17750186D01*
X25176552Y-17648729D01*
X25147222Y-17612991D01*
X25063557Y-17456466D01*
X25012037Y-17286627D01*
X24994641Y-17110000D01*
X25012037Y-16933373D01*
X25063557Y-16763534D01*
X25147222Y-16607009D01*
X25176552Y-16571271D01*
X25259814Y-16469814D01*
X25361271Y-16386552D01*
X25397009Y-16357222D01*
X25553534Y-16273557D01*
X25723373Y-16222037D01*
X25789557Y-16215519D01*
X25855740Y-16209000D01*
X25944260Y-16209000D01*
X26010443Y-16215519D01*
X26010443Y-16215519D01*
G37*
G36*
X28550443Y-16215519D02*
G01*
X28616627Y-16222037D01*
X28786466Y-16273557D01*
X28942991Y-16357222D01*
X28978729Y-16386552D01*
X29080186Y-16469814D01*
X29163448Y-16571271D01*
X29192778Y-16607009D01*
X29276443Y-16763534D01*
X29327963Y-16933373D01*
X29345359Y-17110000D01*
X29327963Y-17286627D01*
X29276443Y-17456466D01*
X29192778Y-17612991D01*
X29163448Y-17648729D01*
X29080186Y-17750186D01*
X29007480Y-17809853D01*
X28942991Y-17862778D01*
X28786466Y-17946443D01*
X28616627Y-17997963D01*
X28550443Y-18004481D01*
X28484260Y-18011000D01*
X28395740Y-18011000D01*
X28329557Y-18004481D01*
X28263373Y-17997963D01*
X28093534Y-17946443D01*
X27937009Y-17862778D01*
X27872520Y-17809853D01*
X27799814Y-17750186D01*
X27716552Y-17648729D01*
X27687222Y-17612991D01*
X27603557Y-17456466D01*
X27552037Y-17286627D01*
X27534641Y-17110000D01*
X27552037Y-16933373D01*
X27603557Y-16763534D01*
X27687222Y-16607009D01*
X27716552Y-16571271D01*
X27799814Y-16469814D01*
X27901271Y-16386552D01*
X27937009Y-16357222D01*
X28093534Y-16273557D01*
X28263373Y-16222037D01*
X28329557Y-16215519D01*
X28395740Y-16209000D01*
X28484260Y-16209000D01*
X28550443Y-16215519D01*
X28550443Y-16215519D01*
G37*
G36*
X31090443Y-16215519D02*
G01*
X31156627Y-16222037D01*
X31326466Y-16273557D01*
X31482991Y-16357222D01*
X31518729Y-16386552D01*
X31620186Y-16469814D01*
X31703448Y-16571271D01*
X31732778Y-16607009D01*
X31816443Y-16763534D01*
X31867963Y-16933373D01*
X31885359Y-17110000D01*
X31867963Y-17286627D01*
X31816443Y-17456466D01*
X31732778Y-17612991D01*
X31703448Y-17648729D01*
X31620186Y-17750186D01*
X31547480Y-17809853D01*
X31482991Y-17862778D01*
X31326466Y-17946443D01*
X31156627Y-17997963D01*
X31090443Y-18004481D01*
X31024260Y-18011000D01*
X30935740Y-18011000D01*
X30869557Y-18004481D01*
X30803373Y-17997963D01*
X30633534Y-17946443D01*
X30477009Y-17862778D01*
X30412520Y-17809853D01*
X30339814Y-17750186D01*
X30256552Y-17648729D01*
X30227222Y-17612991D01*
X30143557Y-17456466D01*
X30092037Y-17286627D01*
X30074641Y-17110000D01*
X30092037Y-16933373D01*
X30143557Y-16763534D01*
X30227222Y-16607009D01*
X30256552Y-16571271D01*
X30339814Y-16469814D01*
X30441271Y-16386552D01*
X30477009Y-16357222D01*
X30633534Y-16273557D01*
X30803373Y-16222037D01*
X30869557Y-16215519D01*
X30935740Y-16209000D01*
X31024260Y-16209000D01*
X31090443Y-16215519D01*
X31090443Y-16215519D01*
G37*
G36*
X33630443Y-16215519D02*
G01*
X33696627Y-16222037D01*
X33866466Y-16273557D01*
X34022991Y-16357222D01*
X34058729Y-16386552D01*
X34160186Y-16469814D01*
X34243448Y-16571271D01*
X34272778Y-16607009D01*
X34356443Y-16763534D01*
X34407963Y-16933373D01*
X34425359Y-17110000D01*
X34407963Y-17286627D01*
X34356443Y-17456466D01*
X34272778Y-17612991D01*
X34243448Y-17648729D01*
X34160186Y-17750186D01*
X34087480Y-17809853D01*
X34022991Y-17862778D01*
X33866466Y-17946443D01*
X33696627Y-17997963D01*
X33630443Y-18004481D01*
X33564260Y-18011000D01*
X33475740Y-18011000D01*
X33409557Y-18004481D01*
X33343373Y-17997963D01*
X33173534Y-17946443D01*
X33017009Y-17862778D01*
X32952520Y-17809853D01*
X32879814Y-17750186D01*
X32796552Y-17648729D01*
X32767222Y-17612991D01*
X32683557Y-17456466D01*
X32632037Y-17286627D01*
X32614641Y-17110000D01*
X32632037Y-16933373D01*
X32683557Y-16763534D01*
X32767222Y-16607009D01*
X32796552Y-16571271D01*
X32879814Y-16469814D01*
X32981271Y-16386552D01*
X33017009Y-16357222D01*
X33173534Y-16273557D01*
X33343373Y-16222037D01*
X33409557Y-16215519D01*
X33475740Y-16209000D01*
X33564260Y-16209000D01*
X33630443Y-16215519D01*
X33630443Y-16215519D01*
G37*
G36*
X36170443Y-16215519D02*
G01*
X36236627Y-16222037D01*
X36406466Y-16273557D01*
X36562991Y-16357222D01*
X36598729Y-16386552D01*
X36700186Y-16469814D01*
X36783448Y-16571271D01*
X36812778Y-16607009D01*
X36896443Y-16763534D01*
X36947963Y-16933373D01*
X36965359Y-17110000D01*
X36947963Y-17286627D01*
X36896443Y-17456466D01*
X36812778Y-17612991D01*
X36783448Y-17648729D01*
X36700186Y-17750186D01*
X36627480Y-17809853D01*
X36562991Y-17862778D01*
X36406466Y-17946443D01*
X36236627Y-17997963D01*
X36170443Y-18004481D01*
X36104260Y-18011000D01*
X36015740Y-18011000D01*
X35949557Y-18004481D01*
X35883373Y-17997963D01*
X35713534Y-17946443D01*
X35557009Y-17862778D01*
X35492520Y-17809853D01*
X35419814Y-17750186D01*
X35336552Y-17648729D01*
X35307222Y-17612991D01*
X35223557Y-17456466D01*
X35172037Y-17286627D01*
X35154641Y-17110000D01*
X35172037Y-16933373D01*
X35223557Y-16763534D01*
X35307222Y-16607009D01*
X35336552Y-16571271D01*
X35419814Y-16469814D01*
X35521271Y-16386552D01*
X35557009Y-16357222D01*
X35713534Y-16273557D01*
X35883373Y-16222037D01*
X35949557Y-16215519D01*
X36015740Y-16209000D01*
X36104260Y-16209000D01*
X36170443Y-16215519D01*
X36170443Y-16215519D01*
G37*
G36*
X38710443Y-16215519D02*
G01*
X38776627Y-16222037D01*
X38946466Y-16273557D01*
X39102991Y-16357222D01*
X39138729Y-16386552D01*
X39240186Y-16469814D01*
X39323448Y-16571271D01*
X39352778Y-16607009D01*
X39436443Y-16763534D01*
X39487963Y-16933373D01*
X39505359Y-17110000D01*
X39487963Y-17286627D01*
X39436443Y-17456466D01*
X39352778Y-17612991D01*
X39323448Y-17648729D01*
X39240186Y-17750186D01*
X39167480Y-17809853D01*
X39102991Y-17862778D01*
X38946466Y-17946443D01*
X38776627Y-17997963D01*
X38710443Y-18004481D01*
X38644260Y-18011000D01*
X38555740Y-18011000D01*
X38489557Y-18004481D01*
X38423373Y-17997963D01*
X38253534Y-17946443D01*
X38097009Y-17862778D01*
X38032520Y-17809853D01*
X37959814Y-17750186D01*
X37876552Y-17648729D01*
X37847222Y-17612991D01*
X37763557Y-17456466D01*
X37712037Y-17286627D01*
X37694641Y-17110000D01*
X37712037Y-16933373D01*
X37763557Y-16763534D01*
X37847222Y-16607009D01*
X37876552Y-16571271D01*
X37959814Y-16469814D01*
X38061271Y-16386552D01*
X38097009Y-16357222D01*
X38253534Y-16273557D01*
X38423373Y-16222037D01*
X38489557Y-16215519D01*
X38555740Y-16209000D01*
X38644260Y-16209000D01*
X38710443Y-16215519D01*
X38710443Y-16215519D01*
G37*
G36*
X41250443Y-16215519D02*
G01*
X41316627Y-16222037D01*
X41486466Y-16273557D01*
X41642991Y-16357222D01*
X41678729Y-16386552D01*
X41780186Y-16469814D01*
X41863448Y-16571271D01*
X41892778Y-16607009D01*
X41976443Y-16763534D01*
X42027963Y-16933373D01*
X42045359Y-17110000D01*
X42027963Y-17286627D01*
X41976443Y-17456466D01*
X41892778Y-17612991D01*
X41863448Y-17648729D01*
X41780186Y-17750186D01*
X41707480Y-17809853D01*
X41642991Y-17862778D01*
X41486466Y-17946443D01*
X41316627Y-17997963D01*
X41250443Y-18004481D01*
X41184260Y-18011000D01*
X41095740Y-18011000D01*
X41029557Y-18004481D01*
X40963373Y-17997963D01*
X40793534Y-17946443D01*
X40637009Y-17862778D01*
X40572520Y-17809853D01*
X40499814Y-17750186D01*
X40416552Y-17648729D01*
X40387222Y-17612991D01*
X40303557Y-17456466D01*
X40252037Y-17286627D01*
X40234641Y-17110000D01*
X40252037Y-16933373D01*
X40303557Y-16763534D01*
X40387222Y-16607009D01*
X40416552Y-16571271D01*
X40499814Y-16469814D01*
X40601271Y-16386552D01*
X40637009Y-16357222D01*
X40793534Y-16273557D01*
X40963373Y-16222037D01*
X41029557Y-16215519D01*
X41095740Y-16209000D01*
X41184260Y-16209000D01*
X41250443Y-16215519D01*
X41250443Y-16215519D01*
G37*
G36*
X43793512Y-16213927D02*
G01*
X43942812Y-16243624D01*
X44106784Y-16311544D01*
X44254354Y-16410147D01*
X44379853Y-16535646D01*
X44478456Y-16683216D01*
X44546376Y-16847188D01*
X44581000Y-17021259D01*
X44581000Y-17198741D01*
X44546376Y-17372812D01*
X44478456Y-17536784D01*
X44379853Y-17684354D01*
X44254354Y-17809853D01*
X44106784Y-17908456D01*
X43942812Y-17976376D01*
X43793512Y-18006073D01*
X43768742Y-18011000D01*
X43591258Y-18011000D01*
X43566488Y-18006073D01*
X43417188Y-17976376D01*
X43253216Y-17908456D01*
X43105646Y-17809853D01*
X42980147Y-17684354D01*
X42881544Y-17536784D01*
X42813624Y-17372812D01*
X42779000Y-17198741D01*
X42779000Y-17021259D01*
X42813624Y-16847188D01*
X42881544Y-16683216D01*
X42980147Y-16535646D01*
X43105646Y-16410147D01*
X43253216Y-16311544D01*
X43417188Y-16243624D01*
X43566488Y-16213927D01*
X43591258Y-16209000D01*
X43768742Y-16209000D01*
X43793512Y-16213927D01*
X43793512Y-16213927D01*
G37*
G36*
X48870443Y-16215519D02*
G01*
X48936627Y-16222037D01*
X49106466Y-16273557D01*
X49262991Y-16357222D01*
X49298729Y-16386552D01*
X49400186Y-16469814D01*
X49483448Y-16571271D01*
X49512778Y-16607009D01*
X49596443Y-16763534D01*
X49647963Y-16933373D01*
X49665359Y-17110000D01*
X49647963Y-17286627D01*
X49596443Y-17456466D01*
X49512778Y-17612991D01*
X49483448Y-17648729D01*
X49400186Y-17750186D01*
X49327480Y-17809853D01*
X49262991Y-17862778D01*
X49106466Y-17946443D01*
X48936627Y-17997963D01*
X48870443Y-18004481D01*
X48804260Y-18011000D01*
X48715740Y-18011000D01*
X48649557Y-18004481D01*
X48583373Y-17997963D01*
X48413534Y-17946443D01*
X48257009Y-17862778D01*
X48192520Y-17809853D01*
X48119814Y-17750186D01*
X48036552Y-17648729D01*
X48007222Y-17612991D01*
X47923557Y-17456466D01*
X47872037Y-17286627D01*
X47854641Y-17110000D01*
X47872037Y-16933373D01*
X47923557Y-16763534D01*
X48007222Y-16607009D01*
X48036552Y-16571271D01*
X48119814Y-16469814D01*
X48221271Y-16386552D01*
X48257009Y-16357222D01*
X48413534Y-16273557D01*
X48583373Y-16222037D01*
X48649557Y-16215519D01*
X48715740Y-16209000D01*
X48804260Y-16209000D01*
X48870443Y-16215519D01*
X48870443Y-16215519D01*
G37*
G36*
X51410443Y-16215519D02*
G01*
X51476627Y-16222037D01*
X51646466Y-16273557D01*
X51802991Y-16357222D01*
X51838729Y-16386552D01*
X51940186Y-16469814D01*
X52023448Y-16571271D01*
X52052778Y-16607009D01*
X52136443Y-16763534D01*
X52187963Y-16933373D01*
X52205359Y-17110000D01*
X52187963Y-17286627D01*
X52136443Y-17456466D01*
X52052778Y-17612991D01*
X52023448Y-17648729D01*
X51940186Y-17750186D01*
X51867480Y-17809853D01*
X51802991Y-17862778D01*
X51646466Y-17946443D01*
X51476627Y-17997963D01*
X51410443Y-18004481D01*
X51344260Y-18011000D01*
X51255740Y-18011000D01*
X51189557Y-18004481D01*
X51123373Y-17997963D01*
X50953534Y-17946443D01*
X50797009Y-17862778D01*
X50732520Y-17809853D01*
X50659814Y-17750186D01*
X50576552Y-17648729D01*
X50547222Y-17612991D01*
X50463557Y-17456466D01*
X50412037Y-17286627D01*
X50394641Y-17110000D01*
X50412037Y-16933373D01*
X50463557Y-16763534D01*
X50547222Y-16607009D01*
X50576552Y-16571271D01*
X50659814Y-16469814D01*
X50761271Y-16386552D01*
X50797009Y-16357222D01*
X50953534Y-16273557D01*
X51123373Y-16222037D01*
X51189557Y-16215519D01*
X51255740Y-16209000D01*
X51344260Y-16209000D01*
X51410443Y-16215519D01*
X51410443Y-16215519D01*
G37*
G36*
X53950443Y-16215519D02*
G01*
X54016627Y-16222037D01*
X54186466Y-16273557D01*
X54342991Y-16357222D01*
X54378729Y-16386552D01*
X54480186Y-16469814D01*
X54563448Y-16571271D01*
X54592778Y-16607009D01*
X54676443Y-16763534D01*
X54727963Y-16933373D01*
X54745359Y-17110000D01*
X54727963Y-17286627D01*
X54676443Y-17456466D01*
X54592778Y-17612991D01*
X54563448Y-17648729D01*
X54480186Y-17750186D01*
X54407480Y-17809853D01*
X54342991Y-17862778D01*
X54186466Y-17946443D01*
X54016627Y-17997963D01*
X53950443Y-18004481D01*
X53884260Y-18011000D01*
X53795740Y-18011000D01*
X53729557Y-18004481D01*
X53663373Y-17997963D01*
X53493534Y-17946443D01*
X53337009Y-17862778D01*
X53272520Y-17809853D01*
X53199814Y-17750186D01*
X53116552Y-17648729D01*
X53087222Y-17612991D01*
X53003557Y-17456466D01*
X52952037Y-17286627D01*
X52934641Y-17110000D01*
X52952037Y-16933373D01*
X53003557Y-16763534D01*
X53087222Y-16607009D01*
X53116552Y-16571271D01*
X53199814Y-16469814D01*
X53301271Y-16386552D01*
X53337009Y-16357222D01*
X53493534Y-16273557D01*
X53663373Y-16222037D01*
X53729557Y-16215519D01*
X53795740Y-16209000D01*
X53884260Y-16209000D01*
X53950443Y-16215519D01*
X53950443Y-16215519D01*
G37*
G36*
X56490443Y-16215519D02*
G01*
X56556627Y-16222037D01*
X56726466Y-16273557D01*
X56882991Y-16357222D01*
X56918729Y-16386552D01*
X57020186Y-16469814D01*
X57103448Y-16571271D01*
X57132778Y-16607009D01*
X57216443Y-16763534D01*
X57267963Y-16933373D01*
X57285359Y-17110000D01*
X57267963Y-17286627D01*
X57216443Y-17456466D01*
X57132778Y-17612991D01*
X57103448Y-17648729D01*
X57020186Y-17750186D01*
X56947480Y-17809853D01*
X56882991Y-17862778D01*
X56726466Y-17946443D01*
X56556627Y-17997963D01*
X56490443Y-18004481D01*
X56424260Y-18011000D01*
X56335740Y-18011000D01*
X56269557Y-18004481D01*
X56203373Y-17997963D01*
X56033534Y-17946443D01*
X55877009Y-17862778D01*
X55812520Y-17809853D01*
X55739814Y-17750186D01*
X55656552Y-17648729D01*
X55627222Y-17612991D01*
X55543557Y-17456466D01*
X55492037Y-17286627D01*
X55474641Y-17110000D01*
X55492037Y-16933373D01*
X55543557Y-16763534D01*
X55627222Y-16607009D01*
X55656552Y-16571271D01*
X55739814Y-16469814D01*
X55841271Y-16386552D01*
X55877009Y-16357222D01*
X56033534Y-16273557D01*
X56203373Y-16222037D01*
X56269557Y-16215519D01*
X56335740Y-16209000D01*
X56424260Y-16209000D01*
X56490443Y-16215519D01*
X56490443Y-16215519D01*
G37*
G36*
X59030443Y-16215519D02*
G01*
X59096627Y-16222037D01*
X59266466Y-16273557D01*
X59422991Y-16357222D01*
X59458729Y-16386552D01*
X59560186Y-16469814D01*
X59643448Y-16571271D01*
X59672778Y-16607009D01*
X59756443Y-16763534D01*
X59807963Y-16933373D01*
X59825359Y-17110000D01*
X59807963Y-17286627D01*
X59756443Y-17456466D01*
X59672778Y-17612991D01*
X59643448Y-17648729D01*
X59560186Y-17750186D01*
X59487480Y-17809853D01*
X59422991Y-17862778D01*
X59266466Y-17946443D01*
X59096627Y-17997963D01*
X59030443Y-18004481D01*
X58964260Y-18011000D01*
X58875740Y-18011000D01*
X58809557Y-18004481D01*
X58743373Y-17997963D01*
X58573534Y-17946443D01*
X58417009Y-17862778D01*
X58352520Y-17809853D01*
X58279814Y-17750186D01*
X58196552Y-17648729D01*
X58167222Y-17612991D01*
X58083557Y-17456466D01*
X58032037Y-17286627D01*
X58014641Y-17110000D01*
X58032037Y-16933373D01*
X58083557Y-16763534D01*
X58167222Y-16607009D01*
X58196552Y-16571271D01*
X58279814Y-16469814D01*
X58381271Y-16386552D01*
X58417009Y-16357222D01*
X58573534Y-16273557D01*
X58743373Y-16222037D01*
X58809557Y-16215519D01*
X58875740Y-16209000D01*
X58964260Y-16209000D01*
X59030443Y-16215519D01*
X59030443Y-16215519D01*
G37*
G36*
X61570443Y-16215519D02*
G01*
X61636627Y-16222037D01*
X61806466Y-16273557D01*
X61962991Y-16357222D01*
X61998729Y-16386552D01*
X62100186Y-16469814D01*
X62183448Y-16571271D01*
X62212778Y-16607009D01*
X62296443Y-16763534D01*
X62347963Y-16933373D01*
X62365359Y-17110000D01*
X62347963Y-17286627D01*
X62296443Y-17456466D01*
X62212778Y-17612991D01*
X62183448Y-17648729D01*
X62100186Y-17750186D01*
X62027480Y-17809853D01*
X61962991Y-17862778D01*
X61806466Y-17946443D01*
X61636627Y-17997963D01*
X61570443Y-18004481D01*
X61504260Y-18011000D01*
X61415740Y-18011000D01*
X61349557Y-18004481D01*
X61283373Y-17997963D01*
X61113534Y-17946443D01*
X60957009Y-17862778D01*
X60892520Y-17809853D01*
X60819814Y-17750186D01*
X60736552Y-17648729D01*
X60707222Y-17612991D01*
X60623557Y-17456466D01*
X60572037Y-17286627D01*
X60554641Y-17110000D01*
X60572037Y-16933373D01*
X60623557Y-16763534D01*
X60707222Y-16607009D01*
X60736552Y-16571271D01*
X60819814Y-16469814D01*
X60921271Y-16386552D01*
X60957009Y-16357222D01*
X61113534Y-16273557D01*
X61283373Y-16222037D01*
X61349557Y-16215519D01*
X61415740Y-16209000D01*
X61504260Y-16209000D01*
X61570443Y-16215519D01*
X61570443Y-16215519D01*
G37*
G36*
X64110443Y-16215519D02*
G01*
X64176627Y-16222037D01*
X64346466Y-16273557D01*
X64502991Y-16357222D01*
X64538729Y-16386552D01*
X64640186Y-16469814D01*
X64723448Y-16571271D01*
X64752778Y-16607009D01*
X64836443Y-16763534D01*
X64887963Y-16933373D01*
X64905359Y-17110000D01*
X64887963Y-17286627D01*
X64836443Y-17456466D01*
X64752778Y-17612991D01*
X64723448Y-17648729D01*
X64640186Y-17750186D01*
X64567480Y-17809853D01*
X64502991Y-17862778D01*
X64346466Y-17946443D01*
X64176627Y-17997963D01*
X64110443Y-18004481D01*
X64044260Y-18011000D01*
X63955740Y-18011000D01*
X63889557Y-18004481D01*
X63823373Y-17997963D01*
X63653534Y-17946443D01*
X63497009Y-17862778D01*
X63432520Y-17809853D01*
X63359814Y-17750186D01*
X63276552Y-17648729D01*
X63247222Y-17612991D01*
X63163557Y-17456466D01*
X63112037Y-17286627D01*
X63094641Y-17110000D01*
X63112037Y-16933373D01*
X63163557Y-16763534D01*
X63247222Y-16607009D01*
X63276552Y-16571271D01*
X63359814Y-16469814D01*
X63461271Y-16386552D01*
X63497009Y-16357222D01*
X63653534Y-16273557D01*
X63823373Y-16222037D01*
X63889557Y-16215519D01*
X63955740Y-16209000D01*
X64044260Y-16209000D01*
X64110443Y-16215519D01*
X64110443Y-16215519D01*
G37*
G36*
X66653512Y-16213927D02*
G01*
X66802812Y-16243624D01*
X66966784Y-16311544D01*
X67114354Y-16410147D01*
X67239853Y-16535646D01*
X67338456Y-16683216D01*
X67406376Y-16847188D01*
X67441000Y-17021259D01*
X67441000Y-17198741D01*
X67406376Y-17372812D01*
X67338456Y-17536784D01*
X67239853Y-17684354D01*
X67114354Y-17809853D01*
X66966784Y-17908456D01*
X66802812Y-17976376D01*
X66653512Y-18006073D01*
X66628742Y-18011000D01*
X66451258Y-18011000D01*
X66426488Y-18006073D01*
X66277188Y-17976376D01*
X66113216Y-17908456D01*
X65965646Y-17809853D01*
X65840147Y-17684354D01*
X65741544Y-17536784D01*
X65673624Y-17372812D01*
X65639000Y-17198741D01*
X65639000Y-17021259D01*
X65673624Y-16847188D01*
X65741544Y-16683216D01*
X65840147Y-16535646D01*
X65965646Y-16410147D01*
X66113216Y-16311544D01*
X66277188Y-16243624D01*
X66426488Y-16213927D01*
X66451258Y-16209000D01*
X66628742Y-16209000D01*
X66653512Y-16213927D01*
X66653512Y-16213927D01*
G37*
M02*
