%TF.GenerationSoftware,KiCad,Pcbnew,(5.1.2-1)-1*%
%TF.CreationDate,2020-03-19T17:13:43+05:30*%
%TF.ProjectId,Uno rev1.1,556e6f20-7265-4763-912e-312e6b696361,rev?*%
%TF.SameCoordinates,Original*%
%TF.FileFunction,Paste,Top*%
%TF.FilePolarity,Positive*%
%FSLAX46Y46*%
G04 Gerber Fmt 4.6, Leading zero omitted, Abs format (unit mm)*
G04 Created by KiCad (PCBNEW (5.1.2-1)-1) date 2020-03-19 17:13:43*
%MOMM*%
%LPD*%
G04 APERTURE LIST*
%ADD10C,0.203200*%
%ADD11R,1.500000X2.000000*%
%ADD12R,3.800000X2.000000*%
%ADD13R,2.100000X1.800000*%
%ADD14R,1.524000X0.299974*%
%ADD15C,0.100000*%
%ADD16C,1.150000*%
%ADD17R,1.000000X1.700000*%
%ADD18C,0.600000*%
%ADD19C,0.550000*%
G04 APERTURE END LIST*
D10*
X15419306Y-46740589D02*
X15846938Y-46312957D01*
X15558286Y-47114766D02*
X15071856Y-45805145D01*
X16156970Y-46516082D01*
X16253187Y-45564603D02*
X16627365Y-46045688D01*
X15542250Y-45334751D02*
X16253187Y-45564603D01*
X16140934Y-44736067D01*
X16814453Y-44917810D02*
X17113795Y-44618469D01*
X17653680Y-45019373D02*
X17226048Y-45447004D01*
X16440276Y-44436725D01*
X16867907Y-44009094D01*
X17626953Y-44105311D02*
X17926294Y-43805969D01*
X18466179Y-44206873D02*
X18038548Y-44634505D01*
X17252775Y-43624226D01*
X17680406Y-43196595D01*
X18851047Y-43822005D02*
X18065275Y-42811727D01*
X18279090Y-42597911D01*
X18444797Y-42517730D01*
X18605159Y-42528421D01*
X18722758Y-42581875D01*
X18915192Y-42731546D01*
X19027445Y-42875871D01*
X19134353Y-43111068D01*
X19166425Y-43250049D01*
X19155734Y-43431792D01*
X19064863Y-43608190D01*
X18851047Y-43822005D01*
X18963300Y-41913701D02*
X19599402Y-42731546D01*
X19717000Y-42785000D01*
X19797181Y-42790345D01*
X19920125Y-42752927D01*
X20091178Y-42581875D01*
X20139286Y-42448240D01*
X20144632Y-42357368D01*
X20112559Y-42218388D01*
X19476458Y-41400543D01*
X20689861Y-41983191D02*
X19904089Y-40972912D01*
X21117493Y-41555560D02*
X20331720Y-40545281D01*
X21630650Y-41042402D01*
X20844878Y-40032123D01*
X21443561Y-39433440D02*
X21614614Y-39262387D01*
X21737558Y-39224969D01*
X21897920Y-39235660D01*
X22090354Y-39385331D01*
X22352278Y-39722091D01*
X22459186Y-39957288D01*
X22448495Y-40139031D01*
X22400386Y-40272666D01*
X22229334Y-40443719D01*
X22106390Y-40481136D01*
X21946028Y-40470445D01*
X21753594Y-40320775D01*
X21491670Y-39984015D01*
X21384762Y-39748818D01*
X21395453Y-39567074D01*
X21443561Y-39433440D01*
X17081082Y-47718154D02*
X17000901Y-47712809D01*
X16877957Y-47750226D01*
X16792431Y-47835753D01*
X16744322Y-47969387D01*
X16738977Y-48060259D01*
X16771049Y-48199239D01*
X16845885Y-48295456D01*
X16963483Y-48348910D01*
X17043664Y-48354256D01*
X17166608Y-48316838D01*
X17252134Y-48231312D01*
X17300243Y-48097677D01*
X17305588Y-48006805D01*
X17006246Y-47621937D02*
X17305588Y-48006805D01*
X17385769Y-48012151D01*
X17428532Y-47969387D01*
X17476641Y-47835753D01*
X17444568Y-47696773D01*
X17257480Y-47456230D01*
X17059700Y-47397431D01*
X16856575Y-47429503D01*
X16648105Y-47552447D01*
X16514470Y-47771608D01*
X16461016Y-47996114D01*
X16487743Y-48225966D01*
X16594651Y-48461163D01*
X16787085Y-48610834D01*
X16984865Y-48669634D01*
X17187990Y-48637561D01*
X17396460Y-48514617D01*
X17530095Y-48295456D01*
X17583549Y-48070950D01*
X17786673Y-47354668D02*
X18214305Y-46927036D01*
X17925654Y-47728845D02*
X17439223Y-46419224D01*
X18524337Y-47130161D01*
X18620554Y-46178682D02*
X18994732Y-46659767D01*
X17909617Y-45948830D02*
X18620554Y-46178682D01*
X18508301Y-45350146D01*
X19181820Y-45531889D02*
X19481162Y-45232547D01*
X20021047Y-45633452D02*
X19593415Y-46061083D01*
X18807643Y-45050804D01*
X19235274Y-44623173D01*
X19994320Y-44719390D02*
X20293662Y-44420048D01*
X20833546Y-44820952D02*
X20405915Y-45248584D01*
X19620142Y-44238305D01*
X20047774Y-43810674D01*
X21218414Y-44436084D02*
X20432642Y-43425805D01*
X20646457Y-43211990D01*
X20812164Y-43131809D01*
X20972526Y-43142500D01*
X21090125Y-43195954D01*
X21282559Y-43345625D01*
X21394812Y-43489950D01*
X21501720Y-43725147D01*
X21533792Y-43864127D01*
X21523101Y-44045871D01*
X21432230Y-44222269D01*
X21218414Y-44436084D01*
X22116440Y-43538059D02*
X21330667Y-42527780D01*
X21630009Y-42228438D02*
X22143167Y-41715280D01*
X22672360Y-42982138D02*
X21886588Y-41971859D01*
X23025156Y-41774080D02*
X23399333Y-42255165D01*
X22314219Y-41544228D02*
X23025156Y-41774080D01*
X22912903Y-40945544D01*
X23730748Y-41410593D02*
X24158379Y-40982962D01*
X23869728Y-41784771D02*
X23383297Y-40475150D01*
X24468412Y-41186087D01*
X20250257Y-48385687D02*
X19576738Y-48203944D01*
X19737100Y-48898844D02*
X18951328Y-47888566D01*
X19293433Y-47546461D01*
X19416377Y-47509043D01*
X19496557Y-47514388D01*
X19614156Y-47567842D01*
X19726409Y-47712168D01*
X19758481Y-47851148D01*
X19753136Y-47942020D01*
X19705028Y-48075654D01*
X19362923Y-48417759D01*
X20939813Y-47610605D02*
X20891704Y-47744240D01*
X20720652Y-47915293D01*
X20597708Y-47952710D01*
X20480109Y-47899256D01*
X20180767Y-47514388D01*
X20148695Y-47375408D01*
X20196804Y-47241773D01*
X20367856Y-47070721D01*
X20490800Y-47033303D01*
X20608399Y-47086757D01*
X20683234Y-47182974D01*
X20330438Y-47706822D01*
X20795487Y-46643090D02*
X21533151Y-47102793D01*
X21223119Y-46215458D01*
X22019582Y-44991364D02*
X22024927Y-44900492D01*
X22073036Y-44766858D01*
X22286851Y-44553042D01*
X22409795Y-44515624D01*
X22489976Y-44520970D01*
X22607575Y-44574423D01*
X22682410Y-44670641D01*
X22751900Y-44857729D01*
X22687756Y-45948189D01*
X23243676Y-45392268D01*
X23553709Y-44911183D02*
X23633890Y-44916528D01*
X23628544Y-45007400D01*
X23548363Y-45002055D01*
X23553709Y-44911183D01*
X23628544Y-45007400D01*
X23441456Y-43398438D02*
X23526982Y-43312911D01*
X23649926Y-43275494D01*
X23730107Y-43280839D01*
X23847705Y-43334293D01*
X24040139Y-43483964D01*
X24227228Y-43724506D01*
X24334136Y-43959704D01*
X24366208Y-44098684D01*
X24360863Y-44189555D01*
X24312754Y-44323190D01*
X24227228Y-44408716D01*
X24104284Y-44446134D01*
X24024103Y-44440789D01*
X23906505Y-44387335D01*
X23714071Y-44237664D01*
X23526982Y-43997121D01*
X23420074Y-43761924D01*
X23388002Y-43622944D01*
X23393347Y-43532072D01*
X23441456Y-43398438D01*
D11*
%TO.C,U1*%
X30300000Y-34350000D03*
X25700000Y-34350000D03*
X28000000Y-34350000D03*
D12*
X28000000Y-40650000D03*
%TD*%
%TO.C,U2*%
X38600000Y-40580000D03*
D11*
X38600000Y-34280000D03*
X36300000Y-34280000D03*
X40900000Y-34280000D03*
%TD*%
D13*
%TO.C,Y2*%
X43500000Y-28290000D03*
X46400000Y-28290000D03*
X46400000Y-25990000D03*
X43500000Y-25990000D03*
%TD*%
%TO.C,Y1*%
X68950000Y-40900000D03*
X66050000Y-40900000D03*
X66050000Y-38600000D03*
X68950000Y-38600000D03*
%TD*%
D14*
%TO.C,P1*%
X19374000Y-28222500D03*
X19374000Y-28540000D03*
X19374000Y-29111500D03*
X19374000Y-29365500D03*
X19374000Y-29873500D03*
X19374000Y-30381500D03*
X19374000Y-30889500D03*
X19374000Y-31397500D03*
X19374000Y-31905500D03*
X19374000Y-32413500D03*
X19374000Y-32921500D03*
X19374000Y-33429500D03*
X19374000Y-33937500D03*
X19374000Y-34191500D03*
X19374000Y-34699500D03*
X19374000Y-34953500D03*
%TD*%
D15*
%TO.C,R1*%
G36*
X47964505Y-38479204D02*
G01*
X47988773Y-38482804D01*
X48012572Y-38488765D01*
X48035671Y-38497030D01*
X48057850Y-38507520D01*
X48078893Y-38520132D01*
X48098599Y-38534747D01*
X48116777Y-38551223D01*
X48133253Y-38569401D01*
X48147868Y-38589107D01*
X48160480Y-38610150D01*
X48170970Y-38632329D01*
X48179235Y-38655428D01*
X48185196Y-38679227D01*
X48188796Y-38703495D01*
X48190000Y-38727999D01*
X48190000Y-39378001D01*
X48188796Y-39402505D01*
X48185196Y-39426773D01*
X48179235Y-39450572D01*
X48170970Y-39473671D01*
X48160480Y-39495850D01*
X48147868Y-39516893D01*
X48133253Y-39536599D01*
X48116777Y-39554777D01*
X48098599Y-39571253D01*
X48078893Y-39585868D01*
X48057850Y-39598480D01*
X48035671Y-39608970D01*
X48012572Y-39617235D01*
X47988773Y-39623196D01*
X47964505Y-39626796D01*
X47940001Y-39628000D01*
X47039999Y-39628000D01*
X47015495Y-39626796D01*
X46991227Y-39623196D01*
X46967428Y-39617235D01*
X46944329Y-39608970D01*
X46922150Y-39598480D01*
X46901107Y-39585868D01*
X46881401Y-39571253D01*
X46863223Y-39554777D01*
X46846747Y-39536599D01*
X46832132Y-39516893D01*
X46819520Y-39495850D01*
X46809030Y-39473671D01*
X46800765Y-39450572D01*
X46794804Y-39426773D01*
X46791204Y-39402505D01*
X46790000Y-39378001D01*
X46790000Y-38727999D01*
X46791204Y-38703495D01*
X46794804Y-38679227D01*
X46800765Y-38655428D01*
X46809030Y-38632329D01*
X46819520Y-38610150D01*
X46832132Y-38589107D01*
X46846747Y-38569401D01*
X46863223Y-38551223D01*
X46881401Y-38534747D01*
X46901107Y-38520132D01*
X46922150Y-38507520D01*
X46944329Y-38497030D01*
X46967428Y-38488765D01*
X46991227Y-38482804D01*
X47015495Y-38479204D01*
X47039999Y-38478000D01*
X47940001Y-38478000D01*
X47964505Y-38479204D01*
X47964505Y-38479204D01*
G37*
D16*
X47490000Y-39053000D03*
D15*
G36*
X47964505Y-36429204D02*
G01*
X47988773Y-36432804D01*
X48012572Y-36438765D01*
X48035671Y-36447030D01*
X48057850Y-36457520D01*
X48078893Y-36470132D01*
X48098599Y-36484747D01*
X48116777Y-36501223D01*
X48133253Y-36519401D01*
X48147868Y-36539107D01*
X48160480Y-36560150D01*
X48170970Y-36582329D01*
X48179235Y-36605428D01*
X48185196Y-36629227D01*
X48188796Y-36653495D01*
X48190000Y-36677999D01*
X48190000Y-37328001D01*
X48188796Y-37352505D01*
X48185196Y-37376773D01*
X48179235Y-37400572D01*
X48170970Y-37423671D01*
X48160480Y-37445850D01*
X48147868Y-37466893D01*
X48133253Y-37486599D01*
X48116777Y-37504777D01*
X48098599Y-37521253D01*
X48078893Y-37535868D01*
X48057850Y-37548480D01*
X48035671Y-37558970D01*
X48012572Y-37567235D01*
X47988773Y-37573196D01*
X47964505Y-37576796D01*
X47940001Y-37578000D01*
X47039999Y-37578000D01*
X47015495Y-37576796D01*
X46991227Y-37573196D01*
X46967428Y-37567235D01*
X46944329Y-37558970D01*
X46922150Y-37548480D01*
X46901107Y-37535868D01*
X46881401Y-37521253D01*
X46863223Y-37504777D01*
X46846747Y-37486599D01*
X46832132Y-37466893D01*
X46819520Y-37445850D01*
X46809030Y-37423671D01*
X46800765Y-37400572D01*
X46794804Y-37376773D01*
X46791204Y-37352505D01*
X46790000Y-37328001D01*
X46790000Y-36677999D01*
X46791204Y-36653495D01*
X46794804Y-36629227D01*
X46800765Y-36605428D01*
X46809030Y-36582329D01*
X46819520Y-36560150D01*
X46832132Y-36539107D01*
X46846747Y-36519401D01*
X46863223Y-36501223D01*
X46881401Y-36484747D01*
X46901107Y-36470132D01*
X46922150Y-36457520D01*
X46944329Y-36447030D01*
X46967428Y-36438765D01*
X46991227Y-36432804D01*
X47015495Y-36429204D01*
X47039999Y-36428000D01*
X47940001Y-36428000D01*
X47964505Y-36429204D01*
X47964505Y-36429204D01*
G37*
D16*
X47490000Y-37003000D03*
%TD*%
D17*
%TO.C,RST*%
X13840000Y-20260000D03*
X13840000Y-13960000D03*
X17640000Y-20260000D03*
X17640000Y-13960000D03*
%TD*%
D15*
%TO.C,U3*%
G36*
X31398703Y-28765722D02*
G01*
X31413264Y-28767882D01*
X31427543Y-28771459D01*
X31441403Y-28776418D01*
X31454710Y-28782712D01*
X31467336Y-28790280D01*
X31479159Y-28799048D01*
X31490066Y-28808934D01*
X31499952Y-28819841D01*
X31508720Y-28831664D01*
X31516288Y-28844290D01*
X31522582Y-28857597D01*
X31527541Y-28871457D01*
X31531118Y-28885736D01*
X31533278Y-28900297D01*
X31534000Y-28915000D01*
X31534000Y-30565000D01*
X31533278Y-30579703D01*
X31531118Y-30594264D01*
X31527541Y-30608543D01*
X31522582Y-30622403D01*
X31516288Y-30635710D01*
X31508720Y-30648336D01*
X31499952Y-30660159D01*
X31490066Y-30671066D01*
X31479159Y-30680952D01*
X31467336Y-30689720D01*
X31454710Y-30697288D01*
X31441403Y-30703582D01*
X31427543Y-30708541D01*
X31413264Y-30712118D01*
X31398703Y-30714278D01*
X31384000Y-30715000D01*
X31084000Y-30715000D01*
X31069297Y-30714278D01*
X31054736Y-30712118D01*
X31040457Y-30708541D01*
X31026597Y-30703582D01*
X31013290Y-30697288D01*
X31000664Y-30689720D01*
X30988841Y-30680952D01*
X30977934Y-30671066D01*
X30968048Y-30660159D01*
X30959280Y-30648336D01*
X30951712Y-30635710D01*
X30945418Y-30622403D01*
X30940459Y-30608543D01*
X30936882Y-30594264D01*
X30934722Y-30579703D01*
X30934000Y-30565000D01*
X30934000Y-28915000D01*
X30934722Y-28900297D01*
X30936882Y-28885736D01*
X30940459Y-28871457D01*
X30945418Y-28857597D01*
X30951712Y-28844290D01*
X30959280Y-28831664D01*
X30968048Y-28819841D01*
X30977934Y-28808934D01*
X30988841Y-28799048D01*
X31000664Y-28790280D01*
X31013290Y-28782712D01*
X31026597Y-28776418D01*
X31040457Y-28771459D01*
X31054736Y-28767882D01*
X31069297Y-28765722D01*
X31084000Y-28765000D01*
X31384000Y-28765000D01*
X31398703Y-28765722D01*
X31398703Y-28765722D01*
G37*
D18*
X31234000Y-29740000D03*
D15*
G36*
X32668703Y-28765722D02*
G01*
X32683264Y-28767882D01*
X32697543Y-28771459D01*
X32711403Y-28776418D01*
X32724710Y-28782712D01*
X32737336Y-28790280D01*
X32749159Y-28799048D01*
X32760066Y-28808934D01*
X32769952Y-28819841D01*
X32778720Y-28831664D01*
X32786288Y-28844290D01*
X32792582Y-28857597D01*
X32797541Y-28871457D01*
X32801118Y-28885736D01*
X32803278Y-28900297D01*
X32804000Y-28915000D01*
X32804000Y-30565000D01*
X32803278Y-30579703D01*
X32801118Y-30594264D01*
X32797541Y-30608543D01*
X32792582Y-30622403D01*
X32786288Y-30635710D01*
X32778720Y-30648336D01*
X32769952Y-30660159D01*
X32760066Y-30671066D01*
X32749159Y-30680952D01*
X32737336Y-30689720D01*
X32724710Y-30697288D01*
X32711403Y-30703582D01*
X32697543Y-30708541D01*
X32683264Y-30712118D01*
X32668703Y-30714278D01*
X32654000Y-30715000D01*
X32354000Y-30715000D01*
X32339297Y-30714278D01*
X32324736Y-30712118D01*
X32310457Y-30708541D01*
X32296597Y-30703582D01*
X32283290Y-30697288D01*
X32270664Y-30689720D01*
X32258841Y-30680952D01*
X32247934Y-30671066D01*
X32238048Y-30660159D01*
X32229280Y-30648336D01*
X32221712Y-30635710D01*
X32215418Y-30622403D01*
X32210459Y-30608543D01*
X32206882Y-30594264D01*
X32204722Y-30579703D01*
X32204000Y-30565000D01*
X32204000Y-28915000D01*
X32204722Y-28900297D01*
X32206882Y-28885736D01*
X32210459Y-28871457D01*
X32215418Y-28857597D01*
X32221712Y-28844290D01*
X32229280Y-28831664D01*
X32238048Y-28819841D01*
X32247934Y-28808934D01*
X32258841Y-28799048D01*
X32270664Y-28790280D01*
X32283290Y-28782712D01*
X32296597Y-28776418D01*
X32310457Y-28771459D01*
X32324736Y-28767882D01*
X32339297Y-28765722D01*
X32354000Y-28765000D01*
X32654000Y-28765000D01*
X32668703Y-28765722D01*
X32668703Y-28765722D01*
G37*
D18*
X32504000Y-29740000D03*
D15*
G36*
X33938703Y-28765722D02*
G01*
X33953264Y-28767882D01*
X33967543Y-28771459D01*
X33981403Y-28776418D01*
X33994710Y-28782712D01*
X34007336Y-28790280D01*
X34019159Y-28799048D01*
X34030066Y-28808934D01*
X34039952Y-28819841D01*
X34048720Y-28831664D01*
X34056288Y-28844290D01*
X34062582Y-28857597D01*
X34067541Y-28871457D01*
X34071118Y-28885736D01*
X34073278Y-28900297D01*
X34074000Y-28915000D01*
X34074000Y-30565000D01*
X34073278Y-30579703D01*
X34071118Y-30594264D01*
X34067541Y-30608543D01*
X34062582Y-30622403D01*
X34056288Y-30635710D01*
X34048720Y-30648336D01*
X34039952Y-30660159D01*
X34030066Y-30671066D01*
X34019159Y-30680952D01*
X34007336Y-30689720D01*
X33994710Y-30697288D01*
X33981403Y-30703582D01*
X33967543Y-30708541D01*
X33953264Y-30712118D01*
X33938703Y-30714278D01*
X33924000Y-30715000D01*
X33624000Y-30715000D01*
X33609297Y-30714278D01*
X33594736Y-30712118D01*
X33580457Y-30708541D01*
X33566597Y-30703582D01*
X33553290Y-30697288D01*
X33540664Y-30689720D01*
X33528841Y-30680952D01*
X33517934Y-30671066D01*
X33508048Y-30660159D01*
X33499280Y-30648336D01*
X33491712Y-30635710D01*
X33485418Y-30622403D01*
X33480459Y-30608543D01*
X33476882Y-30594264D01*
X33474722Y-30579703D01*
X33474000Y-30565000D01*
X33474000Y-28915000D01*
X33474722Y-28900297D01*
X33476882Y-28885736D01*
X33480459Y-28871457D01*
X33485418Y-28857597D01*
X33491712Y-28844290D01*
X33499280Y-28831664D01*
X33508048Y-28819841D01*
X33517934Y-28808934D01*
X33528841Y-28799048D01*
X33540664Y-28790280D01*
X33553290Y-28782712D01*
X33566597Y-28776418D01*
X33580457Y-28771459D01*
X33594736Y-28767882D01*
X33609297Y-28765722D01*
X33624000Y-28765000D01*
X33924000Y-28765000D01*
X33938703Y-28765722D01*
X33938703Y-28765722D01*
G37*
D18*
X33774000Y-29740000D03*
D15*
G36*
X35208703Y-28765722D02*
G01*
X35223264Y-28767882D01*
X35237543Y-28771459D01*
X35251403Y-28776418D01*
X35264710Y-28782712D01*
X35277336Y-28790280D01*
X35289159Y-28799048D01*
X35300066Y-28808934D01*
X35309952Y-28819841D01*
X35318720Y-28831664D01*
X35326288Y-28844290D01*
X35332582Y-28857597D01*
X35337541Y-28871457D01*
X35341118Y-28885736D01*
X35343278Y-28900297D01*
X35344000Y-28915000D01*
X35344000Y-30565000D01*
X35343278Y-30579703D01*
X35341118Y-30594264D01*
X35337541Y-30608543D01*
X35332582Y-30622403D01*
X35326288Y-30635710D01*
X35318720Y-30648336D01*
X35309952Y-30660159D01*
X35300066Y-30671066D01*
X35289159Y-30680952D01*
X35277336Y-30689720D01*
X35264710Y-30697288D01*
X35251403Y-30703582D01*
X35237543Y-30708541D01*
X35223264Y-30712118D01*
X35208703Y-30714278D01*
X35194000Y-30715000D01*
X34894000Y-30715000D01*
X34879297Y-30714278D01*
X34864736Y-30712118D01*
X34850457Y-30708541D01*
X34836597Y-30703582D01*
X34823290Y-30697288D01*
X34810664Y-30689720D01*
X34798841Y-30680952D01*
X34787934Y-30671066D01*
X34778048Y-30660159D01*
X34769280Y-30648336D01*
X34761712Y-30635710D01*
X34755418Y-30622403D01*
X34750459Y-30608543D01*
X34746882Y-30594264D01*
X34744722Y-30579703D01*
X34744000Y-30565000D01*
X34744000Y-28915000D01*
X34744722Y-28900297D01*
X34746882Y-28885736D01*
X34750459Y-28871457D01*
X34755418Y-28857597D01*
X34761712Y-28844290D01*
X34769280Y-28831664D01*
X34778048Y-28819841D01*
X34787934Y-28808934D01*
X34798841Y-28799048D01*
X34810664Y-28790280D01*
X34823290Y-28782712D01*
X34836597Y-28776418D01*
X34850457Y-28771459D01*
X34864736Y-28767882D01*
X34879297Y-28765722D01*
X34894000Y-28765000D01*
X35194000Y-28765000D01*
X35208703Y-28765722D01*
X35208703Y-28765722D01*
G37*
D18*
X35044000Y-29740000D03*
D15*
G36*
X36478703Y-28765722D02*
G01*
X36493264Y-28767882D01*
X36507543Y-28771459D01*
X36521403Y-28776418D01*
X36534710Y-28782712D01*
X36547336Y-28790280D01*
X36559159Y-28799048D01*
X36570066Y-28808934D01*
X36579952Y-28819841D01*
X36588720Y-28831664D01*
X36596288Y-28844290D01*
X36602582Y-28857597D01*
X36607541Y-28871457D01*
X36611118Y-28885736D01*
X36613278Y-28900297D01*
X36614000Y-28915000D01*
X36614000Y-30565000D01*
X36613278Y-30579703D01*
X36611118Y-30594264D01*
X36607541Y-30608543D01*
X36602582Y-30622403D01*
X36596288Y-30635710D01*
X36588720Y-30648336D01*
X36579952Y-30660159D01*
X36570066Y-30671066D01*
X36559159Y-30680952D01*
X36547336Y-30689720D01*
X36534710Y-30697288D01*
X36521403Y-30703582D01*
X36507543Y-30708541D01*
X36493264Y-30712118D01*
X36478703Y-30714278D01*
X36464000Y-30715000D01*
X36164000Y-30715000D01*
X36149297Y-30714278D01*
X36134736Y-30712118D01*
X36120457Y-30708541D01*
X36106597Y-30703582D01*
X36093290Y-30697288D01*
X36080664Y-30689720D01*
X36068841Y-30680952D01*
X36057934Y-30671066D01*
X36048048Y-30660159D01*
X36039280Y-30648336D01*
X36031712Y-30635710D01*
X36025418Y-30622403D01*
X36020459Y-30608543D01*
X36016882Y-30594264D01*
X36014722Y-30579703D01*
X36014000Y-30565000D01*
X36014000Y-28915000D01*
X36014722Y-28900297D01*
X36016882Y-28885736D01*
X36020459Y-28871457D01*
X36025418Y-28857597D01*
X36031712Y-28844290D01*
X36039280Y-28831664D01*
X36048048Y-28819841D01*
X36057934Y-28808934D01*
X36068841Y-28799048D01*
X36080664Y-28790280D01*
X36093290Y-28782712D01*
X36106597Y-28776418D01*
X36120457Y-28771459D01*
X36134736Y-28767882D01*
X36149297Y-28765722D01*
X36164000Y-28765000D01*
X36464000Y-28765000D01*
X36478703Y-28765722D01*
X36478703Y-28765722D01*
G37*
D18*
X36314000Y-29740000D03*
D15*
G36*
X37748703Y-28765722D02*
G01*
X37763264Y-28767882D01*
X37777543Y-28771459D01*
X37791403Y-28776418D01*
X37804710Y-28782712D01*
X37817336Y-28790280D01*
X37829159Y-28799048D01*
X37840066Y-28808934D01*
X37849952Y-28819841D01*
X37858720Y-28831664D01*
X37866288Y-28844290D01*
X37872582Y-28857597D01*
X37877541Y-28871457D01*
X37881118Y-28885736D01*
X37883278Y-28900297D01*
X37884000Y-28915000D01*
X37884000Y-30565000D01*
X37883278Y-30579703D01*
X37881118Y-30594264D01*
X37877541Y-30608543D01*
X37872582Y-30622403D01*
X37866288Y-30635710D01*
X37858720Y-30648336D01*
X37849952Y-30660159D01*
X37840066Y-30671066D01*
X37829159Y-30680952D01*
X37817336Y-30689720D01*
X37804710Y-30697288D01*
X37791403Y-30703582D01*
X37777543Y-30708541D01*
X37763264Y-30712118D01*
X37748703Y-30714278D01*
X37734000Y-30715000D01*
X37434000Y-30715000D01*
X37419297Y-30714278D01*
X37404736Y-30712118D01*
X37390457Y-30708541D01*
X37376597Y-30703582D01*
X37363290Y-30697288D01*
X37350664Y-30689720D01*
X37338841Y-30680952D01*
X37327934Y-30671066D01*
X37318048Y-30660159D01*
X37309280Y-30648336D01*
X37301712Y-30635710D01*
X37295418Y-30622403D01*
X37290459Y-30608543D01*
X37286882Y-30594264D01*
X37284722Y-30579703D01*
X37284000Y-30565000D01*
X37284000Y-28915000D01*
X37284722Y-28900297D01*
X37286882Y-28885736D01*
X37290459Y-28871457D01*
X37295418Y-28857597D01*
X37301712Y-28844290D01*
X37309280Y-28831664D01*
X37318048Y-28819841D01*
X37327934Y-28808934D01*
X37338841Y-28799048D01*
X37350664Y-28790280D01*
X37363290Y-28782712D01*
X37376597Y-28776418D01*
X37390457Y-28771459D01*
X37404736Y-28767882D01*
X37419297Y-28765722D01*
X37434000Y-28765000D01*
X37734000Y-28765000D01*
X37748703Y-28765722D01*
X37748703Y-28765722D01*
G37*
D18*
X37584000Y-29740000D03*
D15*
G36*
X39018703Y-28765722D02*
G01*
X39033264Y-28767882D01*
X39047543Y-28771459D01*
X39061403Y-28776418D01*
X39074710Y-28782712D01*
X39087336Y-28790280D01*
X39099159Y-28799048D01*
X39110066Y-28808934D01*
X39119952Y-28819841D01*
X39128720Y-28831664D01*
X39136288Y-28844290D01*
X39142582Y-28857597D01*
X39147541Y-28871457D01*
X39151118Y-28885736D01*
X39153278Y-28900297D01*
X39154000Y-28915000D01*
X39154000Y-30565000D01*
X39153278Y-30579703D01*
X39151118Y-30594264D01*
X39147541Y-30608543D01*
X39142582Y-30622403D01*
X39136288Y-30635710D01*
X39128720Y-30648336D01*
X39119952Y-30660159D01*
X39110066Y-30671066D01*
X39099159Y-30680952D01*
X39087336Y-30689720D01*
X39074710Y-30697288D01*
X39061403Y-30703582D01*
X39047543Y-30708541D01*
X39033264Y-30712118D01*
X39018703Y-30714278D01*
X39004000Y-30715000D01*
X38704000Y-30715000D01*
X38689297Y-30714278D01*
X38674736Y-30712118D01*
X38660457Y-30708541D01*
X38646597Y-30703582D01*
X38633290Y-30697288D01*
X38620664Y-30689720D01*
X38608841Y-30680952D01*
X38597934Y-30671066D01*
X38588048Y-30660159D01*
X38579280Y-30648336D01*
X38571712Y-30635710D01*
X38565418Y-30622403D01*
X38560459Y-30608543D01*
X38556882Y-30594264D01*
X38554722Y-30579703D01*
X38554000Y-30565000D01*
X38554000Y-28915000D01*
X38554722Y-28900297D01*
X38556882Y-28885736D01*
X38560459Y-28871457D01*
X38565418Y-28857597D01*
X38571712Y-28844290D01*
X38579280Y-28831664D01*
X38588048Y-28819841D01*
X38597934Y-28808934D01*
X38608841Y-28799048D01*
X38620664Y-28790280D01*
X38633290Y-28782712D01*
X38646597Y-28776418D01*
X38660457Y-28771459D01*
X38674736Y-28767882D01*
X38689297Y-28765722D01*
X38704000Y-28765000D01*
X39004000Y-28765000D01*
X39018703Y-28765722D01*
X39018703Y-28765722D01*
G37*
D18*
X38854000Y-29740000D03*
D15*
G36*
X40288703Y-28765722D02*
G01*
X40303264Y-28767882D01*
X40317543Y-28771459D01*
X40331403Y-28776418D01*
X40344710Y-28782712D01*
X40357336Y-28790280D01*
X40369159Y-28799048D01*
X40380066Y-28808934D01*
X40389952Y-28819841D01*
X40398720Y-28831664D01*
X40406288Y-28844290D01*
X40412582Y-28857597D01*
X40417541Y-28871457D01*
X40421118Y-28885736D01*
X40423278Y-28900297D01*
X40424000Y-28915000D01*
X40424000Y-30565000D01*
X40423278Y-30579703D01*
X40421118Y-30594264D01*
X40417541Y-30608543D01*
X40412582Y-30622403D01*
X40406288Y-30635710D01*
X40398720Y-30648336D01*
X40389952Y-30660159D01*
X40380066Y-30671066D01*
X40369159Y-30680952D01*
X40357336Y-30689720D01*
X40344710Y-30697288D01*
X40331403Y-30703582D01*
X40317543Y-30708541D01*
X40303264Y-30712118D01*
X40288703Y-30714278D01*
X40274000Y-30715000D01*
X39974000Y-30715000D01*
X39959297Y-30714278D01*
X39944736Y-30712118D01*
X39930457Y-30708541D01*
X39916597Y-30703582D01*
X39903290Y-30697288D01*
X39890664Y-30689720D01*
X39878841Y-30680952D01*
X39867934Y-30671066D01*
X39858048Y-30660159D01*
X39849280Y-30648336D01*
X39841712Y-30635710D01*
X39835418Y-30622403D01*
X39830459Y-30608543D01*
X39826882Y-30594264D01*
X39824722Y-30579703D01*
X39824000Y-30565000D01*
X39824000Y-28915000D01*
X39824722Y-28900297D01*
X39826882Y-28885736D01*
X39830459Y-28871457D01*
X39835418Y-28857597D01*
X39841712Y-28844290D01*
X39849280Y-28831664D01*
X39858048Y-28819841D01*
X39867934Y-28808934D01*
X39878841Y-28799048D01*
X39890664Y-28790280D01*
X39903290Y-28782712D01*
X39916597Y-28776418D01*
X39930457Y-28771459D01*
X39944736Y-28767882D01*
X39959297Y-28765722D01*
X39974000Y-28765000D01*
X40274000Y-28765000D01*
X40288703Y-28765722D01*
X40288703Y-28765722D01*
G37*
D18*
X40124000Y-29740000D03*
D15*
G36*
X40288703Y-23815722D02*
G01*
X40303264Y-23817882D01*
X40317543Y-23821459D01*
X40331403Y-23826418D01*
X40344710Y-23832712D01*
X40357336Y-23840280D01*
X40369159Y-23849048D01*
X40380066Y-23858934D01*
X40389952Y-23869841D01*
X40398720Y-23881664D01*
X40406288Y-23894290D01*
X40412582Y-23907597D01*
X40417541Y-23921457D01*
X40421118Y-23935736D01*
X40423278Y-23950297D01*
X40424000Y-23965000D01*
X40424000Y-25615000D01*
X40423278Y-25629703D01*
X40421118Y-25644264D01*
X40417541Y-25658543D01*
X40412582Y-25672403D01*
X40406288Y-25685710D01*
X40398720Y-25698336D01*
X40389952Y-25710159D01*
X40380066Y-25721066D01*
X40369159Y-25730952D01*
X40357336Y-25739720D01*
X40344710Y-25747288D01*
X40331403Y-25753582D01*
X40317543Y-25758541D01*
X40303264Y-25762118D01*
X40288703Y-25764278D01*
X40274000Y-25765000D01*
X39974000Y-25765000D01*
X39959297Y-25764278D01*
X39944736Y-25762118D01*
X39930457Y-25758541D01*
X39916597Y-25753582D01*
X39903290Y-25747288D01*
X39890664Y-25739720D01*
X39878841Y-25730952D01*
X39867934Y-25721066D01*
X39858048Y-25710159D01*
X39849280Y-25698336D01*
X39841712Y-25685710D01*
X39835418Y-25672403D01*
X39830459Y-25658543D01*
X39826882Y-25644264D01*
X39824722Y-25629703D01*
X39824000Y-25615000D01*
X39824000Y-23965000D01*
X39824722Y-23950297D01*
X39826882Y-23935736D01*
X39830459Y-23921457D01*
X39835418Y-23907597D01*
X39841712Y-23894290D01*
X39849280Y-23881664D01*
X39858048Y-23869841D01*
X39867934Y-23858934D01*
X39878841Y-23849048D01*
X39890664Y-23840280D01*
X39903290Y-23832712D01*
X39916597Y-23826418D01*
X39930457Y-23821459D01*
X39944736Y-23817882D01*
X39959297Y-23815722D01*
X39974000Y-23815000D01*
X40274000Y-23815000D01*
X40288703Y-23815722D01*
X40288703Y-23815722D01*
G37*
D18*
X40124000Y-24790000D03*
D15*
G36*
X39018703Y-23815722D02*
G01*
X39033264Y-23817882D01*
X39047543Y-23821459D01*
X39061403Y-23826418D01*
X39074710Y-23832712D01*
X39087336Y-23840280D01*
X39099159Y-23849048D01*
X39110066Y-23858934D01*
X39119952Y-23869841D01*
X39128720Y-23881664D01*
X39136288Y-23894290D01*
X39142582Y-23907597D01*
X39147541Y-23921457D01*
X39151118Y-23935736D01*
X39153278Y-23950297D01*
X39154000Y-23965000D01*
X39154000Y-25615000D01*
X39153278Y-25629703D01*
X39151118Y-25644264D01*
X39147541Y-25658543D01*
X39142582Y-25672403D01*
X39136288Y-25685710D01*
X39128720Y-25698336D01*
X39119952Y-25710159D01*
X39110066Y-25721066D01*
X39099159Y-25730952D01*
X39087336Y-25739720D01*
X39074710Y-25747288D01*
X39061403Y-25753582D01*
X39047543Y-25758541D01*
X39033264Y-25762118D01*
X39018703Y-25764278D01*
X39004000Y-25765000D01*
X38704000Y-25765000D01*
X38689297Y-25764278D01*
X38674736Y-25762118D01*
X38660457Y-25758541D01*
X38646597Y-25753582D01*
X38633290Y-25747288D01*
X38620664Y-25739720D01*
X38608841Y-25730952D01*
X38597934Y-25721066D01*
X38588048Y-25710159D01*
X38579280Y-25698336D01*
X38571712Y-25685710D01*
X38565418Y-25672403D01*
X38560459Y-25658543D01*
X38556882Y-25644264D01*
X38554722Y-25629703D01*
X38554000Y-25615000D01*
X38554000Y-23965000D01*
X38554722Y-23950297D01*
X38556882Y-23935736D01*
X38560459Y-23921457D01*
X38565418Y-23907597D01*
X38571712Y-23894290D01*
X38579280Y-23881664D01*
X38588048Y-23869841D01*
X38597934Y-23858934D01*
X38608841Y-23849048D01*
X38620664Y-23840280D01*
X38633290Y-23832712D01*
X38646597Y-23826418D01*
X38660457Y-23821459D01*
X38674736Y-23817882D01*
X38689297Y-23815722D01*
X38704000Y-23815000D01*
X39004000Y-23815000D01*
X39018703Y-23815722D01*
X39018703Y-23815722D01*
G37*
D18*
X38854000Y-24790000D03*
D15*
G36*
X37748703Y-23815722D02*
G01*
X37763264Y-23817882D01*
X37777543Y-23821459D01*
X37791403Y-23826418D01*
X37804710Y-23832712D01*
X37817336Y-23840280D01*
X37829159Y-23849048D01*
X37840066Y-23858934D01*
X37849952Y-23869841D01*
X37858720Y-23881664D01*
X37866288Y-23894290D01*
X37872582Y-23907597D01*
X37877541Y-23921457D01*
X37881118Y-23935736D01*
X37883278Y-23950297D01*
X37884000Y-23965000D01*
X37884000Y-25615000D01*
X37883278Y-25629703D01*
X37881118Y-25644264D01*
X37877541Y-25658543D01*
X37872582Y-25672403D01*
X37866288Y-25685710D01*
X37858720Y-25698336D01*
X37849952Y-25710159D01*
X37840066Y-25721066D01*
X37829159Y-25730952D01*
X37817336Y-25739720D01*
X37804710Y-25747288D01*
X37791403Y-25753582D01*
X37777543Y-25758541D01*
X37763264Y-25762118D01*
X37748703Y-25764278D01*
X37734000Y-25765000D01*
X37434000Y-25765000D01*
X37419297Y-25764278D01*
X37404736Y-25762118D01*
X37390457Y-25758541D01*
X37376597Y-25753582D01*
X37363290Y-25747288D01*
X37350664Y-25739720D01*
X37338841Y-25730952D01*
X37327934Y-25721066D01*
X37318048Y-25710159D01*
X37309280Y-25698336D01*
X37301712Y-25685710D01*
X37295418Y-25672403D01*
X37290459Y-25658543D01*
X37286882Y-25644264D01*
X37284722Y-25629703D01*
X37284000Y-25615000D01*
X37284000Y-23965000D01*
X37284722Y-23950297D01*
X37286882Y-23935736D01*
X37290459Y-23921457D01*
X37295418Y-23907597D01*
X37301712Y-23894290D01*
X37309280Y-23881664D01*
X37318048Y-23869841D01*
X37327934Y-23858934D01*
X37338841Y-23849048D01*
X37350664Y-23840280D01*
X37363290Y-23832712D01*
X37376597Y-23826418D01*
X37390457Y-23821459D01*
X37404736Y-23817882D01*
X37419297Y-23815722D01*
X37434000Y-23815000D01*
X37734000Y-23815000D01*
X37748703Y-23815722D01*
X37748703Y-23815722D01*
G37*
D18*
X37584000Y-24790000D03*
D15*
G36*
X36478703Y-23815722D02*
G01*
X36493264Y-23817882D01*
X36507543Y-23821459D01*
X36521403Y-23826418D01*
X36534710Y-23832712D01*
X36547336Y-23840280D01*
X36559159Y-23849048D01*
X36570066Y-23858934D01*
X36579952Y-23869841D01*
X36588720Y-23881664D01*
X36596288Y-23894290D01*
X36602582Y-23907597D01*
X36607541Y-23921457D01*
X36611118Y-23935736D01*
X36613278Y-23950297D01*
X36614000Y-23965000D01*
X36614000Y-25615000D01*
X36613278Y-25629703D01*
X36611118Y-25644264D01*
X36607541Y-25658543D01*
X36602582Y-25672403D01*
X36596288Y-25685710D01*
X36588720Y-25698336D01*
X36579952Y-25710159D01*
X36570066Y-25721066D01*
X36559159Y-25730952D01*
X36547336Y-25739720D01*
X36534710Y-25747288D01*
X36521403Y-25753582D01*
X36507543Y-25758541D01*
X36493264Y-25762118D01*
X36478703Y-25764278D01*
X36464000Y-25765000D01*
X36164000Y-25765000D01*
X36149297Y-25764278D01*
X36134736Y-25762118D01*
X36120457Y-25758541D01*
X36106597Y-25753582D01*
X36093290Y-25747288D01*
X36080664Y-25739720D01*
X36068841Y-25730952D01*
X36057934Y-25721066D01*
X36048048Y-25710159D01*
X36039280Y-25698336D01*
X36031712Y-25685710D01*
X36025418Y-25672403D01*
X36020459Y-25658543D01*
X36016882Y-25644264D01*
X36014722Y-25629703D01*
X36014000Y-25615000D01*
X36014000Y-23965000D01*
X36014722Y-23950297D01*
X36016882Y-23935736D01*
X36020459Y-23921457D01*
X36025418Y-23907597D01*
X36031712Y-23894290D01*
X36039280Y-23881664D01*
X36048048Y-23869841D01*
X36057934Y-23858934D01*
X36068841Y-23849048D01*
X36080664Y-23840280D01*
X36093290Y-23832712D01*
X36106597Y-23826418D01*
X36120457Y-23821459D01*
X36134736Y-23817882D01*
X36149297Y-23815722D01*
X36164000Y-23815000D01*
X36464000Y-23815000D01*
X36478703Y-23815722D01*
X36478703Y-23815722D01*
G37*
D18*
X36314000Y-24790000D03*
D15*
G36*
X35208703Y-23815722D02*
G01*
X35223264Y-23817882D01*
X35237543Y-23821459D01*
X35251403Y-23826418D01*
X35264710Y-23832712D01*
X35277336Y-23840280D01*
X35289159Y-23849048D01*
X35300066Y-23858934D01*
X35309952Y-23869841D01*
X35318720Y-23881664D01*
X35326288Y-23894290D01*
X35332582Y-23907597D01*
X35337541Y-23921457D01*
X35341118Y-23935736D01*
X35343278Y-23950297D01*
X35344000Y-23965000D01*
X35344000Y-25615000D01*
X35343278Y-25629703D01*
X35341118Y-25644264D01*
X35337541Y-25658543D01*
X35332582Y-25672403D01*
X35326288Y-25685710D01*
X35318720Y-25698336D01*
X35309952Y-25710159D01*
X35300066Y-25721066D01*
X35289159Y-25730952D01*
X35277336Y-25739720D01*
X35264710Y-25747288D01*
X35251403Y-25753582D01*
X35237543Y-25758541D01*
X35223264Y-25762118D01*
X35208703Y-25764278D01*
X35194000Y-25765000D01*
X34894000Y-25765000D01*
X34879297Y-25764278D01*
X34864736Y-25762118D01*
X34850457Y-25758541D01*
X34836597Y-25753582D01*
X34823290Y-25747288D01*
X34810664Y-25739720D01*
X34798841Y-25730952D01*
X34787934Y-25721066D01*
X34778048Y-25710159D01*
X34769280Y-25698336D01*
X34761712Y-25685710D01*
X34755418Y-25672403D01*
X34750459Y-25658543D01*
X34746882Y-25644264D01*
X34744722Y-25629703D01*
X34744000Y-25615000D01*
X34744000Y-23965000D01*
X34744722Y-23950297D01*
X34746882Y-23935736D01*
X34750459Y-23921457D01*
X34755418Y-23907597D01*
X34761712Y-23894290D01*
X34769280Y-23881664D01*
X34778048Y-23869841D01*
X34787934Y-23858934D01*
X34798841Y-23849048D01*
X34810664Y-23840280D01*
X34823290Y-23832712D01*
X34836597Y-23826418D01*
X34850457Y-23821459D01*
X34864736Y-23817882D01*
X34879297Y-23815722D01*
X34894000Y-23815000D01*
X35194000Y-23815000D01*
X35208703Y-23815722D01*
X35208703Y-23815722D01*
G37*
D18*
X35044000Y-24790000D03*
D15*
G36*
X33938703Y-23815722D02*
G01*
X33953264Y-23817882D01*
X33967543Y-23821459D01*
X33981403Y-23826418D01*
X33994710Y-23832712D01*
X34007336Y-23840280D01*
X34019159Y-23849048D01*
X34030066Y-23858934D01*
X34039952Y-23869841D01*
X34048720Y-23881664D01*
X34056288Y-23894290D01*
X34062582Y-23907597D01*
X34067541Y-23921457D01*
X34071118Y-23935736D01*
X34073278Y-23950297D01*
X34074000Y-23965000D01*
X34074000Y-25615000D01*
X34073278Y-25629703D01*
X34071118Y-25644264D01*
X34067541Y-25658543D01*
X34062582Y-25672403D01*
X34056288Y-25685710D01*
X34048720Y-25698336D01*
X34039952Y-25710159D01*
X34030066Y-25721066D01*
X34019159Y-25730952D01*
X34007336Y-25739720D01*
X33994710Y-25747288D01*
X33981403Y-25753582D01*
X33967543Y-25758541D01*
X33953264Y-25762118D01*
X33938703Y-25764278D01*
X33924000Y-25765000D01*
X33624000Y-25765000D01*
X33609297Y-25764278D01*
X33594736Y-25762118D01*
X33580457Y-25758541D01*
X33566597Y-25753582D01*
X33553290Y-25747288D01*
X33540664Y-25739720D01*
X33528841Y-25730952D01*
X33517934Y-25721066D01*
X33508048Y-25710159D01*
X33499280Y-25698336D01*
X33491712Y-25685710D01*
X33485418Y-25672403D01*
X33480459Y-25658543D01*
X33476882Y-25644264D01*
X33474722Y-25629703D01*
X33474000Y-25615000D01*
X33474000Y-23965000D01*
X33474722Y-23950297D01*
X33476882Y-23935736D01*
X33480459Y-23921457D01*
X33485418Y-23907597D01*
X33491712Y-23894290D01*
X33499280Y-23881664D01*
X33508048Y-23869841D01*
X33517934Y-23858934D01*
X33528841Y-23849048D01*
X33540664Y-23840280D01*
X33553290Y-23832712D01*
X33566597Y-23826418D01*
X33580457Y-23821459D01*
X33594736Y-23817882D01*
X33609297Y-23815722D01*
X33624000Y-23815000D01*
X33924000Y-23815000D01*
X33938703Y-23815722D01*
X33938703Y-23815722D01*
G37*
D18*
X33774000Y-24790000D03*
D15*
G36*
X32668703Y-23815722D02*
G01*
X32683264Y-23817882D01*
X32697543Y-23821459D01*
X32711403Y-23826418D01*
X32724710Y-23832712D01*
X32737336Y-23840280D01*
X32749159Y-23849048D01*
X32760066Y-23858934D01*
X32769952Y-23869841D01*
X32778720Y-23881664D01*
X32786288Y-23894290D01*
X32792582Y-23907597D01*
X32797541Y-23921457D01*
X32801118Y-23935736D01*
X32803278Y-23950297D01*
X32804000Y-23965000D01*
X32804000Y-25615000D01*
X32803278Y-25629703D01*
X32801118Y-25644264D01*
X32797541Y-25658543D01*
X32792582Y-25672403D01*
X32786288Y-25685710D01*
X32778720Y-25698336D01*
X32769952Y-25710159D01*
X32760066Y-25721066D01*
X32749159Y-25730952D01*
X32737336Y-25739720D01*
X32724710Y-25747288D01*
X32711403Y-25753582D01*
X32697543Y-25758541D01*
X32683264Y-25762118D01*
X32668703Y-25764278D01*
X32654000Y-25765000D01*
X32354000Y-25765000D01*
X32339297Y-25764278D01*
X32324736Y-25762118D01*
X32310457Y-25758541D01*
X32296597Y-25753582D01*
X32283290Y-25747288D01*
X32270664Y-25739720D01*
X32258841Y-25730952D01*
X32247934Y-25721066D01*
X32238048Y-25710159D01*
X32229280Y-25698336D01*
X32221712Y-25685710D01*
X32215418Y-25672403D01*
X32210459Y-25658543D01*
X32206882Y-25644264D01*
X32204722Y-25629703D01*
X32204000Y-25615000D01*
X32204000Y-23965000D01*
X32204722Y-23950297D01*
X32206882Y-23935736D01*
X32210459Y-23921457D01*
X32215418Y-23907597D01*
X32221712Y-23894290D01*
X32229280Y-23881664D01*
X32238048Y-23869841D01*
X32247934Y-23858934D01*
X32258841Y-23849048D01*
X32270664Y-23840280D01*
X32283290Y-23832712D01*
X32296597Y-23826418D01*
X32310457Y-23821459D01*
X32324736Y-23817882D01*
X32339297Y-23815722D01*
X32354000Y-23815000D01*
X32654000Y-23815000D01*
X32668703Y-23815722D01*
X32668703Y-23815722D01*
G37*
D18*
X32504000Y-24790000D03*
D15*
G36*
X31398703Y-23815722D02*
G01*
X31413264Y-23817882D01*
X31427543Y-23821459D01*
X31441403Y-23826418D01*
X31454710Y-23832712D01*
X31467336Y-23840280D01*
X31479159Y-23849048D01*
X31490066Y-23858934D01*
X31499952Y-23869841D01*
X31508720Y-23881664D01*
X31516288Y-23894290D01*
X31522582Y-23907597D01*
X31527541Y-23921457D01*
X31531118Y-23935736D01*
X31533278Y-23950297D01*
X31534000Y-23965000D01*
X31534000Y-25615000D01*
X31533278Y-25629703D01*
X31531118Y-25644264D01*
X31527541Y-25658543D01*
X31522582Y-25672403D01*
X31516288Y-25685710D01*
X31508720Y-25698336D01*
X31499952Y-25710159D01*
X31490066Y-25721066D01*
X31479159Y-25730952D01*
X31467336Y-25739720D01*
X31454710Y-25747288D01*
X31441403Y-25753582D01*
X31427543Y-25758541D01*
X31413264Y-25762118D01*
X31398703Y-25764278D01*
X31384000Y-25765000D01*
X31084000Y-25765000D01*
X31069297Y-25764278D01*
X31054736Y-25762118D01*
X31040457Y-25758541D01*
X31026597Y-25753582D01*
X31013290Y-25747288D01*
X31000664Y-25739720D01*
X30988841Y-25730952D01*
X30977934Y-25721066D01*
X30968048Y-25710159D01*
X30959280Y-25698336D01*
X30951712Y-25685710D01*
X30945418Y-25672403D01*
X30940459Y-25658543D01*
X30936882Y-25644264D01*
X30934722Y-25629703D01*
X30934000Y-25615000D01*
X30934000Y-23965000D01*
X30934722Y-23950297D01*
X30936882Y-23935736D01*
X30940459Y-23921457D01*
X30945418Y-23907597D01*
X30951712Y-23894290D01*
X30959280Y-23881664D01*
X30968048Y-23869841D01*
X30977934Y-23858934D01*
X30988841Y-23849048D01*
X31000664Y-23840280D01*
X31013290Y-23832712D01*
X31026597Y-23826418D01*
X31040457Y-23821459D01*
X31054736Y-23817882D01*
X31069297Y-23815722D01*
X31084000Y-23815000D01*
X31384000Y-23815000D01*
X31398703Y-23815722D01*
X31398703Y-23815722D01*
G37*
D18*
X31234000Y-24790000D03*
%TD*%
D19*
%TO.C,U4*%
X54865305Y-37335103D03*
D15*
G36*
X55625445Y-37706334D02*
G01*
X55236536Y-38095243D01*
X54105165Y-36963872D01*
X54494074Y-36574963D01*
X55625445Y-37706334D01*
X55625445Y-37706334D01*
G37*
D19*
X55430990Y-36769417D03*
D15*
G36*
X56191130Y-37140648D02*
G01*
X55802221Y-37529557D01*
X54670850Y-36398186D01*
X55059759Y-36009277D01*
X56191130Y-37140648D01*
X56191130Y-37140648D01*
G37*
D19*
X55996676Y-36203732D03*
D15*
G36*
X56756816Y-36574963D02*
G01*
X56367907Y-36963872D01*
X55236536Y-35832501D01*
X55625445Y-35443592D01*
X56756816Y-36574963D01*
X56756816Y-36574963D01*
G37*
D19*
X56562361Y-35638047D03*
D15*
G36*
X57322501Y-36009278D02*
G01*
X56933592Y-36398187D01*
X55802221Y-35266816D01*
X56191130Y-34877907D01*
X57322501Y-36009278D01*
X57322501Y-36009278D01*
G37*
D19*
X57128047Y-35072361D03*
D15*
G36*
X57888187Y-35443592D02*
G01*
X57499278Y-35832501D01*
X56367907Y-34701130D01*
X56756816Y-34312221D01*
X57888187Y-35443592D01*
X57888187Y-35443592D01*
G37*
D19*
X57693732Y-34506676D03*
D15*
G36*
X58453872Y-34877907D02*
G01*
X58064963Y-35266816D01*
X56933592Y-34135445D01*
X57322501Y-33746536D01*
X58453872Y-34877907D01*
X58453872Y-34877907D01*
G37*
D19*
X58259417Y-33940990D03*
D15*
G36*
X59019557Y-34312221D02*
G01*
X58630648Y-34701130D01*
X57499277Y-33569759D01*
X57888186Y-33180850D01*
X59019557Y-34312221D01*
X59019557Y-34312221D01*
G37*
D19*
X58825103Y-33375305D03*
D15*
G36*
X59585243Y-33746536D02*
G01*
X59196334Y-34135445D01*
X58064963Y-33004074D01*
X58453872Y-32615165D01*
X59585243Y-33746536D01*
X59585243Y-33746536D01*
G37*
D19*
X58825103Y-31324695D03*
D15*
G36*
X59196334Y-30564555D02*
G01*
X59585243Y-30953464D01*
X58453872Y-32084835D01*
X58064963Y-31695926D01*
X59196334Y-30564555D01*
X59196334Y-30564555D01*
G37*
D19*
X58259417Y-30759010D03*
D15*
G36*
X58630648Y-29998870D02*
G01*
X59019557Y-30387779D01*
X57888186Y-31519150D01*
X57499277Y-31130241D01*
X58630648Y-29998870D01*
X58630648Y-29998870D01*
G37*
D19*
X57693732Y-30193324D03*
D15*
G36*
X58064963Y-29433184D02*
G01*
X58453872Y-29822093D01*
X57322501Y-30953464D01*
X56933592Y-30564555D01*
X58064963Y-29433184D01*
X58064963Y-29433184D01*
G37*
D19*
X57128047Y-29627639D03*
D15*
G36*
X57499278Y-28867499D02*
G01*
X57888187Y-29256408D01*
X56756816Y-30387779D01*
X56367907Y-29998870D01*
X57499278Y-28867499D01*
X57499278Y-28867499D01*
G37*
D19*
X56562361Y-29061953D03*
D15*
G36*
X56933592Y-28301813D02*
G01*
X57322501Y-28690722D01*
X56191130Y-29822093D01*
X55802221Y-29433184D01*
X56933592Y-28301813D01*
X56933592Y-28301813D01*
G37*
D19*
X55996676Y-28496268D03*
D15*
G36*
X56367907Y-27736128D02*
G01*
X56756816Y-28125037D01*
X55625445Y-29256408D01*
X55236536Y-28867499D01*
X56367907Y-27736128D01*
X56367907Y-27736128D01*
G37*
D19*
X55430990Y-27930583D03*
D15*
G36*
X55802221Y-27170443D02*
G01*
X56191130Y-27559352D01*
X55059759Y-28690723D01*
X54670850Y-28301814D01*
X55802221Y-27170443D01*
X55802221Y-27170443D01*
G37*
D19*
X54865305Y-27364897D03*
D15*
G36*
X55236536Y-26604757D02*
G01*
X55625445Y-26993666D01*
X54494074Y-28125037D01*
X54105165Y-27736128D01*
X55236536Y-26604757D01*
X55236536Y-26604757D01*
G37*
D19*
X52814695Y-27364897D03*
D15*
G36*
X53574835Y-27736128D02*
G01*
X53185926Y-28125037D01*
X52054555Y-26993666D01*
X52443464Y-26604757D01*
X53574835Y-27736128D01*
X53574835Y-27736128D01*
G37*
D19*
X52249010Y-27930583D03*
D15*
G36*
X53009150Y-28301814D02*
G01*
X52620241Y-28690723D01*
X51488870Y-27559352D01*
X51877779Y-27170443D01*
X53009150Y-28301814D01*
X53009150Y-28301814D01*
G37*
D19*
X51683324Y-28496268D03*
D15*
G36*
X52443464Y-28867499D02*
G01*
X52054555Y-29256408D01*
X50923184Y-28125037D01*
X51312093Y-27736128D01*
X52443464Y-28867499D01*
X52443464Y-28867499D01*
G37*
D19*
X51117639Y-29061953D03*
D15*
G36*
X51877779Y-29433184D02*
G01*
X51488870Y-29822093D01*
X50357499Y-28690722D01*
X50746408Y-28301813D01*
X51877779Y-29433184D01*
X51877779Y-29433184D01*
G37*
D19*
X50551953Y-29627639D03*
D15*
G36*
X51312093Y-29998870D02*
G01*
X50923184Y-30387779D01*
X49791813Y-29256408D01*
X50180722Y-28867499D01*
X51312093Y-29998870D01*
X51312093Y-29998870D01*
G37*
D19*
X49986268Y-30193324D03*
D15*
G36*
X50746408Y-30564555D02*
G01*
X50357499Y-30953464D01*
X49226128Y-29822093D01*
X49615037Y-29433184D01*
X50746408Y-30564555D01*
X50746408Y-30564555D01*
G37*
D19*
X49420583Y-30759010D03*
D15*
G36*
X50180723Y-31130241D02*
G01*
X49791814Y-31519150D01*
X48660443Y-30387779D01*
X49049352Y-29998870D01*
X50180723Y-31130241D01*
X50180723Y-31130241D01*
G37*
D19*
X48854897Y-31324695D03*
D15*
G36*
X49615037Y-31695926D02*
G01*
X49226128Y-32084835D01*
X48094757Y-30953464D01*
X48483666Y-30564555D01*
X49615037Y-31695926D01*
X49615037Y-31695926D01*
G37*
D19*
X48854897Y-33375305D03*
D15*
G36*
X49226128Y-32615165D02*
G01*
X49615037Y-33004074D01*
X48483666Y-34135445D01*
X48094757Y-33746536D01*
X49226128Y-32615165D01*
X49226128Y-32615165D01*
G37*
D19*
X49420583Y-33940990D03*
D15*
G36*
X49791814Y-33180850D02*
G01*
X50180723Y-33569759D01*
X49049352Y-34701130D01*
X48660443Y-34312221D01*
X49791814Y-33180850D01*
X49791814Y-33180850D01*
G37*
D19*
X49986268Y-34506676D03*
D15*
G36*
X50357499Y-33746536D02*
G01*
X50746408Y-34135445D01*
X49615037Y-35266816D01*
X49226128Y-34877907D01*
X50357499Y-33746536D01*
X50357499Y-33746536D01*
G37*
D19*
X50551953Y-35072361D03*
D15*
G36*
X50923184Y-34312221D02*
G01*
X51312093Y-34701130D01*
X50180722Y-35832501D01*
X49791813Y-35443592D01*
X50923184Y-34312221D01*
X50923184Y-34312221D01*
G37*
D19*
X51117639Y-35638047D03*
D15*
G36*
X51488870Y-34877907D02*
G01*
X51877779Y-35266816D01*
X50746408Y-36398187D01*
X50357499Y-36009278D01*
X51488870Y-34877907D01*
X51488870Y-34877907D01*
G37*
D19*
X51683324Y-36203732D03*
D15*
G36*
X52054555Y-35443592D02*
G01*
X52443464Y-35832501D01*
X51312093Y-36963872D01*
X50923184Y-36574963D01*
X52054555Y-35443592D01*
X52054555Y-35443592D01*
G37*
D19*
X52249010Y-36769417D03*
D15*
G36*
X52620241Y-36009277D02*
G01*
X53009150Y-36398186D01*
X51877779Y-37529557D01*
X51488870Y-37140648D01*
X52620241Y-36009277D01*
X52620241Y-36009277D01*
G37*
D19*
X52814695Y-37335103D03*
D15*
G36*
X53185926Y-36574963D02*
G01*
X53574835Y-36963872D01*
X52443464Y-38095243D01*
X52054555Y-37706334D01*
X53185926Y-36574963D01*
X53185926Y-36574963D01*
G37*
%TD*%
%TO.C,D13*%
G36*
X26841105Y-22591204D02*
G01*
X26865373Y-22594804D01*
X26889172Y-22600765D01*
X26912271Y-22609030D01*
X26934450Y-22619520D01*
X26955493Y-22632132D01*
X26975199Y-22646747D01*
X26993377Y-22663223D01*
X27009853Y-22681401D01*
X27024468Y-22701107D01*
X27037080Y-22722150D01*
X27047570Y-22744329D01*
X27055835Y-22767428D01*
X27061796Y-22791227D01*
X27065396Y-22815495D01*
X27066600Y-22839999D01*
X27066600Y-23740001D01*
X27065396Y-23764505D01*
X27061796Y-23788773D01*
X27055835Y-23812572D01*
X27047570Y-23835671D01*
X27037080Y-23857850D01*
X27024468Y-23878893D01*
X27009853Y-23898599D01*
X26993377Y-23916777D01*
X26975199Y-23933253D01*
X26955493Y-23947868D01*
X26934450Y-23960480D01*
X26912271Y-23970970D01*
X26889172Y-23979235D01*
X26865373Y-23985196D01*
X26841105Y-23988796D01*
X26816601Y-23990000D01*
X26166599Y-23990000D01*
X26142095Y-23988796D01*
X26117827Y-23985196D01*
X26094028Y-23979235D01*
X26070929Y-23970970D01*
X26048750Y-23960480D01*
X26027707Y-23947868D01*
X26008001Y-23933253D01*
X25989823Y-23916777D01*
X25973347Y-23898599D01*
X25958732Y-23878893D01*
X25946120Y-23857850D01*
X25935630Y-23835671D01*
X25927365Y-23812572D01*
X25921404Y-23788773D01*
X25917804Y-23764505D01*
X25916600Y-23740001D01*
X25916600Y-22839999D01*
X25917804Y-22815495D01*
X25921404Y-22791227D01*
X25927365Y-22767428D01*
X25935630Y-22744329D01*
X25946120Y-22722150D01*
X25958732Y-22701107D01*
X25973347Y-22681401D01*
X25989823Y-22663223D01*
X26008001Y-22646747D01*
X26027707Y-22632132D01*
X26048750Y-22619520D01*
X26070929Y-22609030D01*
X26094028Y-22600765D01*
X26117827Y-22594804D01*
X26142095Y-22591204D01*
X26166599Y-22590000D01*
X26816601Y-22590000D01*
X26841105Y-22591204D01*
X26841105Y-22591204D01*
G37*
D16*
X26491600Y-23290000D03*
D15*
G36*
X28891105Y-22591204D02*
G01*
X28915373Y-22594804D01*
X28939172Y-22600765D01*
X28962271Y-22609030D01*
X28984450Y-22619520D01*
X29005493Y-22632132D01*
X29025199Y-22646747D01*
X29043377Y-22663223D01*
X29059853Y-22681401D01*
X29074468Y-22701107D01*
X29087080Y-22722150D01*
X29097570Y-22744329D01*
X29105835Y-22767428D01*
X29111796Y-22791227D01*
X29115396Y-22815495D01*
X29116600Y-22839999D01*
X29116600Y-23740001D01*
X29115396Y-23764505D01*
X29111796Y-23788773D01*
X29105835Y-23812572D01*
X29097570Y-23835671D01*
X29087080Y-23857850D01*
X29074468Y-23878893D01*
X29059853Y-23898599D01*
X29043377Y-23916777D01*
X29025199Y-23933253D01*
X29005493Y-23947868D01*
X28984450Y-23960480D01*
X28962271Y-23970970D01*
X28939172Y-23979235D01*
X28915373Y-23985196D01*
X28891105Y-23988796D01*
X28866601Y-23990000D01*
X28216599Y-23990000D01*
X28192095Y-23988796D01*
X28167827Y-23985196D01*
X28144028Y-23979235D01*
X28120929Y-23970970D01*
X28098750Y-23960480D01*
X28077707Y-23947868D01*
X28058001Y-23933253D01*
X28039823Y-23916777D01*
X28023347Y-23898599D01*
X28008732Y-23878893D01*
X27996120Y-23857850D01*
X27985630Y-23835671D01*
X27977365Y-23812572D01*
X27971404Y-23788773D01*
X27967804Y-23764505D01*
X27966600Y-23740001D01*
X27966600Y-22839999D01*
X27967804Y-22815495D01*
X27971404Y-22791227D01*
X27977365Y-22767428D01*
X27985630Y-22744329D01*
X27996120Y-22722150D01*
X28008732Y-22701107D01*
X28023347Y-22681401D01*
X28039823Y-22663223D01*
X28058001Y-22646747D01*
X28077707Y-22632132D01*
X28098750Y-22619520D01*
X28120929Y-22609030D01*
X28144028Y-22600765D01*
X28167827Y-22594804D01*
X28192095Y-22591204D01*
X28216599Y-22590000D01*
X28866601Y-22590000D01*
X28891105Y-22591204D01*
X28891105Y-22591204D01*
G37*
D16*
X28541600Y-23290000D03*
%TD*%
D15*
%TO.C,PWR*%
G36*
X26815705Y-20091204D02*
G01*
X26839973Y-20094804D01*
X26863772Y-20100765D01*
X26886871Y-20109030D01*
X26909050Y-20119520D01*
X26930093Y-20132132D01*
X26949799Y-20146747D01*
X26967977Y-20163223D01*
X26984453Y-20181401D01*
X26999068Y-20201107D01*
X27011680Y-20222150D01*
X27022170Y-20244329D01*
X27030435Y-20267428D01*
X27036396Y-20291227D01*
X27039996Y-20315495D01*
X27041200Y-20339999D01*
X27041200Y-21240001D01*
X27039996Y-21264505D01*
X27036396Y-21288773D01*
X27030435Y-21312572D01*
X27022170Y-21335671D01*
X27011680Y-21357850D01*
X26999068Y-21378893D01*
X26984453Y-21398599D01*
X26967977Y-21416777D01*
X26949799Y-21433253D01*
X26930093Y-21447868D01*
X26909050Y-21460480D01*
X26886871Y-21470970D01*
X26863772Y-21479235D01*
X26839973Y-21485196D01*
X26815705Y-21488796D01*
X26791201Y-21490000D01*
X26141199Y-21490000D01*
X26116695Y-21488796D01*
X26092427Y-21485196D01*
X26068628Y-21479235D01*
X26045529Y-21470970D01*
X26023350Y-21460480D01*
X26002307Y-21447868D01*
X25982601Y-21433253D01*
X25964423Y-21416777D01*
X25947947Y-21398599D01*
X25933332Y-21378893D01*
X25920720Y-21357850D01*
X25910230Y-21335671D01*
X25901965Y-21312572D01*
X25896004Y-21288773D01*
X25892404Y-21264505D01*
X25891200Y-21240001D01*
X25891200Y-20339999D01*
X25892404Y-20315495D01*
X25896004Y-20291227D01*
X25901965Y-20267428D01*
X25910230Y-20244329D01*
X25920720Y-20222150D01*
X25933332Y-20201107D01*
X25947947Y-20181401D01*
X25964423Y-20163223D01*
X25982601Y-20146747D01*
X26002307Y-20132132D01*
X26023350Y-20119520D01*
X26045529Y-20109030D01*
X26068628Y-20100765D01*
X26092427Y-20094804D01*
X26116695Y-20091204D01*
X26141199Y-20090000D01*
X26791201Y-20090000D01*
X26815705Y-20091204D01*
X26815705Y-20091204D01*
G37*
D16*
X26466200Y-20790000D03*
D15*
G36*
X28865705Y-20091204D02*
G01*
X28889973Y-20094804D01*
X28913772Y-20100765D01*
X28936871Y-20109030D01*
X28959050Y-20119520D01*
X28980093Y-20132132D01*
X28999799Y-20146747D01*
X29017977Y-20163223D01*
X29034453Y-20181401D01*
X29049068Y-20201107D01*
X29061680Y-20222150D01*
X29072170Y-20244329D01*
X29080435Y-20267428D01*
X29086396Y-20291227D01*
X29089996Y-20315495D01*
X29091200Y-20339999D01*
X29091200Y-21240001D01*
X29089996Y-21264505D01*
X29086396Y-21288773D01*
X29080435Y-21312572D01*
X29072170Y-21335671D01*
X29061680Y-21357850D01*
X29049068Y-21378893D01*
X29034453Y-21398599D01*
X29017977Y-21416777D01*
X28999799Y-21433253D01*
X28980093Y-21447868D01*
X28959050Y-21460480D01*
X28936871Y-21470970D01*
X28913772Y-21479235D01*
X28889973Y-21485196D01*
X28865705Y-21488796D01*
X28841201Y-21490000D01*
X28191199Y-21490000D01*
X28166695Y-21488796D01*
X28142427Y-21485196D01*
X28118628Y-21479235D01*
X28095529Y-21470970D01*
X28073350Y-21460480D01*
X28052307Y-21447868D01*
X28032601Y-21433253D01*
X28014423Y-21416777D01*
X27997947Y-21398599D01*
X27983332Y-21378893D01*
X27970720Y-21357850D01*
X27960230Y-21335671D01*
X27951965Y-21312572D01*
X27946004Y-21288773D01*
X27942404Y-21264505D01*
X27941200Y-21240001D01*
X27941200Y-20339999D01*
X27942404Y-20315495D01*
X27946004Y-20291227D01*
X27951965Y-20267428D01*
X27960230Y-20244329D01*
X27970720Y-20222150D01*
X27983332Y-20201107D01*
X27997947Y-20181401D01*
X28014423Y-20163223D01*
X28032601Y-20146747D01*
X28052307Y-20132132D01*
X28073350Y-20119520D01*
X28095529Y-20109030D01*
X28118628Y-20100765D01*
X28142427Y-20094804D01*
X28166695Y-20091204D01*
X28191199Y-20090000D01*
X28841201Y-20090000D01*
X28865705Y-20091204D01*
X28865705Y-20091204D01*
G37*
D16*
X28516200Y-20790000D03*
%TD*%
D15*
%TO.C,C7*%
G36*
X31708505Y-19693204D02*
G01*
X31732773Y-19696804D01*
X31756572Y-19702765D01*
X31779671Y-19711030D01*
X31801850Y-19721520D01*
X31822893Y-19734132D01*
X31842599Y-19748747D01*
X31860777Y-19765223D01*
X31877253Y-19783401D01*
X31891868Y-19803107D01*
X31904480Y-19824150D01*
X31914970Y-19846329D01*
X31923235Y-19869428D01*
X31929196Y-19893227D01*
X31932796Y-19917495D01*
X31934000Y-19941999D01*
X31934000Y-20592001D01*
X31932796Y-20616505D01*
X31929196Y-20640773D01*
X31923235Y-20664572D01*
X31914970Y-20687671D01*
X31904480Y-20709850D01*
X31891868Y-20730893D01*
X31877253Y-20750599D01*
X31860777Y-20768777D01*
X31842599Y-20785253D01*
X31822893Y-20799868D01*
X31801850Y-20812480D01*
X31779671Y-20822970D01*
X31756572Y-20831235D01*
X31732773Y-20837196D01*
X31708505Y-20840796D01*
X31684001Y-20842000D01*
X30783999Y-20842000D01*
X30759495Y-20840796D01*
X30735227Y-20837196D01*
X30711428Y-20831235D01*
X30688329Y-20822970D01*
X30666150Y-20812480D01*
X30645107Y-20799868D01*
X30625401Y-20785253D01*
X30607223Y-20768777D01*
X30590747Y-20750599D01*
X30576132Y-20730893D01*
X30563520Y-20709850D01*
X30553030Y-20687671D01*
X30544765Y-20664572D01*
X30538804Y-20640773D01*
X30535204Y-20616505D01*
X30534000Y-20592001D01*
X30534000Y-19941999D01*
X30535204Y-19917495D01*
X30538804Y-19893227D01*
X30544765Y-19869428D01*
X30553030Y-19846329D01*
X30563520Y-19824150D01*
X30576132Y-19803107D01*
X30590747Y-19783401D01*
X30607223Y-19765223D01*
X30625401Y-19748747D01*
X30645107Y-19734132D01*
X30666150Y-19721520D01*
X30688329Y-19711030D01*
X30711428Y-19702765D01*
X30735227Y-19696804D01*
X30759495Y-19693204D01*
X30783999Y-19692000D01*
X31684001Y-19692000D01*
X31708505Y-19693204D01*
X31708505Y-19693204D01*
G37*
D16*
X31234000Y-20267000D03*
D15*
G36*
X31708505Y-21743204D02*
G01*
X31732773Y-21746804D01*
X31756572Y-21752765D01*
X31779671Y-21761030D01*
X31801850Y-21771520D01*
X31822893Y-21784132D01*
X31842599Y-21798747D01*
X31860777Y-21815223D01*
X31877253Y-21833401D01*
X31891868Y-21853107D01*
X31904480Y-21874150D01*
X31914970Y-21896329D01*
X31923235Y-21919428D01*
X31929196Y-21943227D01*
X31932796Y-21967495D01*
X31934000Y-21991999D01*
X31934000Y-22642001D01*
X31932796Y-22666505D01*
X31929196Y-22690773D01*
X31923235Y-22714572D01*
X31914970Y-22737671D01*
X31904480Y-22759850D01*
X31891868Y-22780893D01*
X31877253Y-22800599D01*
X31860777Y-22818777D01*
X31842599Y-22835253D01*
X31822893Y-22849868D01*
X31801850Y-22862480D01*
X31779671Y-22872970D01*
X31756572Y-22881235D01*
X31732773Y-22887196D01*
X31708505Y-22890796D01*
X31684001Y-22892000D01*
X30783999Y-22892000D01*
X30759495Y-22890796D01*
X30735227Y-22887196D01*
X30711428Y-22881235D01*
X30688329Y-22872970D01*
X30666150Y-22862480D01*
X30645107Y-22849868D01*
X30625401Y-22835253D01*
X30607223Y-22818777D01*
X30590747Y-22800599D01*
X30576132Y-22780893D01*
X30563520Y-22759850D01*
X30553030Y-22737671D01*
X30544765Y-22714572D01*
X30538804Y-22690773D01*
X30535204Y-22666505D01*
X30534000Y-22642001D01*
X30534000Y-21991999D01*
X30535204Y-21967495D01*
X30538804Y-21943227D01*
X30544765Y-21919428D01*
X30553030Y-21896329D01*
X30563520Y-21874150D01*
X30576132Y-21853107D01*
X30590747Y-21833401D01*
X30607223Y-21815223D01*
X30625401Y-21798747D01*
X30645107Y-21784132D01*
X30666150Y-21771520D01*
X30688329Y-21761030D01*
X30711428Y-21752765D01*
X30735227Y-21746804D01*
X30759495Y-21743204D01*
X30783999Y-21742000D01*
X31684001Y-21742000D01*
X31708505Y-21743204D01*
X31708505Y-21743204D01*
G37*
D16*
X31234000Y-22317000D03*
%TD*%
D15*
%TO.C,C13*%
G36*
X49869505Y-24655204D02*
G01*
X49893773Y-24658804D01*
X49917572Y-24664765D01*
X49940671Y-24673030D01*
X49962850Y-24683520D01*
X49983893Y-24696132D01*
X50003599Y-24710747D01*
X50021777Y-24727223D01*
X50038253Y-24745401D01*
X50052868Y-24765107D01*
X50065480Y-24786150D01*
X50075970Y-24808329D01*
X50084235Y-24831428D01*
X50090196Y-24855227D01*
X50093796Y-24879495D01*
X50095000Y-24903999D01*
X50095000Y-25554001D01*
X50093796Y-25578505D01*
X50090196Y-25602773D01*
X50084235Y-25626572D01*
X50075970Y-25649671D01*
X50065480Y-25671850D01*
X50052868Y-25692893D01*
X50038253Y-25712599D01*
X50021777Y-25730777D01*
X50003599Y-25747253D01*
X49983893Y-25761868D01*
X49962850Y-25774480D01*
X49940671Y-25784970D01*
X49917572Y-25793235D01*
X49893773Y-25799196D01*
X49869505Y-25802796D01*
X49845001Y-25804000D01*
X48944999Y-25804000D01*
X48920495Y-25802796D01*
X48896227Y-25799196D01*
X48872428Y-25793235D01*
X48849329Y-25784970D01*
X48827150Y-25774480D01*
X48806107Y-25761868D01*
X48786401Y-25747253D01*
X48768223Y-25730777D01*
X48751747Y-25712599D01*
X48737132Y-25692893D01*
X48724520Y-25671850D01*
X48714030Y-25649671D01*
X48705765Y-25626572D01*
X48699804Y-25602773D01*
X48696204Y-25578505D01*
X48695000Y-25554001D01*
X48695000Y-24903999D01*
X48696204Y-24879495D01*
X48699804Y-24855227D01*
X48705765Y-24831428D01*
X48714030Y-24808329D01*
X48724520Y-24786150D01*
X48737132Y-24765107D01*
X48751747Y-24745401D01*
X48768223Y-24727223D01*
X48786401Y-24710747D01*
X48806107Y-24696132D01*
X48827150Y-24683520D01*
X48849329Y-24673030D01*
X48872428Y-24664765D01*
X48896227Y-24658804D01*
X48920495Y-24655204D01*
X48944999Y-24654000D01*
X49845001Y-24654000D01*
X49869505Y-24655204D01*
X49869505Y-24655204D01*
G37*
D16*
X49395000Y-25229000D03*
D15*
G36*
X49869505Y-26705204D02*
G01*
X49893773Y-26708804D01*
X49917572Y-26714765D01*
X49940671Y-26723030D01*
X49962850Y-26733520D01*
X49983893Y-26746132D01*
X50003599Y-26760747D01*
X50021777Y-26777223D01*
X50038253Y-26795401D01*
X50052868Y-26815107D01*
X50065480Y-26836150D01*
X50075970Y-26858329D01*
X50084235Y-26881428D01*
X50090196Y-26905227D01*
X50093796Y-26929495D01*
X50095000Y-26953999D01*
X50095000Y-27604001D01*
X50093796Y-27628505D01*
X50090196Y-27652773D01*
X50084235Y-27676572D01*
X50075970Y-27699671D01*
X50065480Y-27721850D01*
X50052868Y-27742893D01*
X50038253Y-27762599D01*
X50021777Y-27780777D01*
X50003599Y-27797253D01*
X49983893Y-27811868D01*
X49962850Y-27824480D01*
X49940671Y-27834970D01*
X49917572Y-27843235D01*
X49893773Y-27849196D01*
X49869505Y-27852796D01*
X49845001Y-27854000D01*
X48944999Y-27854000D01*
X48920495Y-27852796D01*
X48896227Y-27849196D01*
X48872428Y-27843235D01*
X48849329Y-27834970D01*
X48827150Y-27824480D01*
X48806107Y-27811868D01*
X48786401Y-27797253D01*
X48768223Y-27780777D01*
X48751747Y-27762599D01*
X48737132Y-27742893D01*
X48724520Y-27721850D01*
X48714030Y-27699671D01*
X48705765Y-27676572D01*
X48699804Y-27652773D01*
X48696204Y-27628505D01*
X48695000Y-27604001D01*
X48695000Y-26953999D01*
X48696204Y-26929495D01*
X48699804Y-26905227D01*
X48705765Y-26881428D01*
X48714030Y-26858329D01*
X48724520Y-26836150D01*
X48737132Y-26815107D01*
X48751747Y-26795401D01*
X48768223Y-26777223D01*
X48786401Y-26760747D01*
X48806107Y-26746132D01*
X48827150Y-26733520D01*
X48849329Y-26723030D01*
X48872428Y-26714765D01*
X48896227Y-26708804D01*
X48920495Y-26705204D01*
X48944999Y-26704000D01*
X49845001Y-26704000D01*
X49869505Y-26705204D01*
X49869505Y-26705204D01*
G37*
D16*
X49395000Y-27279000D03*
%TD*%
D15*
%TO.C,TX*%
G36*
X28899505Y-27591204D02*
G01*
X28923773Y-27594804D01*
X28947572Y-27600765D01*
X28970671Y-27609030D01*
X28992850Y-27619520D01*
X29013893Y-27632132D01*
X29033599Y-27646747D01*
X29051777Y-27663223D01*
X29068253Y-27681401D01*
X29082868Y-27701107D01*
X29095480Y-27722150D01*
X29105970Y-27744329D01*
X29114235Y-27767428D01*
X29120196Y-27791227D01*
X29123796Y-27815495D01*
X29125000Y-27839999D01*
X29125000Y-28740001D01*
X29123796Y-28764505D01*
X29120196Y-28788773D01*
X29114235Y-28812572D01*
X29105970Y-28835671D01*
X29095480Y-28857850D01*
X29082868Y-28878893D01*
X29068253Y-28898599D01*
X29051777Y-28916777D01*
X29033599Y-28933253D01*
X29013893Y-28947868D01*
X28992850Y-28960480D01*
X28970671Y-28970970D01*
X28947572Y-28979235D01*
X28923773Y-28985196D01*
X28899505Y-28988796D01*
X28875001Y-28990000D01*
X28224999Y-28990000D01*
X28200495Y-28988796D01*
X28176227Y-28985196D01*
X28152428Y-28979235D01*
X28129329Y-28970970D01*
X28107150Y-28960480D01*
X28086107Y-28947868D01*
X28066401Y-28933253D01*
X28048223Y-28916777D01*
X28031747Y-28898599D01*
X28017132Y-28878893D01*
X28004520Y-28857850D01*
X27994030Y-28835671D01*
X27985765Y-28812572D01*
X27979804Y-28788773D01*
X27976204Y-28764505D01*
X27975000Y-28740001D01*
X27975000Y-27839999D01*
X27976204Y-27815495D01*
X27979804Y-27791227D01*
X27985765Y-27767428D01*
X27994030Y-27744329D01*
X28004520Y-27722150D01*
X28017132Y-27701107D01*
X28031747Y-27681401D01*
X28048223Y-27663223D01*
X28066401Y-27646747D01*
X28086107Y-27632132D01*
X28107150Y-27619520D01*
X28129329Y-27609030D01*
X28152428Y-27600765D01*
X28176227Y-27594804D01*
X28200495Y-27591204D01*
X28224999Y-27590000D01*
X28875001Y-27590000D01*
X28899505Y-27591204D01*
X28899505Y-27591204D01*
G37*
D16*
X28550000Y-28290000D03*
D15*
G36*
X26849505Y-27591204D02*
G01*
X26873773Y-27594804D01*
X26897572Y-27600765D01*
X26920671Y-27609030D01*
X26942850Y-27619520D01*
X26963893Y-27632132D01*
X26983599Y-27646747D01*
X27001777Y-27663223D01*
X27018253Y-27681401D01*
X27032868Y-27701107D01*
X27045480Y-27722150D01*
X27055970Y-27744329D01*
X27064235Y-27767428D01*
X27070196Y-27791227D01*
X27073796Y-27815495D01*
X27075000Y-27839999D01*
X27075000Y-28740001D01*
X27073796Y-28764505D01*
X27070196Y-28788773D01*
X27064235Y-28812572D01*
X27055970Y-28835671D01*
X27045480Y-28857850D01*
X27032868Y-28878893D01*
X27018253Y-28898599D01*
X27001777Y-28916777D01*
X26983599Y-28933253D01*
X26963893Y-28947868D01*
X26942850Y-28960480D01*
X26920671Y-28970970D01*
X26897572Y-28979235D01*
X26873773Y-28985196D01*
X26849505Y-28988796D01*
X26825001Y-28990000D01*
X26174999Y-28990000D01*
X26150495Y-28988796D01*
X26126227Y-28985196D01*
X26102428Y-28979235D01*
X26079329Y-28970970D01*
X26057150Y-28960480D01*
X26036107Y-28947868D01*
X26016401Y-28933253D01*
X25998223Y-28916777D01*
X25981747Y-28898599D01*
X25967132Y-28878893D01*
X25954520Y-28857850D01*
X25944030Y-28835671D01*
X25935765Y-28812572D01*
X25929804Y-28788773D01*
X25926204Y-28764505D01*
X25925000Y-28740001D01*
X25925000Y-27839999D01*
X25926204Y-27815495D01*
X25929804Y-27791227D01*
X25935765Y-27767428D01*
X25944030Y-27744329D01*
X25954520Y-27722150D01*
X25967132Y-27701107D01*
X25981747Y-27681401D01*
X25998223Y-27663223D01*
X26016401Y-27646747D01*
X26036107Y-27632132D01*
X26057150Y-27619520D01*
X26079329Y-27609030D01*
X26102428Y-27600765D01*
X26126227Y-27594804D01*
X26150495Y-27591204D01*
X26174999Y-27590000D01*
X26825001Y-27590000D01*
X26849505Y-27591204D01*
X26849505Y-27591204D01*
G37*
D16*
X26500000Y-28290000D03*
%TD*%
D15*
%TO.C,RX*%
G36*
X28899505Y-25091204D02*
G01*
X28923773Y-25094804D01*
X28947572Y-25100765D01*
X28970671Y-25109030D01*
X28992850Y-25119520D01*
X29013893Y-25132132D01*
X29033599Y-25146747D01*
X29051777Y-25163223D01*
X29068253Y-25181401D01*
X29082868Y-25201107D01*
X29095480Y-25222150D01*
X29105970Y-25244329D01*
X29114235Y-25267428D01*
X29120196Y-25291227D01*
X29123796Y-25315495D01*
X29125000Y-25339999D01*
X29125000Y-26240001D01*
X29123796Y-26264505D01*
X29120196Y-26288773D01*
X29114235Y-26312572D01*
X29105970Y-26335671D01*
X29095480Y-26357850D01*
X29082868Y-26378893D01*
X29068253Y-26398599D01*
X29051777Y-26416777D01*
X29033599Y-26433253D01*
X29013893Y-26447868D01*
X28992850Y-26460480D01*
X28970671Y-26470970D01*
X28947572Y-26479235D01*
X28923773Y-26485196D01*
X28899505Y-26488796D01*
X28875001Y-26490000D01*
X28224999Y-26490000D01*
X28200495Y-26488796D01*
X28176227Y-26485196D01*
X28152428Y-26479235D01*
X28129329Y-26470970D01*
X28107150Y-26460480D01*
X28086107Y-26447868D01*
X28066401Y-26433253D01*
X28048223Y-26416777D01*
X28031747Y-26398599D01*
X28017132Y-26378893D01*
X28004520Y-26357850D01*
X27994030Y-26335671D01*
X27985765Y-26312572D01*
X27979804Y-26288773D01*
X27976204Y-26264505D01*
X27975000Y-26240001D01*
X27975000Y-25339999D01*
X27976204Y-25315495D01*
X27979804Y-25291227D01*
X27985765Y-25267428D01*
X27994030Y-25244329D01*
X28004520Y-25222150D01*
X28017132Y-25201107D01*
X28031747Y-25181401D01*
X28048223Y-25163223D01*
X28066401Y-25146747D01*
X28086107Y-25132132D01*
X28107150Y-25119520D01*
X28129329Y-25109030D01*
X28152428Y-25100765D01*
X28176227Y-25094804D01*
X28200495Y-25091204D01*
X28224999Y-25090000D01*
X28875001Y-25090000D01*
X28899505Y-25091204D01*
X28899505Y-25091204D01*
G37*
D16*
X28550000Y-25790000D03*
D15*
G36*
X26849505Y-25091204D02*
G01*
X26873773Y-25094804D01*
X26897572Y-25100765D01*
X26920671Y-25109030D01*
X26942850Y-25119520D01*
X26963893Y-25132132D01*
X26983599Y-25146747D01*
X27001777Y-25163223D01*
X27018253Y-25181401D01*
X27032868Y-25201107D01*
X27045480Y-25222150D01*
X27055970Y-25244329D01*
X27064235Y-25267428D01*
X27070196Y-25291227D01*
X27073796Y-25315495D01*
X27075000Y-25339999D01*
X27075000Y-26240001D01*
X27073796Y-26264505D01*
X27070196Y-26288773D01*
X27064235Y-26312572D01*
X27055970Y-26335671D01*
X27045480Y-26357850D01*
X27032868Y-26378893D01*
X27018253Y-26398599D01*
X27001777Y-26416777D01*
X26983599Y-26433253D01*
X26963893Y-26447868D01*
X26942850Y-26460480D01*
X26920671Y-26470970D01*
X26897572Y-26479235D01*
X26873773Y-26485196D01*
X26849505Y-26488796D01*
X26825001Y-26490000D01*
X26174999Y-26490000D01*
X26150495Y-26488796D01*
X26126227Y-26485196D01*
X26102428Y-26479235D01*
X26079329Y-26470970D01*
X26057150Y-26460480D01*
X26036107Y-26447868D01*
X26016401Y-26433253D01*
X25998223Y-26416777D01*
X25981747Y-26398599D01*
X25967132Y-26378893D01*
X25954520Y-26357850D01*
X25944030Y-26335671D01*
X25935765Y-26312572D01*
X25929804Y-26288773D01*
X25926204Y-26264505D01*
X25925000Y-26240001D01*
X25925000Y-25339999D01*
X25926204Y-25315495D01*
X25929804Y-25291227D01*
X25935765Y-25267428D01*
X25944030Y-25244329D01*
X25954520Y-25222150D01*
X25967132Y-25201107D01*
X25981747Y-25181401D01*
X25998223Y-25163223D01*
X26016401Y-25146747D01*
X26036107Y-25132132D01*
X26057150Y-25119520D01*
X26079329Y-25109030D01*
X26102428Y-25100765D01*
X26126227Y-25094804D01*
X26150495Y-25091204D01*
X26174999Y-25090000D01*
X26825001Y-25090000D01*
X26849505Y-25091204D01*
X26849505Y-25091204D01*
G37*
D16*
X26500000Y-25790000D03*
%TD*%
M02*
