%TF.GenerationSoftware,KiCad,Pcbnew,(5.1.2-1)-1*%
%TF.CreationDate,2020-03-19T17:13:43+05:30*%
%TF.ProjectId,Uno rev1.1,556e6f20-7265-4763-912e-312e6b696361,rev?*%
%TF.SameCoordinates,Original*%
%TF.FileFunction,Legend,Top*%
%TF.FilePolarity,Positive*%
%FSLAX46Y46*%
G04 Gerber Fmt 4.6, Leading zero omitted, Abs format (unit mm)*
G04 Created by KiCad (PCBNEW (5.1.2-1)-1) date 2020-03-19 17:13:43*
%MOMM*%
%LPD*%
G04 APERTURE LIST*
%ADD10C,0.125000*%
%ADD11C,0.228600*%
%ADD12C,0.100000*%
%ADD13C,0.120000*%
%ADD14C,0.150000*%
G04 APERTURE END LIST*
D10*
X15476190Y-34726190D02*
X15880952Y-34726190D01*
X15928571Y-34702380D01*
X15952380Y-34678571D01*
X15976190Y-34630952D01*
X15976190Y-34535714D01*
X15952380Y-34488095D01*
X15928571Y-34464285D01*
X15880952Y-34440476D01*
X15476190Y-34440476D01*
X15952380Y-34226190D02*
X15976190Y-34154761D01*
X15976190Y-34035714D01*
X15952380Y-33988095D01*
X15928571Y-33964285D01*
X15880952Y-33940476D01*
X15833333Y-33940476D01*
X15785714Y-33964285D01*
X15761904Y-33988095D01*
X15738095Y-34035714D01*
X15714285Y-34130952D01*
X15690476Y-34178571D01*
X15666666Y-34202380D01*
X15619047Y-34226190D01*
X15571428Y-34226190D01*
X15523809Y-34202380D01*
X15500000Y-34178571D01*
X15476190Y-34130952D01*
X15476190Y-34011904D01*
X15500000Y-33940476D01*
X15714285Y-33559523D02*
X15738095Y-33488095D01*
X15761904Y-33464285D01*
X15809523Y-33440476D01*
X15880952Y-33440476D01*
X15928571Y-33464285D01*
X15952380Y-33488095D01*
X15976190Y-33535714D01*
X15976190Y-33726190D01*
X15476190Y-33726190D01*
X15476190Y-33559523D01*
X15500000Y-33511904D01*
X15523809Y-33488095D01*
X15571428Y-33464285D01*
X15619047Y-33464285D01*
X15666666Y-33488095D01*
X15690476Y-33511904D01*
X15714285Y-33559523D01*
X15714285Y-33726190D01*
X15785714Y-33226190D02*
X15785714Y-32845238D01*
X15928571Y-32321428D02*
X15952380Y-32345238D01*
X15976190Y-32416666D01*
X15976190Y-32464285D01*
X15952380Y-32535714D01*
X15904761Y-32583333D01*
X15857142Y-32607142D01*
X15761904Y-32630952D01*
X15690476Y-32630952D01*
X15595238Y-32607142D01*
X15547619Y-32583333D01*
X15500000Y-32535714D01*
X15476190Y-32464285D01*
X15476190Y-32416666D01*
X15500000Y-32345238D01*
X15523809Y-32321428D01*
X15952380Y-31511904D02*
X15976190Y-31559523D01*
X15976190Y-31654761D01*
X15952380Y-31702380D01*
X15928571Y-31726190D01*
X15880952Y-31750000D01*
X15738095Y-31750000D01*
X15690476Y-31726190D01*
X15666666Y-31702380D01*
X15642857Y-31654761D01*
X15642857Y-31559523D01*
X15666666Y-31511904D01*
X15976190Y-31226190D02*
X15952380Y-31273809D01*
X15928571Y-31297619D01*
X15880952Y-31321428D01*
X15738095Y-31321428D01*
X15690476Y-31297619D01*
X15666666Y-31273809D01*
X15642857Y-31226190D01*
X15642857Y-31154761D01*
X15666666Y-31107142D01*
X15690476Y-31083333D01*
X15738095Y-31059523D01*
X15880952Y-31059523D01*
X15928571Y-31083333D01*
X15952380Y-31107142D01*
X15976190Y-31154761D01*
X15976190Y-31226190D01*
X15642857Y-30845238D02*
X15976190Y-30845238D01*
X15690476Y-30845238D02*
X15666666Y-30821428D01*
X15642857Y-30773809D01*
X15642857Y-30702380D01*
X15666666Y-30654761D01*
X15714285Y-30630952D01*
X15976190Y-30630952D01*
X15642857Y-30392857D02*
X15976190Y-30392857D01*
X15690476Y-30392857D02*
X15666666Y-30369047D01*
X15642857Y-30321428D01*
X15642857Y-30250000D01*
X15666666Y-30202380D01*
X15714285Y-30178571D01*
X15976190Y-30178571D01*
X15952380Y-29750000D02*
X15976190Y-29797619D01*
X15976190Y-29892857D01*
X15952380Y-29940476D01*
X15904761Y-29964285D01*
X15714285Y-29964285D01*
X15666666Y-29940476D01*
X15642857Y-29892857D01*
X15642857Y-29797619D01*
X15666666Y-29750000D01*
X15714285Y-29726190D01*
X15761904Y-29726190D01*
X15809523Y-29964285D01*
X15952380Y-29297619D02*
X15976190Y-29345238D01*
X15976190Y-29440476D01*
X15952380Y-29488095D01*
X15928571Y-29511904D01*
X15880952Y-29535714D01*
X15738095Y-29535714D01*
X15690476Y-29511904D01*
X15666666Y-29488095D01*
X15642857Y-29440476D01*
X15642857Y-29345238D01*
X15666666Y-29297619D01*
X15642857Y-29154761D02*
X15642857Y-28964285D01*
X15476190Y-29083333D02*
X15904761Y-29083333D01*
X15952380Y-29059523D01*
X15976190Y-29011904D01*
X15976190Y-28964285D01*
X15976190Y-28726190D02*
X15952380Y-28773809D01*
X15928571Y-28797619D01*
X15880952Y-28821428D01*
X15738095Y-28821428D01*
X15690476Y-28797619D01*
X15666666Y-28773809D01*
X15642857Y-28726190D01*
X15642857Y-28654761D01*
X15666666Y-28607142D01*
X15690476Y-28583333D01*
X15738095Y-28559523D01*
X15880952Y-28559523D01*
X15928571Y-28583333D01*
X15952380Y-28607142D01*
X15976190Y-28654761D01*
X15976190Y-28726190D01*
X15976190Y-28345238D02*
X15642857Y-28345238D01*
X15738095Y-28345238D02*
X15690476Y-28321428D01*
X15666666Y-28297619D01*
X15642857Y-28250000D01*
X15642857Y-28202380D01*
D11*
X26314866Y-15624704D02*
X26314866Y-15165085D01*
X26677723Y-15716628D02*
X25407723Y-15394895D01*
X26677723Y-15073161D01*
X26677723Y-14199885D02*
X26072961Y-14521619D01*
X26677723Y-14751428D02*
X25407723Y-14751428D01*
X25407723Y-14383733D01*
X25468200Y-14291809D01*
X25528676Y-14245847D01*
X25649628Y-14199885D01*
X25831057Y-14199885D01*
X25952009Y-14245847D01*
X26012485Y-14291809D01*
X26072961Y-14383733D01*
X26072961Y-14751428D01*
X26012485Y-13786228D02*
X26012485Y-13464495D01*
X26677723Y-13326609D02*
X26677723Y-13786228D01*
X25407723Y-13786228D01*
X25407723Y-13326609D01*
X26012485Y-12591219D02*
X26012485Y-12912952D01*
X26677723Y-12912952D02*
X25407723Y-12912952D01*
X25407723Y-12453333D01*
X27601800Y-14797390D02*
X27541323Y-14889314D01*
X27541323Y-15027200D01*
X27601800Y-15165085D01*
X27722752Y-15257009D01*
X27843704Y-15302971D01*
X28085609Y-15348933D01*
X28267038Y-15348933D01*
X28508942Y-15302971D01*
X28629895Y-15257009D01*
X28750847Y-15165085D01*
X28811323Y-15027200D01*
X28811323Y-14935276D01*
X28750847Y-14797390D01*
X28690371Y-14751428D01*
X28267038Y-14751428D01*
X28267038Y-14935276D01*
X28811323Y-14337771D02*
X27541323Y-14337771D01*
X28811323Y-13786228D01*
X27541323Y-13786228D01*
X28811323Y-13326609D02*
X27541323Y-13326609D01*
X27541323Y-13096800D01*
X27601800Y-12958914D01*
X27722752Y-12866990D01*
X27843704Y-12821028D01*
X28085609Y-12775066D01*
X28267038Y-12775066D01*
X28508942Y-12821028D01*
X28629895Y-12866990D01*
X28750847Y-12958914D01*
X28811323Y-13096800D01*
X28811323Y-13326609D01*
X21537247Y-15253562D02*
X21597723Y-15115676D01*
X21597723Y-14885867D01*
X21537247Y-14793943D01*
X21476771Y-14747981D01*
X21355819Y-14702019D01*
X21234866Y-14702019D01*
X21113914Y-14747981D01*
X21053438Y-14793943D01*
X20992961Y-14885867D01*
X20932485Y-15069714D01*
X20872009Y-15161638D01*
X20811533Y-15207600D01*
X20690580Y-15253562D01*
X20569628Y-15253562D01*
X20448676Y-15207600D01*
X20388200Y-15161638D01*
X20327723Y-15069714D01*
X20327723Y-14839905D01*
X20388200Y-14702019D01*
X21476771Y-13736819D02*
X21537247Y-13782781D01*
X21597723Y-13920667D01*
X21597723Y-14012590D01*
X21537247Y-14150476D01*
X21416295Y-14242400D01*
X21295342Y-14288362D01*
X21053438Y-14334324D01*
X20872009Y-14334324D01*
X20630104Y-14288362D01*
X20509152Y-14242400D01*
X20388200Y-14150476D01*
X20327723Y-14012590D01*
X20327723Y-13920667D01*
X20388200Y-13782781D01*
X20448676Y-13736819D01*
X21597723Y-12863543D02*
X21597723Y-13323162D01*
X20327723Y-13323162D01*
X23670847Y-15253562D02*
X23731323Y-15115676D01*
X23731323Y-14885867D01*
X23670847Y-14793943D01*
X23610371Y-14747981D01*
X23489419Y-14702019D01*
X23368466Y-14702019D01*
X23247514Y-14747981D01*
X23187038Y-14793943D01*
X23126561Y-14885867D01*
X23066085Y-15069714D01*
X23005609Y-15161638D01*
X22945133Y-15207600D01*
X22824180Y-15253562D01*
X22703228Y-15253562D01*
X22582276Y-15207600D01*
X22521800Y-15161638D01*
X22461323Y-15069714D01*
X22461323Y-14839905D01*
X22521800Y-14702019D01*
X23731323Y-14288362D02*
X22461323Y-14288362D01*
X22461323Y-14058552D01*
X22521800Y-13920667D01*
X22642752Y-13828743D01*
X22763704Y-13782781D01*
X23005609Y-13736819D01*
X23187038Y-13736819D01*
X23428942Y-13782781D01*
X23549895Y-13828743D01*
X23670847Y-13920667D01*
X23731323Y-14058552D01*
X23731323Y-14288362D01*
X23368466Y-13369124D02*
X23368466Y-12909505D01*
X23731323Y-13461048D02*
X22461323Y-13139314D01*
X23731323Y-12817581D01*
X49537723Y-15319904D02*
X48267723Y-15319904D01*
X48267723Y-15078000D01*
X48328200Y-14932857D01*
X48449152Y-14836095D01*
X48570104Y-14787714D01*
X48812009Y-14739333D01*
X48993438Y-14739333D01*
X49235342Y-14787714D01*
X49356295Y-14836095D01*
X49477247Y-14932857D01*
X49537723Y-15078000D01*
X49537723Y-15319904D01*
X48267723Y-14400666D02*
X48267723Y-13723333D01*
X49537723Y-14158761D01*
X51671323Y-15319904D02*
X50401323Y-15319904D01*
X50401323Y-15078000D01*
X50461800Y-14932857D01*
X50582752Y-14836095D01*
X50703704Y-14787714D01*
X50945609Y-14739333D01*
X51127038Y-14739333D01*
X51368942Y-14787714D01*
X51489895Y-14836095D01*
X51610847Y-14932857D01*
X51671323Y-15078000D01*
X51671323Y-15319904D01*
X50401323Y-13868476D02*
X50401323Y-14062000D01*
X50461800Y-14158761D01*
X50522276Y-14207142D01*
X50703704Y-14303904D01*
X50945609Y-14352285D01*
X51429419Y-14352285D01*
X51550371Y-14303904D01*
X51610847Y-14255523D01*
X51671323Y-14158761D01*
X51671323Y-13965238D01*
X51610847Y-13868476D01*
X51550371Y-13820095D01*
X51429419Y-13771714D01*
X51127038Y-13771714D01*
X51006085Y-13820095D01*
X50945609Y-13868476D01*
X50885133Y-13965238D01*
X50885133Y-14158761D01*
X50945609Y-14255523D01*
X51006085Y-14303904D01*
X51127038Y-14352285D01*
X31757723Y-15488028D02*
X30487723Y-15488028D01*
X30487723Y-15258219D01*
X30548200Y-15120333D01*
X30669152Y-15028409D01*
X30790104Y-14982447D01*
X31032009Y-14936485D01*
X31213438Y-14936485D01*
X31455342Y-14982447D01*
X31576295Y-15028409D01*
X31697247Y-15120333D01*
X31757723Y-15258219D01*
X31757723Y-15488028D01*
X31757723Y-14017247D02*
X31757723Y-14568790D01*
X31757723Y-14293019D02*
X30487723Y-14293019D01*
X30669152Y-14384942D01*
X30790104Y-14476866D01*
X30850580Y-14568790D01*
X30487723Y-13695514D02*
X30487723Y-13098009D01*
X30971533Y-13419742D01*
X30971533Y-13281857D01*
X31032009Y-13189933D01*
X31092485Y-13143971D01*
X31213438Y-13098009D01*
X31515819Y-13098009D01*
X31636771Y-13143971D01*
X31697247Y-13189933D01*
X31757723Y-13281857D01*
X31757723Y-13557628D01*
X31697247Y-13649552D01*
X31636771Y-13695514D01*
X33891323Y-15488028D02*
X32621323Y-15488028D01*
X32621323Y-15258219D01*
X32681800Y-15120333D01*
X32802752Y-15028409D01*
X32923704Y-14982447D01*
X33165609Y-14936485D01*
X33347038Y-14936485D01*
X33588942Y-14982447D01*
X33709895Y-15028409D01*
X33830847Y-15120333D01*
X33891323Y-15258219D01*
X33891323Y-15488028D01*
X33891323Y-14017247D02*
X33891323Y-14568790D01*
X33891323Y-14293019D02*
X32621323Y-14293019D01*
X32802752Y-14384942D01*
X32923704Y-14476866D01*
X32984180Y-14568790D01*
X32742276Y-13649552D02*
X32681800Y-13603590D01*
X32621323Y-13511666D01*
X32621323Y-13281857D01*
X32681800Y-13189933D01*
X32742276Y-13143971D01*
X32863228Y-13098009D01*
X32984180Y-13098009D01*
X33165609Y-13143971D01*
X33891323Y-13695514D01*
X33891323Y-13098009D01*
X36837723Y-15488028D02*
X35567723Y-15488028D01*
X35567723Y-15258219D01*
X35628200Y-15120333D01*
X35749152Y-15028409D01*
X35870104Y-14982447D01*
X36112009Y-14936485D01*
X36293438Y-14936485D01*
X36535342Y-14982447D01*
X36656295Y-15028409D01*
X36777247Y-15120333D01*
X36837723Y-15258219D01*
X36837723Y-15488028D01*
X36837723Y-14017247D02*
X36837723Y-14568790D01*
X36837723Y-14293019D02*
X35567723Y-14293019D01*
X35749152Y-14384942D01*
X35870104Y-14476866D01*
X35930580Y-14568790D01*
X36837723Y-13098009D02*
X36837723Y-13649552D01*
X36837723Y-13373780D02*
X35567723Y-13373780D01*
X35749152Y-13465704D01*
X35870104Y-13557628D01*
X35930580Y-13649552D01*
X38971323Y-15488028D02*
X37701323Y-15488028D01*
X37701323Y-15258219D01*
X37761800Y-15120333D01*
X37882752Y-15028409D01*
X38003704Y-14982447D01*
X38245609Y-14936485D01*
X38427038Y-14936485D01*
X38668942Y-14982447D01*
X38789895Y-15028409D01*
X38910847Y-15120333D01*
X38971323Y-15258219D01*
X38971323Y-15488028D01*
X38971323Y-14017247D02*
X38971323Y-14568790D01*
X38971323Y-14293019D02*
X37701323Y-14293019D01*
X37882752Y-14384942D01*
X38003704Y-14476866D01*
X38064180Y-14568790D01*
X37701323Y-13419742D02*
X37701323Y-13327819D01*
X37761800Y-13235895D01*
X37822276Y-13189933D01*
X37943228Y-13143971D01*
X38185133Y-13098009D01*
X38487514Y-13098009D01*
X38729419Y-13143971D01*
X38850371Y-13189933D01*
X38910847Y-13235895D01*
X38971323Y-13327819D01*
X38971323Y-13419742D01*
X38910847Y-13511666D01*
X38850371Y-13557628D01*
X38729419Y-13603590D01*
X38487514Y-13649552D01*
X38185133Y-13649552D01*
X37943228Y-13603590D01*
X37822276Y-13557628D01*
X37761800Y-13511666D01*
X37701323Y-13419742D01*
X41917723Y-15065904D02*
X40647723Y-15065904D01*
X40647723Y-14824000D01*
X40708200Y-14678857D01*
X40829152Y-14582095D01*
X40950104Y-14533714D01*
X41192009Y-14485333D01*
X41373438Y-14485333D01*
X41615342Y-14533714D01*
X41736295Y-14582095D01*
X41857247Y-14678857D01*
X41917723Y-14824000D01*
X41917723Y-15065904D01*
X41917723Y-14001523D02*
X41917723Y-13808000D01*
X41857247Y-13711238D01*
X41796771Y-13662857D01*
X41615342Y-13566095D01*
X41373438Y-13517714D01*
X40889628Y-13517714D01*
X40768676Y-13566095D01*
X40708200Y-13614476D01*
X40647723Y-13711238D01*
X40647723Y-13904761D01*
X40708200Y-14001523D01*
X40768676Y-14049904D01*
X40889628Y-14098285D01*
X41192009Y-14098285D01*
X41312961Y-14049904D01*
X41373438Y-14001523D01*
X41433914Y-13904761D01*
X41433914Y-13711238D01*
X41373438Y-13614476D01*
X41312961Y-13566095D01*
X41192009Y-13517714D01*
X44051323Y-15065904D02*
X42781323Y-15065904D01*
X42781323Y-14824000D01*
X42841800Y-14678857D01*
X42962752Y-14582095D01*
X43083704Y-14533714D01*
X43325609Y-14485333D01*
X43507038Y-14485333D01*
X43748942Y-14533714D01*
X43869895Y-14582095D01*
X43990847Y-14678857D01*
X44051323Y-14824000D01*
X44051323Y-15065904D01*
X43325609Y-13904761D02*
X43265133Y-14001523D01*
X43204657Y-14049904D01*
X43083704Y-14098285D01*
X43023228Y-14098285D01*
X42902276Y-14049904D01*
X42841800Y-14001523D01*
X42781323Y-13904761D01*
X42781323Y-13711238D01*
X42841800Y-13614476D01*
X42902276Y-13566095D01*
X43023228Y-13517714D01*
X43083704Y-13517714D01*
X43204657Y-13566095D01*
X43265133Y-13614476D01*
X43325609Y-13711238D01*
X43325609Y-13904761D01*
X43386085Y-14001523D01*
X43446561Y-14049904D01*
X43567514Y-14098285D01*
X43809419Y-14098285D01*
X43930371Y-14049904D01*
X43990847Y-14001523D01*
X44051323Y-13904761D01*
X44051323Y-13711238D01*
X43990847Y-13614476D01*
X43930371Y-13566095D01*
X43809419Y-13517714D01*
X43567514Y-13517714D01*
X43446561Y-13566095D01*
X43386085Y-13614476D01*
X43325609Y-13711238D01*
X54617723Y-15319904D02*
X53347723Y-15319904D01*
X53347723Y-15078000D01*
X53408200Y-14932857D01*
X53529152Y-14836095D01*
X53650104Y-14787714D01*
X53892009Y-14739333D01*
X54073438Y-14739333D01*
X54315342Y-14787714D01*
X54436295Y-14836095D01*
X54557247Y-14932857D01*
X54617723Y-15078000D01*
X54617723Y-15319904D01*
X53347723Y-13820095D02*
X53347723Y-14303904D01*
X53952485Y-14352285D01*
X53892009Y-14303904D01*
X53831533Y-14207142D01*
X53831533Y-13965238D01*
X53892009Y-13868476D01*
X53952485Y-13820095D01*
X54073438Y-13771714D01*
X54375819Y-13771714D01*
X54496771Y-13820095D01*
X54557247Y-13868476D01*
X54617723Y-13965238D01*
X54617723Y-14207142D01*
X54557247Y-14303904D01*
X54496771Y-14352285D01*
X56751323Y-15319904D02*
X55481323Y-15319904D01*
X55481323Y-15078000D01*
X55541800Y-14932857D01*
X55662752Y-14836095D01*
X55783704Y-14787714D01*
X56025609Y-14739333D01*
X56207038Y-14739333D01*
X56448942Y-14787714D01*
X56569895Y-14836095D01*
X56690847Y-14932857D01*
X56751323Y-15078000D01*
X56751323Y-15319904D01*
X55904657Y-13868476D02*
X56751323Y-13868476D01*
X55420847Y-14110380D02*
X56327990Y-14352285D01*
X56327990Y-13723333D01*
X59697723Y-15319904D02*
X58427723Y-15319904D01*
X58427723Y-15078000D01*
X58488200Y-14932857D01*
X58609152Y-14836095D01*
X58730104Y-14787714D01*
X58972009Y-14739333D01*
X59153438Y-14739333D01*
X59395342Y-14787714D01*
X59516295Y-14836095D01*
X59637247Y-14932857D01*
X59697723Y-15078000D01*
X59697723Y-15319904D01*
X58427723Y-14400666D02*
X58427723Y-13771714D01*
X58911533Y-14110380D01*
X58911533Y-13965238D01*
X58972009Y-13868476D01*
X59032485Y-13820095D01*
X59153438Y-13771714D01*
X59455819Y-13771714D01*
X59576771Y-13820095D01*
X59637247Y-13868476D01*
X59697723Y-13965238D01*
X59697723Y-14255523D01*
X59637247Y-14352285D01*
X59576771Y-14400666D01*
X61831323Y-15319904D02*
X60561323Y-15319904D01*
X60561323Y-15078000D01*
X60621800Y-14932857D01*
X60742752Y-14836095D01*
X60863704Y-14787714D01*
X61105609Y-14739333D01*
X61287038Y-14739333D01*
X61528942Y-14787714D01*
X61649895Y-14836095D01*
X61770847Y-14932857D01*
X61831323Y-15078000D01*
X61831323Y-15319904D01*
X60682276Y-14352285D02*
X60621800Y-14303904D01*
X60561323Y-14207142D01*
X60561323Y-13965238D01*
X60621800Y-13868476D01*
X60682276Y-13820095D01*
X60803228Y-13771714D01*
X60924180Y-13771714D01*
X61105609Y-13820095D01*
X61831323Y-14400666D01*
X61831323Y-13771714D01*
X65031723Y-15319904D02*
X63761723Y-15319904D01*
X63761723Y-15078000D01*
X63822200Y-14932857D01*
X63943152Y-14836095D01*
X64064104Y-14787714D01*
X64306009Y-14739333D01*
X64487438Y-14739333D01*
X64729342Y-14787714D01*
X64850295Y-14836095D01*
X64971247Y-14932857D01*
X65031723Y-15078000D01*
X65031723Y-15319904D01*
X65031723Y-13771714D02*
X65031723Y-14352285D01*
X65031723Y-14062000D02*
X63761723Y-14062000D01*
X63943152Y-14158761D01*
X64064104Y-14255523D01*
X64124580Y-14352285D01*
X67165323Y-15319904D02*
X65895323Y-15319904D01*
X65895323Y-15078000D01*
X65955800Y-14932857D01*
X66076752Y-14836095D01*
X66197704Y-14787714D01*
X66439609Y-14739333D01*
X66621038Y-14739333D01*
X66862942Y-14787714D01*
X66983895Y-14836095D01*
X67104847Y-14932857D01*
X67165323Y-15078000D01*
X67165323Y-15319904D01*
X65895323Y-14110380D02*
X65895323Y-14013619D01*
X65955800Y-13916857D01*
X66016276Y-13868476D01*
X66137228Y-13820095D01*
X66379133Y-13771714D01*
X66681514Y-13771714D01*
X66923419Y-13820095D01*
X67044371Y-13868476D01*
X67104847Y-13916857D01*
X67165323Y-14013619D01*
X67165323Y-14110380D01*
X67104847Y-14207142D01*
X67044371Y-14255523D01*
X66923419Y-14303904D01*
X66681514Y-14352285D01*
X66379133Y-14352285D01*
X66137228Y-14303904D01*
X66016276Y-14255523D01*
X65955800Y-14207142D01*
X65895323Y-14110380D01*
X54254866Y-50601714D02*
X54254866Y-50117904D01*
X54617723Y-50698476D02*
X53347723Y-50359809D01*
X54617723Y-50021142D01*
X53347723Y-49198666D02*
X53347723Y-49682476D01*
X53952485Y-49730857D01*
X53892009Y-49682476D01*
X53831533Y-49585714D01*
X53831533Y-49343809D01*
X53892009Y-49247047D01*
X53952485Y-49198666D01*
X54073438Y-49150285D01*
X54375819Y-49150285D01*
X54496771Y-49198666D01*
X54557247Y-49247047D01*
X54617723Y-49343809D01*
X54617723Y-49585714D01*
X54557247Y-49682476D01*
X54496771Y-49730857D01*
X56388466Y-50601714D02*
X56388466Y-50117904D01*
X56751323Y-50698476D02*
X55481323Y-50359809D01*
X56751323Y-50021142D01*
X55904657Y-49247047D02*
X56751323Y-49247047D01*
X55420847Y-49488952D02*
X56327990Y-49730857D01*
X56327990Y-49101904D01*
X59334866Y-50601714D02*
X59334866Y-50117904D01*
X59697723Y-50698476D02*
X58427723Y-50359809D01*
X59697723Y-50021142D01*
X58427723Y-49779238D02*
X58427723Y-49150285D01*
X58911533Y-49488952D01*
X58911533Y-49343809D01*
X58972009Y-49247047D01*
X59032485Y-49198666D01*
X59153438Y-49150285D01*
X59455819Y-49150285D01*
X59576771Y-49198666D01*
X59637247Y-49247047D01*
X59697723Y-49343809D01*
X59697723Y-49634095D01*
X59637247Y-49730857D01*
X59576771Y-49779238D01*
X61468466Y-50601714D02*
X61468466Y-50117904D01*
X61831323Y-50698476D02*
X60561323Y-50359809D01*
X61831323Y-50021142D01*
X60682276Y-49730857D02*
X60621800Y-49682476D01*
X60561323Y-49585714D01*
X60561323Y-49343809D01*
X60621800Y-49247047D01*
X60682276Y-49198666D01*
X60803228Y-49150285D01*
X60924180Y-49150285D01*
X61105609Y-49198666D01*
X61831323Y-49779238D01*
X61831323Y-49150285D01*
X64668866Y-50601714D02*
X64668866Y-50117904D01*
X65031723Y-50698476D02*
X63761723Y-50359809D01*
X65031723Y-50021142D01*
X65031723Y-49150285D02*
X65031723Y-49730857D01*
X65031723Y-49440571D02*
X63761723Y-49440571D01*
X63943152Y-49537333D01*
X64064104Y-49634095D01*
X64124580Y-49730857D01*
X66802466Y-50601714D02*
X66802466Y-50117904D01*
X67165323Y-50698476D02*
X65895323Y-50359809D01*
X67165323Y-50021142D01*
X65895323Y-49488952D02*
X65895323Y-49392190D01*
X65955800Y-49295428D01*
X66016276Y-49247047D01*
X66137228Y-49198666D01*
X66379133Y-49150285D01*
X66681514Y-49150285D01*
X66923419Y-49198666D01*
X67044371Y-49247047D01*
X67104847Y-49295428D01*
X67165323Y-49392190D01*
X67165323Y-49488952D01*
X67104847Y-49585714D01*
X67044371Y-49634095D01*
X66923419Y-49682476D01*
X66681514Y-49730857D01*
X66379133Y-49730857D01*
X66137228Y-49682476D01*
X66016276Y-49634095D01*
X65955800Y-49585714D01*
X65895323Y-49488952D01*
X30548200Y-51158095D02*
X30487723Y-51254857D01*
X30487723Y-51400000D01*
X30548200Y-51545142D01*
X30669152Y-51641904D01*
X30790104Y-51690285D01*
X31032009Y-51738666D01*
X31213438Y-51738666D01*
X31455342Y-51690285D01*
X31576295Y-51641904D01*
X31697247Y-51545142D01*
X31757723Y-51400000D01*
X31757723Y-51303238D01*
X31697247Y-51158095D01*
X31636771Y-51109714D01*
X31213438Y-51109714D01*
X31213438Y-51303238D01*
X31757723Y-50674285D02*
X30487723Y-50674285D01*
X31757723Y-50093714D01*
X30487723Y-50093714D01*
X31757723Y-49609904D02*
X30487723Y-49609904D01*
X30487723Y-49368000D01*
X30548200Y-49222857D01*
X30669152Y-49126095D01*
X30790104Y-49077714D01*
X31032009Y-49029333D01*
X31213438Y-49029333D01*
X31455342Y-49077714D01*
X31576295Y-49126095D01*
X31697247Y-49222857D01*
X31757723Y-49368000D01*
X31757723Y-49609904D01*
X33891323Y-50940380D02*
X33286561Y-51279047D01*
X33891323Y-51520952D02*
X32621323Y-51520952D01*
X32621323Y-51133904D01*
X32681800Y-51037142D01*
X32742276Y-50988761D01*
X32863228Y-50940380D01*
X33044657Y-50940380D01*
X33165609Y-50988761D01*
X33226085Y-51037142D01*
X33286561Y-51133904D01*
X33286561Y-51520952D01*
X33830847Y-50553333D02*
X33891323Y-50408190D01*
X33891323Y-50166285D01*
X33830847Y-50069523D01*
X33770371Y-50021142D01*
X33649419Y-49972761D01*
X33528466Y-49972761D01*
X33407514Y-50021142D01*
X33347038Y-50069523D01*
X33286561Y-50166285D01*
X33226085Y-50359809D01*
X33165609Y-50456571D01*
X33105133Y-50504952D01*
X32984180Y-50553333D01*
X32863228Y-50553333D01*
X32742276Y-50504952D01*
X32681800Y-50456571D01*
X32621323Y-50359809D01*
X32621323Y-50117904D01*
X32681800Y-49972761D01*
X32621323Y-49682476D02*
X32621323Y-49101904D01*
X33891323Y-49392190D02*
X32621323Y-49392190D01*
X35567723Y-51641904D02*
X35567723Y-51012952D01*
X36051533Y-51351619D01*
X36051533Y-51206476D01*
X36112009Y-51109714D01*
X36172485Y-51061333D01*
X36293438Y-51012952D01*
X36595819Y-51012952D01*
X36716771Y-51061333D01*
X36777247Y-51109714D01*
X36837723Y-51206476D01*
X36837723Y-51496761D01*
X36777247Y-51593523D01*
X36716771Y-51641904D01*
X35567723Y-50722666D02*
X36837723Y-50384000D01*
X35567723Y-50045333D01*
X35567723Y-49803428D02*
X35567723Y-49174476D01*
X36051533Y-49513142D01*
X36051533Y-49368000D01*
X36112009Y-49271238D01*
X36172485Y-49222857D01*
X36293438Y-49174476D01*
X36595819Y-49174476D01*
X36716771Y-49222857D01*
X36777247Y-49271238D01*
X36837723Y-49368000D01*
X36837723Y-49658285D01*
X36777247Y-49755047D01*
X36716771Y-49803428D01*
X37701323Y-51641904D02*
X37701323Y-51012952D01*
X38185133Y-51351619D01*
X38185133Y-51206476D01*
X38245609Y-51109714D01*
X38306085Y-51061333D01*
X38427038Y-51012952D01*
X38729419Y-51012952D01*
X38850371Y-51061333D01*
X38910847Y-51109714D01*
X38971323Y-51206476D01*
X38971323Y-51496761D01*
X38910847Y-51593523D01*
X38850371Y-51641904D01*
X37701323Y-50722666D02*
X38971323Y-50384000D01*
X37701323Y-50045333D01*
X37701323Y-49803428D02*
X37701323Y-49174476D01*
X38185133Y-49513142D01*
X38185133Y-49368000D01*
X38245609Y-49271238D01*
X38306085Y-49222857D01*
X38427038Y-49174476D01*
X38729419Y-49174476D01*
X38850371Y-49222857D01*
X38910847Y-49271238D01*
X38971323Y-49368000D01*
X38971323Y-49658285D01*
X38910847Y-49755047D01*
X38850371Y-49803428D01*
X41155723Y-50323523D02*
X41155723Y-50807333D01*
X41760485Y-50855714D01*
X41700009Y-50807333D01*
X41639533Y-50710571D01*
X41639533Y-50468666D01*
X41700009Y-50371904D01*
X41760485Y-50323523D01*
X41881438Y-50275142D01*
X42183819Y-50275142D01*
X42304771Y-50323523D01*
X42365247Y-50371904D01*
X42425723Y-50468666D01*
X42425723Y-50710571D01*
X42365247Y-50807333D01*
X42304771Y-50855714D01*
X41155723Y-49984857D02*
X42425723Y-49646190D01*
X41155723Y-49307523D01*
X43289323Y-50323523D02*
X43289323Y-50807333D01*
X43894085Y-50855714D01*
X43833609Y-50807333D01*
X43773133Y-50710571D01*
X43773133Y-50468666D01*
X43833609Y-50371904D01*
X43894085Y-50323523D01*
X44015038Y-50275142D01*
X44317419Y-50275142D01*
X44438371Y-50323523D01*
X44498847Y-50371904D01*
X44559323Y-50468666D01*
X44559323Y-50710571D01*
X44498847Y-50807333D01*
X44438371Y-50855714D01*
X43289323Y-49984857D02*
X44559323Y-49646190D01*
X43289323Y-49307523D01*
X45788200Y-51412095D02*
X45727723Y-51508857D01*
X45727723Y-51654000D01*
X45788200Y-51799142D01*
X45909152Y-51895904D01*
X46030104Y-51944285D01*
X46272009Y-51992666D01*
X46453438Y-51992666D01*
X46695342Y-51944285D01*
X46816295Y-51895904D01*
X46937247Y-51799142D01*
X46997723Y-51654000D01*
X46997723Y-51557238D01*
X46937247Y-51412095D01*
X46876771Y-51363714D01*
X46453438Y-51363714D01*
X46453438Y-51557238D01*
X46997723Y-50928285D02*
X45727723Y-50928285D01*
X46997723Y-50347714D01*
X45727723Y-50347714D01*
X46997723Y-49863904D02*
X45727723Y-49863904D01*
X45727723Y-49622000D01*
X45788200Y-49476857D01*
X45909152Y-49380095D01*
X46030104Y-49331714D01*
X46272009Y-49283333D01*
X46453438Y-49283333D01*
X46695342Y-49331714D01*
X46816295Y-49380095D01*
X46937247Y-49476857D01*
X46997723Y-49622000D01*
X46997723Y-49863904D01*
X47921800Y-51412095D02*
X47861323Y-51508857D01*
X47861323Y-51654000D01*
X47921800Y-51799142D01*
X48042752Y-51895904D01*
X48163704Y-51944285D01*
X48405609Y-51992666D01*
X48587038Y-51992666D01*
X48828942Y-51944285D01*
X48949895Y-51895904D01*
X49070847Y-51799142D01*
X49131323Y-51654000D01*
X49131323Y-51557238D01*
X49070847Y-51412095D01*
X49010371Y-51363714D01*
X48587038Y-51363714D01*
X48587038Y-51557238D01*
X49131323Y-50928285D02*
X47861323Y-50928285D01*
X49131323Y-50347714D01*
X47861323Y-50347714D01*
X49131323Y-49863904D02*
X47861323Y-49863904D01*
X47861323Y-49622000D01*
X47921800Y-49476857D01*
X48042752Y-49380095D01*
X48163704Y-49331714D01*
X48405609Y-49283333D01*
X48587038Y-49283333D01*
X48828942Y-49331714D01*
X48949895Y-49380095D01*
X49070847Y-49476857D01*
X49131323Y-49622000D01*
X49131323Y-49863904D01*
D12*
X65201666Y-25364285D02*
X65201666Y-24614285D01*
X65435000Y-25150000D01*
X65668333Y-24614285D01*
X65668333Y-25364285D01*
X66001666Y-25364285D02*
X66001666Y-24614285D01*
X66301666Y-25328571D02*
X66401666Y-25364285D01*
X66568333Y-25364285D01*
X66635000Y-25328571D01*
X66668333Y-25292857D01*
X66701666Y-25221428D01*
X66701666Y-25150000D01*
X66668333Y-25078571D01*
X66635000Y-25042857D01*
X66568333Y-25007142D01*
X66435000Y-24971428D01*
X66368333Y-24935714D01*
X66335000Y-24900000D01*
X66301666Y-24828571D01*
X66301666Y-24757142D01*
X66335000Y-24685714D01*
X66368333Y-24650000D01*
X66435000Y-24614285D01*
X66601666Y-24614285D01*
X66701666Y-24650000D01*
X67135000Y-24614285D02*
X67268333Y-24614285D01*
X67335000Y-24650000D01*
X67401666Y-24721428D01*
X67435000Y-24864285D01*
X67435000Y-25114285D01*
X67401666Y-25257142D01*
X67335000Y-25328571D01*
X67268333Y-25364285D01*
X67135000Y-25364285D01*
X67068333Y-25328571D01*
X67001666Y-25257142D01*
X66968333Y-25114285D01*
X66968333Y-24864285D01*
X67001666Y-24721428D01*
X67068333Y-24650000D01*
X67135000Y-24614285D01*
X69668333Y-24614285D02*
X69335000Y-24614285D01*
X69301666Y-24971428D01*
X69335000Y-24935714D01*
X69401666Y-24900000D01*
X69568333Y-24900000D01*
X69635000Y-24935714D01*
X69668333Y-24971428D01*
X69701666Y-25042857D01*
X69701666Y-25221428D01*
X69668333Y-25292857D01*
X69635000Y-25328571D01*
X69568333Y-25364285D01*
X69401666Y-25364285D01*
X69335000Y-25328571D01*
X69301666Y-25292857D01*
X69901666Y-24614285D02*
X70135000Y-25364285D01*
X70368333Y-24614285D01*
X65435000Y-26553571D02*
X65535000Y-26589285D01*
X65701666Y-26589285D01*
X65768333Y-26553571D01*
X65801666Y-26517857D01*
X65835000Y-26446428D01*
X65835000Y-26375000D01*
X65801666Y-26303571D01*
X65768333Y-26267857D01*
X65701666Y-26232142D01*
X65568333Y-26196428D01*
X65501666Y-26160714D01*
X65468333Y-26125000D01*
X65435000Y-26053571D01*
X65435000Y-25982142D01*
X65468333Y-25910714D01*
X65501666Y-25875000D01*
X65568333Y-25839285D01*
X65735000Y-25839285D01*
X65835000Y-25875000D01*
X66535000Y-26517857D02*
X66501666Y-26553571D01*
X66401666Y-26589285D01*
X66335000Y-26589285D01*
X66235000Y-26553571D01*
X66168333Y-26482142D01*
X66135000Y-26410714D01*
X66101666Y-26267857D01*
X66101666Y-26160714D01*
X66135000Y-26017857D01*
X66168333Y-25946428D01*
X66235000Y-25875000D01*
X66335000Y-25839285D01*
X66401666Y-25839285D01*
X66501666Y-25875000D01*
X66535000Y-25910714D01*
X66835000Y-26589285D02*
X66835000Y-25839285D01*
X67235000Y-26589285D02*
X66935000Y-26160714D01*
X67235000Y-25839285D02*
X66835000Y-26267857D01*
X68068333Y-26589285D02*
X68068333Y-25839285D01*
X68301666Y-26375000D01*
X68535000Y-25839285D01*
X68535000Y-26589285D01*
X69001666Y-25839285D02*
X69135000Y-25839285D01*
X69201666Y-25875000D01*
X69268333Y-25946428D01*
X69301666Y-26089285D01*
X69301666Y-26339285D01*
X69268333Y-26482142D01*
X69201666Y-26553571D01*
X69135000Y-26589285D01*
X69001666Y-26589285D01*
X68935000Y-26553571D01*
X68868333Y-26482142D01*
X68835000Y-26339285D01*
X68835000Y-26089285D01*
X68868333Y-25946428D01*
X68935000Y-25875000D01*
X69001666Y-25839285D01*
X69568333Y-26553571D02*
X69668333Y-26589285D01*
X69835000Y-26589285D01*
X69901666Y-26553571D01*
X69935000Y-26517857D01*
X69968333Y-26446428D01*
X69968333Y-26375000D01*
X69935000Y-26303571D01*
X69901666Y-26267857D01*
X69835000Y-26232142D01*
X69701666Y-26196428D01*
X69635000Y-26160714D01*
X69601666Y-26125000D01*
X69568333Y-26053571D01*
X69568333Y-25982142D01*
X69601666Y-25910714D01*
X69635000Y-25875000D01*
X69701666Y-25839285D01*
X69868333Y-25839285D01*
X69968333Y-25875000D01*
X70268333Y-26589285D02*
X70268333Y-25839285D01*
X65901666Y-27814285D02*
X65668333Y-27457142D01*
X65501666Y-27814285D02*
X65501666Y-27064285D01*
X65768333Y-27064285D01*
X65835000Y-27100000D01*
X65868333Y-27135714D01*
X65901666Y-27207142D01*
X65901666Y-27314285D01*
X65868333Y-27385714D01*
X65835000Y-27421428D01*
X65768333Y-27457142D01*
X65501666Y-27457142D01*
X66168333Y-27778571D02*
X66268333Y-27814285D01*
X66435000Y-27814285D01*
X66501666Y-27778571D01*
X66535000Y-27742857D01*
X66568333Y-27671428D01*
X66568333Y-27600000D01*
X66535000Y-27528571D01*
X66501666Y-27492857D01*
X66435000Y-27457142D01*
X66301666Y-27421428D01*
X66235000Y-27385714D01*
X66201666Y-27350000D01*
X66168333Y-27278571D01*
X66168333Y-27207142D01*
X66201666Y-27135714D01*
X66235000Y-27100000D01*
X66301666Y-27064285D01*
X66468333Y-27064285D01*
X66568333Y-27100000D01*
X66768333Y-27064285D02*
X67168333Y-27064285D01*
X66968333Y-27814285D02*
X66968333Y-27064285D01*
X68835000Y-27100000D02*
X68768333Y-27064285D01*
X68668333Y-27064285D01*
X68568333Y-27100000D01*
X68501666Y-27171428D01*
X68468333Y-27242857D01*
X68435000Y-27385714D01*
X68435000Y-27492857D01*
X68468333Y-27635714D01*
X68501666Y-27707142D01*
X68568333Y-27778571D01*
X68668333Y-27814285D01*
X68735000Y-27814285D01*
X68835000Y-27778571D01*
X68868333Y-27742857D01*
X68868333Y-27492857D01*
X68735000Y-27492857D01*
X69168333Y-27814285D02*
X69168333Y-27064285D01*
X69568333Y-27814285D01*
X69568333Y-27064285D01*
X69901666Y-27814285D02*
X69901666Y-27064285D01*
X70068333Y-27064285D01*
X70168333Y-27100000D01*
X70235000Y-27171428D01*
X70268333Y-27242857D01*
X70301666Y-27385714D01*
X70301666Y-27492857D01*
X70268333Y-27635714D01*
X70235000Y-27707142D01*
X70168333Y-27778571D01*
X70068333Y-27814285D01*
X69901666Y-27814285D01*
D13*
%TO.C,R1*%
X46780000Y-38289252D02*
X46780000Y-37766748D01*
X48200000Y-38289252D02*
X48200000Y-37766748D01*
%TO.C,RST*%
X18040000Y-18810000D02*
X18490000Y-18360000D01*
X18040000Y-15410000D02*
X18490000Y-15860000D01*
X13440000Y-15410000D02*
X12990000Y-15860000D01*
X13440000Y-18810000D02*
X12990000Y-18360000D01*
X14740000Y-14360000D02*
X16740000Y-14360000D01*
X18490000Y-18360000D02*
X18490000Y-15860000D01*
X14740000Y-19860000D02*
X16740000Y-19860000D01*
X12990000Y-18360000D02*
X12990000Y-15860000D01*
%TO.C,U3*%
X40739000Y-27265000D02*
X40739000Y-25315000D01*
X40739000Y-27265000D02*
X40739000Y-29215000D01*
X30619000Y-27265000D02*
X30619000Y-25315000D01*
X30619000Y-27265000D02*
X30619000Y-30715000D01*
D14*
%TO.C,U4*%
X53840000Y-37476524D02*
X53999099Y-37317425D01*
X48713476Y-32350000D02*
X48943286Y-32120190D01*
X53840000Y-27223476D02*
X53610190Y-27453286D01*
X58966524Y-32350000D02*
X58736714Y-32579810D01*
X53840000Y-37476524D02*
X53610190Y-37246714D01*
X58966524Y-32350000D02*
X58736714Y-32120190D01*
X53840000Y-27223476D02*
X54069810Y-27453286D01*
X48713476Y-32350000D02*
X48943286Y-32579810D01*
X53999099Y-37317425D02*
X55006726Y-38325052D01*
D13*
%TO.C,D13*%
X28516600Y-22330000D02*
X25656600Y-22330000D01*
X25656600Y-22330000D02*
X25656600Y-24250000D01*
X25656600Y-24250000D02*
X28516600Y-24250000D01*
%TO.C,PWR*%
X28491200Y-19830000D02*
X25631200Y-19830000D01*
X25631200Y-19830000D02*
X25631200Y-21750000D01*
X25631200Y-21750000D02*
X28491200Y-21750000D01*
%TO.C,C7*%
X31944000Y-21030748D02*
X31944000Y-21553252D01*
X30524000Y-21030748D02*
X30524000Y-21553252D01*
%TO.C,C13*%
X50105000Y-25992748D02*
X50105000Y-26515252D01*
X48685000Y-25992748D02*
X48685000Y-26515252D01*
%TO.C,TX*%
X26525000Y-29250000D02*
X29385000Y-29250000D01*
X29385000Y-29250000D02*
X29385000Y-27330000D01*
X29385000Y-27330000D02*
X26525000Y-27330000D01*
%TO.C,RX*%
X26525000Y-26750000D02*
X29385000Y-26750000D01*
X29385000Y-26750000D02*
X29385000Y-24830000D01*
X29385000Y-24830000D02*
X26525000Y-24830000D01*
%TO.C,U1*%
D14*
X29952380Y-39011904D02*
X30761904Y-39011904D01*
X30857142Y-38964285D01*
X30904761Y-38916666D01*
X30952380Y-38821428D01*
X30952380Y-38630952D01*
X30904761Y-38535714D01*
X30857142Y-38488095D01*
X30761904Y-38440476D01*
X29952380Y-38440476D01*
X30952380Y-37440476D02*
X30952380Y-38011904D01*
X30952380Y-37726190D02*
X29952380Y-37726190D01*
X30095238Y-37821428D01*
X30190476Y-37916666D01*
X30238095Y-38011904D01*
%TO.C,U2*%
X40592380Y-38699904D02*
X41401904Y-38699904D01*
X41497142Y-38652285D01*
X41544761Y-38604666D01*
X41592380Y-38509428D01*
X41592380Y-38318952D01*
X41544761Y-38223714D01*
X41497142Y-38176095D01*
X41401904Y-38128476D01*
X40592380Y-38128476D01*
X40687619Y-37699904D02*
X40640000Y-37652285D01*
X40592380Y-37557047D01*
X40592380Y-37318952D01*
X40640000Y-37223714D01*
X40687619Y-37176095D01*
X40782857Y-37128476D01*
X40878095Y-37128476D01*
X41020952Y-37176095D01*
X41592380Y-37747523D01*
X41592380Y-37128476D01*
%TO.C,Y2*%
X43259523Y-30642380D02*
X42688095Y-30642380D01*
X42973809Y-30642380D02*
X42973809Y-29642380D01*
X42878571Y-29785238D01*
X42783333Y-29880476D01*
X42688095Y-29928095D01*
X43640476Y-29737619D02*
X43688095Y-29690000D01*
X43783333Y-29642380D01*
X44021428Y-29642380D01*
X44116666Y-29690000D01*
X44164285Y-29737619D01*
X44211904Y-29832857D01*
X44211904Y-29928095D01*
X44164285Y-30070952D01*
X43592857Y-30642380D01*
X44211904Y-30642380D01*
X44640476Y-30642380D02*
X44640476Y-29642380D01*
X44973809Y-30356666D01*
X45307142Y-29642380D01*
X45307142Y-30642380D01*
X45783333Y-30642380D02*
X45783333Y-29642380D01*
X45783333Y-30118571D02*
X46354761Y-30118571D01*
X46354761Y-30642380D02*
X46354761Y-29642380D01*
X46735714Y-29975714D02*
X47259523Y-29975714D01*
X46735714Y-30642380D01*
X47259523Y-30642380D01*
%TO.C,Y1*%
X65809523Y-43202380D02*
X65238095Y-43202380D01*
X65523809Y-43202380D02*
X65523809Y-42202380D01*
X65428571Y-42345238D01*
X65333333Y-42440476D01*
X65238095Y-42488095D01*
X66666666Y-42202380D02*
X66476190Y-42202380D01*
X66380952Y-42250000D01*
X66333333Y-42297619D01*
X66238095Y-42440476D01*
X66190476Y-42630952D01*
X66190476Y-43011904D01*
X66238095Y-43107142D01*
X66285714Y-43154761D01*
X66380952Y-43202380D01*
X66571428Y-43202380D01*
X66666666Y-43154761D01*
X66714285Y-43107142D01*
X66761904Y-43011904D01*
X66761904Y-42773809D01*
X66714285Y-42678571D01*
X66666666Y-42630952D01*
X66571428Y-42583333D01*
X66380952Y-42583333D01*
X66285714Y-42630952D01*
X66238095Y-42678571D01*
X66190476Y-42773809D01*
X67190476Y-43202380D02*
X67190476Y-42202380D01*
X67523809Y-42916666D01*
X67857142Y-42202380D01*
X67857142Y-43202380D01*
X68333333Y-43202380D02*
X68333333Y-42202380D01*
X68333333Y-42678571D02*
X68904761Y-42678571D01*
X68904761Y-43202380D02*
X68904761Y-42202380D01*
X69285714Y-42535714D02*
X69809523Y-42535714D01*
X69285714Y-43202380D01*
X69809523Y-43202380D01*
%TO.C,J6*%
X16928571Y-37830952D02*
X16928571Y-38592857D01*
X16547619Y-38211904D02*
X17309523Y-38211904D01*
X17547619Y-38926190D02*
X16547619Y-39259523D01*
X17547619Y-39592857D01*
X16547619Y-39926190D02*
X17214285Y-39926190D01*
X17547619Y-39926190D02*
X17500000Y-39878571D01*
X17452380Y-39926190D01*
X17500000Y-39973809D01*
X17547619Y-39926190D01*
X17452380Y-39926190D01*
X17214285Y-40402380D02*
X16547619Y-40402380D01*
X17119047Y-40402380D02*
X17166666Y-40450000D01*
X17214285Y-40545238D01*
X17214285Y-40688095D01*
X17166666Y-40783333D01*
X17071428Y-40830952D01*
X16547619Y-40830952D01*
X16928571Y-41307142D02*
X16928571Y-42069047D01*
%TO.C,RST*%
X15192380Y-22642380D02*
X14859047Y-22166190D01*
X14620952Y-22642380D02*
X14620952Y-21642380D01*
X15001904Y-21642380D01*
X15097142Y-21690000D01*
X15144761Y-21737619D01*
X15192380Y-21832857D01*
X15192380Y-21975714D01*
X15144761Y-22070952D01*
X15097142Y-22118571D01*
X15001904Y-22166190D01*
X14620952Y-22166190D01*
X15573333Y-22594761D02*
X15716190Y-22642380D01*
X15954285Y-22642380D01*
X16049523Y-22594761D01*
X16097142Y-22547142D01*
X16144761Y-22451904D01*
X16144761Y-22356666D01*
X16097142Y-22261428D01*
X16049523Y-22213809D01*
X15954285Y-22166190D01*
X15763809Y-22118571D01*
X15668571Y-22070952D01*
X15620952Y-22023333D01*
X15573333Y-21928095D01*
X15573333Y-21832857D01*
X15620952Y-21737619D01*
X15668571Y-21690000D01*
X15763809Y-21642380D01*
X16001904Y-21642380D01*
X16144761Y-21690000D01*
X16430476Y-21642380D02*
X17001904Y-21642380D01*
X16716190Y-22642380D02*
X16716190Y-21642380D01*
%TO.C,U3*%
X35298095Y-26717380D02*
X35298095Y-27526904D01*
X35345714Y-27622142D01*
X35393333Y-27669761D01*
X35488571Y-27717380D01*
X35679047Y-27717380D01*
X35774285Y-27669761D01*
X35821904Y-27622142D01*
X35869523Y-27526904D01*
X35869523Y-26717380D01*
X36250476Y-26717380D02*
X36869523Y-26717380D01*
X36536190Y-27098333D01*
X36679047Y-27098333D01*
X36774285Y-27145952D01*
X36821904Y-27193571D01*
X36869523Y-27288809D01*
X36869523Y-27526904D01*
X36821904Y-27622142D01*
X36774285Y-27669761D01*
X36679047Y-27717380D01*
X36393333Y-27717380D01*
X36298095Y-27669761D01*
X36250476Y-27622142D01*
%TO.C,U4*%
X49739026Y-31866522D02*
X50311446Y-32438942D01*
X50412461Y-32472614D01*
X50479805Y-32472614D01*
X50580820Y-32438942D01*
X50715507Y-32304255D01*
X50749179Y-32203240D01*
X50749179Y-32135896D01*
X50715507Y-32034881D01*
X50143087Y-31462461D01*
X51018553Y-31058400D02*
X51489957Y-31529805D01*
X50580820Y-30957385D02*
X50917538Y-31630820D01*
X51355270Y-31193087D01*
%TO.C,D13*%
X20875714Y-23912380D02*
X20875714Y-22912380D01*
X21113809Y-22912380D01*
X21256666Y-22960000D01*
X21351904Y-23055238D01*
X21399523Y-23150476D01*
X21447142Y-23340952D01*
X21447142Y-23483809D01*
X21399523Y-23674285D01*
X21351904Y-23769523D01*
X21256666Y-23864761D01*
X21113809Y-23912380D01*
X20875714Y-23912380D01*
X22399523Y-23912380D02*
X21828095Y-23912380D01*
X22113809Y-23912380D02*
X22113809Y-22912380D01*
X22018571Y-23055238D01*
X21923333Y-23150476D01*
X21828095Y-23198095D01*
X22732857Y-22912380D02*
X23351904Y-22912380D01*
X23018571Y-23293333D01*
X23161428Y-23293333D01*
X23256666Y-23340952D01*
X23304285Y-23388571D01*
X23351904Y-23483809D01*
X23351904Y-23721904D01*
X23304285Y-23817142D01*
X23256666Y-23864761D01*
X23161428Y-23912380D01*
X22875714Y-23912380D01*
X22780476Y-23864761D01*
X22732857Y-23817142D01*
%TO.C,PWR*%
X20756666Y-21372380D02*
X20756666Y-20372380D01*
X21137619Y-20372380D01*
X21232857Y-20420000D01*
X21280476Y-20467619D01*
X21328095Y-20562857D01*
X21328095Y-20705714D01*
X21280476Y-20800952D01*
X21232857Y-20848571D01*
X21137619Y-20896190D01*
X20756666Y-20896190D01*
X21661428Y-20372380D02*
X21899523Y-21372380D01*
X22090000Y-20658095D01*
X22280476Y-21372380D01*
X22518571Y-20372380D01*
X23470952Y-21372380D02*
X23137619Y-20896190D01*
X22899523Y-21372380D02*
X22899523Y-20372380D01*
X23280476Y-20372380D01*
X23375714Y-20420000D01*
X23423333Y-20467619D01*
X23470952Y-20562857D01*
X23470952Y-20705714D01*
X23423333Y-20800952D01*
X23375714Y-20848571D01*
X23280476Y-20896190D01*
X22899523Y-20896190D01*
%TO.C,TX*%
X21328095Y-27992380D02*
X21899523Y-27992380D01*
X21613809Y-28992380D02*
X21613809Y-27992380D01*
X22137619Y-27992380D02*
X22804285Y-28992380D01*
X22804285Y-27992380D02*
X22137619Y-28992380D01*
%TO.C,RX*%
X21923333Y-26452380D02*
X21590000Y-25976190D01*
X21351904Y-26452380D02*
X21351904Y-25452380D01*
X21732857Y-25452380D01*
X21828095Y-25500000D01*
X21875714Y-25547619D01*
X21923333Y-25642857D01*
X21923333Y-25785714D01*
X21875714Y-25880952D01*
X21828095Y-25928571D01*
X21732857Y-25976190D01*
X21351904Y-25976190D01*
X22256666Y-25452380D02*
X22923333Y-26452380D01*
X22923333Y-25452380D02*
X22256666Y-26452380D01*
%TD*%
M02*
