%TF.GenerationSoftware,KiCad,Pcbnew,(5.1.2-1)-1*%
%TF.CreationDate,2020-03-21T02:44:08+05:30*%
%TF.ProjectId,Uno rev2.0,556e6f20-7265-4763-922e-302e6b696361,rev?*%
%TF.SameCoordinates,Original*%
%TF.FileFunction,Legend,Bot*%
%TF.FilePolarity,Positive*%
%FSLAX46Y46*%
G04 Gerber Fmt 4.6, Leading zero omitted, Abs format (unit mm)*
G04 Created by KiCad (PCBNEW (5.1.2-1)-1) date 2020-03-21 02:44:08*
%MOMM*%
%LPD*%
G04 APERTURE LIST*
%ADD10C,0.120000*%
G04 APERTURE END LIST*
D10*
%TO.C,R6*%
X21040000Y-34286252D02*
X21040000Y-33763748D01*
X22460000Y-34286252D02*
X22460000Y-33763748D01*
%TO.C,R5*%
X22435000Y-29013748D02*
X22435000Y-29536252D01*
X21015000Y-29013748D02*
X21015000Y-29536252D01*
%TO.C,C14*%
X16490000Y-40036252D02*
X16490000Y-39513748D01*
X17910000Y-40036252D02*
X17910000Y-39513748D01*
%TO.C,C3*%
X35590000Y-37736252D02*
X35590000Y-37213748D01*
X37010000Y-37736252D02*
X37010000Y-37213748D01*
%TO.C,R2*%
X25644252Y-27576000D02*
X25121748Y-27576000D01*
X25644252Y-28996000D02*
X25121748Y-28996000D01*
%TO.C,R3*%
X25644252Y-25080000D02*
X25121748Y-25080000D01*
X25644252Y-26500000D02*
X25121748Y-26500000D01*
%TO.C,R4*%
X64210000Y-39701252D02*
X64210000Y-39178748D01*
X62790000Y-39701252D02*
X62790000Y-39178748D01*
%TO.C,R8*%
X25121748Y-24000000D02*
X25644252Y-24000000D01*
X25121748Y-22580000D02*
X25644252Y-22580000D01*
%TO.C,R7*%
X25736252Y-20080000D02*
X25213748Y-20080000D01*
X25736252Y-21500000D02*
X25213748Y-21500000D01*
%TO.C,C1*%
X26460000Y-37761252D02*
X26460000Y-37238748D01*
X25040000Y-37761252D02*
X25040000Y-37238748D01*
%TO.C,C2*%
X28710000Y-37736252D02*
X28710000Y-37213748D01*
X27290000Y-37736252D02*
X27290000Y-37213748D01*
%TO.C,C4*%
X37890000Y-39327748D02*
X37890000Y-39850252D01*
X39310000Y-39327748D02*
X39310000Y-39850252D01*
%TO.C,C5*%
X54321529Y-33126563D02*
X54690995Y-32757097D01*
X53317437Y-32122471D02*
X53686903Y-31753005D01*
%TO.C,C6*%
X39310000Y-35541252D02*
X39310000Y-35018748D01*
X37890000Y-35541252D02*
X37890000Y-35018748D01*
%TO.C,C8*%
X34334000Y-21157748D02*
X34334000Y-21680252D01*
X35754000Y-21157748D02*
X35754000Y-21680252D01*
%TO.C,C9*%
X60750000Y-41114748D02*
X60750000Y-41637252D01*
X62170000Y-41114748D02*
X62170000Y-41637252D01*
%TO.C,C10*%
X44210000Y-23204252D02*
X44210000Y-22681748D01*
X42790000Y-23204252D02*
X42790000Y-22681748D01*
%TO.C,C11*%
X60750000Y-37159748D02*
X60750000Y-37682252D01*
X62170000Y-37159748D02*
X62170000Y-37682252D01*
%TO.C,C12*%
X44210000Y-31604252D02*
X44210000Y-31081748D01*
X42790000Y-31604252D02*
X42790000Y-31081748D01*
%TD*%
M02*
